<?xml version="1.0" encoding="UTF-8" standalone="no"?>
<!-- Created with Inkscape (http://www.inkscape.org/) -->

<svg
   version="1.1"
   id="svg1"
   width="1671.5887"
   height="1668.478"
   viewBox="0 0 1671.5887 1668.478"
   xmlns="http://www.w3.org/2000/svg"
   xmlns:svg="http://www.w3.org/2000/svg">
  <defs
     id="defs1" />
  <g
     id="g1"
     transform="translate(-2230.6024,-2192.437)">
    <g
       id="g379"
       transform="translate(6610.6744,1724.6001)">
      <path
         id="path3"
         d="m -4124.6614,722.31767 c 3.16,-4.41333 4.76,-8.94667 8.9467,-11.88 4.1867,-2.93333 8.68,-3.73333 13.4,-4.34667 2.6933,-0.34666 5.2267,0.57334 6.8933,2.54667 5.4267,6.41333 8.6534,13.56 7.7067,22.34667 -1.92,17.86666 -12.64,31.32 -22.16,45.41333 -2.9867,4.41333 -7.2133,7.96 -9.3733,12.96 -1.4534,3.37333 -4.6267,4.96 -7.44,6.64 -3.7467,2.25333 -8.3467,0.70666 -9.6,-3.58667 -1.52,-5.22667 -5.64,-8.29333 -8.3734,-12.45333 -7.2133,-10.98667 -15.1066,-21.69333 -19.76,-34.13333 -2.2266,-5.98667 -4.9733,-11.74667 -5.4933,-18.49334 -1.3067,-17.04 10.1333,-20.28 21.6667,-19.48 10.64,0.74667 14.4533,3.77334 23.5866,14.46667"
         style="fill:#ffb200;fill-opacity:1;fill-rule:nonzero;stroke:none;stroke-width:0.133333" />
      <path
         id="path4"
         d="m -3289.408,542.86434 c 5.3866,-5.98667 9.2666,-12.46667 16.36,-16.12 13.0666,-6.74667 22.0933,-4.36 28.36,11.2 2.3866,5.93333 2.4,12.02667 -0.64,18 -4.96,9.72 -9.04,19.88 -15.9867,28.50667 -2.9733,3.69333 -4.56,8.32 -6.8267,12.45333 -3.3333,6.02667 -7.8533,10.97333 -11.9066,16.30667 -5.2267,6.89333 -10.6,6.78666 -15.84,-0.21334 -7.8134,-10.42666 -15.36,-21.22666 -19.9334,-33.49333 -3.0133,-8.09333 -5.0933,-16.69333 -6.28,-25.25333 -0.7066,-5.08 2.4134,-10.32 4.36,-15.05334 2.4134,-5.86666 18.1867,-6.50666 22.44,-1.62666 1.6667,1.92 3.0934,4.02666 5.8934,5.29333"
         style="fill:#4fd6c3;fill-opacity:1;fill-rule:nonzero;stroke:none;stroke-width:0.133333" />
      <path
         id="path5"
         d="m -3102.4881,656.251 c -1.2133,-7.86666 1.0134,-14.41333 6.4667,-20.14666 3.52,-3.70667 6.92,-5.02667 11.9333,-2.84 7.5467,3.29333 9.8,2.05333 11.9734,-5.78667 3.1333,-11.30666 11.24,-17.10666 22.04,-19.33333 9.6266,-1.98667 19.76,7.14667 20.4933,17.26667 0.76,10.50666 -2.68,19.94666 -6.9067,29.13333 -2.4266,5.28 -5.36,10.26666 -9.2666,14.88 -5.9067,7 -10.32,15.22666 -16.0267,22.41333 -4.1333,5.21333 -9.12,9.81333 -14.1333,14.22667 -3.24,2.85333 -7.32,1.82666 -8.84,-2.46667 -1.1867,-3.38667 -3.2267,-5.89333 -5.3734,-8.36 -9.7866,-11.28 -11.9866,-24.86667 -12.36,-38.98667"
         style="fill:#e186ff;fill-opacity:1;fill-rule:nonzero;stroke:none;stroke-width:0.133333" />
      <path
         id="path6"
         d="m -3547.5014,479.50434 c 5.3867,-0.0933 9.8,1.10667 12.3334,6.76 1.9733,4.41334 4.32,4.74667 6.3866,0.8 4.5467,-8.66666 13.3334,-11.77333 20.5867,-16.77333 4.8,-3.30667 10.7733,-2.73333 16.36,-1.4 1.92,0.45333 3.6133,1.49333 4.96,3.06667 7.24,8.41333 7.7333,18.58666 2.7467,28.74666 -6.8667,13.97333 -17.92,24.2 -29.0134,34.49333 -4.5333,4.21334 -8.9466,8.58667 -13.7733,12.44 -8.6,6.88 -16.7067,4.77334 -21.8,-5.16 -5.3333,-10.37333 -7.0933,-21.76 -9.9733,-32.88 -2.0934,-8.13333 -0.7467,-15.54666 1.4266,-23.03999 1.7867,-6.16 3.5467,-7.06667 9.76,-7.05334"
         style="fill:#ffb200;fill-opacity:1;fill-rule:nonzero;stroke:none;stroke-width:0.133333" />
      <path
         id="path7"
         d="m -3737.3947,542.34434 c 0.1333,10.36 -2.1067,18.53333 -6.6533,26.78667 -4.2534,7.70666 -9.1867,14.66666 -14.7067,21.29333 -5.5733,6.68 -11.9467,12.46667 -20.44,15.44 -5.2667,1.84 -7.8667,1.37333 -10.5067,-3.52 -6.24,-11.57333 -12.32,-23.22667 -18.1733,-34.98667 -2.0133,-4.02666 -2.76,-8.54666 -2.48,-13.16 0.2,-3.37333 -0.013,-6.66666 -0.68,-10.05333 -1.0533,-5.34667 0.7467,-9.93333 5.6267,-12.94667 4.88,-3 10.6533,-3.05333 14.92,0.37334 2.3866,1.92 5.0666,3.42666 7.0933,5.93333 3.5867,4.41333 4.6133,4.49333 8.1733,-0.30667 3.5867,-4.81333 7.8134,-8.76 12.5067,-12.37333 7.5333,-5.8 12.72,-4.94667 19.48,1.94667 4.8133,4.90666 6.5867,10.26666 5.84,15.57333"
         style="fill:#e186ff;fill-opacity:1;fill-rule:nonzero;stroke:none;stroke-width:0.133333" />
      <path
         id="path8"
         d="m -3991.9414,644.42434 c 1.6534,6.54666 -1.6133,12.34666 -4.8266,17.32 -6.9334,10.74666 -12.8534,22.33333 -22.7867,30.97333 -3.1333,2.72 -5.7467,6.21333 -7.96,9.74667 -1.72,2.73333 -3.5467,4.92 -6.3467,6.54666 -2.32,1.34667 -3.92,4.48 -7.2933,2.68 -3.56,-1.89333 -7.1067,-4.32 -7.5067,-8.53333 -0.6266,-6.69333 -3.7466,-12.28 -6.4,-18.18667 -6.16,-13.72 -9.76,-28.10666 -10.4666,-43.21333 -0.2134,-4.49333 1.2533,-7.34666 5.1333,-9.68 7.8533,-4.72 15.4933,-4.62666 22.64,0.97334 1.5333,1.21333 2.8133,2.76 4.2533,4.10666 4.9734,4.68 5.44,4.81333 9.3467,-1.21333 3.4933,-5.4 9.1733,-7.26667 14.3333,-9.96 2.3467,-1.21333 5.04,-0.49333 7.2934,0.90667 6.44,3.98666 12.2666,8.42666 10.5866,17.53333"
         style="fill:#fdf028;fill-opacity:1;fill-rule:nonzero;stroke:none;stroke-width:0.133333" />
      <path
         id="path9"
         d="m -3658.248,500.42434 c 5.52,-9.04 13.7066,-13.42666 22.2,-17.05333 12.6666,-5.4 20.2933,2.62667 21.68,14.16 0.9466,7.90667 -1.1067,15.62666 -5.6,22.46666 -9.08,13.78667 -17.3734,28.09334 -27.5334,41.16 -1.2133,1.54667 -2.2266,3.32 -3.68,4.57334 -3.3066,2.82666 -7.28,2.48 -10.4933,-0.52 -6.1867,-5.81334 -11.5067,-12.38667 -15.0267,-20.06667 -5.1333,-11.17333 -8.3733,-23 -9.1733,-35.29333 -0.48,-7.32 5.08,-15.06667 11.7467,-17.69333 3.2933,-1.29334 6.12,-0.0933 8.64,1.84 2.2266,1.70666 4.2133,3.70666 7.24,6.42666"
         style="fill:#ff77cb;fill-opacity:1;fill-rule:nonzero;stroke:none;stroke-width:0.133333" />
      <path
         id="path10"
         d="m -3923.008,641.23767 c -7.9467,-10.21333 -10.5067,-21.93333 -13.5867,-33.94666 -1.6133,-6.32 -1.2667,-12.58667 -2.52,-18.8 -1.3067,-6.4 4.12,-10.24 8.6933,-13.42667 3.7734,-2.64 8.0134,-3.24 12.4,0.32 2.48,2.01333 4.7467,5.78667 8.3067,5.14667 3.3467,-0.58667 4.3867,-4.84 6.96,-6.94667 5.84,-4.77333 11.4,-10.01333 19.84,-9.65333 10.0133,0.44 16.0667,6.58666 16.0267,16.62666 0,10.57334 -4.4134,19.68 -10.4,27.90667 -3.4667,4.74667 -6.52,9.77333 -10.16,14.45333"
         style="fill:#71e2ff;fill-opacity:1;fill-rule:nonzero;stroke:none;stroke-width:0.133333" />
      <path
         id="path11"
         d="m -2982.4214,729.51767 c 3.04,-7.62667 8.4933,-12.24 13.5733,-17.02667 9.0534,-8.53333 19.5334,-5.36 23.1867,6.53334 3.24,10.58666 1.3733,20.4 -3.8533,29.82666 -4.76,8.58667 -11.12,16.02667 -16.88,23.90667 -5.2267,7.17333 -10.2267,14.4 -17.08,20.09333 -4.64,3.85333 -7.5334,3.29333 -11.16,-1.54667 -2.7334,-3.65333 -4.5467,-7.78666 -5.7467,-12.10666 -1.6667,-5.98667 -4.7067,-11.38667 -6.8133,-17.16 -3.92,-10.8 -7.0934,-21.8 -6.7067,-33.52 0.1867,-5.62667 2.2533,-9.97333 7.6933,-11.88 5.1467,-1.8 9.84,-1.02667 13.76,3.38667 2.7867,3.12 6.08,5.78666 10.0267,9.49333"
         style="fill:#ff77cb;fill-opacity:1;fill-rule:nonzero;stroke:none;stroke-width:0.133333" />
      <path
         id="path12"
         d="m -3399.7414,500.98434 c 4.8,-6.48 10.1067,-10.94666 15.96,-14.88 5.7467,-3.86666 11.48,-2.66666 16.84,0.0933 5.4,2.77333 8,7.74666 7.64,14 -0.7466,12.89333 -3.88,24.79999 -13.3333,34.41333 -3.9333,4 -7.7733,8.26666 -10.72,12.98666 -4.48,7.22667 -12.4133,10.44 -17.8267,16.54667 -2.3466,2.65333 -5.8,1.45333 -8.44,-0.68 -3.1333,-2.56 -4.7066,-6.14667 -6.5466,-9.65333 -7.84,-14.85334 -13.0534,-30.30667 -12.36,-47.38667 0.2533,-6.22666 4.44,-13.45333 9.8666,-15.44 6.24,-2.28 10.8934,0.76 14.9067,5.21334 1.12,1.24 2.1467,2.56 4.0133,4.78666"
         style="fill:#fdf028;fill-opacity:1;fill-rule:nonzero;stroke:none;stroke-width:0.133333" />
      <path
         id="path13"
         d="m -3200.0081,572.18434 c -0.6266,-5.26667 1.28,-10.12 2.7067,-14.89333 2.6533,-8.82667 8.8267,-11.09334 16.6933,-6.2 4.8,3 9.0667,3.02666 13.04,-0.73334 12.2134,-11.56 27.3334,-1.70666 30.9334,9.38667 2.1333,6.53333 0.08,12.94667 -1.9067,18.82667 -3.8667,11.48 -10.5733,21.6 -18.5067,30.72 -5.08,5.84 -9.04,12.53333 -14.76,17.92 -4.4533,4.2 -7.12,4.58666 -10.92,-0.33334 -0.5066,-0.66666 -1.12,-1.36 -1.32,-2.13333 -2.48,-9.58667 -8.76,-17.45333 -11.68,-26.97333 -2.6133,-8.49334 -2.8933,-17.06667 -4.28,-25.58667"
         style="fill:#71e2ff;fill-opacity:1;fill-rule:nonzero;stroke:none;stroke-width:0.133333" />
      <path
         id="path14"
         d="m -2937.3681,1786.451 c -3.16,-4.4134 -4.7733,-8.9467 -8.9466,-11.8667 -4.1867,-2.9467 -8.68,-3.7467 -13.4,-4.36 -2.6934,-0.3467 -5.2267,0.5733 -6.9067,2.5467 -5.4133,6.4133 -8.64,13.56 -7.7067,22.3466 1.92,17.8667 12.6534,31.32 22.1734,45.4134 2.9866,4.4133 7.2133,7.96 9.3733,12.96 1.4533,3.3733 4.6267,4.96 7.4267,6.64 3.76,2.2533 8.36,0.7066 9.6133,-3.5734 1.52,-5.24 5.6267,-8.3066 8.36,-12.4666 7.2267,-10.9867 15.12,-21.6934 19.76,-34.1334 2.24,-5.9866 4.9733,-11.7466 5.4933,-18.48 1.32,-17.0533 -10.1333,-20.2933 -21.6533,-19.4933 -10.6533,0.7467 -14.4533,3.7733 -23.5867,14.4667"
         style="fill:#ffb200;fill-opacity:1;fill-rule:nonzero;stroke:none;stroke-width:0.133333" />
      <path
         id="path15"
         d="m -3145.1947,1941.9576 c -0.6267,3.8134 1.2933,7.7734 2.9333,12.04 4.1467,10.8134 10.12,20.68 15.88,30.5334 6.7467,11.52 14.8133,22.4 25.84,30.52 4.4133,3.2533 5.9467,3.04 9.5733,-1.52 1.1067,-1.3867 2.3334,-2.2934 3.7467,-3.2134 1.6267,-1.0533 3.3333,-2.3066 4.3733,-3.8933 11.5334,-17.5467 20.3067,-36.04 18.5734,-57.84 -0.6667,-8.4133 -5.2934,-13.3067 -13.5467,-15.0533 -2.0933,-0.44 -3.8267,0.2666 -5.6667,1.0666 -6.1733,2.6934 -12.24,5.2134 -16.6133,10.9734 -3.0933,4.1066 -5.28,3.24 -6.44,-2.04 -0.4667,-2.0534 -1.3333,-3.5467 -2.8267,-4.96 -3.4266,-3.2934 -6.76,-6.68 -10.0133,-10.1334 -5.7067,-6.0266 -8.9067,-6.88 -16.4267,-4.1466 -6.8533,2.4933 -9.1466,6 -9.3866,14.2666 -0.013,0.84 0,1.6934 0,3.4"
         style="fill:#4fd6c3;fill-opacity:1;fill-rule:nonzero;stroke:none;stroke-width:0.133333" />
      <path
         id="path16"
         d="m -3671.8347,2060.8643 c -5.3867,-5.9867 -9.2667,-12.4667 -16.36,-16.12 -13.0667,-6.7467 -22.0933,-4.36 -28.36,11.2 -2.4,5.92 -2.4,12.0267 0.64,18 4.96,9.72 9.04,19.88 15.9867,28.5067 2.9733,3.6933 4.56,8.32 6.8266,12.4533 3.3334,6.0267 7.8534,10.9733 11.9067,16.3067 5.2267,6.8933 10.6,6.7866 15.84,-0.2134 7.8133,-10.4266 15.36,-21.2266 19.9333,-33.4933 3.0134,-8.0933 5.0934,-16.6933 6.28,-25.2533 0.7067,-5.08 -2.4133,-10.32 -4.36,-15.0534 -2.4133,-5.8666 -18.1866,-6.5066 -22.44,-1.6266 -1.6666,1.92 -3.0933,4.0266 -5.8933,5.2933"
         style="fill:#4fd6c3;fill-opacity:1;fill-rule:nonzero;stroke:none;stroke-width:0.133333" />
      <path
         id="path17"
         d="m -3882.4747,1989.771 c 1.2133,-7.8667 -1,-14.4134 -6.4533,-20.1467 -3.5334,-3.7067 -6.92,-5.0267 -11.9467,-2.84 -7.5333,3.2933 -9.8,2.0533 -11.9733,-5.7867 -3.1334,-11.32 -11.2267,-17.12 -22.0267,-19.3333 -9.6267,-1.9867 -19.76,7.1467 -20.5067,17.2667 -0.76,10.5066 2.68,19.9466 6.92,29.1333 2.4267,5.28 5.36,10.2667 9.2534,14.88 5.9066,7 10.32,15.2267 16.0266,22.4133 4.1334,5.2134 9.1334,9.8134 14.1334,14.2267 3.24,2.8533 7.3333,1.8267 8.84,-2.4667 1.1866,-3.3866 3.24,-5.8933 5.3866,-8.36 9.7867,-11.28 11.9867,-24.8666 12.3467,-38.9866"
         style="fill:#e186ff;fill-opacity:1;fill-rule:nonzero;stroke:none;stroke-width:0.133333" />
      <path
         id="path18"
         d="m -3410.128,2058.5176 c -5.4,-0.093 -9.8134,1.1067 -12.3334,6.76 -1.9866,4.4134 -4.32,4.7467 -6.4,0.8 -4.5333,-8.6666 -13.3333,-11.7733 -20.5866,-16.7733 -4.8,-3.3067 -10.76,-2.7467 -16.36,-1.4 -1.9067,0.4533 -3.6,1.4933 -4.9467,3.0533 -7.2533,8.4267 -7.7467,18.6 -2.76,28.7467 6.88,13.9867 17.92,24.2133 29.0133,34.5067 4.5334,4.2 8.9467,8.5733 13.7734,12.4266 8.6133,6.88 16.72,4.7734 21.8133,-5.1466 5.32,-10.3867 7.08,-21.7734 9.96,-32.8934 2.1067,-8.12 0.7467,-15.5466 -1.4267,-23.0266 -1.7866,-6.16 -3.5466,-7.0667 -9.7466,-7.0534"
         style="fill:#ffb200;fill-opacity:1;fill-rule:nonzero;stroke:none;stroke-width:0.133333" />
      <path
         id="path19"
         d="m -3256.1014,1984.051 c -0.1333,10.36 2.1067,18.52 6.6534,26.7866 4.2533,7.7067 9.1866,14.6667 14.7199,21.2934 5.56,6.68 11.9334,12.4666 20.4267,15.44 5.2667,1.84 7.8667,1.3733 10.5067,-3.52 6.24,-11.5734 12.32,-23.2267 18.1733,-34.9867 2.0133,-4.04 2.76,-8.56 2.4933,-13.16 -0.2,-3.3733 0,-6.6667 0.6667,-10.0533 1.0533,-5.3467 -0.7467,-9.9334 -5.6267,-12.9467 -4.88,-3.0133 -10.6533,-3.0533 -14.92,0.3733 -2.3866,1.92 -5.0666,3.4267 -7.0933,5.9334 -3.5867,4.4133 -4.6133,4.4933 -8.1733,-0.3067 -3.5867,-4.8267 -7.8134,-8.7733 -12.5067,-12.3867 -7.5333,-5.7866 -12.72,-4.9466 -19.48,1.9467 -4.8133,4.92 -6.5866,10.28 -5.84,15.5867"
         style="fill:#e186ff;fill-opacity:1;fill-rule:nonzero;stroke:none;stroke-width:0.133333" />
      <path
         id="path20"
         d="m -3048.1014,1873.0376 c -1.6533,6.5467 1.6133,12.3467 4.8267,17.32 6.9333,10.7467 12.8533,22.3334 22.8,30.9734 3.1333,2.72 5.7333,6.2133 7.96,9.76 1.7066,2.72 3.5466,4.9066 6.3333,6.5333 2.32,1.3467 3.92,4.48 7.2933,2.68 3.56,-1.8933 7.1067,-4.32 7.5067,-8.5333 0.6267,-6.6934 3.76,-12.28 6.4133,-18.1867 6.1467,-13.72 9.7467,-28.1067 10.4667,-43.2133 0.2133,-4.4934 -1.2533,-7.3467 -5.1467,-9.68 -7.8533,-4.72 -15.4933,-4.6267 -22.6266,0.9733 -1.5467,1.2133 -2.8267,2.76 -4.2667,4.1067 -4.9733,4.68 -5.44,4.8266 -9.3467,-1.2134 -3.4933,-5.4 -9.16,-7.2666 -14.3333,-9.96 -2.3467,-1.2133 -5.04,-0.4933 -7.2933,0.9067 -6.44,3.9867 -12.2534,8.4267 -10.5867,17.5333"
         style="fill:#fdf028;fill-opacity:1;fill-rule:nonzero;stroke:none;stroke-width:0.133333" />
      <path
         id="path21"
         d="m -3318.3014,2036.6776 c -5.52,-9.04 -13.7066,-13.4133 -22.2,-17.04 -12.6666,-5.4133 -20.2933,2.6267 -21.68,14.16 -0.9466,7.8934 1.0934,15.6267 5.6,22.4534 9.0667,13.8 17.3734,28.1066 27.5334,41.16 1.2,1.5466 2.2133,3.32 3.68,4.5733 3.3066,2.8267 7.28,2.48 10.48,-0.52 6.2,-5.8 11.5066,-12.3733 15.04,-20.0533 5.12,-11.1734 8.3733,-23 9.1733,-35.3067 0.48,-7.3067 -5.08,-15.0667 -11.7467,-17.6933 -3.2933,-1.2934 -6.12,-0.08 -8.64,1.8533 -2.2266,1.6933 -4.2133,3.7067 -7.24,6.4133"
         style="fill:#ff77cb;fill-opacity:1;fill-rule:nonzero;stroke:none;stroke-width:0.133333" />
      <path
         id="path22"
         d="m -4029.6614,1939.7576 c -3.04,-7.6266 -8.4933,-12.24 -13.5733,-17.0266 -9.0533,-8.5334 -19.5333,-5.3734 -23.1867,6.5333 -3.24,10.5733 -1.3733,20.4 3.8534,29.8267 4.76,8.5866 11.1333,16.0133 16.88,23.9066 5.2266,7.16 10.2266,14.4 17.08,20.0934 4.64,3.8533 7.5333,3.2933 11.16,-1.56 2.7333,-3.64 4.5466,-7.7734 5.7466,-12.0934 1.6667,-5.9866 4.7067,-11.3866 6.8134,-17.16 3.92,-10.8 7.0933,-21.8 6.7066,-33.5333 -0.1866,-5.6133 -2.2533,-9.96 -7.6933,-11.8667 -5.1467,-1.8 -9.84,-1.04 -13.76,3.3867 -2.7867,3.12 -6.08,5.7867 -10.0267,9.4933"
         style="fill:#ff77cb;fill-opacity:1;fill-rule:nonzero;stroke:none;stroke-width:0.133333" />
      <path
         id="path23"
         d="m -3549.128,2060.3576 c -4.8134,-6.48 -10.1067,-10.9466 -15.96,-14.8666 -5.76,-3.8667 -11.48,-2.68 -16.84,0.08 -5.4,2.7733 -8.0134,7.7466 -7.64,14 0.7466,12.8933 3.8666,24.8133 13.3333,34.4133 3.92,4 7.7733,8.2667 10.72,13 4.48,7.2267 12.4133,10.44 17.8267,16.5467 2.3466,2.64 5.8,1.44 8.44,-0.6934 3.1333,-2.56 4.7066,-6.1466 6.5466,-9.6533 7.84,-14.8533 13.0534,-30.3067 12.36,-47.3867 -0.2666,-6.2266 -4.44,-13.44 -9.88,-15.44 -6.2266,-2.28 -10.88,0.76 -14.8933,5.2134 -1.12,1.24 -2.16,2.56 -4.0133,4.7866"
         style="fill:#fdf028;fill-opacity:1;fill-rule:nonzero;stroke:none;stroke-width:0.133333" />
      <path
         id="path24"
         d="m -3774.3947,2045.531 c 0.6267,-5.2667 -1.28,-10.12 -2.72,-14.9067 -2.6533,-8.8133 -8.8133,-11.08 -16.68,-6.1867 -4.8,2.9867 -9.08,3.0267 -13.0533,-0.7333 -12.2,-11.56 -27.3334,-1.7067 -30.9334,9.3867 -2.12,6.5333 -0.08,12.9333 1.92,18.8266 3.8667,11.4667 10.5734,21.6 18.5067,30.72 5.08,5.84 9.04,12.5334 14.76,17.92 4.4533,4.2 7.12,4.5867 10.9067,-0.3333 0.52,-0.6667 1.12,-1.36 1.3333,-2.1333 2.48,-9.5867 8.7467,-17.4667 11.68,-26.9734 2.6133,-8.4933 2.8933,-17.08 4.28,-25.5866"
         style="fill:#71e2ff;fill-opacity:1;fill-rule:nonzero;stroke:none;stroke-width:0.133333" />
      <path
         id="path25"
         d="m -4085.7547,1845.091 c 0.6267,3.8266 -1.2933,7.7866 -2.9333,12.0533 -4.1467,10.8 -10.1067,20.6667 -15.88,30.52 -6.7467,11.5333 -14.8134,22.4 -25.8267,30.52 -4.4267,3.2533 -5.9467,3.0533 -9.5867,-1.52 -1.1066,-1.3867 -2.32,-2.28 -3.7466,-3.2133 -1.6267,-1.0534 -3.32,-2.3067 -4.36,-3.88 -11.5467,-17.5467 -20.3067,-36.0534 -18.5867,-57.84 0.6667,-8.4267 5.3067,-13.32 13.5467,-15.0534 2.1066,-0.44 3.8266,0.2534 5.6666,1.0534 6.1734,2.6933 12.2534,5.2133 16.6134,10.9866 3.1066,4.0934 5.28,3.2267 6.4533,-2.04 0.4533,-2.0666 1.3333,-3.5466 2.8133,-4.9733 3.4267,-3.28 6.76,-6.68 10.0267,-10.1333 5.6933,-6.0267 8.8933,-6.8667 16.4133,-4.1334 6.8534,2.4934 9.16,5.9867 9.3867,14.2534 0.027,0.8533 0,1.6933 0,3.4"
         style="fill:#4fd6c3;fill-opacity:1;fill-rule:nonzero;stroke:none;stroke-width:0.133333" />
      <path
         id="path26"
         d="m -4336.1014,1177.8777 c 5.4,-5.9867 9.2667,-12.48 16.36,-16.1334 13.08,-6.7333 22.0934,-4.3466 28.3734,11.2 2.3866,5.9334 2.4,12.0267 -0.6534,18.0134 -4.9466,9.7066 -9.04,19.88 -15.9733,28.4933 -2.9867,3.7067 -4.56,8.3333 -6.84,12.4533 -3.32,6.0267 -7.8533,10.9867 -11.8933,16.3067 -5.24,6.8933 -10.6134,6.7867 -15.84,-0.2 -7.8267,-10.44 -15.36,-21.2267 -19.9467,-33.5067 -3.0133,-8.0933 -5.08,-16.6933 -6.2667,-25.24 -0.7066,-5.0933 2.4,-10.3333 4.36,-15.0666 2.4134,-5.8667 18.1734,-6.4934 22.44,-1.6134 1.6667,1.9067 3.08,4.0134 5.88,5.2934"
         style="fill:#4fd6c3;fill-opacity:1;fill-rule:nonzero;stroke:none;stroke-width:0.133333" />
      <path
         id="path27"
         d="m -4312.328,943.14433 c -1.2134,-7.86667 1.0133,-14.41333 6.4666,-20.14667 3.52,-3.70666 6.9067,-5.02666 11.9334,-2.84 7.5466,3.29334 9.8,2.05334 11.9733,-5.78666 3.1333,-11.30667 11.24,-17.10667 22.04,-19.33333 9.6133,-1.98667 19.76,7.14666 20.4933,17.26666 0.76,10.50667 -2.68,19.94667 -6.9066,29.13333 -2.44,5.28 -5.3734,10.26667 -9.2667,14.88 -5.9067,7 -10.32,15.22667 -16.0267,22.41334 -4.1333,5.21333 -9.12,9.81333 -14.1333,14.22666 -3.24,2.85334 -7.3333,1.82667 -8.84,-2.46666 -1.1867,-3.38667 -3.24,-5.89334 -5.3867,-8.36 -9.7866,-11.28 -11.9866,-24.86667 -12.3466,-38.98667"
         style="fill:#e186ff;fill-opacity:1;fill-rule:nonzero;stroke:none;stroke-width:0.133333" />
      <path
         id="path28"
         d="m -4356.488,1417.3977 c 5.4,-0.093 9.8,1.1066 12.3333,6.76 1.9733,4.4133 4.32,4.7466 6.3867,0.8 4.5466,-8.6667 13.3466,-11.7734 20.5866,-16.7734 4.8,-3.3066 10.7734,-2.7333 16.3734,-1.4 1.9066,0.4534 3.6,1.4934 4.9466,3.0667 7.24,8.4133 7.7467,18.5867 2.7467,28.7467 -6.8667,13.9733 -17.92,24.2 -29.0133,34.4933 -4.5334,4.2133 -8.9467,8.5867 -13.7734,12.44 -8.6,6.88 -16.7066,4.7733 -21.8,-5.16 -5.3333,-10.3733 -7.0933,-21.76 -9.96,-32.88 -2.1066,-8.1333 -0.76,-15.5467 1.4134,-23.04 1.7866,-6.1467 3.5466,-7.0667 9.76,-7.0533"
         style="fill:#ffb200;fill-opacity:1;fill-rule:nonzero;stroke:none;stroke-width:0.133333" />
      <path
         id="path29"
         d="m -4249.2614,1663.9176 c 0.1334,10.3734 -2.1066,18.5334 -6.6533,26.7867 -4.2533,7.7067 -9.1867,14.68 -14.7067,21.3067 -5.5733,6.6666 -11.9466,12.4533 -20.44,15.4266 -5.2666,1.8534 -7.8666,1.3867 -10.5066,-3.52 -6.24,-11.56 -12.32,-23.2133 -18.1734,-34.9733 -2.0133,-4.04 -2.76,-8.56 -2.48,-13.1733 0.2,-3.36 -0.013,-6.6534 -0.68,-10.0534 -1.0533,-5.3333 0.7467,-9.9333 5.6267,-12.9466 4.88,-3 10.6533,-3.0534 14.92,0.3866 2.3867,1.92 5.0667,3.4267 7.0933,5.92 3.5867,4.4267 4.6134,4.5067 8.1734,-0.2933 3.5866,-4.8267 7.8133,-8.7733 12.5066,-12.3867 7.5334,-5.8 12.72,-4.9466 19.48,1.9467 4.8134,4.9067 6.5867,10.28 5.84,15.5733"
         style="fill:#e186ff;fill-opacity:1;fill-rule:nonzero;stroke:none;stroke-width:0.133333" />
      <path
         id="path30"
         d="m -4300.7547,1535.9176 c 5.52,-9.04 13.7067,-13.4266 22.2,-17.0533 12.6667,-5.4 20.2933,2.6267 21.68,14.16 0.96,7.9067 -1.0933,15.6267 -5.6,22.4667 -9.0667,13.7866 -17.3733,28.0933 -27.5333,41.16 -1.2,1.5466 -2.2134,3.32 -3.68,4.5733 -3.3067,2.8267 -7.28,2.48 -10.48,-0.52 -6.2,-5.8 -11.5067,-12.3867 -15.04,-20.0667 -5.12,-11.16 -8.36,-23 -9.1734,-35.2933 -0.48,-7.32 5.0934,-15.0667 11.7467,-17.6933 3.2933,-1.2934 6.12,-0.08 8.6533,1.84 2.2134,1.7066 4.2,3.72 7.2267,6.4266"
         style="fill:#ff77cb;fill-opacity:1;fill-rule:nonzero;stroke:none;stroke-width:0.133333" />
      <path
         id="path31"
         d="m -4166.888,1745.0776 c 0,10.5734 -4.4134,19.68 -10.4,27.9067 -3.4667,4.7467 -6.52,9.7733 -10.16,14.4533 -5.9467,7.64 -12.9467,14.12 -19.8134,20.76 -7.0266,6.7867 -9.6133,5.44 -15.7466,-2.44 -7.9467,-10.2133 -10.5067,-21.92 -13.5867,-33.9466 -1.6133,-6.32 -1.2667,-12.5867 -2.52,-18.8 -1.3067,-6.4 4.12,-10.24 8.68,-13.4267 3.7867,-2.64 8.0267,-3.24 12.4133,0.32 2.48,2.0133 4.7467,5.7867 8.3067,5.16 3.3467,-0.6 4.3867,-4.8533 6.96,-6.96 5.84,-4.7733 11.4,-10.0133 19.84,-9.6533 10.0133,0.44 16.0667,6.5866 16.0267,16.6266"
         style="fill:#71e2ff;fill-opacity:1;fill-rule:nonzero;stroke:none;stroke-width:0.133333" />
      <path
         id="path32"
         d="m -4214.6747,804.251 c 3.04,-7.62667 8.4933,-12.24 13.5733,-17.01333 9.0534,-8.54667 19.5334,-5.37334 23.1867,6.52 3.24,10.58666 1.3733,20.4 -3.8533,29.84 -4.76,8.57333 -11.12,16.01333 -16.88,23.90666 -5.2267,7.16 -10.2267,14.4 -17.08,20.08 -4.64,3.85334 -7.5334,3.29334 -11.16,-1.54666 -2.7334,-3.64 -4.5467,-7.77334 -5.7467,-12.09334 -1.6533,-6 -4.7067,-11.4 -6.8,-17.17333 -3.9333,-10.78667 -7.1067,-21.8 -6.72,-33.52 0.1867,-5.61333 2.2533,-9.96 7.6933,-11.86667 5.16,-1.81333 9.84,-1.04 13.7734,3.37334 2.7733,3.13333 6.0666,5.8 10.0133,9.49333"
         style="fill:#ff77cb;fill-opacity:1;fill-rule:nonzero;stroke:none;stroke-width:0.133333" />
      <path
         id="path33"
         d="m -4351.2347,1308.9977 c 4.8133,-6.48 10.12,-10.9467 15.9733,-14.8667 5.7467,-3.8667 11.4667,-2.68 16.8267,0.08 5.4133,2.7733 8.0133,7.7467 7.6533,14 -0.76,12.8933 -3.88,24.8 -13.3333,34.4133 -3.9333,4 -7.7867,8.2667 -10.72,13 -4.4933,7.2134 -12.4133,10.44 -17.84,16.5467 -2.3467,2.64 -5.8,1.44 -8.4267,-0.6933 -3.1333,-2.56 -4.7066,-6.1467 -6.56,-9.6534 -7.84,-14.8533 -13.0533,-30.3066 -12.3466,-47.3866 0.2533,-6.2267 4.4266,-13.44 9.8666,-15.44 6.2267,-2.28 10.88,0.76 14.8934,5.2133 1.12,1.24 2.16,2.56 4.0133,4.7867"
         style="fill:#fdf028;fill-opacity:1;fill-rule:nonzero;stroke:none;stroke-width:0.133333" />
      <path
         id="path34"
         d="m -4350.4214,1062.651 c -0.6266,-5.2667 1.28,-10.12 2.7067,-14.8933 2.6667,-8.8267 8.8267,-11.0934 16.6933,-6.2 4.8,3 9.08,3.0266 13.0534,-0.7334 12.2,-11.56 27.32,-1.7066 30.92,9.3867 2.1333,6.5333 0.08,12.9467 -1.9067,18.8267 -3.8667,11.48 -10.5733,21.6 -18.5067,30.72 -5.08,5.84 -9.04,12.5333 -14.76,17.92 -4.4533,4.2 -7.12,4.5866 -10.9066,-0.3334 -0.52,-0.6666 -1.1334,-1.36 -1.3334,-2.1333 -2.48,-9.5867 -8.7466,-17.4533 -11.68,-26.9733 -2.6133,-8.4934 -2.8933,-17.0667 -4.28,-25.5867"
         style="fill:#71e2ff;fill-opacity:1;fill-rule:nonzero;stroke:none;stroke-width:0.133333" />
      <path
         id="path35"
         d="m -2837.7814,813.011 c 0.6267,3.82667 -1.2933,7.78667 -2.9333,12.05333 -4.1467,10.8 -10.12,20.68 -15.88,30.52 -6.7467,11.53334 -14.8134,22.4 -25.84,30.52 -4.4134,3.25334 -5.9467,3.05334 -9.5734,-1.52 -1.1066,-1.38666 -2.3333,-2.28 -3.7466,-3.2 -1.6267,-1.05333 -3.3334,-2.32 -4.3734,-3.89333 -11.5333,-17.54667 -20.3066,-36.05333 -18.5733,-57.84 0.6667,-8.42667 5.2933,-13.30667 13.5467,-15.05333 2.0933,-0.44 3.8266,0.25333 5.6666,1.06666 6.1734,2.68 12.24,5.2 16.6134,10.97334 3.0933,4.09333 5.28,3.22666 6.44,-2.04 0.4666,-2.06667 1.3333,-3.54667 2.8266,-4.97334 3.4267,-3.28 6.76,-6.68 10.0134,-10.13333 5.7066,-6.02667 8.9066,-6.86667 16.4266,-4.13333 6.8534,2.49333 9.1467,5.98666 9.3867,14.25333 0.013,0.85333 0,1.69333 0,3.4"
         style="fill:#4fd6c3;fill-opacity:1;fill-rule:nonzero;stroke:none;stroke-width:0.133333" />
      <path
         id="path36"
         d="m -2810.5681,1546.6643 c 5.4,-5.9733 9.2667,-12.4667 16.36,-16.12 13.08,-6.7467 22.0934,-4.36 28.3734,11.2 2.3866,5.9333 2.4,12.0267 -0.6534,18 -4.9466,9.72 -9.04,19.88 -15.9733,28.5067 -2.9867,3.6933 -4.56,8.3333 -6.84,12.4533 -3.32,6.0267 -7.8533,10.9733 -11.8933,16.3067 -5.24,6.8933 -10.6134,6.7866 -15.84,-0.2134 -7.8267,-10.4266 -15.36,-21.2266 -19.9334,-33.4933 -3.0266,-8.0933 -5.0933,-16.6933 -6.28,-25.2533 -0.7066,-5.08 2.4,-10.32 4.36,-15.0534 2.4134,-5.8666 18.1734,-6.5066 22.44,-1.6266 1.6667,1.92 3.08,4.0266 5.88,5.2933"
         style="fill:#4fd6c3;fill-opacity:1;fill-rule:nonzero;stroke:none;stroke-width:0.133333" />
      <path
         id="path37"
         d="m -2775.1547,1294.8777 c 5.4,-0.093 9.8,1.12 12.3333,6.76 1.9733,4.4266 4.32,4.76 6.3867,0.8 4.5466,-8.6667 13.3333,-11.7734 20.5866,-16.7734 4.8,-3.3066 10.7734,-2.7333 16.3734,-1.4 1.9066,0.4667 3.6,1.4934 4.9466,3.0667 7.24,8.4133 7.7467,18.6 2.7467,28.7467 -6.8667,13.9733 -17.92,24.2 -29.0133,34.4933 -4.5334,4.2133 -8.9467,8.5867 -13.7734,12.44 -8.6,6.88 -16.7066,4.7733 -21.8,-5.16 -5.3333,-10.3733 -7.0933,-21.76 -9.96,-32.88 -2.1066,-8.1333 -0.76,-15.5467 1.4134,-23.04 1.7866,-6.16 3.5466,-7.0667 9.76,-7.0533"
         style="fill:#ffb200;fill-opacity:1;fill-rule:nonzero;stroke:none;stroke-width:0.133333" />
      <path
         id="path38"
         d="m -2756.3281,1046.891 c 0.1334,10.36 -2.1066,18.52 -6.6533,26.7733 -4.2533,7.7067 -9.1867,14.68 -14.7067,21.3067 -5.5733,6.68 -11.9466,12.4667 -20.44,15.4267 -5.2666,1.8533 -7.8666,1.3866 -10.5066,-3.5067 -6.24,-11.5733 -12.32,-23.2267 -18.1734,-34.9867 -2.0133,-4.04 -2.76,-8.56 -2.48,-13.16 0.2,-3.3733 -0.013,-6.6666 -0.68,-10.0533 -1.0533,-5.3467 0.7467,-9.9467 5.6267,-12.9467 4.88,-3.0133 10.6533,-3.0533 14.92,0.3734 2.3867,1.92 5.0667,3.4266 7.0933,5.9333 3.5867,4.4133 4.6134,4.4933 8.1734,-0.3067 3.5866,-4.8266 7.8133,-8.7733 12.5066,-12.3866 7.5334,-5.7867 12.72,-4.9467 19.48,1.9466 4.8134,4.9067 6.5867,10.28 5.84,15.5867"
         style="fill:#e186ff;fill-opacity:1;fill-rule:nonzero;stroke:none;stroke-width:0.133333" />
      <path
         id="path39"
         d="m -2792.0481,1184.3843 c 5.5334,-9.04 13.7067,-13.4266 22.2,-17.0533 12.6667,-5.4 20.2934,2.6267 21.68,14.16 0.96,7.9067 -1.0933,15.6267 -5.5866,22.4667 -9.08,13.7866 -17.3734,28.0933 -27.5467,41.16 -1.2,1.5466 -2.2133,3.32 -3.68,4.56 -3.3067,2.84 -7.28,2.4933 -10.48,-0.5067 -6.2,-5.8133 -11.5067,-12.3867 -15.0267,-20.0667 -5.1333,-11.1733 -8.3733,-23 -9.1733,-35.2933 -0.48,-7.32 5.08,-15.0667 11.7467,-17.6933 3.28,-1.2934 6.1066,-0.093 8.64,1.84 2.2133,1.7066 4.2,3.7066 7.2266,6.4266"
         style="fill:#ff77cb;fill-opacity:1;fill-rule:nonzero;stroke:none;stroke-width:0.133333" />
      <path
         id="path40"
         d="m -2801.2347,933.971 c 0,10.58666 -4.4134,19.69333 -10.4,27.90666 -3.4534,4.74667 -6.52,9.78667 -10.1467,14.45334 -5.9467,7.65333 -12.96,14.12 -19.8267,20.76 -7.0266,6.8 -9.6133,5.4533 -15.7466,-2.44 -7.9334,-10.21334 -10.4934,-21.92 -13.5867,-33.94667 -1.6133,-6.30667 -1.2533,-12.57333 -2.52,-18.8 -1.3067,-6.38667 4.1333,-10.24 8.6933,-13.41333 3.7867,-2.64 8.0134,-3.24 12.4,0.32 2.48,2.01333 4.7467,5.78666 8.3067,5.14666 3.3467,-0.6 4.3867,-4.84 6.9733,-6.94666 5.84,-4.77334 11.4,-10.02667 19.8267,-9.65334 10.0133,0.44 16.08,6.58667 16.0267,16.61334"
         style="fill:#71e2ff;fill-opacity:1;fill-rule:nonzero;stroke:none;stroke-width:0.133333" />
      <path
         id="path41"
         d="m -2846.7814,1695.811 c 3.04,-7.6267 8.4933,-12.24 13.5733,-17.0267 9.0534,-8.5333 19.5334,-5.36 23.1867,6.5333 3.2533,10.5867 1.3733,20.4 -3.8533,29.8267 -4.76,8.5867 -11.12,16.0267 -16.88,23.9067 -5.2267,7.16 -10.2267,14.4 -17.08,20.0933 -4.6267,3.8533 -7.5334,3.2933 -11.16,-1.5467 -2.7334,-3.6533 -4.5467,-7.7866 -5.7467,-12.1066 -1.6533,-5.9867 -4.7067,-11.3867 -6.8,-17.16 -3.9333,-10.8 -7.1067,-21.8 -6.72,-33.52 0.1867,-5.6267 2.2533,-9.9734 7.6933,-11.88 5.16,-1.8 9.8534,-1.0267 13.7734,3.3866 2.7733,3.12 6.0666,5.7867 10.0133,9.4934"
         style="fill:#ff77cb;fill-opacity:1;fill-rule:nonzero;stroke:none;stroke-width:0.133333" />
      <path
         id="path42"
         d="m -2789.6347,1423.9577 c 4.8133,-6.48 10.12,-10.9467 15.96,-14.8667 5.76,-3.8667 11.48,-2.6667 16.84,0.08 5.4133,2.7867 8.0133,7.7467 7.6533,14 -0.76,12.8933 -3.88,24.8133 -13.3333,34.4267 -3.9334,3.9866 -7.7867,8.2533 -10.72,12.9866 -4.4934,7.2267 -12.4267,10.44 -17.84,16.5467 -2.3467,2.6533 -5.8,1.4533 -8.4267,-0.6933 -3.1467,-2.5467 -4.7067,-6.1467 -6.56,-9.6534 -7.84,-14.8533 -13.0533,-30.3066 -12.3467,-47.3866 0.2534,-6.2267 4.4267,-13.44 9.8667,-15.4267 6.2267,-2.28 10.88,0.7467 14.8933,5.2 1.12,1.2533 2.16,2.5733 4.0134,4.7867"
         style="fill:#fdf028;fill-opacity:1;fill-rule:nonzero;stroke:none;stroke-width:0.133333" />
    </g>
  </g>
</svg>
