<?xml version="1.0" encoding="UTF-8" standalone="no"?>
<!-- Created with Inkscape (http://www.inkscape.org/) -->

<svg
   version="1.1"
   id="svg1"
   width="1696.6462"
   height="1708.4927"
   viewBox="0 0 1696.6462 1708.4926"
   xmlns="http://www.w3.org/2000/svg"
   xmlns:svg="http://www.w3.org/2000/svg">
  <defs
     id="defs1" />
  <g
     id="g1"
     transform="translate(-2172.3275,-2159.9107)">
    <g
       id="g377"
       transform="translate(8463.6546,-2090.1893)">
      <path
         id="path213"
         d="m -5529.6973,4314.7176 c 6.7106,3.5866 11.8773,5.16 16.3386,4.9066 9.4294,-0.52 18.796,3.9334 28.304,-0.28 4.22,-1.8666 8.4254,0.6934 9.1654,4.0934 0.836,3.8533 -1.6574,7.9066 -6.204,8.9466 -9.9254,2.2534 -19.884,3.5867 -30.1014,1.1734 -6.628,-1.5734 -13.5986,-1.44 -21.6786,-5.04 3.444,9.24 8.1573,15.0933 13.712,20.3866 2.5106,2.4 5.4506,4.32 7.1773,7.5334 1.8213,3.3866 2.6587,6.8266 -0.544,9.5066 -3.0867,2.5734 -6.6347,1.9467 -9.46,-0.8533 -3.704,-3.68 -7.84,-6.9733 -10.512,-11.6 -0.8787,-1.52 -2.016,-3.12 -4.04,-2.68 -2.0347,0.4533 -2.02,2.6 -2.6973,4.1467 -1.46,3.3466 -0.7334,6.8933 -1.056,10.3466 -0.6014,6.4 -3.4014,9.8667 -8.4054,10.7334 -2.3346,0.4133 -4.7333,0.6 -6.508,-1.3867 -1.9786,-2.2267 -1.996,-4.8667 -0.6866,-7.3333 3.552,-6.68 3.432,-13.8134 3.2253,-21.6534 -4.9587,1.08 -7.7373,4.3467 -10.6,7.36 -2.8027,2.96 -5.368,6.1334 -8.0987,9.16 -1.1666,1.28 -2.3266,2.6934 -3.7733,3.6 -2.9373,1.8134 -6.1813,2.3334 -8.6973,-0.5866 -2.1534,-2.5067 -2.0774,-5.7067 0.1786,-7.9867 5.9134,-5.96 9.1494,-14.0933 16.3507,-19.0933 3.6413,-2.5334 8.7507,-6.2134 7.772,-10.6267 -1.1693,-5.2533 -7.8853,-4.2267 -12.0907,-4.52 -9.8146,-0.7067 -19.5213,-3.32 -29.5053,-1.8933 -3.312,0.4666 -6.5067,-0.4134 -7.2707,-4.5334 -0.7053,-3.8 1.296,-6.2 4.5014,-7.56 6.7013,-2.8266 13.7253,-1.68 20.6373,-1.1466 4.328,0.3333 8.6067,1.2666 12.9267,1.7733 1.62,0.2 3.64,0.68 4.4986,-1.4267 0.6494,-1.6 -0.6386,-2.6933 -1.5426,-3.8 -4.5294,-5.5333 -6.5347,-12.24 -8.676,-18.84 -1.576,-4.8533 -0.476,-7.48 2.9106,-8.76 4.3894,-1.6666 7.9374,-0.36 9.5694,4.4667 1.9053,5.6533 5.744,10.08 8.4293,15.2133 0.724,1.3867 1.544,3.48 3.8387,2.5467 1.5946,-0.64 1.4173,-2.3067 1.528,-3.7333 0.6066,-7.8 1.2066,-15.5867 1.8693,-23.3867 0.3693,-4.32 0.908,-8.64 1.268,-12.96 0.2373,-2.8533 1.868,-4.8267 3.7987,-6.6533 2.0666,-1.9467 4.5146,-2.8267 7.192,-1.64 2.6186,1.16 2.7733,3.92 2.3213,6.0533 -1.8133,8.56 -0.48,17.48 -2.76,25.8933 -1.3907,5.1467 -0.3467,9.7867 0.9987,14.5467 1.1213,3.96 2.7626,4.6667 5.124,1.8133 7.644,-9.24 17.968,-15.6 25.8266,-24.5733 0.764,-0.8667 1.5027,-1.84 2.4467,-2.4667 3.3253,-2.24 8.3,-1.2533 10.9933,2.0534 2.7,3.3066 2.252,6.3066 -2.172,9.48 -10.3866,7.48 -17.804,18.2533 -28.56,25.3066 -2.164,1.4134 -4.0293,3.28 -7.2626,5.9734"
         style="fill:#fdf028;fill-opacity:1;fill-rule:nonzero;stroke:none;stroke-width:0.133333" />
      <path
         id="path214"
         d="m -5795.8053,4349.7976 c 4.0986,-3.84 7.852,-7.32 11.5746,-10.84 1.8987,-1.8 3.6107,-3.8134 5.6427,-5.44 3.692,-2.9467 7.4453,-2.76 10.1427,0.2133 2.328,2.56 1.9866,6.0533 -0.9854,9.3733 -0.5733,0.64 -1.3573,1.08 -2.0213,1.64 -7.5653,6.4134 -12.392,15.0667 -19.6613,22.5867 3.2853,2.08 6.1066,3.0533 8.8426,2.3067 10.5667,-2.9067 21.2427,-0.8 31.8574,-1.0934 1.4306,-0.04 2.9173,0.1067 4.2986,0.4667 2.3787,0.64 4.2574,1.92 4.476,4.6933 0.18,2.2667 -0.884,3.7734 -2.6453,5.1334 -3.7067,2.8533 -8.104,3.2933 -12.4307,3.4533 -7.2093,0.2667 -14.436,0.093 -21.6546,0 -1.4654,-0.013 -2.892,-0.24 -4.3787,0.8533 0.1747,3.56 3.2933,5.1334 5.476,7.2 4.4253,4.2134 9.1093,8.1334 13.6307,12.24 1.924,1.7467 3.972,3.4267 4.2546,6.36 0.2987,3.1067 -0.1906,5.8934 -3.0226,7.64 -3.0054,1.8534 -5.5974,0.6 -7.86,-1.5466 -4.4387,-4.1867 -8.924,-8.3467 -13.18,-12.72 -2.468,-2.5334 -5.2934,-4.4134 -9.3227,-6.6267 -0.5333,8.2533 0.8027,15.8667 1.4933,23.4267 0.556,6.1066 -0.6093,12.12 0.1094,18.24 0.4893,4.16 -3.212,7.6266 -6.7147,7.8533 -3.5667,0.2133 -6.3933,-2.76 -6.5347,-7.68 -0.2826,-9.8267 -0.1746,-19.6533 -0.3786,-29.48 -0.076,-3.68 0.8733,-8.8533 -3.1454,-10.0667 -3.8893,-1.1733 -6.192,3.6934 -8.0946,6.6134 -3.9387,6.0533 -9.5934,10.7733 -12.9227,17.2933 -1.3973,2.7333 -4.516,3.6133 -7.416,4.12 -3.3707,0.5733 -6.616,-0.08 -8.2427,-3.4 -1.528,-3.12 0.5014,-5.36 2.5667,-7.64 7.1893,-7.9467 12.468,-17.4133 19.8453,-25.2533 1.0867,-1.1467 2.272,-2.9467 1.3494,-4.7467 -0.9947,-1.9467 -3.048,-1.3067 -4.676,-1.1467 -5.2054,0.4934 -10.4707,-0.1466 -15.6454,1.1467 -4.9453,1.24 -9.6746,-1.1867 -14.5973,-1.4267 -4.1253,-0.1866 -5.4893,-5.48 -2.5333,-8.7866 2.3586,-2.6267 5.3253,-4.2667 9.1893,-4.08 9.8173,0.48 19.4947,-0.8934 29.896,-2.4 -2.5907,-5.3067 -7.096,-8.0534 -10.7307,-11.5067 -4.2106,-4 -8.704,-7.7067 -13.088,-11.5333 -2.9253,-2.5467 -4.572,-5.4134 -2.004,-9.0934 2.5227,-3.6133 5.872,-3.1866 9.316,-1.56 2.656,1.24 4.9307,2.9334 6.896,5.2134 4.1854,4.84 9.0667,8.8933 15.524,12.0933 3.1094,-7.28 2.236,-14.52 0.7387,-21.4 -1.1293,-5.1867 -1.3133,-10.36 -1.9747,-15.5333 -0.3386,-2.6534 -0.5053,-5.44 2.312,-6.9467 2.62,-1.4 5.1307,-0.16 7.448,1.0533 3.5454,1.8534 4.28,5.0934 4.3854,8.84 0.1986,6.9734 0.7386,13.9467 1.1106,20.92 0.2,3.76 0.7974,7.36 3.4854,10.9734"
         style="fill:#ffb200;fill-opacity:1;fill-rule:nonzero;stroke:none;stroke-width:0.133333" />
      <path
         id="path215"
         d="m -6037.216,4501.5042 c 2.0027,-11.1733 3.2494,-21.5333 2.8054,-32.0133 -0.176,-4.1733 0.7946,-8.0667 2.1173,-11.9333 0.7707,-2.2534 1.8907,-4.2934 3.9507,-5.6 2.3613,-1.4934 4.9293,-1.9067 7.4266,-0.4534 2.716,1.5867 2.9227,4.1067 2.068,6.8667 -4.544,14.6267 -1.904,29.88 -3.8653,44.7333 -0.2453,1.8534 0.4733,3.84 0.808,6.2134 4.7787,-1.2267 7.528,-4.2667 9.9747,-7.4134 4.744,-6.1066 11.436,-9.7733 17.3826,-14.36 2.3534,-1.8266 5.1947,-3.08 7.944,-0.64 2.9334,2.6134 0.9254,5.3467 -0.1626,7.96 -0.9014,2.16 -2.0987,4.1067 -4.1974,5.4134 -5.9173,3.6933 -8.8466,10.5066 -15.0306,13.6666 1.3813,3.0934 3.584,2.1867 5.5173,2.16 6.0747,-0.053 12.1613,-1.0266 18.212,0.5067 2.3293,0.6 4.5613,-0.2533 6.8067,-0.9867 3.524,-1.1333 6.3066,0.1334 8.0933,3.32 2.152,3.8534 -0.6093,6.3734 -3.132,8.0134 -5.8027,3.7866 -12.5827,3.4933 -19.1253,2.88 -3.8054,-0.36 -7.52,-0.5067 -11.284,0.013 -1.2507,0.16 -2.2827,0.7067 -2.3467,2.0533 -0.059,1.2267 0.6347,2.52 1.752,2.7334 6.76,1.2933 11.052,7.24 17.692,9 4.8947,1.2933 6.5587,5.12 5.0333,8.5066 -1.6893,3.76 -7.032,5.68 -11.1373,3.76 -9.1867,-4.2933 -17.8453,-9.4533 -25.516,-16.1733 -1.2533,-1.0933 -2.2947,-2.7067 -4.9133,-2.6267 -0.884,4.52 -3.1534,8.9467 -0.3827,13.84 0.484,0.8667 0.188,2.3067 -0.076,3.4134 -2.188,9.1066 -1.6293,18.3333 -1.2467,27.5466 0.036,0.88 0.052,1.7467 0.028,2.6267 -0.076,2.8533 -1.0586,5.3067 -4.084,5.9333 -3.2706,0.68 -5.6453,-1.1066 -7.148,-3.8533 -1.2973,-2.3733 -0.984,-5.1067 -1.1133,-7.7067 -0.464,-9.2933 -0.808,-18.6 -1.224,-27.8933 -0.063,-1.4 0.2147,-2.9067 -1.204,-4.1467 -2.9267,-0.3866 -4.488,1.7734 -6.2333,3.7067 -3.3174,3.6533 -6.6947,7.2667 -10.0507,10.8933 -2.5933,2.8 -5.5733,3.24 -8.4827,0.7734 -2.6693,-2.2667 -2.536,-5.5867 -0.5626,-7.8667 4.7266,-5.4533 7.972,-12.2133 13.8373,-16.5867 3.4733,-2.6 5.3,-5.9066 7.0467,-10.5066 -5.2027,-0.96 -10.3894,-1.4 -14.6347,0.52 -6.8267,3.08 -14.308,1.4266 -21.0227,4.1466 -0.516,0.2 -1.152,0.1067 -1.7306,0.1734 -3.5454,0.3866 -6.4174,-0.4 -7.3814,-4.3467 -0.9026,-3.6933 0.8067,-5.8 5.0507,-7.68 10.4893,-4.6533 22.0027,-4.4 33.252,-7.28 -0.668,-3.8533 -4.28,-5.1733 -6.512,-7.56 -3.208,-3.4 -6.6253,-6.6267 -7.2973,-11.5733 -0.3654,-2.68 -0.2054,-5.3734 2.46,-6.9467 2.6466,-1.56 5.084,-0.64 7.1666,1.2533 2.7667,2.5334 6.2494,4.4667 7.5987,8.24 1.124,3.1334 3.4427,4.4134 7.0733,5.28"
         style="fill:#ff77cb;fill-opacity:1;fill-rule:nonzero;stroke:none;stroke-width:0.133333" />
      <path
         id="path216"
         d="m -5305.9747,4341.0376 c -1.3066,8.8533 0.3894,16.24 0.4627,23.6533 0.055,5.56 -3.2667,8.1867 -8.168,6.4133 -2.4693,-0.88 -3.5147,-2.7866 -3.7787,-5.3466 -0.2386,-2.2934 -0.628,-4.6 -1.152,-6.8667 -0.448,-1.92 1.0267,-4.08 -1.008,-6.1067 -3.78,1.1867 -5.7653,4.3734 -7.5293,7.64 -1.7787,3.28 -4.6907,5.0534 -7.8093,6.6934 -2.1494,1.1333 -4.2614,2 -6.4294,0.053 -2.1866,-1.96 -2.844,-4.3467 -1.8533,-7.0933 0.4893,-1.36 0.9307,-2.9067 1.8787,-3.9067 5.376,-5.68 9.052,-12.7733 15.088,-17.8933 0.8826,-0.7334 1.7333,-1.5734 2.388,-2.52 1.6746,-2.4134 3.5506,-5.1067 1.884,-8.0134 -1.696,-2.96 -4.6974,-1.12 -7.1534,-0.9333 -7.5826,0.5733 -14.3493,4.52 -21.928,5.2533 -6.9453,0.68 -13.464,2.8 -19.8373,5.8134 -4.604,2.1866 -8.1507,-1.2134 -6.9947,-6.08 0.684,-2.88 1.8654,-5.7467 4.748,-7 5.0227,-2.1867 9.8267,-5.4934 15.6067,-5.0134 8.1547,0.6667 14.952,-4.4933 22.868,-4.9066 2.8347,-0.1467 2.712,-2.7334 1.4813,-4.6534 -1.0853,-1.6933 -2.456,-3.3466 -4.064,-4.52 -6.4773,-4.7333 -11.3946,-11.3466 -18.928,-14.8933 -4.9026,-2.3067 -4.4426,-7.5067 0.3694,-10.12 4.2026,-2.2933 8.0053,-1.0133 11.3826,1.5733 4.8227,3.68 9.4387,7.64 14.0574,11.5867 1.1346,0.9733 2.1333,2.16 3.7146,1.5067 2.048,-0.84 1.6427,-2.8134 1.64,-4.5067 0,-0.5733 -0.04,-1.2 -0.256,-1.72 -3.7386,-9.04 -1.4,-18.8533 -3.556,-28.12 -0.7906,-3.4 1.78,-5.3733 4.904,-6.0933 3.9574,-0.9067 8.288,1.92 9.144,6.16 0.572,2.8266 0.624,5.7733 0.7547,8.68 0.3133,6.9733 0.34,13.9333 2.3533,20.7466 1.3,4.4 -2.24,9.1467 0.8267,13.6267 1.0453,1.5333 0.436,4.2933 3.2933,4.4 2.1067,0.08 2.7054,-1.7867 3.7654,-3.1467 5.6813,-7.3066 12.568,-13.6266 17.432,-21.6266 1.3626,-2.24 2.9333,-4.1334 3.1746,-6.96 0.3027,-3.5467 2.648,-4.9734 6.1454,-4.4134 4.6386,0.7334 7.6573,3.6267 6.9546,7.36 -0.6906,3.68 -1.8066,7.2934 -4.776,10.0667 -3.6506,3.4 -6.2813,7.6667 -8.7106,11.96 -1.9174,3.3867 -0.32,5.6667 3.6066,5.3333 3.1267,-0.2533 6.4814,-0.013 9.2147,-2.1333 1.408,-1.0933 2.9467,-1.8 4.7267,-2.0933 4.5533,-0.7467 8.6306,0.9733 9.4053,4.3066 0.9267,3.9734 -1.864,6.1067 -4.7973,7.3467 -6.6587,2.8133 -13.4534,5.3867 -20.7587,6.0533 -3.4787,0.32 -6.9667,0.5334 -10.448,0.8267 -2.328,0.2 -4.9147,0.2533 -5.9987,2.76 -1.072,2.48 0.6467,4.2933 2.032,6.24 3.5254,4.9333 8.224,8.2533 13.9734,9.7467 3.34,0.8666 5.5666,2.9466 8.0013,5 3.0267,2.5466 4.5227,5.3866 1.9293,9.04 -2.0973,2.96 -7.112,4.4266 -10.164,1.7733 -6.8466,-5.9333 -16.6573,-6.6133 -23.108,-14.9333"
         style="fill:#4fd6c3;fill-opacity:1;fill-rule:nonzero;stroke:none;stroke-width:0.133333" />
      <path
         id="path217"
         d="m -5072.1947,4388.4109 c 10.12,1.4133 19.5867,0.8933 29.04,0.8933 1.4534,0 2.92,-0.093 4.36,0 2.6134,0.1867 4.4,1.5067 4.9067,4.1467 0.4933,2.5733 -0.6267,4.5067 -2.8133,5.8667 -2.8134,1.7466 -5.92,2.2533 -9.1734,2.3866 -6.3466,0.2534 -12.6933,0.64 -19.6933,1 2.4267,7.3067 9.2133,9.32 13.3733,13.8134 1.5334,1.6533 3.92,2.4266 4.92,4.7733 1.0934,2.6 1.5734,5.16 -0.6133,7.28 -2.16,2.08 -4.4667,3.28 -7.76,1.3867 -4.8,-2.7467 -9.6267,-5.24 -13.68,-9.1867 -2.8667,-2.8 -4.3467,-2.12 -5.1333,1.72 -0.9334,4.56 -1.7867,9.1733 -0.9467,13.84 0.6533,3.6 -0.2667,6.92 -1.3067,10.2533 -1.0266,3.2667 -2.6666,5.9734 -6.6933,5.52 -3.92,-0.44 -6.0667,-3.56 -5.8933,-8.12 0.2933,-7.52 1.76,-14.9733 1.1866,-22.5466 -0.36,-4.6267 -0.5066,-9.2667 -0.7733,-14.5067 -4.44,4.7467 -8.5067,9.0533 -12.52,13.4133 -2.3067,2.52 -4.64,4.2534 -8.36,2.6267 -4.6,-2.0267 -5.5067,-4.6533 -2.5333,-8.76 3.0133,-4.1867 6.0933,-8.3467 9.5066,-13 -3.3466,-1.96 -6.3333,-3.08 -9.4266,-2.88 -11.3334,0.72 -22.56,-0.5733 -33.8134,-1.3733 -2.1866,-0.16 -3.8666,1.16 -5.8666,1.4 -4.2534,0.52 -8.3334,-1.8134 -8.9734,-5.12 -0.72,-3.6534 2.56,-8.04 6.8934,-8.4267 5.7866,-0.5333 11.72,-1.3467 17.4,-0.5867 11.7466,1.56 23.5066,1.6 35.08,2.3734 1.16,-2.4134 -0.067,-4.28 -1.2134,-5.04 -6.1066,-4.0267 -8.6933,-11.5867 -15.3333,-15.04 -1.24,-0.64 -2.2133,-1.8667 -3.2533,-2.88 -3.5334,-3.4934 -4.4267,-7.24 -2.4267,-9.9467 1.9467,-2.64 8.1467,-3.6533 11.1733,-1.0267 4.5467,3.9334 9.8667,7.1734 12.68,12.96 2.4667,5.0934 7.1734,8.0667 12.6667,12.6667 -1.92,-16.44 2.3067,-31.0533 0.6,-45.88 -0.2533,-2.1733 0.6133,-4.6 1.4267,-6.7333 1,-2.6267 3.0666,-4.24 6.0533,-4.16 3.16,0.093 4.12,2.2533 5.2267,4.8933 2.68,6.3467 1.16,12.5867 -0.013,18.76 -0.8133,4.2667 -0.067,8.0667 1.4134,11.9067 0.8933,2.32 2.3866,2.0933 4.04,0.8 1.9066,-1.48 2.8133,-3.64 3.9333,-5.68 1.96,-3.5467 3.9333,-7.1334 6.2533,-10.44 1.9067,-2.6934 5.0134,-2.8934 7.9467,-2.1467 3.1067,0.7867 3.2267,3.5733 3.72,6.2267 1.1333,6.12 -3.16,9.7466 -6.2533,13.7333 -4.96,6.3867 -10.3867,12.4133 -15.7067,18.52 -2.4133,2.7867 -3.12,6.0667 -3.6267,10.32"
         style="fill:#71e2ff;fill-opacity:1;fill-rule:nonzero;stroke:none;stroke-width:0.133333" />
      <path
         id="path218"
         d="m -4880.0613,4496.6109 c 2.32,-1.6667 2.7333,-3.6933 2.9466,-5.64 1.2,-11.44 2.3867,-22.8933 3.3867,-34.3467 0.32,-3.68 0.7467,-7.2 5.0133,-8.08 3,-0.6266 6.4,3.1067 6.8667,7.68 0.7067,6.96 -0.52,13.8534 -1.3467,20.7467 -0.8,6.6533 -0.8266,13.24 0.4934,19.8533 3.1733,0.4667 4.1866,-2.1466 5.44,-3.7733 4.64,-6.0667 12.7066,-7.8267 17.2133,-14.2667 1.7733,-2.5333 5.4533,-0.96 7.72,1.2534 2.4133,2.3333 3.0133,5.28 0.7333,7.8 -3.5066,3.8533 -6.3466,8.5733 -11.0266,11.0533 -7.6267,4.0533 -12.2934,11.08 -19.7867,17.72 9.6667,0.3467 17.4,3.5733 25.76,2.92 4.3733,-0.3333 8.0667,1.0267 10.56,4.8133 2.52,3.84 1.0533,7.8267 -3.4933,8.4934 -5.3867,0.7733 -10.8934,1.3466 -16.6667,-0.7734 -0.68,4.52 1.7467,6.6 3.9333,8.7467 3.12,3.0533 6.2534,6.0933 9.4667,9.04 2.6667,2.44 3.2533,5.52 2.6,8.7733 -0.6533,3.28 -2.5733,6.2534 -5.84,7.0267 -3.2533,0.7733 -5.72,-1.9733 -6.6533,-4.6 -3.0667,-8.6667 -11.1334,-13.2267 -16,-20.36 -0.7867,-1.1467 -2.1867,-2.1733 -3.7067,-1.9067 -2.3467,0.4134 -1.72,2.56 -2.1067,4.16 -1.4133,5.76 -1.1733,11.5334 -0.5733,17.3467 0.3333,3.2933 0.4133,6.8267 -3.6667,7.7867 -3.7733,0.8933 -7.0133,-0.7467 -8.6133,-4.32 -1.7467,-3.8934 -3.4933,-7.6667 -2.0133,-12.4534 1.2266,-3.9866 1.9333,-8.2933 0,-12.7466 -2.28,-5.24 -2.6134,-5.5467 -6.6,-1.7334 -3.7467,3.5867 -7.2134,7.5734 -12.08,9.8 -1.5734,0.72 -3.1467,1.5867 -4.8134,1.9867 -3.2266,0.7867 -5.7866,-0.6133 -7.36,-3.36 -1.6933,-2.9467 -0.92,-5.5733 1.7867,-7.6533 3.6667,-2.8267 7.32,-5.6934 10.9467,-8.5867 1.72,-1.3733 4.24,-2.1867 3.92,-5.2667 -10.2534,-3.2 -20.84,-4.08 -31.3867,-5 -3.3067,-0.2933 -6.3467,-1.08 -9.0133,-2.8666 -4.2,-2.8 -3.88,-7.36 0.64,-9.6267 1.5066,-0.7467 3.36,-1.1067 5.0533,-1.1067 8.3733,0 16.8267,-0.1733 24.8,2.8934 4.8,1.84 9.6533,0.16 15.4267,2.6 -2.1467,-6.3867 -5.7467,-9.4134 -8.7734,-12.7334 -3.9733,-4.3866 -6.4666,-9.5733 -9.2533,-14.64 -1.7467,-3.1866 -0.7867,-5.6133 1.76,-7.6533 3.0267,-2.4133 5.7333,-1.04 7.48,1.5333 4.7467,7.0134 10.72,12.9067 16.8267,19.4667"
         style="fill:#e186ff;fill-opacity:1;fill-rule:nonzero;stroke:none;stroke-width:0.133333" />
      <path
         id="path219"
         d="m -5930.9133,4455.1176 c -0.5,-7.6 6.3853,-18.0267 13.4973,-20.44 8.3027,-2.8134 17.748,3.9466 18.5227,13.24 0.6933,8.32 -5.7547,18.6666 -13.484,21.64 -8.1933,3.1466 -17.8773,-4.4 -18.536,-14.44"
         style="fill:#ff77cb;fill-opacity:1;fill-rule:nonzero;stroke:none;stroke-width:0.133333" />
      <path
         id="path220"
         d="m -5430.008,4291.8909 c 5.556,0.24 10.8333,0.7067 13.9853,6.6 3.5374,6.6 2.4907,12.8267 -0.676,18.9733 -6.5933,12.8134 -18.5933,10.1734 -25.0653,1.5334 -5.7773,-7.72 0.972,-14.2267 2.3173,-21.2 0.9067,-4.6934 4.9134,-6.0667 9.4387,-5.9067"
         style="fill:#fdf028;fill-opacity:1;fill-rule:nonzero;stroke:none;stroke-width:0.133333" />
      <path
         id="path221"
         d="m -4809.808,4637.0376 c -0.4667,-9.92 10.2,-20.88 19.6133,-20.1467 6.9734,0.5333 11.08,5.3467 10.4267,12.2933 -0.1733,1.7067 -1.16,3.5067 -0.8667,5.08 1.8267,9.52 -5.3466,13.0934 -11.56,16.2 -9.0666,4.5334 -17.0666,-1.96 -17.6133,-13.4266"
         style="fill:#e186ff;fill-opacity:1;fill-rule:nonzero;stroke:none;stroke-width:0.133333" />
      <path
         id="path222"
         d="m -5670.6533,4325.3042 c 9.0293,-0.3466 15.1186,7.6 12.048,16.1734 -1.8854,5.2533 -2.6934,10.8266 -9.236,13.8533 -6.288,2.9067 -10.6974,0.9467 -15.2134,-2.2933 -4.9106,-3.5334 -5.1693,-8.9867 -4.036,-14.2534 1.4134,-6.5733 9.9454,-13.24 16.4374,-13.48"
         style="fill:#ffb200;fill-opacity:1;fill-rule:nonzero;stroke:none;stroke-width:0.133333" />
      <path
         id="path223"
         d="m -4993.768,4435.3576 c 8.2,-0.48 15.2133,9.2 12.2933,17.32 -1.1733,3.24 -2.9333,6.3466 -4.9333,9.16 -4.5333,6.3466 -15.7867,4.8533 -19.5067,-2.04 -4.04,-7.4667 -1.8533,-14.0134 2.08,-20.3867 2.2267,-3.6133 6.28,-3.76 10.0667,-4.0533"
         style="fill:#71e2ff;fill-opacity:1;fill-rule:nonzero;stroke:none;stroke-width:0.133333" />
      <path
         id="path224"
         d="m -5194.8747,4341.4909 c 0.6,8.7067 -2.5733,12.4 -11.24,13.08 -6.4133,0.52 -12.16,-4.7867 -12.6533,-11.6667 -0.6667,-9.48 3.2133,-14.92 11.0533,-15.4666 7.5467,-0.5467 12.1867,4.5466 12.84,14.0533"
         style="fill:#4fd6c3;fill-opacity:1;fill-rule:nonzero;stroke:none;stroke-width:0.133333" />
      <path
         id="path225"
         d="m -5965.08,5681.6775 c 3.5894,-6.72 5.1627,-11.88 4.9134,-16.3466 -0.528,-9.4267 3.9346,-18.8 -0.2814,-28.3067 -1.8706,-4.2133 0.6907,-8.4267 4.096,-9.16 3.848,-0.84 7.9014,1.6533 8.9347,6.2 2.2547,9.9333 3.5907,19.8933 1.176,30.1067 -1.5653,6.6266 -1.4373,13.6 -5.0387,21.68 9.2414,-3.4534 15.0934,-8.16 20.3907,-13.72 2.3947,-2.5067 4.3147,-5.44 7.532,-7.1734 3.392,-1.8266 6.8267,-2.6533 9.5013,0.5467 2.576,3.08 1.9467,6.6267 -0.852,9.4533 -3.672,3.7067 -6.9653,7.84 -11.5946,10.52 -1.5227,0.88 -3.12,2.0134 -2.676,4.04 0.4453,2.0267 2.5946,2.0134 4.1426,2.6934 3.3454,1.4666 6.892,0.7333 10.3414,1.0533 6.404,0.6 9.8719,3.4 10.7413,8.4133 0.4053,2.3334 0.5933,4.7334 -1.3973,6.5067 -2.2187,1.9733 -4.86,1.9867 -7.3254,0.68 -6.688,-3.5467 -13.8133,-3.4267 -21.6506,-3.2267 1.0773,4.96 4.3426,7.7467 7.36,10.6 2.9533,2.8134 6.1293,5.3734 9.152,8.1067 1.2906,1.16 2.7,2.32 3.5986,3.7733 1.824,2.9334 2.3427,6.1734 -0.58,8.6934 -2.5026,2.16 -5.7133,2.08 -7.9866,-0.1734 -5.9627,-5.92 -14.096,-9.16 -19.0974,-16.36 -2.5266,-3.64 -6.2106,-8.7466 -10.6186,-7.7733 -5.26,1.1733 -4.2267,7.8933 -4.5294,12.0933 -0.7053,9.8134 -3.3173,19.52 -1.8946,29.5067 0.4733,3.32 -0.4027,6.5067 -4.5267,7.2667 -3.8067,0.7066 -6.2,-1.2934 -7.556,-4.4934 -2.8333,-6.7066 -1.6893,-13.7333 -1.1533,-20.64 0.3346,-4.3333 1.2733,-8.6133 1.7786,-12.92 0.1894,-1.6266 0.6827,-3.6533 -1.432,-4.5066 -1.604,-0.6534 -2.6973,0.64 -3.8013,1.5466 -5.5253,4.52 -12.2427,6.5334 -18.8413,8.68 -4.8534,1.5734 -7.4814,0.4667 -8.7627,-2.92 -1.66,-4.3866 -0.3533,-7.9333 4.4773,-9.56 5.644,-1.9066 10.0774,-5.7466 15.2107,-8.44 1.3813,-0.72 3.4733,-1.5333 2.5507,-3.84 -0.6414,-1.5866 -2.308,-1.4133 -3.7387,-1.52 -7.796,-0.6133 -15.5907,-1.2133 -23.3813,-1.8666 -4.3294,-0.3734 -8.6427,-0.9067 -12.972,-1.28 -2.8454,-0.2267 -4.8187,-1.8667 -6.644,-3.7867 -1.9547,-2.0667 -2.824,-4.52 -1.6414,-7.2 1.1574,-2.6133 3.9134,-2.7733 6.0494,-2.32 8.5666,1.8133 17.4786,0.48 25.9026,2.76 5.1414,1.3867 9.7854,0.3467 14.536,-1 3.9574,-1.12 4.6694,-2.76 1.816,-5.12 -9.2373,-7.64 -15.6013,-17.9733 -24.5733,-25.8267 -0.872,-0.76 -1.836,-1.5066 -2.4707,-2.4533 -2.2373,-3.32 -1.2533,-8.2933 2.0547,-10.9867 3.316,-2.7066 6.308,-2.2533 9.4893,2.1734 7.4694,10.3866 18.2534,17.8 25.2974,28.56 1.416,2.16 3.2893,4.0266 5.9746,7.2666"
         style="fill:#fdf028;fill-opacity:1;fill-rule:nonzero;stroke:none;stroke-width:0.133333" />
      <path
         id="path226"
         d="m -5783.8213,5815.7042 c -3.8387,-4.0933 -7.3267,-7.8533 -10.8467,-11.5733 -1.7947,-1.8934 -3.8107,-3.6134 -5.4333,-5.64 -2.9494,-3.6934 -2.7694,-7.4534 0.2066,-10.1467 2.568,-2.3333 6.0574,-1.9867 9.372,0.9867 0.6387,0.5733 1.0854,1.36 1.6467,2.0266 6.4053,7.56 15.0653,12.3867 22.584,19.6534 2.0773,-3.28 3.0547,-6.1067 2.304,-8.84 -2.9,-10.5734 -0.804,-21.24 -1.0947,-31.8534 -0.039,-1.44 0.1107,-2.92 0.476,-4.3066 0.6294,-2.3734 1.908,-4.2534 4.6867,-4.4667 2.2627,-0.1867 3.78,0.88 5.1333,2.64 2.848,3.7067 3.292,8.1067 3.452,12.4267 0.2654,7.2133 0.093,14.44 0.01,21.6533 -0.017,1.4667 -0.2506,2.8933 0.8494,4.3867 3.564,-0.1734 5.1266,-3.2934 7.2,-5.48 4.2053,-4.4267 8.136,-9.1067 12.2413,-13.6267 1.7467,-1.9333 3.428,-3.9733 6.3533,-4.2533 3.1067,-0.3067 5.896,0.1866 7.6467,3.0133 1.8573,3.0133 0.5907,5.6 -1.5467,7.8667 -4.1946,4.44 -8.3493,8.92 -12.724,13.1733 -2.5373,2.4667 -4.416,5.2933 -6.6213,9.3333 8.2427,0.5334 15.8667,-0.8133 23.4267,-1.4933 6.104,-0.56 12.1173,0.6 18.236,-0.12 4.164,-0.48 7.632,3.2133 7.848,6.72 0.2186,3.5733 -2.756,6.3867 -7.6774,6.5333 -9.82,0.28 -19.652,0.1734 -29.476,0.3734 -3.6866,0.08 -8.8586,-0.8667 -10.068,3.1466 -1.1706,3.8934 3.6867,6.2 6.6134,8.0934 6.0573,3.9466 10.768,9.6 17.292,12.9333 2.7386,1.3867 3.62,4.5067 4.12,7.4133 0.58,3.3734 -0.084,6.6134 -3.4,8.24 -3.1134,1.5334 -5.352,-0.5066 -7.6374,-2.56 -7.9533,-7.2 -17.42,-12.48 -25.2546,-19.8533 -1.1534,-1.08 -2.9507,-2.2667 -4.748,-1.3467 -1.94,1 -1.3067,3.0534 -1.1494,4.68 0.5,5.2 -0.1386,10.4667 1.152,15.64 1.232,4.9467 -1.188,9.68 -1.424,14.6 -0.1973,4.12 -5.4853,5.4934 -8.788,2.5334 -2.6346,-2.36 -4.276,-5.3334 -4.0866,-9.1867 0.484,-9.8267 -0.8854,-19.4933 -2.3907,-29.9067 -5.308,2.6 -8.0587,7.1067 -11.5147,10.7334 -4.0026,4.2133 -7.7066,8.7066 -11.5253,13.0933 -2.548,2.92 -5.4147,4.5733 -9.0987,2 -3.6173,-2.52 -3.1826,-5.8667 -1.5626,-9.32 1.248,-2.6533 2.94,-4.92 5.216,-6.8933 4.8453,-4.1867 8.888,-9.0667 12.0893,-15.52 -7.2787,-3.1067 -14.5147,-2.24 -21.396,-0.7334 -5.1827,1.12 -10.3653,1.3067 -15.5387,1.9734 -2.6466,0.3333 -5.4306,0.5066 -6.94,-2.32 -1.4026,-2.6134 -0.1626,-5.1334 1.048,-7.44 1.8534,-3.5467 5.092,-4.28 8.8387,-4.3867 6.98,-0.2 13.9507,-0.7467 20.9267,-1.12 3.7546,-0.2 7.3586,-0.7867 10.976,-3.48"
         style="fill:#ffb200;fill-opacity:1;fill-rule:nonzero;stroke:none;stroke-width:0.133333" />
      <path
         id="path227"
         d="m -5498.8333,5909.5575 c -11.1734,-2 -21.528,-3.24 -32.0147,-2.8 -4.164,0.1734 -8.0613,-0.8 -11.9307,-2.12 -2.256,-0.7733 -4.288,-1.8933 -5.5933,-3.9466 -1.496,-2.36 -1.9093,-4.9334 -0.4533,-7.4267 1.5826,-2.72 4.108,-2.92 6.8586,-2.0667 14.6254,4.5467 29.88,1.9067 44.7374,3.8667 1.8586,0.24 3.844,-0.48 6.22,-0.8133 -1.2334,-4.7734 -4.2694,-7.52 -7.4187,-9.9734 -6.1093,-4.7466 -9.776,-11.44 -14.3653,-17.3866 -1.8174,-2.3467 -3.0707,-5.1867 -0.6307,-7.9334 2.604,-2.9333 5.3373,-0.9333 7.9493,0.16 2.168,0.8934 4.1134,2.0934 5.4214,4.2 3.6853,5.9067 10.5013,8.84 13.6626,15.0267 3.0894,-1.3867 2.188,-3.5867 2.1667,-5.52 -0.065,-6.08 -1.0373,-12.16 0.504,-18.2133 0.5933,-2.3334 -0.26,-4.56 -0.9827,-6.8 -1.1346,-3.5334 0.1267,-6.3067 3.316,-8.0934 3.844,-2.16 6.368,0.6 8.0147,3.1334 3.7867,5.8 3.484,12.5733 2.876,19.12 -0.3547,3.8 -0.5027,7.52 0.01,11.28 0.1694,1.2533 0.7134,2.28 2.0587,2.3466 1.22,0.067 2.5147,-0.6266 2.7293,-1.7466 1.2947,-6.76 7.244,-11.0534 9.0014,-17.6934 1.296,-4.8933 5.1253,-6.56 8.512,-5.04 3.752,1.6934 5.6786,7.04 3.7586,11.1467 -4.2973,9.1867 -9.4533,17.84 -16.172,25.5067 -1.0973,1.2533 -2.708,2.3066 -2.636,4.92 4.5307,0.88 8.9507,3.1466 13.852,0.3866 0.8534,-0.4933 2.304,-0.1866 3.4014,0.067 9.112,2.1867 18.3346,1.64 27.5546,1.2533 0.872,-0.04 1.7467,-0.053 2.6187,-0.027 2.8613,0.067 5.3067,1.0533 5.9347,4.08 0.6773,3.2666 -1.1,5.64 -3.8454,7.1466 -2.3706,1.2934 -5.1146,0.9867 -7.708,1.12 -9.2973,0.4534 -18.6,0.8 -27.8986,1.2134 -1.3947,0.067 -2.9094,-0.2134 -4.148,1.2133 -0.3827,2.92 1.7786,4.48 3.7053,6.2267 3.66,3.32 7.2667,6.6933 10.8933,10.0533 2.8027,2.6 3.2507,5.5733 0.7814,8.48 -2.2654,2.6667 -5.588,2.5333 -7.8654,0.56 -5.4546,-4.72 -12.2146,-7.96 -16.596,-13.8267 -2.5946,-3.48 -5.9053,-5.3066 -10.5066,-7.0533 -0.9574,5.2 -1.3974,10.3867 0.5213,14.64 3.084,6.8267 1.4253,14.3067 4.1453,21.0133 0.2094,0.52 0.1134,1.16 0.1774,1.7334 0.3906,3.5466 -0.4027,6.4266 -4.3454,7.3866 -3.6946,0.9067 -5.7973,-0.8133 -7.6813,-5.0533 -4.6587,-10.4933 -4.4027,-22 -7.2827,-33.2533 -3.8466,0.6666 -5.176,4.28 -7.5493,6.52 -3.4107,3.2 -6.64,6.6133 -11.58,7.2933 -2.6787,0.36 -5.376,0.2 -6.9453,-2.4667 -1.5574,-2.64 -0.6467,-5.08 1.256,-7.16 2.5266,-2.7733 4.4613,-6.2533 8.2333,-7.6 3.1373,-1.12 4.4147,-3.44 5.2787,-7.08"
         style="fill:#ff77cb;fill-opacity:1;fill-rule:nonzero;stroke:none;stroke-width:0.133333" />
      <path
         id="path228"
         d="m -6198.1653,5222.4242 c 8.8467,1.3067 16.2413,-0.4 23.6493,-0.4666 5.5654,-0.053 8.184,3.2666 6.4174,8.1733 -0.8907,2.4667 -2.7934,3.5067 -5.3454,3.7733 -2.3053,0.24 -4.6093,0.6267 -6.8666,1.1467 -1.932,0.4533 -4.0894,-1.0267 -6.116,1.0133 1.1946,3.7734 4.3786,5.76 7.6373,7.5334 3.2867,1.7733 5.064,4.68 6.7027,7.8 1.128,2.16 2.0013,4.2666 0.055,6.44 -1.9626,2.1866 -4.3506,2.84 -7.1,1.8533 -1.36,-0.4933 -2.9053,-0.9333 -3.908,-1.88 -5.6733,-5.3867 -12.7733,-9.0533 -17.884,-15.0933 -0.7453,-0.88 -1.5853,-1.7334 -2.5293,-2.3867 -2.416,-1.68 -5.1093,-3.5467 -8.0147,-1.88 -2.9613,1.6933 -1.112,4.6933 -0.928,7.1467 0.5694,7.5866 4.5134,14.3466 5.2507,21.9333 0.676,6.9467 2.8013,13.4667 5.8173,19.84 2.1787,4.6 -1.2173,8.1467 -6.0853,6.9867 -2.88,-0.68 -5.74,-1.8667 -6.996,-4.7467 -2.1907,-5.0267 -5.4973,-9.8267 -5.02,-15.6 0.6707,-8.16 -4.4907,-14.96 -4.896,-22.88 -0.1453,-2.8267 -2.7373,-2.7067 -4.6547,-1.48 -1.6906,1.0933 -3.3506,2.4667 -4.5266,4.0667 -4.7334,6.48 -11.3414,11.4 -14.8867,18.9333 -2.3067,4.8933 -7.504,4.44 -10.124,-0.3733 -2.2893,-4.2 -1.0147,-8 1.5667,-11.3867 3.6866,-4.8133 7.648,-9.44 11.5933,-14.0533 0.9693,-1.1334 2.1653,-2.1334 1.512,-3.72 -0.8467,-2.04 -2.8133,-1.64 -4.516,-1.64 -0.5747,0.013 -1.1973,0.04 -1.7187,0.2666 -9.0413,3.7334 -18.8506,1.4 -28.1226,3.5467 -3.3974,0.8 -5.3614,-1.7733 -6.0827,-4.8933 -0.9147,-3.96 1.92,-8.2934 6.1547,-9.1467 2.8293,-0.5733 5.776,-0.6267 8.6773,-0.76 6.9707,-0.3067 13.9373,-0.3333 20.7493,-2.3467 4.3947,-1.3066 9.1494,2.24 13.6267,-0.8266 1.528,-1.0534 4.3,-0.44 4.404,-3.2934 0.076,-2.1066 -1.7933,-2.7066 -3.1547,-3.7733 -7.304,-5.68 -13.6186,-12.56 -21.6186,-17.4267 -2.2427,-1.36 -4.14,-2.9333 -6.964,-3.1733 -3.5507,-0.3067 -4.968,-2.6533 -4.416,-6.1467 0.732,-4.64 3.6293,-7.6533 7.3653,-6.96 3.672,0.6934 7.2933,1.8134 10.0627,4.7734 3.404,3.6533 7.6706,6.2933 11.9573,8.72 3.3853,1.92 5.6653,0.32 5.3387,-3.6134 -0.2587,-3.12 -0.019,-6.48 -2.1347,-9.2133 -1.0893,-1.4 -1.8,-2.9467 -2.092,-4.72 -0.7467,-4.56 0.9773,-8.64 4.3027,-9.4133 3.976,-0.92 6.1106,1.8666 7.348,4.8 2.8106,6.6533 5.384,13.4533 6.0533,20.76 0.32,3.48 0.5347,6.96 0.8307,10.4533 0.1986,2.32 0.2506,4.9067 2.7533,5.9867 2.4787,1.08 4.296,-0.64 6.2387,-2.0267 4.9426,-3.52 8.2533,-8.2267 9.7466,-13.9733 0.868,-3.3334 2.9507,-5.56 5.0027,-8 2.552,-3.0267 5.3907,-4.52 9.0493,-1.9334 2.9587,2.1067 4.4174,7.12 1.772,10.1734 -5.9373,6.84 -6.612,16.6533 -14.9333,23.1066"
         style="fill:#4fd6c3;fill-opacity:1;fill-rule:nonzero;stroke:none;stroke-width:0.133333" />
      <path
         id="path229"
         d="m -6224.428,4938.5976 c 1.416,-10.12 0.8907,-19.5867 0.8974,-29.04 0,-1.4667 -0.097,-2.92 0,-4.3734 0.1746,-2.6 1.4946,-4.4 4.1346,-4.8933 2.5854,-0.4933 4.5094,0.6133 5.8694,2.8133 1.744,2.8134 2.256,5.92 2.3893,9.1734 0.26,6.3466 0.6373,12.6933 1,19.6933 7.308,-2.4267 9.3213,-9.2133 13.8173,-13.3867 1.6547,-1.5333 2.4267,-3.9066 4.7694,-4.9066 2.596,-1.1067 5.1653,-1.5734 7.28,0.6133 2.0866,2.16 3.2853,4.4533 1.3893,7.76 -2.7507,4.7867 -5.2387,9.6267 -9.1867,13.6667 -2.8013,2.88 -2.1186,4.3466 1.7187,5.1333 4.56,0.9333 9.1787,1.8 13.8373,0.9467 3.6067,-0.64 6.928,0.28 10.2574,1.32 3.2613,1.0133 5.9746,2.6666 5.5226,6.6933 -0.44,3.92 -3.5653,6.0667 -8.128,5.8933 -7.52,-0.2933 -14.9733,-1.76 -22.548,-1.1866 -4.6253,0.3466 -9.2653,0.5066 -14.4986,0.7733 4.7386,4.4267 9.0453,8.5067 13.4133,12.52 2.5107,2.3067 4.2533,4.64 2.62,8.36 -2.0187,4.6 -4.648,5.4933 -8.7573,2.5333 -4.1894,-3.0266 -8.34,-6.0933 -12.996,-9.5066 -1.9694,3.3333 -3.0774,6.3333 -2.8827,9.4266 0.7133,11.32 -0.568,22.56 -1.3733,33.8134 -0.156,2.1866 1.156,3.8666 1.4013,5.8666 0.5227,4.2534 -1.82,8.3334 -5.1187,8.9734 -3.6506,0.7066 -8.04,-2.5734 -8.436,-6.8934 -0.5293,-5.7866 -1.3413,-11.72 -0.584,-17.4 1.5627,-11.7466 1.6067,-23.52 2.376,-35.0933 -2.412,-1.1467 -4.2786,0.08 -5.04,1.2267 -4.0306,6.1066 -11.58,8.6933 -15.0333,15.32 -0.6507,1.2533 -1.8707,2.2266 -2.892,3.2533 -3.4893,3.5467 -7.236,4.44 -9.9387,2.44 -2.6413,-1.9467 -3.6546,-8.1467 -1.0346,-11.1733 3.9453,-4.5467 7.1746,-9.8667 12.9613,-12.68 5.0987,-2.4667 8.0707,-7.1734 12.6707,-12.6667 -16.444,1.9067 -31.0494,-2.3067 -45.88,-0.6 -2.1734,0.2533 -4.604,-0.6133 -6.7374,-1.4267 -2.616,-1 -4.24,-3.0666 -4.156,-6.0533 0.091,-3.16 2.248,-4.12 4.8894,-5.24 6.3493,-2.6667 12.5906,-1.1467 18.7693,0.027 4.264,0.8 8.064,0.053 11.9013,-1.4267 2.3187,-0.8933 2.1,-2.3733 0.8067,-4.04 -1.484,-1.9067 -3.64,-2.8 -5.6813,-3.9333 -3.5534,-1.96 -7.132,-3.92 -10.444,-6.2534 -2.6987,-1.8933 -2.8987,-5 -2.152,-7.9333 0.792,-3.1067 3.5733,-3.2267 6.2306,-3.72 6.12,-1.1333 9.7454,3.16 13.728,6.2533 6.392,4.96 12.4214,10.3867 18.532,15.7067 2.78,2.4133 6.0627,3.1067 10.316,3.6267"
         style="fill:#71e2ff;fill-opacity:1;fill-rule:nonzero;stroke:none;stroke-width:0.133333" />
      <path
         id="path230"
         d="m -6173.2733,4742.9309 c -1.668,-2.32 -3.6907,-2.7467 -5.648,-2.9467 -11.44,-1.2 -22.8853,-2.3866 -34.344,-3.3866 -3.6773,-0.3334 -7.2,-0.76 -8.0827,-5.0134 -0.624,-3 3.1147,-6.4133 7.684,-6.88 6.96,-0.7066 13.86,0.52 20.748,1.36 6.648,0.8 13.236,0.8267 19.8547,-0.4933 0.4707,-3.1867 -2.1453,-4.2 -3.772,-5.44 -6.0653,-4.6533 -7.8267,-12.7067 -14.264,-17.2133 -2.5347,-1.7734 -0.968,-5.4534 1.244,-7.7334 2.3373,-2.4 5.284,-3 7.7987,-0.72 3.8573,3.4934 8.5826,6.3467 11.064,11.0267 4.0453,7.6267 11.0733,12.2933 17.7093,19.7867 0.352,-9.6667 3.5827,-17.4 2.9307,-25.76 -0.3414,-4.3734 1.028,-8.08 4.8066,-10.56 3.8387,-2.52 7.832,-1.0667 8.4907,3.4933 0.7813,5.3867 1.3533,10.88 -0.768,16.6533 4.524,0.6934 6.6027,-1.7333 8.744,-3.92 3.0533,-3.12 6.0933,-6.2533 9.04,-9.48 2.4413,-2.6666 5.5253,-3.24 8.7773,-2.5866 3.2814,0.64 6.2467,2.5733 7.0214,5.8266 0.776,3.2667 -1.964,5.7334 -4.596,6.6667 -8.6627,3.0667 -13.2294,11.12 -20.3574,16 -1.1466,0.7867 -2.18,2.1733 -1.9106,3.7067 0.4133,2.3466 2.5613,1.72 4.1653,2.1066 5.7533,1.4 11.528,1.1734 17.34,0.5734 3.2907,-0.3334 6.8293,-0.4267 7.788,3.6533 0.8893,3.7867 -0.7453,7.0267 -4.3187,8.6267 -3.892,1.7466 -7.672,3.4933 -12.4573,2.0133 -3.9853,-1.2267 -8.296,-1.9467 -12.7427,-0.013 -5.2346,2.2933 -5.552,2.6133 -1.74,6.6 3.5894,3.76 7.5774,7.2266 9.8054,12.08 0.724,1.5866 1.5853,3.1466 1.988,4.8266 0.78,3.2267 -0.6134,5.7867 -3.3667,7.36 -2.944,1.6934 -5.5627,0.92 -7.6467,-1.7866 -2.832,-3.68 -5.692,-7.3334 -8.5853,-10.96 -1.372,-1.72 -2.1933,-4.24 -5.264,-3.9067 -3.2053,10.24 -4.084,20.8267 -5.0067,31.3867 -0.288,3.3066 -1.0773,6.3466 -2.8586,9.0133 -2.8027,4.2 -7.372,3.88 -9.6347,-0.6533 -0.7493,-1.4934 -1.1093,-3.3467 -1.108,-5.04 0.01,-8.3734 -0.1653,-16.8267 2.892,-24.8 1.8427,-4.8 0.1707,-9.6534 2.6093,-15.44 -6.396,2.1466 -9.4226,5.76 -12.7413,8.7733 -4.3773,3.9867 -9.5693,6.48 -14.6427,9.2667 -3.1786,1.7466 -5.6053,0.7866 -7.6413,-1.76 -2.4213,-3.0267 -1.0493,-5.7334 1.5253,-7.48 7.0094,-4.7467 12.9067,-10.72 19.4707,-16.8267"
         style="fill:#e186ff;fill-opacity:1;fill-rule:nonzero;stroke:none;stroke-width:0.133333" />
      <path
         id="path231"
         d="m -5622.076,5897.0642 c -7.604,0.4933 -18.0293,-6.3867 -20.4413,-13.4933 -2.8134,-8.3067 3.936,-17.7467 13.236,-18.5334 8.3213,-0.6933 18.6666,5.76 21.636,13.4934 3.148,8.1866 -4.3907,17.8666 -14.4307,18.5333"
         style="fill:#ff77cb;fill-opacity:1;fill-rule:nonzero;stroke:none;stroke-width:0.133333" />
      <path
         id="path232"
         d="m -6163.2706,5481.1176 c -11.1747,-2.0134 -21.5294,-3.2534 -32.016,-2.8134 -4.164,0.1867 -8.0614,-0.7866 -11.9307,-2.1066 -2.256,-0.7734 -4.288,-1.8934 -5.5933,-3.96 -1.496,-2.36 -1.9094,-4.9334 -0.4534,-7.4267 1.584,-2.7067 4.108,-2.92 6.8587,-2.0667 14.6253,4.5467 29.88,1.9067 44.7373,3.8667 1.8587,0.24 3.844,-0.4667 6.22,-0.8133 -1.2333,-4.7734 -4.2693,-7.52 -7.4186,-9.9734 -6.1094,-4.7466 -9.776,-11.4266 -14.3654,-17.3733 -1.8173,-2.36 -3.0706,-5.2 -0.6306,-7.9467 2.604,-2.9333 5.3373,-0.9333 7.9493,0.16 2.168,0.9067 4.1133,2.0934 5.4213,4.2 3.6854,5.92 10.5014,8.84 13.6627,15.0267 3.0907,-1.3733 2.188,-3.5867 2.1667,-5.52 -0.065,-6.0667 -1.0374,-12.16 0.504,-18.2133 0.5933,-2.32 -0.26,-4.56 -0.9827,-6.8 -1.1347,-3.52 0.1267,-6.3067 3.316,-8.0934 3.844,-2.1466 6.368,0.6134 8.0147,3.1334 3.7866,5.8 3.484,12.5866 2.876,19.12 -0.3547,3.8133 -0.5027,7.52 0.01,11.2933 0.1707,1.24 0.7133,2.28 2.0587,2.3467 1.22,0.053 2.5146,-0.64 2.7293,-1.76 1.2947,-6.76 7.244,-11.0534 9.0013,-17.6934 1.296,-4.8933 5.1254,-6.56 8.512,-5.0266 3.752,1.68 5.6787,7.0266 3.7587,11.1333 -4.296,9.1867 -9.4533,17.84 -16.172,25.52 -1.0973,1.2533 -2.708,2.2933 -2.636,4.9067 4.5307,0.8933 8.9507,3.16 13.852,0.3866 0.8533,-0.48 2.304,-0.1866 3.4013,0.08 9.112,2.1867 18.3347,1.6267 27.5547,1.24 0.872,-0.04 1.7467,-0.053 2.6187,-0.027 2.8613,0.08 5.3066,1.0533 5.9346,4.08 0.6774,3.28 -1.1,5.6533 -3.8453,7.1466 -2.3707,1.3067 -5.1147,0.9867 -7.708,1.12 -9.2973,0.4667 -18.6,0.8134 -27.8987,1.2267 -1.3946,0.053 -2.9093,-0.2133 -4.148,1.2 -0.3826,2.9333 1.78,4.4933 3.7054,6.2267 3.66,3.32 7.2666,6.7066 10.8933,10.0533 2.8027,2.6 3.2507,5.5733 0.7813,8.4933 -2.2653,2.6667 -5.588,2.5333 -7.8653,0.56 -5.4547,-4.7333 -12.2147,-7.9733 -16.596,-13.84 -2.5947,-3.48 -5.9053,-5.3066 -10.5067,-7.0533 -0.956,5.2133 -1.3973,10.4 0.5214,14.64 3.084,6.8267 1.4253,14.3066 4.1453,21.0266 0.2093,0.5067 0.1133,1.1467 0.1773,1.7334 0.3907,3.5333 -0.4026,6.4133 -4.3453,7.3733 -3.6947,0.9067 -5.7973,-0.8 -7.6813,-5.0533 -4.6587,-10.48 -4.4027,-22 -7.2827,-33.2533 -3.8453,0.68 -5.176,4.28 -7.5493,6.52 -3.4107,3.2 -6.64,6.6266 -11.58,7.2933 -2.6787,0.36 -5.376,0.2133 -6.9454,-2.4533 -1.5573,-2.6534 -0.6466,-5.0934 1.256,-7.1734 2.5267,-2.76 4.4614,-6.2533 8.2334,-7.6 3.1386,-1.12 4.4146,-3.44 5.28,-7.0666"
         style="fill:#ff77cb;fill-opacity:1;fill-rule:nonzero;stroke:none;stroke-width:0.133333" />
      <path
         id="path233"
         d="m -6203.184,5371.0509 c -7.6053,0.5067 -18.0306,-6.3867 -20.4413,-13.4933 -2.8147,-8.3067 3.9347,-17.7467 13.2347,-18.52 8.3226,-0.6934 18.668,5.7466 21.6373,13.48 3.1467,8.1866 -4.392,17.88 -14.4307,18.5333"
         style="fill:#ff77cb;fill-opacity:1;fill-rule:nonzero;stroke:none;stroke-width:0.133333" />
      <path
         id="path234"
         d="m -6085.48,5582.2375 c 0.2414,-5.56 0.716,-10.84 6.5987,-13.9866 6.6027,-3.5467 12.824,-2.4934 18.9773,0.6666 12.8134,6.6 10.168,18.6 1.5294,25.0667 -7.7134,5.7867 -14.228,-0.9733 -21.196,-2.3067 -4.6947,-0.9066 -6.0707,-4.92 -5.9094,-9.44"
         style="fill:#fdf028;fill-opacity:1;fill-rule:nonzero;stroke:none;stroke-width:0.133333" />
      <path
         id="path235"
         d="m -6082.836,4646.6776 c -9.9226,0.4666 -20.8853,-10.2 -20.1546,-19.6134 0.54,-6.96 5.3453,-11.08 12.2933,-10.4266 1.716,0.1733 3.5053,1.16 5.0867,0.8666 9.5133,-1.8266 13.088,5.3467 16.1946,11.56 4.536,9.0667 -1.9586,17.0667 -13.42,17.6134"
         style="fill:#e186ff;fill-opacity:1;fill-rule:nonzero;stroke:none;stroke-width:0.133333" />
      <path
         id="path236"
         d="m -5889.5973,5774.3709 c -0.3414,-9.0267 7.6026,-15.12 16.1733,-12.0534 5.2613,1.8934 10.8333,2.6934 13.86,9.24 2.9093,6.2934 0.9507,10.6934 -2.2933,15.2134 -3.5267,4.9066 -8.984,5.1733 -14.2547,4.04 -6.5733,-1.4134 -13.2387,-9.9467 -13.4853,-16.44"
         style="fill:#ffb200;fill-opacity:1;fill-rule:nonzero;stroke:none;stroke-width:0.133333" />
      <path
         id="path237"
         d="m -6206.1333,4841.4509 c -0.4813,-8.1867 9.2,-15.2133 17.3253,-12.28 3.2307,1.16 6.3467,2.92 9.152,4.9333 6.356,4.5334 4.8547,15.7734 -2.032,19.4934 -7.4733,4.04 -14.016,1.8533 -20.3866,-2.08 -3.6107,-2.2267 -3.7587,-6.28 -4.0587,-10.0667"
         style="fill:#71e2ff;fill-opacity:1;fill-rule:nonzero;stroke:none;stroke-width:0.133333" />
      <path
         id="path238"
         d="m -6239.1186,5091.2509 c 8.7053,-0.6 12.3933,2.5733 13.08,11.24 0.508,6.4267 -4.792,12.1733 -11.668,12.6533 -9.4894,0.68 -14.9187,-3.2 -15.4774,-11.0533 -0.5386,-7.5333 4.548,-12.1867 14.0654,-12.84"
         style="fill:#4fd6c3;fill-opacity:1;fill-rule:nonzero;stroke:none;stroke-width:0.133333" />
      <path
         id="path239"
         d="m -4667.9013,5301.0642 c -3.6,6.7067 -5.1734,11.88 -4.92,16.3334 0.5333,9.4266 -3.9334,18.8 0.28,28.3066 1.88,4.2134 -0.68,8.4267 -4.0934,9.16 -3.84,0.84 -7.9066,-1.6533 -8.9333,-6.2 -2.2533,-9.92 -3.5867,-19.88 -1.1733,-30.1066 1.56,-6.6267 1.44,-13.5867 5.04,-21.6667 -9.24,3.44 -15.0934,8.1467 -20.4,13.7067 -2.3867,2.5066 -4.3067,5.4533 -7.5334,7.1733 -3.3866,1.8267 -6.8266,2.6667 -9.4933,-0.5467 -2.5733,-3.08 -1.9467,-6.6266 0.8533,-9.4533 3.6667,-3.7067 6.96,-7.84 11.5867,-10.5067 1.5333,-0.88 3.12,-2.0266 2.68,-4.04 -0.44,-2.04 -2.5867,-2.0266 -4.1467,-2.7066 -3.3466,-1.4534 -6.88,-0.7334 -10.3333,-1.0534 -6.4133,-0.6 -9.88,-3.4 -10.7467,-8.4 -0.4,-2.3333 -0.5866,-4.7333 1.4,-6.5066 2.2134,-1.9867 4.8534,-2 7.32,-0.6934 6.6934,3.5467 13.8134,3.4267 21.6534,3.2267 -1.08,-4.96 -4.3467,-7.7333 -7.36,-10.6 -2.9467,-2.8 -6.12,-5.3733 -9.1467,-8.1067 -1.2933,-1.16 -2.7067,-2.32 -3.6,-3.76 -1.8267,-2.9466 -2.3467,-6.1866 0.5733,-8.7066 2.5067,-2.1467 5.72,-2.08 7.9867,0.1866 5.9733,5.9067 14.1067,9.1467 19.1067,16.3467 2.52,3.64 6.2133,8.7467 10.6133,7.7733 5.2667,-1.1733 4.2267,-7.8933 4.5333,-12.0933 0.7067,-9.8133 3.32,-19.52 1.8934,-29.5067 -0.48,-3.3066 0.4,-6.5066 4.52,-7.2666 3.8133,-0.7067 6.2,1.2933 7.56,4.4933 2.84,6.7067 1.6933,13.7333 1.16,20.64 -0.3467,4.3333 -1.28,8.6133 -1.7867,12.9333 -0.1867,1.6134 -0.68,3.64 1.44,4.4934 1.6,0.6533 2.6933,-0.64 3.8,-1.5467 5.52,-4.52 12.24,-6.5333 18.84,-8.6667 4.8533,-1.5733 7.48,-0.48 8.76,2.9067 1.6667,4.3867 0.3467,7.9333 -4.48,9.5733 -5.64,1.9067 -10.08,5.7467 -15.2133,8.4267 -1.3734,0.72 -3.4667,1.5467 -2.5467,3.84 0.64,1.5867 2.3067,1.4133 3.7467,1.52 7.7866,0.6133 15.5866,1.2133 23.3733,1.88 4.3333,0.36 8.64,0.9067 12.9733,1.2667 2.84,0.24 4.8134,1.8666 6.64,3.8 1.96,2.0666 2.8267,4.5066 1.64,7.1866 -1.1466,2.6134 -3.9066,2.7734 -6.04,2.32 -8.5733,-1.8133 -17.48,-0.48 -25.9066,-2.76 -5.1467,-1.3866 -9.7867,-0.3466 -14.5334,1 -3.96,1.12 -4.6666,2.76 -1.8133,5.12 9.2267,7.6534 15.6,17.9734 24.5733,25.8267 0.8667,0.7733 1.8267,1.5067 2.4667,2.4533 2.24,3.32 1.2533,8.2934 -2.0533,10.9867 -3.32,2.7067 -6.3067,2.2533 -9.4934,-2.1733 -7.4666,-10.3867 -18.2533,-17.8 -25.2933,-28.56 -1.4133,-2.16 -3.2933,-4.0267 -5.9733,-7.2534"
         style="fill:#fdf028;fill-opacity:1;fill-rule:nonzero;stroke:none;stroke-width:0.133333" />
      <path
         id="path240"
         d="m -4637.088,5016.0509 c 3.84,4.0933 7.32,7.8533 10.84,11.5733 1.8,1.8934 3.8133,3.6134 5.44,5.64 2.9467,3.6934 2.76,7.44 -0.2133,10.1467 -2.56,2.32 -6.0534,1.9867 -9.3734,-0.9867 -0.64,-0.5733 -1.08,-1.36 -1.64,-2.0266 -6.4133,-7.56 -15.0666,-12.3867 -22.5866,-19.6534 -2.08,3.28 -3.0534,6.1067 -2.3067,8.84 2.9067,10.56 0.8,21.24 1.0933,31.8534 0.04,1.4266 -0.1066,2.92 -0.4666,4.2933 -0.64,2.3867 -1.92,4.2667 -4.6934,4.48 -2.2666,0.1867 -3.7733,-0.88 -5.1333,-2.64 -2.8533,-3.7067 -3.2933,-8.1067 -3.4533,-12.4267 -0.2667,-7.2133 -0.093,-14.44 0,-21.6666 0.013,-1.4534 0.24,-2.88 -0.8534,-4.3734 -3.56,0.1734 -5.1333,3.2934 -7.2,5.48 -4.2133,4.4267 -8.1333,9.1067 -12.24,13.6267 -1.7466,1.92 -3.4266,3.9733 -6.36,4.2533 -3.1066,0.3067 -5.8933,-0.1866 -7.64,-3.0266 -1.8666,-3 -0.6,-5.5867 1.5467,-7.8534 4.1867,-4.44 8.3467,-8.92 12.72,-13.1866 2.5333,-2.4667 4.4133,-5.2934 6.6267,-9.32 -8.2534,-0.5334 -15.8667,0.8 -23.4267,1.4933 -6.1067,0.56 -12.12,-0.6133 -18.24,0.1067 -4.16,0.4933 -7.6267,-3.2 -7.8533,-6.7067 -0.2134,-3.5733 2.76,-6.4 7.68,-6.5333 9.8266,-0.28 19.6533,-0.1734 29.48,-0.3867 3.68,-0.067 8.8533,0.88 10.0666,-3.1467 1.1734,-3.88 -3.6933,-6.1866 -6.6133,-8.0933 -6.0533,-3.9333 -10.7733,-9.5867 -17.2933,-12.92 -2.7334,-1.4 -3.6134,-4.52 -4.12,-7.4133 -0.5734,-3.3734 0.08,-6.6134 3.4,-8.24 3.12,-1.5334 5.3466,0.4933 7.64,2.56 7.9466,7.1866 17.4133,12.4666 25.2533,19.8533 1.1467,1.08 2.9467,2.2667 4.7467,1.3467 1.9466,-1 1.3066,-3.0534 1.1466,-4.68 -0.4933,-5.2 0.1467,-10.4667 -1.1466,-15.64 -1.24,-4.9467 1.1866,-9.68 1.4266,-14.6 0.1867,-4.1334 5.48,-5.4934 8.7867,-2.5334 2.6267,2.36 4.2667,5.32 4.08,9.1867 -0.48,9.8133 0.8933,19.4933 2.4,29.8933 5.3067,-2.5866 8.0533,-7.0933 11.5067,-10.7333 4,-4.2 7.7066,-8.6933 11.5333,-13.08 2.5467,-2.92 5.4133,-4.5733 9.0933,-2 3.6134,2.52 3.1867,5.8667 1.56,9.3067 -1.24,2.6533 -2.9333,4.9333 -5.2133,6.9066 -4.84,4.1734 -8.8933,9.0667 -12.0933,15.52 7.28,3.1067 14.52,2.24 21.4,0.7334 5.1866,-1.12 10.36,-1.3067 15.5333,-1.9734 2.6533,-0.3333 5.44,-0.5066 6.9467,2.3067 1.4,2.6267 0.16,5.1333 -1.0534,7.4533 -1.8533,3.5467 -5.0933,4.28 -8.84,4.3867 -6.9733,0.2 -13.9466,0.7333 -20.92,1.1067 -3.76,0.2 -7.36,0.8 -10.9733,3.4933"
         style="fill:#ffb200;fill-opacity:1;fill-rule:nonzero;stroke:none;stroke-width:0.133333" />
      <path
         id="path241"
         d="m -4693.648,4726.7309 c 11.1733,2.0133 21.5333,3.2533 32.0267,2.8133 4.16,-0.1733 8.0533,0.7867 11.92,2.12 2.2666,0.76 4.2933,1.88 5.6,3.9467 1.4933,2.36 1.9066,4.9333 0.4533,7.4267 -1.5867,2.72 -4.1067,2.92 -6.8667,2.0666 -14.6266,-4.5466 -29.88,-1.9066 -44.7333,-3.8666 -1.8533,-0.24 -3.84,0.48 -6.2133,0.8133 1.2266,4.7733 4.2666,7.52 7.4133,9.9733 6.1067,4.7467 9.7733,11.4267 14.36,17.3734 1.8267,2.36 3.08,5.2 0.64,7.9466 -2.6133,2.9334 -5.3467,0.9334 -7.9467,-0.16 -2.1733,-0.8933 -4.12,-2.0933 -5.4266,-4.2 -3.68,-5.9066 -10.5067,-8.84 -13.6667,-15.0266 -3.0933,1.3866 -2.1867,3.5866 -2.16,5.52 0.067,6.0666 1.04,12.16 -0.5067,18.2133 -0.6,2.32 0.2534,4.56 0.9867,6.8 1.1333,3.52 -0.1333,6.3067 -3.32,8.0933 -3.84,2.16 -6.3733,-0.6133 -8.0133,-3.1333 -3.7867,-5.8 -3.48,-12.5733 -2.88,-19.12 0.36,-3.8133 0.5066,-7.52 -0.013,-11.28 -0.16,-1.2533 -0.7066,-2.2933 -2.0533,-2.3467 -1.2267,-0.067 -2.52,0.6267 -2.7333,1.7467 -1.2934,6.76 -7.24,11.0533 -9,17.6933 -1.2934,4.8934 -5.12,6.56 -8.5067,5.0267 -3.76,-1.68 -5.68,-7.0267 -3.76,-11.1333 4.2933,-9.1867 9.4533,-17.84 16.1733,-25.52 1.0934,-1.2534 2.7067,-2.2934 2.64,-4.9067 -4.5333,-0.88 -8.96,-3.16 -13.8533,-0.3867 -0.8533,0.48 -2.3067,0.1867 -3.4,-0.08 -9.12,-2.1866 -18.3467,-1.6266 -27.56,-1.24 -0.88,0.04 -1.7467,0.053 -2.6133,0.027 -2.8667,-0.08 -5.3067,-1.0533 -5.9467,-4.08 -0.6667,-3.28 1.1067,-5.6533 3.8533,-7.1467 2.3734,-1.3066 5.1067,-0.9866 7.7067,-1.12 9.2933,-0.4666 18.6,-0.8 27.8933,-1.2266 1.4,-0.053 2.9067,0.2266 4.1467,-1.2 0.3867,-2.92 -1.7733,-4.48 -3.6933,-6.2267 -3.6667,-3.32 -7.28,-6.7067 -10.8934,-10.0533 -2.8133,-2.6 -3.2533,-5.5734 -0.7866,-8.48 2.2666,-2.68 5.5866,-2.5467 7.8666,-0.5734 5.4534,4.7334 12.2134,7.9734 16.6,13.84 2.5867,3.48 5.8934,5.3067 10.4934,7.0534 0.96,-5.2134 1.4,-10.4 -0.52,-14.64 -3.08,-6.8267 -1.4267,-14.3067 -4.1467,-21.0267 -0.2,-0.5067 -0.1067,-1.1467 -0.1733,-1.72 -0.3867,-3.5467 0.4,-6.4267 4.3466,-7.3867 3.6934,-0.9066 5.8,0.8134 7.68,5.0534 4.6667,10.48 4.4,22 7.28,33.2533 3.8534,-0.6667 5.1867,-4.28 7.56,-6.52 3.4,-3.2 6.64,-6.6267 11.5734,-7.2933 2.68,-0.36 5.3733,-0.2 6.9466,2.4666 1.56,2.64 0.64,5.08 -1.2533,7.16 -2.5333,2.76 -4.4667,6.2534 -8.24,7.6 -3.1333,1.12 -4.4133,3.44 -5.28,7.0667"
         style="fill:#ff77cb;fill-opacity:1;fill-rule:nonzero;stroke:none;stroke-width:0.133333" />
      <path
         id="path242"
         d="m -4807.5413,5558.4909 c -8.8534,-1.3067 -16.24,0.3866 -23.6534,0.4666 -5.56,0.053 -8.1866,-3.2666 -6.4133,-8.1733 0.8933,-2.4667 2.7867,-3.52 5.3467,-3.7733 2.3066,-0.24 4.6,-0.64 6.8666,-1.16 1.9334,-0.44 4.08,1.0266 6.1067,-1 -1.1867,-3.7867 -4.3733,-5.7734 -7.6267,-7.5334 -3.2933,-1.7866 -5.0666,-4.6933 -6.7066,-7.8133 -1.1334,-2.1467 -2,-4.2533 -0.053,-6.4267 1.96,-2.1866 4.3467,-2.84 7.0934,-1.8533 1.36,0.4933 2.9066,0.9333 3.9066,1.88 5.68,5.3733 12.7734,9.0533 17.8934,15.08 0.7466,0.8933 1.5866,1.7333 2.52,2.4 2.4266,1.6667 5.12,3.5467 8.0266,1.88 2.96,-1.6933 1.1067,-4.6933 0.92,-7.16 -0.5733,-7.5733 -4.5066,-14.3467 -5.2533,-21.92 -0.6667,-6.9466 -2.8,-13.4666 -5.8133,-19.84 -2.1734,-4.6 1.2133,-8.1466 6.08,-7 2.88,0.6934 5.7466,1.8667 7,4.7467 2.1866,5.0267 5.4933,9.8267 5.0266,15.6133 -0.68,8.16 4.48,14.9467 4.8934,22.8667 0.1466,2.84 2.7333,2.7066 4.6533,1.48 1.6933,-1.08 3.3467,-2.4534 4.52,-4.0667 4.7333,-6.4667 11.3467,-11.3867 14.8933,-18.92 2.3067,-4.9066 7.5067,-4.44 10.12,0.36 2.2934,4.2133 1.0134,8.0133 -1.56,11.3867 -3.6933,4.8266 -7.6533,9.44 -11.6,14.0533 -0.96,1.1467 -2.16,2.1333 -1.5066,3.72 0.84,2.0533 2.8133,1.64 4.5066,1.64 0.5867,0 1.2,-0.04 1.72,-0.2533 9.0534,-3.7467 18.8534,-1.4 28.1334,-3.56 3.3866,-0.7867 5.36,1.7866 6.08,4.9066 0.9066,3.96 -1.92,8.2934 -6.16,9.1467 -2.8267,0.5733 -5.7734,0.6267 -8.68,0.7467 -6.96,0.32 -13.9334,0.3466 -20.7467,2.36 -4.3867,1.2933 -9.1467,-2.24 -13.6267,0.8266 -1.52,1.04 -4.2933,0.44 -4.4,3.2934 -0.08,2.1066 1.7867,2.7066 3.1467,3.76 7.3067,5.68 13.6267,12.5733 21.6267,17.44 2.24,1.36 4.1333,2.9333 6.96,3.1733 3.5466,0.2933 4.9733,2.64 4.4133,6.1467 -0.7333,4.64 -3.6267,7.6533 -7.36,6.9466 -3.6667,-0.6933 -7.2933,-1.8 -10.0667,-4.7733 -3.4,-3.6533 -7.6666,-6.28 -11.96,-8.7067 -3.3733,-1.92 -5.6533,-0.32 -5.3333,3.6 0.2533,3.1334 0.013,6.48 2.1333,9.2134 1.0934,1.4133 1.8,2.9466 2.0934,4.7333 0.7466,4.5467 -0.9734,8.6267 -4.3067,9.4 -3.9733,0.9333 -6.1067,-1.8667 -7.3467,-4.8 -2.8133,-6.6533 -5.3733,-13.4533 -6.0533,-20.7467 -0.32,-3.48 -0.5333,-6.9733 -0.8267,-10.4533 -0.2,-2.3333 -0.2533,-4.92 -2.76,-6 -2.4666,-1.0667 -4.2933,0.64 -6.2266,2.0267 -4.9467,3.5333 -8.2534,8.2266 -9.7467,13.9733 -0.88,3.3467 -2.96,5.5733 -5.0133,8.0133 -2.5467,3.0267 -5.3867,4.52 -9.04,1.92 -2.96,-2.0933 -4.4267,-7.1066 -1.7734,-10.16 5.9334,-6.8533 6.6134,-16.6533 14.9334,-23.1066"
         style="fill:#4fd6c3;fill-opacity:1;fill-rule:nonzero;stroke:none;stroke-width:0.133333" />
      <path
         id="path243"
         d="m -4970.0347,5759.0642 c -1.4133,10.1067 -0.8933,19.5867 -0.8933,29.04 0,1.4533 0.093,2.9067 0,4.36 -0.1733,2.6 -1.4933,4.4 -4.1333,4.8933 -2.5867,0.4934 -4.5067,-0.6133 -5.8667,-2.8133 -1.7467,-2.8133 -2.2667,-5.92 -2.4,-9.1733 -0.2533,-6.3467 -0.6267,-12.68 -1,-19.6934 -7.3067,2.4267 -9.32,9.2267 -13.8133,13.3867 -1.6534,1.5333 -2.4267,3.92 -4.7734,4.9067 -2.5866,1.1066 -5.16,1.5866 -7.28,-0.6134 -2.08,-2.16 -3.28,-4.4533 -1.3866,-7.76 2.76,-4.7866 5.24,-9.6133 9.1866,-13.6666 2.8,-2.8667 2.12,-4.3467 -1.72,-5.1334 -4.56,-0.9333 -9.1733,-1.7866 -13.84,-0.9466 -3.6,0.6533 -6.92,-0.2667 -10.2533,-1.3067 -3.2533,-1.0267 -5.9733,-2.6667 -5.52,-6.6933 0.44,-3.92 3.56,-6.08 8.1333,-5.8934 7.52,0.28 14.9734,1.7467 22.5467,1.1734 4.6267,-0.3467 9.2667,-0.4934 14.4933,-0.7734 -4.7333,-4.4266 -9.04,-8.5066 -13.4133,-12.52 -2.5067,-2.3066 -4.2533,-4.64 -2.6133,-8.36 2.0133,-4.6 4.64,-5.4933 8.7466,-2.5333 4.2,3.0267 8.3467,6.1067 13,9.5067 1.9734,-3.3334 3.08,-6.3334 2.88,-9.4134 -0.7066,-11.3333 0.5734,-22.56 1.3734,-33.8266 0.16,-2.1867 -1.1467,-3.8667 -1.4,-5.8667 -0.52,-4.2533 1.8266,-8.3333 5.12,-8.9733 3.6533,-0.7067 8.04,2.5733 8.44,6.8933 0.52,5.7867 1.3333,11.7333 0.5866,17.4133 -1.5733,11.7467 -1.6133,23.5067 -2.3866,35.08 2.4133,1.16 4.28,-0.067 5.04,-1.2266 4.04,-6.1067 11.5866,-8.68 15.04,-15.32 0.6533,-1.2534 1.8666,-2.2267 2.8933,-3.2534 3.4933,-3.5333 7.2267,-4.44 9.9333,-2.44 2.64,1.96 3.6534,8.16 1.04,11.1734 -3.9466,4.5466 -7.1733,9.8666 -12.96,12.68 -5.1066,2.48 -8.08,7.1866 -12.68,12.68 16.4534,-1.92 31.0534,2.3066 45.88,0.5866 2.1734,-0.24 4.6134,0.6267 6.7467,1.44 2.6133,0.9867 4.24,3.0534 4.1467,6.04 -0.08,3.16 -2.24,4.1334 -4.88,5.24 -6.3467,2.6667 -12.6,1.16 -18.7734,-0.013 -4.2666,-0.8133 -8.0666,-0.067 -11.9066,1.4133 -2.3067,0.8934 -2.0934,2.3734 -0.8,4.04 1.48,1.9067 3.64,2.8 5.68,3.9334 3.56,1.96 7.1333,3.92 10.44,6.2533 2.7066,1.8933 2.9066,5.0133 2.16,7.9467 -0.8,3.1066 -3.5734,3.2133 -6.24,3.7066 -6.12,1.1334 -9.7334,-3.16 -13.72,-6.24 -6.4,-4.96 -12.4267,-10.4 -18.5334,-15.7066 -2.7866,-2.4267 -6.0666,-3.12 -10.32,-3.6267"
         style="fill:#71e2ff;fill-opacity:1;fill-rule:nonzero;stroke:none;stroke-width:0.133333" />
      <path
         id="path244"
         d="m -5177.248,5851.5309 c 1.6667,2.32 3.68,2.7333 5.64,2.9466 11.44,1.2 22.8933,2.3734 34.3467,3.3867 3.68,0.32 7.2,0.7467 8.08,5 0.6266,3.0133 -3.1067,6.4133 -7.68,6.88 -6.96,0.7067 -13.8534,-0.52 -20.7467,-1.3467 -6.6533,-0.8133 -13.24,-0.8266 -19.8533,0.48 -0.4667,3.1867 2.1466,4.2 3.7733,5.4534 6.0667,4.64 7.8267,12.6933 14.2533,17.2 2.5467,1.7866 0.9734,5.4533 -1.24,7.7333 -2.3333,2.4 -5.28,3 -7.8,0.72 -3.8533,-3.4933 -8.5733,-6.3333 -11.0533,-11.0133 -4.0533,-7.6267 -11.08,-12.2934 -17.72,-19.8 -0.3467,9.6666 -3.5733,17.4133 -2.92,25.76 0.3333,4.3866 -1.04,8.08 -4.8133,10.56 -3.84,2.5333 -7.8267,1.0666 -8.4934,-3.48 -0.7733,-5.4 -1.3466,-10.8934 0.7734,-16.6667 -4.52,-0.68 -6.6,1.7467 -8.7467,3.9333 -3.0533,3.1067 -6.0933,6.2534 -9.04,9.4667 -2.44,2.6667 -5.52,3.24 -8.7773,2.6 -3.2814,-0.6533 -6.2467,-2.5867 -7.0214,-5.84 -0.776,-3.2533 1.964,-5.7333 4.596,-6.6533 8.6694,-3.08 13.2294,-11.1334 20.3627,-16.0134 1.1467,-0.7866 2.1733,-2.1733 1.9067,-3.7066 -0.4134,-2.3467 -2.56,-1.7067 -4.1734,-2.1067 -5.7466,-1.4 -11.52,-1.16 -17.3333,-0.5733 -3.292,0.3466 -6.8293,0.4266 -7.788,-3.6534 -0.8893,-3.7866 0.7453,-7.0133 4.3187,-8.6133 3.892,-1.7467 7.6693,-3.5067 12.456,-2.0267 3.9866,1.24 8.2933,1.9467 12.7466,0.013 5.2267,-2.28 5.5467,-2.6134 1.7334,-6.6 -3.5867,-3.76 -7.5734,-7.2134 -9.8,-12.08 -0.72,-1.5734 -1.5867,-3.1467 -1.9867,-4.8134 -0.7867,-3.2266 0.6133,-5.7866 3.36,-7.3733 2.9467,-1.68 5.5733,-0.9067 7.6533,1.7867 2.8267,3.68 5.6934,7.3333 8.5867,10.96 1.3733,1.72 2.1867,4.24 5.2667,3.92 3.2,-10.2534 4.08,-20.84 5,-31.3867 0.2933,-3.3067 1.08,-6.3467 2.8533,-9.0267 2.8133,-4.1866 7.3733,-3.88 9.64,0.6534 0.7467,1.5066 1.1067,3.36 1.1067,5.0533 0,8.3733 0.1733,16.8267 -2.8934,24.8 -1.84,4.8 -0.1733,9.64 -2.6133,15.4267 6.4,-2.1467 9.4267,-5.76 12.7467,-8.7734 4.3733,-3.9733 9.5733,-6.48 14.64,-9.2666 3.1866,-1.7467 5.6133,-0.7867 7.64,1.76 2.4266,3.0266 1.0533,5.7466 -1.52,7.4933 -7.0134,4.7333 -12.9067,10.7067 -19.4667,16.8267"
         style="fill:#e186ff;fill-opacity:1;fill-rule:nonzero;stroke:none;stroke-width:0.133333" />
      <path
         id="path245"
         d="m -4684.6747,4852.1442 c 7.6,-0.5066 18.0267,6.3867 20.44,13.4934 2.8134,8.3066 -3.9466,17.7466 -13.24,18.52 -8.32,0.6933 -18.6666,-5.7467 -21.64,-13.48 -3.1466,-8.2 4.4,-17.88 14.44,-18.5334"
         style="fill:#ff77cb;fill-opacity:1;fill-rule:nonzero;stroke:none;stroke-width:0.133333" />
      <path
         id="path246"
         d="m -4697.5813,5430.3176 c -0.24,5.5466 -0.7067,10.8266 -6.6,13.9733 -6.6,3.5467 -12.8134,2.4933 -18.9734,-0.6667 -12.8133,-6.6 -10.1733,-18.6 -1.5333,-25.0666 7.72,-5.7734 14.2267,0.9733 21.2,2.32 4.6933,0.9066 6.0667,4.9066 5.9067,9.44"
         style="fill:#fdf028;fill-opacity:1;fill-rule:nonzero;stroke:none;stroke-width:0.133333" />
      <path
         id="path247"
         d="m -5337.2907,5881.0509 c 9.924,-0.4667 20.8867,10.2 20.156,19.6133 -0.54,6.9733 -5.3466,11.08 -12.2946,10.4267 -1.7147,-0.1734 -3.5054,-1.16 -5.0867,-0.8534 -9.5133,1.8134 -13.088,-5.36 -16.1947,-11.5733 -4.5346,-9.0667 1.9587,-17.0667 13.42,-17.6133"
         style="fill:#e186ff;fill-opacity:1;fill-rule:nonzero;stroke:none;stroke-width:0.133333" />
      <path
         id="path248"
         d="m -4634.9413,5152.1976 c 0.3466,9.04 -7.6,15.12 -16.1734,12.0533 -5.2533,-1.88 -10.8266,-2.6933 -13.8533,-9.24 -2.92,-6.28 -0.96,-10.6933 2.2933,-15.2133 3.52,-4.9067 8.9734,-5.16 14.2534,-4.0267 6.5733,1.4133 13.24,9.9467 13.48,16.4267"
         style="fill:#ffb200;fill-opacity:1;fill-rule:nonzero;stroke:none;stroke-width:0.133333" />
      <path
         id="path249"
         d="m -5066.8613,5807.6909 c 0.48,8.2 -9.2,15.2133 -17.32,12.2933 -3.24,-1.1733 -6.3467,-2.9333 -9.16,-4.9333 -6.36,-4.5334 -4.8534,-15.7867 2.04,-19.5067 7.4666,-4.04 14.0133,-1.8533 20.3866,2.08 3.6,2.2267 3.7467,6.28 4.0534,10.0667"
         style="fill:#71e2ff;fill-opacity:1;fill-rule:nonzero;stroke:none;stroke-width:0.133333" />
      <path
         id="path250"
         d="m -4867.808,5665.4509 c -8.7067,0.6 -12.4,-2.5734 -13.08,-11.24 -0.5067,-6.4267 4.7867,-12.1734 11.6667,-12.6534 9.4933,-0.68 14.92,3.2 15.48,11.0534 0.5333,7.5333 -4.5467,12.1866 -14.0667,12.84"
         style="fill:#4fd6c3;fill-opacity:1;fill-rule:nonzero;stroke:none;stroke-width:0.133333" />
    </g>
  </g>
</svg>
