<?xml version="1.0" encoding="UTF-8" standalone="no"?>
<!-- Created with Inkscape (http://www.inkscape.org/) -->

<svg
   version="1.1"
   id="svg1"
   width="1699.5437"
   height="1699.8947"
   viewBox="0 0 1699.5437 1699.8946"
   xmlns="http://www.w3.org/2000/svg"
   xmlns:svg="http://www.w3.org/2000/svg">
  <defs
     id="defs1" />
  <g
     id="g1"
     transform="translate(-2200.4942,-2186.0375)">
    <g
       id="g378"
       transform="translate(6603.1915,-166.82884)">
      <path
         id="path251"
         d="m -3259.6347,2473.1576 c 7.8,-0.12 12.6133,-4.3866 12.2933,-10.8933 -0.3066,-6.04 -7.4533,-11.76 -14.5866,-11.6533 -6.9067,0.1066 -11.3467,4.5866 -11.0934,11.2 0.24,6.6133 5.96,11.4533 13.3867,11.3466 z m 65.2,-38.2933 c -1.0267,7.64 -3.6134,15.48 -12.7334,19.5867 -5.1066,2.2933 -5.5866,4.16 -1.7333,8.1466 9.24,9.6 10.32,21.1734 8.7067,33.4 -1.4534,11.1467 -10.5734,17.2134 -21.6667,14.9467 -4.9467,-1.0133 -8.8533,-3.7067 -12.8133,-6.6933 -4.4933,-3.4 -5.8533,-2.8134 -9.08,2.0666 -5.0933,7.68 -11.0667,14.64 -17.7467,20.96 -10.4,9.8534 -24.68,8.12 -32.2533,-4.1733 -3.4133,-5.5333 -6.3733,-11.24 -4.84,-18.56 1.3333,-6.3467 -0.3067,-13.12 1.8667,-19.5867 0.9466,-2.8266 -1.1334,-4.1866 -3.92,-4.1066 -7.68,0.2266 -13.3867,-3.7867 -19.16,-8.2267 -6.3867,-4.9067 -7.32,-11.3733 -6.44,-18.4933 0.6933,-5.6267 5.52,-8.0667 9.8266,-9.9467 5.3867,-2.36 10.6934,-5.28 17.16,-4.7467 4.4667,0.36 5.8,-1.52 4.56,-5.92 -2.8533,-10.12 1.8,-18.3733 6.24,-26.5733 1.88,-3.4667 6.0267,-4.6 9.8667,-3.96 9.5067,1.6 18.8,3.8267 21.6933,15.0533 1.04,4.0534 2.88,4.88 6.7467,2.6667 7.76,-4.4267 16.2266,-6.7067 25.1733,-7.84 13.6,-1.72 21.8667,1.96 28.7333,13.4133 1.4267,2.4 1.8534,4.7334 1.8134,8.5867"
         style="fill:#ff77cb;fill-opacity:1;fill-rule:nonzero;stroke:none;stroke-width:0.133333" />
      <path
         id="path252"
         d="m -3074.6747,2576.571 c 0.2666,8.6 4.36,12.5333 12.92,12.3733 6.2933,-0.12 14.64,-6.5067 14.48,-11.0933 -0.2267,-6.4267 -9.72,-13.24 -18,-12.9334 -6.4134,0.2534 -9.6134,4.2267 -9.4,11.6534 z m -10.8134,-37.6134 c -0.9866,-6.32 1.4134,-12.6933 2.3067,-19.2 0.7333,-5.2666 11.88,-12.0666 17.56,-11.6133 7.32,0.5867 15.92,7.84 17.9067,15.0533 1.7466,6.3467 3.7333,12.64 5.2133,19.04 0.6,2.5867 1.9067,3.2134 4.1333,3.2534 2.08,0.053 4.0267,-0.4267 5.7734,-1.4667 7.16,-4.2133 15.3333,-4.6267 23.16,-5.7467 9.2933,-1.3333 17.5066,1.6534 23.24,9.6934 3.2266,4.52 3.3866,13.7066 0.52,18.64 -5.1867,8.96 -13.5467,14.0266 -22.7067,17.5333 -3.92,1.5067 -5.0133,2.9867 -4.08,6.7067 1.8133,7.2133 2.12,14.5466 1.64,21.9466 -0.093,1.4134 0.4933,3.16 -0.56,4.1067 -4.8533,4.3333 -8.84,10.0267 -15.36,12.0133 -13.7733,4.2 -28.6,-1.3333 -36.6267,-13.68 -2.2133,-3.4 -3.5466,-2.8933 -5.6933,-0.2933 -7.4,8.9067 -16.6933,14.7067 -28.1333,16.92 -1.12,0.2133 -2.2934,0.6133 -3.3867,0.48 -5.0133,-0.5867 -11.2933,0.56 -13.9067,-4.7733 -2.92,-5.9734 -5.8133,-12.5734 -1.2,-19.44 2.7067,-4.04 4.8534,-8.4667 7.4267,-12.6 1.5733,-2.5334 1.3733,-4.2534 -1.5867,-5.3067 -1.0666,-0.3867 -2.1333,-0.8 -3.2,-1.2267 -9.5866,-3.8133 -11.48,-12.0266 -11.7333,-20.9733 -0.1333,-4.8133 8.44,-13.5067 14.32,-14.0933 6.5333,-0.6667 12.64,-3.5867 19.4933,-2.7867 3.9734,0.4667 6.3334,-2.1067 5.6134,-6.6133 -0.2667,-1.68 -0.093,-3.44 -0.1334,-5.5734"
         style="fill:#ffb200;fill-opacity:1;fill-rule:nonzero;stroke:none;stroke-width:0.133333" />
      <path
         id="path253"
         d="m -3947.528,2489.3576 c -9.4534,0.093 -12.24,2.48 -12.08,10.3734 0.1333,6.88 4.6533,11.8133 10.84,11.8533 7.2666,0.053 13.3733,-6.6 13.08,-14.24 -0.2,-5.6 -3.8667,-8.0667 -11.84,-7.9867 z m 13.3066,44.6267 c -2.2133,4.64 -3.84,8.6267 -5.96,12.3333 -5.88,10.3334 -15.1066,15.16 -26.8133,15.2267 -5.72,0.04 -10.4667,-2.2533 -14.16,-6.88 -5.6,-6.9867 -11.3333,-13.7867 -10.3467,-23.6667 0.4934,-4.9333 2.3067,-9.4666 3.8267,-14.0533 0.9333,-2.7867 0.6533,-4.4133 -2.0533,-5.4133 -2.7867,-1.0134 -4.7467,-3.16 -7.0534,-4.8534 -6.6,-4.8533 -6.9866,-12.04 -5.4666,-18.7066 1.4266,-6.24 6.1733,-10.96 12.76,-12.7734 3.8533,-1.0533 7.8266,-1.7733 11.7866,-2.32 7.96,-1.1066 8.5734,-1.2 8.5867,-9.52 0.013,-7.4266 3,-13.36 7.32,-18.8266 7.6533,-9.72 23.88,-10.68 30.8667,1.9066 1.52,2.7467 3.1733,5.3867 4.2666,8.3867 1.08,2.9733 0.1867,6.3467 2.2534,9.4667 8.0666,-2.2934 16.3333,-4.2267 24.3066,-7.0267 6.5734,-2.32 13.2134,-4.2 18.48,1.2667 5.84,6.08 7.6134,13.8666 5.0134,22.2666 -2.88,9.2934 -9.12,14.88 -19.32,16.6934 5.1733,8.4533 7.6533,17.0533 7.5066,26.4666 -0.12,8.4934 -3.6,16.1067 -10.4133,19.5334 -7.76,3.9066 -17.0933,4.6666 -25.0533,-1.7867 -3.0934,-2.52 -6.3867,-4.7733 -10.3334,-7.72"
         style="fill:#4fd6c3;fill-opacity:1;fill-rule:nonzero;stroke:none;stroke-width:0.133333" />
      <path
         id="path254"
         d="m -4125.5947,2651.3443 c -0.027,-6.68 -4.84,-10.8133 -12.5733,-10.8 -7.9734,0.027 -12.72,4.5333 -12.5467,11.9467 0.1067,4.6 7.6133,10.5066 13.0267,10.2533 5.1066,-0.24 12.1066,-6.84 12.0933,-11.4 z m 25.9733,-0.8267 c 4.7334,6.04 9.16,11.5067 11.8,18.3067 2.6934,6.9867 1.6534,13.9467 -0.053,20.2933 -1.8267,6.7867 -8.8,9.84 -15.44,10.6667 -7.9333,1 -16.12,1.28 -23.1733,-4.0267 -3.1867,-2.4 -5.5734,-2.2266 -7.1467,2.0934 -1.8267,4.9866 -5.5733,8.8533 -9.8,11.68 -9.8933,6.6266 -28.1467,-1.04 -31.28,-12.8134 -2.3467,-8.8266 -2.8667,-17.36 2.04,-25.8266 3.6267,-6.2667 2.88,-5.84 -3.6267,-8.0134 -10.3466,-3.4533 -20.1333,-8.36 -26.0266,-18.3066 -4.0534,-6.8667 1.2933,-21.2934 8.84,-24.1467 9.1466,-3.4667 18.1866,-6.48 28.4,-3.7067 6.7333,1.8267 7.7466,0.3734 7.8133,-6.8933 0.013,-2.5867 -0.2933,-5.1867 -0.053,-7.7467 0.5333,-5.64 2.0666,-10.7333 8.2533,-12.84 6.3467,-2.1733 12.4267,-3.5466 18.8133,0.4534 5.8134,3.64 9.5467,8 8.9334,15.2266 -0.093,1.0934 0.44,2.24 0.68,3.36 1.9066,8.9067 2.16,8.8134 10.52,5.1334 6.7066,-2.9467 12.96,-7.28 20.9866,-6.6134 8.3734,0.6934 18.04,10.56 17.28,18.9334 -0.5466,6.0666 -0.84,11.8533 -8.04,15.5466 -6.2666,3.2134 -12.0266,7.4667 -19.72,9.24"
         style="fill:#fdf028;fill-opacity:1;fill-rule:nonzero;stroke:none;stroke-width:0.133333" />
      <path
         id="path255"
         d="m -3726.9947,2418.2776 c -4.1333,0.093 -10.12,6.0534 -10.2,10.1467 -0.12,6.0533 8.7467,15.5733 14.12,15.1867 4.3467,-0.32 11.32,-8.28 11.2533,-12.84 -0.093,-6.1734 -7.9466,-12.64 -15.1733,-12.4934 z m 66.8267,-13.08 c 2.2,7.3867 -3.6267,12.8134 -9.0934,18.48 -5.96,6.1734 -5.8933,6.24 0.013,12.1467 5.92,5.92 8.5733,20.08 5.0933,27.2267 -4.5467,9.3333 -15.48,15.4666 -25.52,13.6133 -5.0667,-0.92 -10.2933,0.36 -15.2667,-1.8533 -2.9733,-1.3334 -4.56,1.2133 -5.92,3.5866 -3.4266,6.0267 -7.9733,11.12 -12.9066,15.9734 -5.4,5.3066 -11.5867,6.1333 -18.2,3.5333 -10.1334,-3.9733 -16.8134,-11.04 -16.8267,-22.52 0,-6.4933 -3.0667,-12.84 -0.4933,-19.48 0.9866,-2.5733 -1.0534,-3.92 -3.6134,-4.76 -7.52,-2.5067 -11.16,-8.3333 -13.2666,-15.6667 -1.9334,-6.6533 0.4933,-12.4 2.88,-18.2266 0.7066,-1.7067 2.4666,-2.8134 4.08,-2.8267 7.4266,-0.067 12.8933,-6.2933 20.3866,-6.2133 2.6934,0.027 3.8667,-2.28 4.04,-4.7734 0.2,-2.8533 0.053,-5.7333 0.24,-8.6 0.8267,-12.4266 12.64,-21.9333 24.6134,-20.1733 4.8666,0.7067 7.4133,3.4667 9.5733,7.5467 3.7067,6.9866 3.9733,7.0666 11.1467,4.2933 4.6133,-1.7867 9.4266,-2.5067 14.1733,-3.2667 9.6133,-1.5466 19.0933,3.44 23.7733,11.8267 1.5067,2.68 0.7734,5.6 1.0934,10.1333"
         style="fill:#71e2ff;fill-opacity:1;fill-rule:nonzero;stroke:none;stroke-width:0.133333" />
      <path
         id="path256"
         d="m -3481.1414,2405.011 c 0.093,-3.8934 -0.4533,-6.3334 -2.36,-8.3734 -2.8133,-3.0266 -8.0133,-4.9466 -10.8666,-2.9466 -4.2534,3 -10.4,4.6533 -10.8,11.24 -0.4,6.5466 6.4933,15.08 12.7066,16.2533 4.84,0.92 8.4267,-3.1867 10.68,-12.32 0.4,-1.6533 0.56,-3.3733 0.64,-3.8533 z m -8.9466,42.6 c -7.0134,2.9333 -10.84,8.2266 -16.04,11.7466 -9.1467,6.1734 -20.4134,7.04 -28.0667,1.4667 -3.96,-2.88 -6.0267,-6.68 -6.52,-11.5733 -0.96,-9.6134 1.2133,-18.6267 4.9467,-27.3467 2.6133,-6.1067 2.5066,-6.8667 -2.8667,-11.4667 -5.2,-4.44 -7.8933,-10.5333 -10.56,-16.52 -1.64,-3.6933 3.1867,-11.7066 7.96,-13.8133 6.8267,-3.0133 13.9333,-2.8933 21.08,-1.3867 7.7733,1.64 8.0667,1.76 10.36,-5.7733 3.3333,-11.04 11.04,-17.0533 21.6933,-19.68 4.92,-1.2133 9.3734,0.5067 13.8934,3.0133 4.84,2.6667 6.2,6.2134 6.0266,11.1867 -0.093,2.76 1.4,4.1067 4.32,4.04 2.6267,-0.053 5.1067,-0.4133 7.5734,-1.3467 5.2266,-1.9866 10.5733,-1.56 16,-0.7333 7.4533,1.1333 13.0266,4.7333 15.44,11.9467 2.4,7.2 5.64,14.32 3.92,22.3466 -1.4267,6.6134 -5.2267,11.0934 -11.9467,11.72 -4.5867,0.44 -8.7733,2.8134 -13.4933,2.3067 -2.6134,-0.2933 -3.44,1.3333 -3.5067,3.72 -0.067,2.3733 0.3733,4.6 1.4533,6.6533 4.9867,9.44 -3.6,26.96 -10.8533,33.1467 -3.2267,2.7467 -14.8533,2.0667 -18.9867,-0.9333 -4.6,-3.3467 -9.4,-6.5867 -11.8266,-12.72"
         style="fill:#e186ff;fill-opacity:1;fill-rule:nonzero;stroke:none;stroke-width:0.133333" />
      <path
         id="path257"
         d="m -3829.5814,2465.291 c -4.88,0.2 -11.5066,-4.0134 -12.8,-8.1334 -1.5466,-4.8933 1.8934,-12.5066 6.64,-15.0266 3.36,-1.7867 6.84,-2.5467 10.6534,-2.7467 5.5866,-0.28 8.0133,3.2667 10.5733,7.2533 2.6,4.04 1.6267,7.6 -0.6667,11.16 -3.36,5.24 -7.2266,7.2 -14.4,7.4934"
         style="fill:#4fd6c3;fill-opacity:1;fill-rule:nonzero;stroke:none;stroke-width:0.133333" />
      <path
         id="path258"
         d="m -3599.9414,2394.3043 c 6.2534,-0.093 14.64,6.7733 14.4934,11.8933 -0.2267,7.72 -8.12,17.1067 -14.1867,16.8934 -7.44,-0.2667 -14.16,-8.0667 -14.1467,-16.4 0.013,-6.48 6.4667,-12.2667 13.84,-12.3867"
         style="fill:#71e2ff;fill-opacity:1;fill-rule:nonzero;stroke:none;stroke-width:0.133333" />
      <path
         id="path259"
         d="m -2964.3014,2649.5576 c 7.2533,0.067 13.9867,6.1867 13.72,12.4934 -0.3733,8.6133 -6.7733,16.2933 -13.44,16.12 -6.0667,-0.16 -13.8267,-8.1334 -13.8667,-14.2534 -0.027,-5.9066 8.0134,-14.4 13.5867,-14.36"
         style="fill:#ffb200;fill-opacity:1;fill-rule:nonzero;stroke:none;stroke-width:0.133333" />
      <path
         id="path260"
         d="m -4041.928,2557.571 c 9.9466,0.2 13.9466,3.7333 13.6266,12.0533 -0.2933,7.3733 -7.8933,13.6 -16.2266,13.2933 -7.0267,-0.2533 -11.3867,-5.8933 -11.1734,-14.44 0.16,-6.2533 6.2134,-11.0533 13.7734,-10.9066"
         style="fill:#fdf028;fill-opacity:1;fill-rule:nonzero;stroke:none;stroke-width:0.133333" />
      <path
         id="path261"
         d="m -3375.0347,2445.5176 c -5.4667,0.1067 -7.84,-1.6 -9.3733,-6.7466 -1.8267,-6.1067 -0.053,-11.96 4.6,-15.1734 5.8,-4.0133 14.0666,-2.56 17.24,2.92 1.56,2.6934 1.72,5.1867 0.3466,8.0934 -3.76,7.9733 -6.8933,10.7866 -12.8133,10.9066"
         style="fill:#e186ff;fill-opacity:1;fill-rule:nonzero;stroke:none;stroke-width:0.133333" />
      <path
         id="path262"
         d="m -3157.2881,2518.611 c -0.3066,-7.0267 4.8534,-12.6134 11.9867,-12.96 6.2533,-0.2934 11.92,4.28 11.9733,9.68 0.067,6.3866 -7.3866,13.7733 -14.0666,13.9333 -5.68,0.1333 -9.6134,-4.1067 -9.8934,-10.6533"
         style="fill:#ff77cb;fill-opacity:1;fill-rule:nonzero;stroke:none;stroke-width:0.133333" />
      <path
         id="path263"
         d="m -3877.048,3922.4109 c 0.12,-6.6133 -4.4134,-11.0133 -11.32,-10.9866 -7.12,0.027 -14.1734,5.88 -14.36,11.9333 -0.2,6.5067 4.6933,10.68 12.4933,10.64 7.44,-0.027 13.0533,-4.9733 13.1867,-11.5867 z m -77.44,-34.08 c 6.6533,-11.5733 14.84,-15.4133 28.48,-13.9466 8.9466,0.96 17.4666,3.08 25.3066,7.36 3.9067,2.1333 5.7334,1.28 6.6934,-2.7867 2.68,-11.28 11.9333,-13.68 21.4,-15.4667 3.84,-0.72 8,0.3467 9.9466,3.7734 4.6,8.1066 9.4134,16.28 6.7467,26.4533 -1.16,4.4133 0.2133,6.2667 4.6667,5.8267 6.4533,-0.6534 11.8133,2.16 17.24,4.4133 4.3466,1.8133 9.2133,4.16 10.0266,9.7733 1.0134,7.0934 0.2,13.5734 -6.0933,18.6134 -5.68,4.5466 -11.32,8.6533 -19,8.5733 -2.8,-0.027 -4.84,1.3867 -3.84,4.1867 2.2933,6.4266 0.7867,13.2266 2.24,19.5466 1.6667,7.2934 -1.1867,13.0534 -4.4933,18.6534 -7.3467,12.4266 -21.5867,14.44 -32.1734,4.7733 -6.8,-6.1867 -12.8933,-13.04 -18.1333,-20.6267 -3.32,-4.8133 -4.6933,-5.3733 -9.12,-1.8933 -3.8933,3.0667 -7.7467,5.84 -12.68,6.9467 -11.0533,2.4666 -20.28,-3.4267 -21.96,-14.5334 -1.8267,-12.2 -0.9733,-23.7866 8.08,-33.56 3.7733,-4.0666 3.2667,-5.9066 -1.88,-8.1066 -9.2,-3.9334 -11.9333,-11.72 -13.1067,-19.3467 -0.12,-3.8533 0.2667,-6.2 1.6534,-8.6267"
         style="fill:#ff77cb;fill-opacity:1;fill-rule:nonzero;stroke:none;stroke-width:0.133333" />
      <path
         id="path264"
         d="m -3452.6214,3989.1576 c -0.1466,7.64 6.08,14.1733 13.3467,13.9867 6.1867,-0.16 10.6,-5.1734 10.6133,-12.0667 0.013,-7.8933 -2.8133,-10.2267 -12.2666,-10.1333 -7.9734,0.067 -11.6,2.6 -11.6934,8.2133 z m -10.96,44.56 c -7.8266,6.6133 -17.1733,6.0267 -25.0133,2.2667 -6.88,-3.2934 -10.5067,-10.84 -10.7867,-19.3334 -0.32,-9.4133 2,-18.04 7.0134,-26.6 -10.24,-1.6133 -16.5867,-7.0933 -19.64,-16.3333 -2.76,-8.3467 -1.1334,-16.16 4.6,-22.3467 5.16,-5.56 11.8266,-3.8133 18.4533,-1.6266 8.0133,2.6666 16.32,4.44 24.4267,6.5733 2,-3.16 1.0533,-6.5067 2.08,-9.5067 1.0266,-3.0266 2.64,-5.68 4.1066,-8.4666 6.7467,-12.7067 22.9867,-12.0667 30.8267,-2.4934 4.4133,5.3867 7.52,11.2667 7.6667,18.68 0.1733,8.3334 0.8,8.4134 8.7733,9.36 3.9733,0.48 7.9467,1.12 11.8133,2.1067 6.64,1.6933 11.4667,6.3067 13.0134,12.52 1.64,6.64 1.4,13.8267 -5.12,18.8133 -2.2667,1.7334 -4.1867,3.92 -6.9467,4.9867 -2.6933,1.04 -2.9333,2.68 -1.96,5.44 1.6133,4.56 3.5067,9.0667 4.0933,13.9867 1.1734,9.8666 -4.4266,16.76 -9.8933,23.8666 -3.6133,4.68 -8.32,7.0667 -14.04,7.1467 -11.6933,0.1467 -21.0133,-4.5067 -27.0933,-14.72 -2.1867,-3.6667 -3.88,-7.6267 -6.1867,-12.2133 -3.8933,3 -7.1333,5.3333 -10.1867,7.8933"
         style="fill:#4fd6c3;fill-opacity:1;fill-rule:nonzero;stroke:none;stroke-width:0.133333" />
      <path
         id="path265"
         d="m -3200.3681,3943.7309 c 5.4134,0.16 12.8,-5.9066 12.8267,-10.5066 0.027,-7.4 -4.8,-11.8134 -12.7733,-11.6934 -7.72,0.1334 -12.4667,4.36 -12.36,11.04 0.067,4.56 7.1866,11.0134 12.3066,11.16 z m -58.1866,-20.3733 c -7.2667,-3.5467 -7.6667,-9.32 -8.3333,-15.3867 -0.9067,-8.36 8.56,-18.4 16.92,-19.2533 8.0133,-0.8267 14.3466,3.4 21.1066,6.2133 8.44,3.52 8.6933,3.6134 10.4267,-5.3333 0.2266,-1.12 0.72,-2.28 0.6133,-3.3733 -0.7467,-7.2134 2.9067,-11.64 8.6533,-15.3867 6.3067,-4.12 12.4,-2.8667 18.7867,-0.8133 6.24,2 7.8667,7.0533 8.5067,12.68 0.28,2.5466 0.027,5.16 0.093,7.7466 0.2,7.2667 1.24,8.7067 7.9467,6.7467 10.1466,-2.9733 19.24,-0.1333 28.4533,3.16 7.6,2.72 13.2267,17.04 9.2933,23.9867 -5.6933,10.0533 -15.3866,15.1466 -25.6666,18.7866 -6.48,2.3067 -7.2267,1.88 -3.48,8.08 5.0666,8.3867 4.7066,16.92 2.52,25.7867 -2.9067,11.8267 -21.0134,19.84 -31.0134,13.4133 -4.2933,-2.76 -8.12,-6.5466 -10.0266,-11.5066 -1.6534,-4.28 -4.04,-4.4134 -7.1867,-1.96 -6.9467,5.44 -15.1467,5.32 -23.0933,4.48 -6.6533,-0.7067 -13.68,-3.6267 -15.64,-10.3734 -1.8267,-6.32 -2.9867,-13.2666 -0.4267,-20.2933 2.4934,-6.8533 6.8267,-12.4 11.44,-18.52 -7.7333,-1.64 -13.56,-5.7867 -19.8933,-8.88"
         style="fill:#fdf028;fill-opacity:1;fill-rule:nonzero;stroke:none;stroke-width:0.133333" />
      <path
         id="path266"
         d="m -3677.728,3978.0643 c 0.013,4.56 7.1466,12.3866 11.48,12.6133 5.4,0.2933 14.0666,-9.4 13.84,-15.44 -0.16,-4.1067 -6.2534,-9.9467 -10.3867,-9.96 -7.2267,-0.013 -14.96,6.6 -14.9333,12.7867 z m -51.24,-34.76 c 4.52,-8.4667 13.92,-13.64 23.5466,-12.2667 4.7734,0.6667 9.6,1.2933 14.24,3 7.2134,2.64 7.48,2.5467 11.0667,-4.5067 2.08,-4.12 4.56,-6.9333 9.4133,-7.7333 11.9467,-1.9733 23.9467,7.2933 25,19.72 0.24,2.8533 0.1467,5.7333 0.4,8.5867 0.2267,2.4933 1.44,4.76 4.1334,4.6933 7.4933,-0.2267 13.0666,5.8933 20.5066,5.8267 1.6134,-0.027 3.3867,1.0533 4.12,2.7466 2.5067,5.7867 5.04,11.48 3.24,18.1734 -1.9733,7.3733 -5.5066,13.2666 -12.9866,15.9066 -2.5334,0.8934 -4.5467,2.28 -3.5067,4.8267 2.6933,6.6 -0.2533,13 -0.1333,19.4933 0.2,11.48 -6.3334,18.6667 -16.3867,22.84 -6.5733,2.72 -12.7733,2 -18.2667,-3.2 -5.0266,-4.7466 -9.68,-9.76 -13.2133,-15.72 -1.4,-2.3466 -3.04,-4.8666 -5.9867,-3.48 -4.9333,2.32 -10.1866,1.1334 -15.2266,2.16 -10,2.0267 -21.0534,-3.8933 -25.7734,-13.1466 -3.6133,-7.0667 -1.24,-21.28 4.5734,-27.3067 5.8,-6.0267 5.8533,-6.08 -0.2134,-12.1467 -5.56,-5.5733 -11.5066,-10.88 -9.44,-18.32 0.24,-4.52 -0.5466,-7.4266 0.8934,-10.1466"
         style="fill:#71e2ff;fill-opacity:1;fill-rule:nonzero;stroke:none;stroke-width:0.133333" />
      <path
         id="path267"
         d="m -3552.7947,4013.3843 c 4.8933,0.1066 11.44,-4.2267 12.6533,-8.3734 1.4534,-4.9333 -2.12,-12.4666 -6.9333,-14.9066 -3.3867,-1.7067 -6.88,-2.4134 -10.6933,-2.5334 -5.5867,-0.1733 -7.96,3.4267 -10.44,7.4534 -2.52,4.08 -1.48,7.6266 0.88,11.1466 3.4666,5.16 7.3733,7.0667 14.5333,7.2134"
         style="fill:#4fd6c3;fill-opacity:1;fill-rule:nonzero;stroke:none;stroke-width:0.133333" />
      <path
         id="path268"
         d="m -3779.1147,3951.3443 c -6.2533,0.013 -14.5067,7.0533 -14.2667,12.1466 0.3734,7.72 8.44,16.96 14.5067,16.6267 7.4267,-0.4 14,-8.3333 13.8267,-16.6533 -0.1334,-6.4934 -6.6934,-12.1467 -14.0667,-12.12"
         style="fill:#71e2ff;fill-opacity:1;fill-rule:nonzero;stroke:none;stroke-width:0.133333" />
      <path
         id="path269"
         d="m -3313.968,3953.0909 c -9.9334,0.3867 -13.8667,3.9867 -13.3867,12.3067 0.4267,7.36 8.1467,13.44 16.48,12.9733 7.0133,-0.3866 11.28,-6.1066 10.8933,-14.6533 -0.2666,-6.24 -6.4266,-10.92 -13.9866,-10.6267"
         style="fill:#fdf028;fill-opacity:1;fill-rule:nonzero;stroke:none;stroke-width:0.133333" />
      <path
         id="path270"
         d="m -3986.968,3869.0643 c 0.1733,-7.04 -5.1067,-12.5334 -12.2267,-12.7334 -6.2667,-0.1733 -11.84,4.5067 -11.8,9.8934 0.053,6.3866 7.64,13.64 14.32,13.6666 5.6933,0.027 9.5467,-4.28 9.7067,-10.8266"
         style="fill:#ff77cb;fill-opacity:1;fill-rule:nonzero;stroke:none;stroke-width:0.133333" />
      <path
         id="path271"
         d="m -4269.008,2860.1576 c -0.013,-7.8 -4.2134,-12.6667 -10.7334,-12.4267 -6.04,0.2267 -11.84,7.32 -11.8266,14.44 0.027,6.92 4.44,11.4134 11.0533,11.24 6.6267,-0.16 11.5333,-5.8266 11.5067,-13.2533 z m -37.48,-65.6666 c 7.6266,1.1333 15.4266,3.8133 19.4266,12.9866 2.24,5.1334 4.08,5.6267 8.1334,1.8267 9.6933,-9.12 21.28,-10.0533 33.4933,-8.3067 11.12,1.6 17.08,10.7867 14.68,21.8534 -1.08,4.9333 -3.8133,8.8133 -6.8533,12.7333 -3.4534,4.44 -2.88,5.8133 1.96,9.1066 7.6133,5.1734 14.5066,11.24 20.7466,17.9867 9.7334,10.52 7.8134,24.7733 -4.56,32.2133 -5.5733,3.3467 -11.32,6.2267 -18.6133,4.6134 -6.3467,-1.4134 -13.1333,0.1333 -19.5733,-2.1067 -2.8134,-0.9867 -4.2,1.08 -4.16,3.8667 0.1333,7.68 -3.9467,13.3466 -8.4534,19.0666 -4.9866,6.32 -11.4533,7.1734 -18.56,6.2 -5.6266,-0.76 -8,-5.6133 -9.84,-9.9466 -2.2933,-5.4134 -5.1333,-10.7467 -4.5333,-17.2134 0.4133,-4.4533 -1.4533,-5.8133 -5.8533,-4.6266 -10.16,2.7333 -18.36,-2.0134 -26.5067,-6.56 -3.44,-1.92 -4.5333,-6.08 -3.84,-9.92 1.72,-9.48 4.0533,-18.7467 15.32,-21.5067 4.0533,-1 4.9067,-2.8267 2.7467,-6.72 -4.3334,-7.8133 -6.5067,-16.3066 -7.5334,-25.2533 -1.56,-13.6267 2.2267,-21.84 13.76,-28.5733 2.4134,-1.4 4.7467,-1.8 8.6134,-1.72"
         style="fill:#ff77cb;fill-opacity:1;fill-rule:nonzero;stroke:none;stroke-width:0.133333" />
      <path
         id="path272"
         d="m -4271.928,3604.3043 c -0.013,9.4533 2.3333,12.2666 10.2266,12.2 6.88,-0.053 11.8667,-4.4934 11.9867,-10.6934 0.1333,-7.2533 -6.4267,-13.44 -14.08,-13.2533 -5.6,0.1467 -8.12,3.7733 -8.1333,11.7467 z m 44.8,-12.76 c 4.6,2.2666 8.5733,3.9466 12.2533,6.1066 10.2533,6.0134 14.9733,15.2934 14.8933,26.9867 -0.027,5.72 -2.3733,10.44 -7.04,14.0933 -7.0666,5.5067 -13.9333,11.1467 -23.8,10.0534 -4.9333,-0.56 -9.44,-2.4134 -14.0133,-4 -2.7733,-0.96 -4.4,-0.7067 -5.4267,1.9866 -1.0533,2.7734 -3.2266,4.7067 -4.9466,6.9867 -4.9334,6.56 -12.12,6.8533 -18.76,5.2533 -6.2267,-1.5066 -10.8934,-6.3066 -12.6267,-12.9333 -1.0133,-3.8533 -1.68,-7.8267 -2.1733,-11.8 -1.0134,-7.9733 -1.0934,-8.5867 -9.4134,-8.7067 -7.4266,-0.093 -13.32,-3.16 -18.7466,-7.5333 -9.6267,-7.7733 -10.3734,-24.0133 2.2933,-30.84 2.76,-1.4933 5.4133,-3.12 8.44,-4.1733 2.9867,-1.0534 6.3333,-0.12 9.4933,-2.1334 -2.2,-8.1066 -4.0266,-16.4 -6.7466,-24.4 -2.2267,-6.6 -4.0267,-13.2666 1.5066,-18.4533 6.1334,-5.7733 13.9467,-7.4533 22.32,-4.7467 9.2534,2.9867 14.7734,9.2934 16.4534,19.52 8.52,-5.08 17.1466,-7.44 26.56,-7.2 8.48,0.2267 16.0666,3.8 19.4,10.6534 3.8133,7.8133 4.4666,17.16 -2.0934,25.04 -2.5466,3.0666 -4.8533,6.32 -7.8266,10.24"
         style="fill:#4fd6c3;fill-opacity:1;fill-rule:nonzero;stroke:none;stroke-width:0.133333" />
      <path
         id="path273"
         d="m -4099.4614,3788.8909 c -6.6933,-0.053 -10.88,4.7067 -10.96,12.44 -0.067,7.9734 4.3734,12.7734 11.7867,12.6934 4.6,-0.053 10.6,-7.4934 10.4133,-12.8934 -0.1866,-5.12 -6.6933,-12.2 -11.24,-12.24 z m -0.52,-25.9866 c 6.0934,-4.6534 11.6134,-9.0267 18.4534,-11.56 7.0133,-2.6134 13.96,-1.4934 20.2933,0.28 6.76,1.92 9.72,8.92 10.48,15.5733 0.8933,7.9467 1.0667,16.1333 -4.32,23.12 -2.44,3.1733 -2.2933,5.5467 2.0133,7.1733 4.96,1.88 8.7867,5.68 11.56,9.9467 6.5067,9.9733 -1.3866,28.12 -13.2,31.12 -8.8533,2.24 -17.3866,2.6533 -25.8,-2.3467 -6.2266,-3.7066 -5.8,-2.96 -8.0533,3.52 -3.5733,10.3067 -8.6,20.04 -18.6267,25.8 -6.9066,3.9734 -21.2666,-1.5466 -24.04,-9.12 -3.3466,-9.2 -6.2533,-18.28 -3.36,-28.4533 1.92,-6.7067 0.48,-7.7333 -6.7866,-7.8933 -2.5867,-0.053 -5.2,0.2266 -7.76,-0.04 -5.6267,-0.6 -10.6934,-2.1867 -12.7334,-8.4134 -2.0933,-6.3733 -3.3866,-12.4666 0.68,-18.8 3.72,-5.76 8.12,-9.44 15.3334,-8.7466 1.0933,0.1066 2.2533,-0.4134 3.3733,-0.64 8.9333,-1.8 8.84,-2.0534 5.2667,-10.4667 -2.8667,-6.7333 -7.1334,-13.04 -6.36,-21.0667 0.7866,-8.36 10.7733,-17.8933 19.1333,-17.04 6.0667,0.6134 11.8533,0.9867 15.4533,8.2267 3.1334,6.3067 7.32,12.1067 9,19.8267"
         style="fill:#fdf028;fill-opacity:1;fill-rule:nonzero;stroke:none;stroke-width:0.133333" />
      <path
         id="path274"
         d="m -4347.088,3364.5576 c 0.027,4.1333 5.92,10.1867 10.0133,10.32 6.0533,0.1867 15.68,-8.5467 15.36,-13.9467 -0.2667,-4.3333 -8.1467,-11.4133 -12.6933,-11.4 -6.1867,0.027 -12.7467,7.8 -12.68,15.0267 z m -12.28,-66.9867 c 7.4266,-2.1066 12.7733,3.7867 18.3733,9.32 6.1067,6.0267 6.1733,5.96 12.1467,0.1334 5.9866,-5.8534 20.1866,-8.3334 27.28,-4.76 9.28,4.6533 15.28,15.6666 13.3066,25.68 -0.9866,5.0533 0.24,10.2933 -2.04,15.2533 -1.3733,2.9467 1.16,4.56 3.52,5.9467 5.9734,3.5066 11.0267,8.1066 15.8134,13.1066 5.24,5.4667 5.9866,11.6667 3.32,18.24 -4.1067,10.0934 -11.2534,16.68 -22.7334,16.5467 -6.4933,-0.067 -12.8666,2.92 -19.4933,0.2667 -2.56,-1.0267 -3.92,1.0133 -4.8,3.5466 -2.5867,7.4934 -8.4533,11.0667 -15.8133,13.0934 -6.6934,1.84 -12.4,-0.6534 -18.2,-3.12 -1.6934,-0.72 -2.7867,-2.4934 -2.7867,-4.1067 0.027,-7.4267 -6.12,-12.9733 -5.96,-20.4533 0.053,-2.6934 -2.2267,-3.9067 -4.7067,-4.1067 -2.8666,-0.24 -5.7466,-0.12 -8.6,-0.3467 -12.4266,-0.9733 -21.7866,-12.9066 -19.88,-24.8533 0.7734,-4.8667 3.56,-7.36 7.6667,-9.48 7.0267,-3.6267 7.1067,-3.8933 4.4267,-11.0933 -1.7334,-4.6267 -2.3867,-9.4534 -3.0934,-14.2134 -1.44,-9.6266 3.6667,-19.0533 12.1067,-23.6266 2.7067,-1.4667 5.6133,-0.7067 10.1467,-0.9734"
         style="fill:#71e2ff;fill-opacity:1;fill-rule:nonzero;stroke:none;stroke-width:0.133333" />
      <path
         id="path275"
         d="m -4350.5147,3102.9976 c -3.8933,-0.1467 -6.3333,0.3867 -8.3867,2.2533 -3.0666,2.7867 -5.0533,7.96 -3.0933,10.8267 2.9467,4.3067 4.5333,10.4667 11.12,10.9467 6.5333,0.4666 15.1467,-6.3067 16.4,-12.52 0.9733,-4.8134 -3.08,-8.4534 -12.1867,-10.8134 -1.6533,-0.4266 -3.36,-0.6133 -3.8533,-0.6933 z m 42.4933,9.4667 c 2.84,7.04 8.0934,10.9466 11.5467,16.1866 6.0667,9.2134 6.7867,20.4934 1.1333,28.08 -2.9333,3.92 -6.7466,5.9467 -11.6533,6.3734 -9.6267,0.84 -18.6133,-1.44 -27.28,-5.28 -6.08,-2.68 -6.84,-2.5867 -11.5067,2.7333 -4.4933,5.1467 -10.6266,7.76 -16.6533,10.3467 -3.7067,1.6 -11.6533,-3.32 -13.7067,-8.12 -2.9333,-6.8534 -2.7333,-13.96 -1.1333,-21.0934 1.7333,-7.76 1.8533,-8.0533 -5.6533,-10.4266 -10.9867,-3.4667 -16.92,-11.2534 -19.4134,-21.9334 -1.1466,-4.9333 0.6267,-9.36 3.1867,-13.8666 2.72,-4.7867 6.2933,-6.12 11.2667,-5.88 2.7466,0.12 4.12,-1.3467 4.0933,-4.28 -0.027,-2.6134 -0.36,-5.1067 -1.2667,-7.5734 -1.92,-5.2533 -1.44,-10.6 -0.5333,-16.0133 1.2267,-7.4267 4.88,-12.9733 12.1333,-15.2933 7.2267,-2.3067 14.3867,-5.4667 22.4,-3.6534 6.5867,1.5067 11.0134,5.36 11.5734,12.08 0.3733,4.6 2.7066,8.8134 2.1333,13.5334 -0.32,2.6 1.2933,3.4533 3.68,3.5466 2.36,0.1067 4.6,-0.3066 6.68,-1.3733 9.4933,-4.8667 26.8933,3.9333 33,11.2667 2.7067,3.2533 1.88,14.8666 -1.1733,18.96 -3.4,4.56 -6.6934,9.3333 -12.8534,11.68"
         style="fill:#e186ff;fill-opacity:1;fill-rule:nonzero;stroke:none;stroke-width:0.133333" />
      <path
         id="path276"
         d="m -4288.4347,3471.6376 c 0.1333,4.8933 -4.16,11.4667 -8.2933,12.72 -4.92,1.48 -12.48,-2.0533 -14.9467,-6.84 -1.7467,-3.3733 -2.4667,-6.8667 -2.6133,-10.68 -0.2134,-5.5867 3.36,-7.9733 7.3733,-10.48 4.0667,-2.5467 7.6267,-1.5467 11.16,0.8 5.1867,3.4267 7.1067,7.32 7.32,14.48"
         style="fill:#4fd6c3;fill-opacity:1;fill-rule:nonzero;stroke:none;stroke-width:0.133333" />
      <path
         id="path277"
         d="m -4364.288,3235.9576 c -0.027,-6.2533 6.9466,-14.56 12.0533,-14.3467 7.72,0.32 17.0267,8.32 16.7333,14.3867 -0.36,7.44 -8.24,14.0667 -16.5733,13.9467 -6.48,-0.08 -12.1867,-6.6134 -12.2133,-13.9867"
         style="fill:#71e2ff;fill-opacity:1;fill-rule:nonzero;stroke:none;stroke-width:0.133333" />
      <path
         id="path278"
         d="m -4189.168,3701.3843 c 0.32,-9.9467 3.9066,-13.8934 12.2133,-13.4667 7.3733,0.3733 13.5067,8.04 13.0933,16.3733 -0.3333,7.0267 -6.0266,11.32 -14.5733,11 -6.2533,-0.2266 -10.9733,-6.3466 -10.7333,-13.9066"
         style="fill:#fdf028;fill-opacity:1;fill-rule:nonzero;stroke:none;stroke-width:0.133333" />
      <path
         id="path279"
         d="m -4302.208,2984.5309 c 0.04,5.48 -1.6934,7.8267 -6.8667,9.2934 -6.1333,1.76 -11.9467,-0.08 -15.1067,-4.7734 -3.9466,-5.8533 -2.4,-14.1066 3.12,-17.2133 2.72,-1.5333 5.2134,-1.6533 8.0934,-0.2533 7.9333,3.8666 10.7066,7.04 10.76,12.9466"
         style="fill:#e186ff;fill-opacity:1;fill-rule:nonzero;stroke:none;stroke-width:0.133333" />
      <path
         id="path280"
         d="m -4207.688,2769.1443 c -7.04,0.2267 -12.56,-5.0133 -12.8134,-12.1467 -0.2133,-6.2533 4.4267,-11.8666 9.8134,-11.8533 6.3866,0 13.6933,7.5467 13.76,14.2267 0.067,5.68 -4.2134,9.5733 -10.76,9.7733"
         style="fill:#ff77cb;fill-opacity:1;fill-rule:nonzero;stroke:none;stroke-width:0.133333" />
      <path
         id="path281"
         d="m -2868.2481,3616.5976 c 0,7.8133 4.1867,12.68 10.6934,12.4533 6.04,-0.2 11.8666,-7.2666 11.8666,-14.4 0.013,-6.9066 -4.4,-11.4133 -11.0133,-11.2666 -6.6133,0.1466 -11.5467,5.7866 -11.5467,13.2133 z m 37.2667,65.7867 c -7.6267,-1.1467 -15.4133,-3.8534 -19.3867,-13.04 -2.2133,-5.1467 -4.0666,-5.64 -8.12,-1.8534 -9.7333,9.08 -21.32,9.9867 -33.52,8.1867 -11.12,-1.6267 -17.04,-10.84 -14.6133,-21.8933 1.0933,-4.9334 3.84,-8.8 6.8933,-12.7067 3.4667,-4.44 2.9067,-5.8133 -1.92,-9.12 -7.6,-5.2 -14.4666,-11.28 -20.6933,-18.0533 -9.6933,-10.56 -7.7333,-24.8134 4.6667,-32.2 5.5866,-3.32 11.3466,-6.1867 18.6266,-4.5467 6.3467,1.4267 13.1334,-0.093 19.5734,2.1733 2.8,0.9867 4.2,-1.0666 4.16,-3.8533 -0.1067,-7.68 3.9866,-13.3333 8.52,-19.04 5.0133,-6.3067 11.48,-7.1467 18.5866,-6.1467 5.6134,0.7867 7.9867,5.64 9.8,9.9734 2.28,5.4266 5.1067,10.7733 4.48,17.2266 -0.4266,4.4667 1.4267,5.8267 5.84,4.6534 10.1734,-2.6934 18.36,2.08 26.48,6.6533 3.44,1.9333 4.5067,6.0933 3.8,9.9333 -1.7466,9.48 -4.1066,18.7334 -15.3733,21.4534 -4.0667,0.9866 -4.92,2.8 -2.7733,6.7066 4.3066,7.8267 6.4533,16.3334 7.4533,25.28 1.5067,13.64 -2.3067,21.84 -13.8533,28.5334 -2.4267,1.4 -4.76,1.7866 -8.6267,1.68"
         style="fill:#ff77cb;fill-opacity:1;fill-rule:nonzero;stroke:none;stroke-width:0.133333" />
      <path
         id="path282"
         d="m -2999.7947,3768.2243 c -8.6134,0.12 -12.6,4.16 -12.5734,12.7066 0.013,6.3067 6.28,14.7467 10.8667,14.6534 6.4267,-0.12 13.4,-9.5067 13.2133,-17.7867 -0.1466,-6.4133 -4.08,-9.68 -11.5066,-9.5733 z m 37.7733,-10.24 c 6.3333,-0.88 12.6667,1.6133 19.16,2.6133 5.2667,0.8 11.88,12.0533 11.3467,17.72 -0.6934,7.32 -8.08,15.8133 -15.3334,17.68 -6.3733,1.6533 -12.6933,3.5467 -19.1066,4.92 -2.6,0.56 -3.24,1.8533 -3.3334,4.08 -0.08,2.08 0.3734,4.04 1.3867,5.8 4.0933,7.2133 4.3867,15.4 5.3867,23.24 1.1866,9.3067 -1.9334,17.48 -10.0534,23.0933 -4.56,3.1467 -13.7466,3.1734 -18.6533,0.2267 -8.8667,-5.32 -13.8,-13.76 -17.1733,-22.9733 -1.44,-3.9467 -2.9067,-5.0534 -6.64,-4.1867 -7.2534,1.7067 -14.5734,1.8933 -21.9734,1.2933 -1.4133,-0.1066 -3.1733,0.4667 -4.0933,-0.6133 -4.2533,-4.92 -9.8933,-8.9867 -11.7733,-15.5333 -3.9867,-13.84 1.7733,-28.5867 14.24,-36.4134 3.44,-2.16 2.9466,-3.5066 0.3866,-5.6933 -8.7866,-7.5333 -14.44,-16.92 -16.48,-28.3867 -0.2,-1.1333 -0.5866,-2.3066 -0.44,-3.4 0.6667,-5 -0.3866,-11.3066 4.9867,-13.8266 6.0267,-2.8267 12.6667,-5.6267 19.4667,-0.9067 4,2.7733 8.3866,4.9867 12.48,7.6267 2.52,1.6133 4.2266,1.4266 5.3333,-1.5067 0.4,-1.0667 0.84,-2.1333 1.28,-3.1867 3.9467,-9.5333 12.1867,-11.28 21.1467,-11.4 4.8133,-0.067 13.3733,8.6534 13.88,14.5334 0.5466,6.5333 3.3866,12.6933 2.48,19.5333 -0.5334,3.96 2,6.36 6.52,5.72 1.68,-0.24 3.44,-0.053 5.5733,-0.053"
         style="fill:#ffb200;fill-opacity:1;fill-rule:nonzero;stroke:none;stroke-width:0.133333" />
      <path
         id="path283"
         d="m -2780.2747,2953.7043 c 0.053,-9.4534 -2.2934,-12.2667 -10.1867,-12.24 -6.88,0.04 -11.88,4.4666 -12.0133,10.6533 -0.1734,7.2667 6.3866,13.4667 14.0266,13.3067 5.6134,-0.12 8.1334,-3.7467 8.1734,-11.72 z m -44.84,12.6133 c -4.5867,-2.28 -8.56,-3.9733 -12.24,-6.1467 -10.2267,-6.04 -14.92,-15.3333 -14.8,-27.04 0.053,-5.72 2.4133,-10.44 7.0933,-14.0666 7.08,-5.48 13.96,-11.1067 23.84,-9.9734 4.92,0.5734 9.4267,2.4534 13.9867,4.0534 2.76,0.96 4.4,0.72 5.44,-1.9734 1.0533,-2.7733 3.2266,-4.7066 4.96,-6.9733 4.96,-6.5333 12.1466,-6.8133 18.7866,-5.1867 6.2134,1.52 10.8667,6.3334 12.5734,12.96 1,3.8667 1.6533,7.8534 2.1466,11.8134 0.9734,7.9733 1.0667,8.6 9.3867,8.7333 7.4133,0.1333 13.3067,3.2133 18.7067,7.6133 9.6,7.8 10.3066,24.04 -2.3867,30.8267 -2.7733,1.48 -5.4267,3.1067 -8.4533,4.1467 -2.9867,1.0266 -6.3467,0.093 -9.5067,2.1066 2.1733,8.0934 3.9867,16.4 6.6667,24.4134 2.2133,6.6 3.9866,13.28 -1.56,18.4533 -6.16,5.7467 -13.9734,7.4 -22.3334,4.6667 -9.2533,-3.0134 -14.7466,-9.3467 -16.3866,-19.5734 -8.5467,5.04 -17.1734,7.3867 -26.5867,7.1067 -8.4933,-0.2533 -16.0533,-3.8533 -19.3733,-10.72 -3.7867,-7.8267 -4.4,-17.1733 2.1733,-25.0267 2.56,-3.0533 4.88,-6.3066 7.8667,-10.2133"
         style="fill:#4fd6c3;fill-opacity:1;fill-rule:nonzero;stroke:none;stroke-width:0.133333" />
      <path
         id="path284"
         d="m -2890.3547,2757.1443 c 6.68,0.08 10.88,-4.6667 10.9866,-12.4 0.1067,-7.9733 -4.3333,-12.7867 -11.7466,-12.7333 -4.6,0.04 -10.6267,7.4533 -10.4534,12.8666 0.1734,5.12 6.6534,12.2134 11.2134,12.2667 z m 0.4266,25.9867 c -6.12,4.64 -11.64,8.9866 -18.4933,11.5066 -7.0133,2.5867 -13.9733,1.4534 -20.2933,-0.36 -6.7467,-1.9333 -9.6934,-8.9466 -10.4267,-15.6 -0.8667,-7.9466 -1.0267,-16.1466 4.3867,-23.1066 2.4533,-3.16 2.32,-5.5334 -1.9734,-7.1867 -4.96,-1.8933 -8.7733,-5.7067 -11.5333,-9.9733 -6.48,-10 1.48,-28.12 13.3067,-31.08 8.8533,-2.2 17.3866,-2.6 25.7866,2.44 6.2134,3.72 5.7867,2.9733 8.0667,-3.5067 3.6133,-10.2933 8.6667,-20 18.7067,-25.7333 6.92,-3.96 21.2666,1.6266 24,9.2 3.3333,9.2 6.2,18.2933 3.2666,28.4533 -1.9333,6.7067 -0.4933,7.7467 6.7734,7.92 2.5866,0.067 5.2,-0.2 7.7466,0.067 5.64,0.6266 10.6934,2.2266 12.72,8.4666 2.0667,6.3734 3.3467,12.4667 -0.7466,18.7867 -3.7334,5.76 -8.1467,9.4267 -15.36,8.7067 -1.0934,-0.1067 -2.2534,0.4 -3.3734,0.6266 -8.9466,1.76 -8.84,2.0267 -5.2933,10.44 2.8267,6.7467 7.08,13.0667 6.28,21.0934 -0.8133,8.36 -10.84,17.8666 -19.2,16.9733 -6.0533,-0.64 -11.84,-1.0133 -15.4133,-8.2667 -3.12,-6.3333 -7.28,-12.1466 -8.9334,-19.8666"
         style="fill:#fdf028;fill-opacity:1;fill-rule:nonzero;stroke:none;stroke-width:0.133333" />
      <path
         id="path285"
         d="m -2746.9281,3181.5576 c -0.013,-4.1333 -5.88,-10.2133 -9.9866,-10.36 -6.04,-0.2133 -15.6934,8.5067 -15.4,13.8933 0.2533,4.3334 8.1066,11.44 12.6666,11.44 6.1734,0 12.76,-7.7466 12.72,-14.9733 z m 12.0667,67.0133 c -7.44,2.0934 -12.76,-3.8266 -18.3467,-9.3733 -6.0933,-6.0533 -6.1466,-5.9867 -12.1466,-0.1733 -6.0134,5.8266 -20.2134,8.2666 -27.2934,4.6666 -9.2666,-4.6933 -15.2266,-15.72 -13.2266,-25.72 1,-5.0533 -0.2134,-10.2933 2.0933,-15.24 1.3733,-2.9466 -1.1467,-4.5733 -3.5067,-5.9733 -5.96,-3.52 -10.9866,-8.1467 -15.76,-13.1467 -5.2266,-5.4933 -5.96,-11.6933 -3.2533,-18.2666 4.1333,-10.0667 11.2933,-16.6267 22.7733,-16.4667 6.4934,0.093 12.88,-2.8667 19.4934,-0.2 2.56,1.04 3.92,-0.9867 4.8133,-3.52 2.6133,-7.4933 8.4933,-11.04 15.8667,-13.04 6.68,-1.8267 12.3866,0.68 18.1733,3.1733 1.6933,0.72 2.7867,2.4934 2.7733,4.12 -0.053,7.4267 6.0934,12.9867 5.8934,20.4667 -0.067,2.6933 2.2133,3.9067 4.7066,4.12 2.8534,0.2533 5.7334,0.1467 8.5867,0.3733 12.4267,1.0134 21.7467,12.9867 19.8133,24.9334 -0.8,4.8533 -3.6,7.3466 -7.7066,9.44 -7.04,3.6133 -7.1334,3.88 -4.4667,11.0933 1.72,4.6267 2.36,9.4533 3.0533,14.2133 1.4,9.6267 -3.7333,19.04 -12.1866,23.5867 -2.72,1.4667 -5.6267,0.6933 -10.1467,0.9333"
         style="fill:#71e2ff;fill-opacity:1;fill-rule:nonzero;stroke:none;stroke-width:0.133333" />
      <path
         id="path286"
         d="m -2788.0347,3427.4909 c 3.8933,0.16 6.3333,-0.36 8.4,-2.2266 3.08,-2.7734 5.08,-7.9467 3.12,-10.8267 -2.92,-4.3067 -4.4934,-10.4667 -11.0667,-10.9733 -6.5467,-0.4934 -15.1733,6.2666 -16.4533,12.4533 -0.9867,4.8267 3.0666,8.48 12.16,10.8667 1.64,0.4266 3.36,0.6133 3.84,0.7066 z m -42.4534,-9.6 c -2.8266,-7.0533 -8.0666,-10.9733 -11.4933,-16.2266 -6.04,-9.24 -6.7333,-20.52 -1.04,-28.0934 2.9333,-3.9066 6.7733,-5.92 11.68,-6.3333 9.6267,-0.8133 18.6,1.5067 27.2533,5.3733 6.0667,2.6934 6.8267,2.6134 11.5067,-2.6933 4.52,-5.1333 10.6667,-7.72 16.6933,-10.2933 3.72,-1.5867 11.6534,3.3466 13.68,8.16 2.9067,6.8666 2.6934,13.9733 1.0667,21.0933 -1.76,7.76 -1.88,8.0533 5.6133,10.4533 10.9867,3.5067 16.88,11.3067 19.3467,22 1.1333,4.9334 -0.6533,9.36 -3.2267,13.84 -2.7466,4.8 -6.32,6.1067 -11.2933,5.8667 -2.7467,-0.1467 -4.12,1.32 -4.1067,4.2533 0.027,2.6134 0.3467,5.1067 1.24,7.5867 1.9067,5.2533 1.4,10.6 0.4934,16 -1.2534,7.44 -4.9334,12.96 -12.2,15.2533 -7.24,2.2934 -14.4,5.4267 -22.4,3.5867 -6.5867,-1.5333 -11,-5.4 -11.5334,-12.12 -0.36,-4.6 -2.68,-8.8267 -2.0933,-13.5333 0.3333,-2.6134 -1.2933,-3.4667 -3.6667,-3.5734 -2.3733,-0.1066 -4.6133,0.3067 -6.68,1.36 -9.5066,4.8267 -26.8933,-4.0133 -32.9733,-11.3733 -2.6933,-3.2667 -1.84,-14.88 1.2267,-18.96 3.4266,-4.5467 6.7466,-9.3067 12.9066,-11.6267"
         style="fill:#e186ff;fill-opacity:1;fill-rule:nonzero;stroke:none;stroke-width:0.133333" />
      <path
         id="path287"
         d="m -2776.3014,3074.3309 c -0.12,-4.88 4.1867,-11.44 8.3333,-12.68 4.92,-1.4666 12.48,2.08 14.9334,6.88 1.72,3.3867 2.44,6.88 2.5733,10.6934 0.2,5.5866 -3.4,7.96 -7.4133,10.4666 -4.08,2.5334 -7.6267,1.5067 -11.16,-0.84 -5.1734,-3.4533 -7.08,-7.3466 -7.2667,-14.52"
         style="fill:#4fd6c3;fill-opacity:1;fill-rule:nonzero;stroke:none;stroke-width:0.133333" />
      <path
         id="path288"
         d="m -2753.1414,3299.8243 c 0,6.2533 -7,14.5333 -12.1067,14.3066 -7.72,-0.3333 -16.9866,-8.3733 -16.68,-14.44 0.3867,-7.4266 8.2934,-14.04 16.6134,-13.8933 6.48,0.1067 12.16,6.6667 12.1733,14.0267"
         style="fill:#71e2ff;fill-opacity:1;fill-rule:nonzero;stroke:none;stroke-width:0.133333" />
      <path
         id="path289"
         d="m -3082.6347,3850.0376 c -0.1734,7.2667 -6.4,13.8933 -12.7067,13.52 -8.6,-0.4933 -16.1733,-7.0133 -15.9067,-13.6667 0.2534,-6.0666 8.3467,-13.7066 14.4667,-13.6533 5.9067,0.053 14.28,8.24 14.1467,13.8"
         style="fill:#ffb200;fill-opacity:1;fill-rule:nonzero;stroke:none;stroke-width:0.133333" />
      <path
         id="path290"
         d="m -2828.7281,2858.3976 c -0.3466,9.9467 -3.9466,13.88 -12.2533,13.44 -7.36,-0.4 -13.48,-8.0933 -13.04,-16.4267 0.36,-7.0266 6.0667,-11.3066 14.6133,-10.96 6.2534,0.2534 10.9467,6.4 10.68,13.9467"
         style="fill:#fdf028;fill-opacity:1;fill-rule:nonzero;stroke:none;stroke-width:0.133333" />
      <path
         id="path291"
         d="m -2830.2881,3513.5976 c -0.027,-5.4667 1.72,-7.8133 6.8934,-9.2667 6.1333,-1.7333 11.9466,0.12 15.0933,4.8267 3.9333,5.8667 2.3467,14.12 -3.1867,17.2 -2.72,1.52 -5.2133,1.64 -8.0933,0.2267 -7.92,-3.8934 -10.68,-7.0667 -10.7067,-12.9867"
         style="fill:#e186ff;fill-opacity:1;fill-rule:nonzero;stroke:none;stroke-width:0.133333" />
      <path
         id="path292"
         d="m -2929.4747,3690.6376 c 7.04,-0.1867 12.5466,5.0667 12.7733,12.1867 0.2,6.2666 -4.4533,11.8533 -9.8533,11.84 -6.3867,-0.04 -13.6667,-7.6 -13.7067,-14.28 -0.053,-5.6934 4.24,-9.56 10.7867,-9.7467"
         style="fill:#ff77cb;fill-opacity:1;fill-rule:nonzero;stroke:none;stroke-width:0.133333" />
    </g>
  </g>
</svg>
