<?xml version="1.0" encoding="UTF-8" standalone="no"?>
<!-- Created with Inkscape (http://www.inkscape.org/) -->

<svg
   version="1.1"
   id="svg1"
   width="1642.3544"
   height="1653.0208"
   viewBox="0 0 1642.3544 1653.0207"
   xmlns="http://www.w3.org/2000/svg"
   xmlns:svg="http://www.w3.org/2000/svg">
  <defs
     id="defs1" />
  <g
     id="g1"
     transform="translate(-2229.9315,-2207.0725)">
    <g
       id="g380"
       transform="translate(8495.5862,-168.31172)">
      <path
         id="path43"
         d="m -5102.8613,2519.6243 c -16.12,-0.013 -25.9334,-12.52 -20.1734,-27.4667 6.0267,-15.6666 16.5467,-26.5333 33.9867,-28.4133 5.44,-0.5867 10.32,2.2267 14.6267,4.84 6.9066,4.2 11.7866,10.68 12.12,19.0667 0.2666,6.92 -3.08,13.3466 -7.8,17.8933 -8.96,8.6267 -19.7334,14.28 -32.76,14.08"
         style="fill:#ffb200;fill-opacity:1;fill-rule:nonzero;stroke:none;stroke-width:0.133333" />
      <path
         id="path44"
         d="m -5348.9413,2426.5576 c -1.624,-9.44 4.7306,-15.7733 10.444,-22.3866 1.3906,-1.6 3.3533,-2.0534 5.4266,-2.4534 2.8334,-0.5466 5.988,-0.9733 8.28,-2.52 11.408,-7.6933 21.3467,-3.08 31.1307,3.24 4.5493,2.9334 6.484,7.0267 5.5707,12.6667 -1.224,7.5467 -2.68,14.7867 -9.3787,19.72 -1.5973,1.1867 -3.0787,2.8267 -3.9827,4.5867 -2.9746,5.76 -8.4613,6.6666 -13.9306,7.48 -9.0454,1.36 -17.2827,-2.08 -25.144,-5.5734 -8.1294,-3.6266 -8.284,-4.96 -8.416,-14.76"
         style="fill:#e186ff;fill-opacity:1;fill-rule:nonzero;stroke:none;stroke-width:0.133333" />
      <path
         id="path45"
         d="m -6037.508,2697.9043 c 0.912,9.5333 -5.2653,16.36 -9.88,23.4 -2.0306,3.1067 -7.2693,4.7333 -11.368,5.7333 -10.1626,2.4667 -20.2893,0.84 -29.1253,-4.3866 -7.384,-4.36 -8.012,-12.4267 -6.6507,-20.2134 0.8387,-4.8 3.32,-9.24 3.3894,-14.2933 0.024,-1.8533 1.62,-2.9733 2.676,-4.3333 4.012,-5.2134 9.7693,-7.36 15.812,-8.2534 5.9706,-0.88 11.9186,-1.08 16.936,4.12 2.6853,2.7867 6.8253,4.28 10.4813,5.9867 7.884,3.6933 7.9293,3.5867 7.7293,12.24"
         style="fill:#71e2ff;fill-opacity:1;fill-rule:nonzero;stroke:none;stroke-width:0.133333" />
      <path
         id="path46"
         d="m -5819.984,2481.7176 c -0.632,-4.84 1.14,-9.2533 2.1507,-13.7466 0.788,-3.5067 3.1586,-5.88 6.3253,-7.88 9.5307,-6.0267 19.724,-5.7867 30.0253,-3.4667 4.284,0.96 8.7147,1.0267 12.5214,4.9867 4.8533,5.0666 9.1653,9.4666 7.9986,17.1466 -1.376,9.0534 -6.1666,15.4667 -14.2213,19.4534 -2.3253,1.16 -4.7813,1.9333 -6.8787,3.6133 -7.6146,6.1067 -16.0493,5.92 -23.2653,-0.5467 -2.8027,-2.52 -5.356,-5.04 -9.1427,-6.36 -6.404,-2.24 -5.5266,-8.0666 -5.5133,-13.2"
         style="fill:#ffb200;fill-opacity:1;fill-rule:nonzero;stroke:none;stroke-width:0.133333" />
      <path
         id="path47"
         d="m -4956.048,2559.0243 c -0.3333,8.6667 -7.5733,17.4667 -15.6,20.76 -7.9867,3.2667 -15.84,5.6533 -24.4133,3.28 -9.2,-2.5333 -14.96,-9.16 -17.16,-17.84 -2.2534,-8.92 0.8266,-15.96 8.3466,-19.92 2.8934,-1.5333 5.0134,-3.8667 7.2934,-6.0933 4.5866,-4.4934 10.0666,-6.6134 16.56,-5.2934 3.68,0.76 7.52,0.1467 11.1466,1.5867 10.0667,4 14.3067,11.12 13.8267,23.52"
         style="fill:#fdf028;fill-opacity:1;fill-rule:nonzero;stroke:none;stroke-width:0.133333" />
      <path
         id="path48"
         d="m -5991.4186,2589.211 c 8.7386,-0.12 17.3986,-0.1067 23.9253,7.3733 2.4413,2.7867 4.0467,5.5733 3.8453,9.2933 -0.047,0.8667 0.088,1.7467 0,2.6 -0.5946,5.6 1.3334,11.64 -3.5706,16.4267 -6.2947,6.1467 -12.6534,12 -22.0107,12.7867 -1.444,0.12 -2.908,0.1466 -4.3227,0.4266 -11.4373,2.2534 -20.448,-3.7866 -22.524,-15.08 -0.416,-2.2666 -0.7,-4.6933 -1.7506,-6.6666 -5.628,-10.6 5.3773,-27.1467 18.5853,-27.16 2.6093,-0.013 5.2173,0 7.8267,0"
         style="fill:#e186ff;fill-opacity:1;fill-rule:nonzero;stroke:none;stroke-width:0.133333" />
      <path
         id="path49"
         d="m -5935.224,2548.7443 c -0.712,-4.48 2.3214,-7.9733 5.3454,-12.1467 5.2253,-7.2 12.228,-11.1733 19.7653,-15.0266 3.9227,-2 7.624,-2.52 11.644,-1.24 6.2906,2 13.068,3.1333 17.324,9.04 6.7693,9.4133 5.2453,22.1066 -4.2627,30.44 -4.0693,3.56 -8.7653,6.88 -13.756,8.8266 -11.2026,4.3467 -21.6333,1.1867 -30.8733,-5.76 -4.0387,-3.0266 -5.3893,-7.8 -5.1867,-14.1333"
         style="fill:#ff77cb;fill-opacity:1;fill-rule:nonzero;stroke:none;stroke-width:0.133333" />
      <path
         id="path50"
         d="m -5170.248,2444.5043 c -0.6133,14.48 -15.44,29.5067 -29.0667,29.6133 -4.7866,0.04 -9.9866,-0.5866 -12.92,-5.4666 -1.1466,-1.92 -2.88,-2.5334 -4.6933,-3.5067 -10.72,-5.7333 -12.96,-16.24 -7.36,-27.2 4.2267,-8.2533 10.3467,-11.72 19.0133,-14.4533 9.5867,-3.0134 16.5334,-1.3067 23.4267,4.92 2.3467,2.1333 5.0267,3.88 7.4267,5.96 3.3333,2.8533 4.5466,6.6133 4.1733,10.1333"
         style="fill:#ff77cb;fill-opacity:1;fill-rule:nonzero;stroke:none;stroke-width:0.133333" />
      <path
         id="path51"
         d="m -5642.0693,2433.171 c 0.1066,10.84 -9.9867,27.3866 -24.172,26.8933 -5.1614,-0.1867 -10.2347,2.1867 -15.8147,-0.08 -14.464,-5.8933 -19.6867,-21.6533 -7.6653,-35.2533 5.8186,-6.5867 13.248,-10.1734 21.0266,-13.24 10.5414,-4.16 26.7814,5.6533 26.6254,21.68"
         style="fill:#fdf028;fill-opacity:1;fill-rule:nonzero;stroke:none;stroke-width:0.133333" />
      <path
         id="path52"
         d="m -5528.1933,2418.291 c -0.196,3.1066 -1.22,6.84 -3.5294,10.4266 -3.5773,5.5734 -8.8666,9.24 -13.9973,12.84 -4.5653,3.2 -10.1827,3.92 -15.8307,1.7734 -5.1093,-1.9467 -9.8933,-4.56 -15.1533,-6.3067 -5.888,-1.96 -7.9853,-10.68 -5.4467,-16.88 3.0667,-7.5067 5.6707,-15.1067 12.724,-20.2667 3.236,-2.36 6.324,-3.8933 10.276,-3.8133 3.484,0.067 6.9694,-0.027 10.4534,0.04 11.8613,0.2 20.7333,9.3733 20.504,22.1867"
         style="fill:#4fd6c3;fill-opacity:1;fill-rule:nonzero;stroke:none;stroke-width:0.133333" />
      <path
         id="path53"
         d="m -5413.4733,2394.2643 c 1.0293,13.0933 -4.188,22 -11.34,29.88 -6.4707,7.1333 -15.1774,7.4667 -22.5427,1.4267 -4.2573,-3.4934 -8.5213,-6.9867 -12.6653,-10.6134 -4.0334,-3.52 -5.5107,-7.48 -3.6707,-13.1333 2.148,-6.5867 4.5907,-12.3733 11.0987,-15.84 2.2133,-1.1867 3.7626,-3.5867 5.6586,-5.3867 6.1267,-5.8266 13.7934,-5.44 21.332,-4.9733 5.8294,0.36 7.5174,5.7733 10.5387,9.52 2.6947,3.36 1.3187,7.2667 1.5907,9.12"
         style="fill:#71e2ff;fill-opacity:1;fill-rule:nonzero;stroke:none;stroke-width:0.133333" />
      <path
         id="path54"
         d="m -4878.408,2624.251 c 0.28,10.28 -5.84,18.4133 -14.9467,24.5466 -7.1733,4.8267 -14.6133,2.4534 -21.52,-0.92 -8.4533,-4.12 -11.7866,-12.72 -15.0666,-20.5466 -2.2267,-5.3334 2.52,-10.5867 5.16,-15.1067 5.5066,-9.4267 20.8133,-13.28 30.6266,-8.32 3.2934,1.6667 6.8134,2.9067 9.7467,5.5733 5.5067,5 6.2667,5.9467 6,14.7734"
         style="fill:#4fd6c3;fill-opacity:1;fill-rule:nonzero;stroke:none;stroke-width:0.133333" />
      <path
         id="path55"
         d="m -5829.488,3878.4776 c 1.624,-9.44 -4.7307,-15.7867 -10.4427,-22.3867 -1.392,-1.6 -3.3546,-2.0533 -5.428,-2.4533 -2.8333,-0.5467 -5.9866,-0.9733 -8.28,-2.52 -11.408,-7.6933 -21.3466,-3.08 -31.1306,3.24 -4.5494,2.9333 -6.484,7.0267 -5.5707,12.6667 1.224,7.5466 2.68,14.7733 9.38,19.72 1.5973,1.1866 3.0773,2.8266 3.9827,4.5866 2.9733,5.76 8.46,6.6667 13.9306,7.48 9.0454,1.36 17.2814,-2.08 25.1427,-5.5733 8.1293,-3.6267 8.284,-4.96 8.416,-14.76"
         style="fill:#e186ff;fill-opacity:1;fill-rule:nonzero;stroke:none;stroke-width:0.133333" />
      <path
         id="path56"
         d="m -5033.848,3869.3843 c -0.9067,9.5333 5.2667,16.36 9.88,23.4133 2.04,3.0933 7.2667,4.72 11.3733,5.72 10.16,2.4667 20.2934,0.8533 29.12,-4.3733 7.3867,-4.3734 8.0134,-12.4267 6.6534,-20.2134 -0.84,-4.8 -3.32,-9.2533 -3.3867,-14.3066 -0.027,-1.84 -1.6267,-2.96 -2.68,-4.3334 -4.0133,-5.2 -9.7733,-7.36 -15.8133,-8.2533 -5.9734,-0.88 -11.92,-1.08 -16.9334,4.12 -2.68,2.7867 -6.8266,4.28 -10.48,6 -7.88,3.68 -7.9333,3.5867 -7.7333,12.2267"
         style="fill:#71e2ff;fill-opacity:1;fill-rule:nonzero;stroke:none;stroke-width:0.133333" />
      <path
         id="path57"
         d="m -5329.32,4003.8509 c 0.6333,-4.84 -1.1387,-9.2533 -2.1493,-13.7466 -0.7894,-3.5067 -3.1587,-5.88 -6.3267,-7.88 -9.5307,-6.0267 -19.724,-5.7867 -30.024,-3.4667 -4.284,0.9733 -8.716,1.0267 -12.5213,5 -4.8547,5.0533 -9.1654,9.4533 -7.9987,17.1333 1.3747,9.0534 6.1653,15.4667 14.22,19.4667 2.3267,1.1467 4.7827,1.9333 6.8787,3.6133 7.6146,6.0934 16.0506,5.9067 23.2653,-0.56 2.8027,-2.52 5.356,-5.04 9.1427,-6.36 6.404,-2.2266 5.528,-8.0666 5.5133,-13.2"
         style="fill:#ffb200;fill-opacity:1;fill-rule:nonzero;stroke:none;stroke-width:0.133333" />
      <path
         id="path58"
         d="m -5110.048,3909.9043 c -8.7333,-0.1067 -17.4,-0.093 -23.9333,7.3733 -2.44,2.8 -4.04,5.5733 -3.84,9.2933 0.053,0.8667 -0.08,1.7467 0,2.6134 0.6,5.5866 -1.3334,11.64 3.5733,16.4266 6.2933,6.1334 12.6533,11.9867 22.0133,12.7734 1.44,0.1333 2.9067,0.16 4.32,0.44 11.44,2.2533 20.4534,-3.8 22.52,-15.08 0.4267,-2.2667 0.7067,-4.7067 1.76,-6.68 5.6267,-10.6 -5.3866,-27.1467 -18.5866,-27.16 -2.6134,0 -5.2134,0 -7.8267,0"
         style="fill:#e186ff;fill-opacity:1;fill-rule:nonzero;stroke:none;stroke-width:0.133333" />
      <path
         id="path59"
         d="m -5201.5813,3977.9043 c 0.7066,-4.48 -2.32,-7.96 -5.3467,-12.1334 -5.2267,-7.2 -12.2267,-11.1866 -19.76,-15.0266 -3.9333,-2 -7.6267,-2.52 -11.648,-1.2534 -6.2907,2.0134 -13.068,3.1334 -17.324,9.0534 -6.7707,9.4 -5.2467,22.1066 4.2613,30.4266 4.0707,3.5734 8.7654,6.8934 13.7507,8.8267 11.2133,4.36 21.64,1.1867 30.88,-5.7467 4.04,-3.04 5.3867,-7.8 5.1867,-14.1466"
         style="fill:#ff77cb;fill-opacity:1;fill-rule:nonzero;stroke:none;stroke-width:0.133333" />
      <path
         id="path60"
         d="m -5992.0906,3797.8643 c 0.6106,14.4933 15.4333,29.52 29.0653,29.6266 4.7787,0.04 9.9867,-0.6 12.912,-5.4666 1.1453,-1.92 2.8907,-2.5467 4.6947,-3.5067 10.7226,-5.7333 12.9693,-16.24 7.36,-27.2 -4.2254,-8.2533 -10.3387,-11.72 -19.012,-14.4533 -9.5907,-3.0134 -16.5347,-1.32 -23.424,4.92 -2.3494,2.12 -5.0307,3.88 -7.4334,5.9466 -3.3213,2.8667 -4.5373,6.6134 -4.1626,10.1334"
         style="fill:#ff77cb;fill-opacity:1;fill-rule:nonzero;stroke:none;stroke-width:0.133333" />
      <path
         id="path61"
         d="m -5517.6867,3997.2109 c -0.108,10.8534 9.9867,27.3867 24.1707,26.8934 5.1627,-0.1867 10.236,2.2 15.816,-0.08 14.464,-5.8934 19.6867,-21.64 7.6653,-35.2534 -5.8186,-6.5866 -13.2493,-10.1733 -21.0266,-13.24 -10.5414,-4.16 -26.7814,5.6534 -26.6254,21.68"
         style="fill:#fdf028;fill-opacity:1;fill-rule:nonzero;stroke:none;stroke-width:0.133333" />
      <path
         id="path62"
         d="m -5645.0507,3976.5576 c 0.196,3.1067 1.22,6.84 3.5294,10.4267 3.5773,5.5733 8.8666,9.24 13.9973,12.84 4.5653,3.2 10.1827,3.92 15.8307,1.7733 5.1093,-1.9467 9.8933,-4.56 15.1533,-6.3067 5.888,-1.96 7.9853,-10.68 5.4467,-16.88 -3.0667,-7.5066 -5.6694,-15.1066 -12.724,-20.2666 -3.236,-2.36 -6.324,-3.8934 -10.276,-3.8134 -3.484,0.067 -6.9694,-0.027 -10.4534,0.04 -11.8613,0.2 -20.7333,9.3734 -20.504,22.1867"
         style="fill:#4fd6c3;fill-opacity:1;fill-rule:nonzero;stroke:none;stroke-width:0.133333" />
      <path
         id="path63"
         d="m -5767.0547,3926.2509 c -1.028,13.0934 4.188,21.9867 11.34,29.88 6.4707,7.1334 15.1787,7.4667 22.5427,1.4134 4.2573,-3.4934 8.5213,-6.9734 12.6653,-10.6 4.0334,-3.5334 5.512,-7.4934 3.6707,-13.1334 -2.1467,-6.5866 -4.5907,-12.3866 -11.0987,-15.8533 -2.212,-1.1867 -3.7626,-3.5867 -5.6573,-5.3867 -6.128,-5.8133 -13.7947,-5.4266 -21.332,-4.9733 -5.8293,0.36 -7.5187,5.7733 -10.5387,9.5333 -2.696,3.3467 -1.32,7.2667 -1.592,9.12"
         style="fill:#71e2ff;fill-opacity:1;fill-rule:nonzero;stroke:none;stroke-width:0.133333" />
      <path
         id="path64"
         d="m -6194.276,3030.7443 c -0.019,16.1333 -12.5253,25.9466 -27.4746,20.1866 -15.66,-6.0266 -26.524,-16.56 -28.404,-34 -0.5854,-5.4266 2.2253,-10.32 4.8386,-14.6133 4.1974,-6.92 10.672,-11.8 19.0694,-12.1333 6.9133,-0.2667 13.344,3.0933 17.8853,7.8 8.636,8.9733 14.28,19.7466 14.0853,32.76"
         style="fill:#ffb200;fill-opacity:1;fill-rule:nonzero;stroke:none;stroke-width:0.133333" />
      <path
         id="path65"
         d="m -6234.2453,3307.8643 c -9.4413,1.6266 -15.776,-4.72 -22.3773,-10.44 -1.608,-1.3867 -2.0547,-3.3467 -2.4574,-5.4267 -0.5493,-2.8267 -0.9706,-5.9867 -2.5186,-8.28 -7.7014,-11.4 -3.084,-21.3467 3.232,-31.1333 2.936,-4.5467 7.0306,-6.48 12.6653,-5.5734 7.5533,1.2267 14.7853,2.68 19.728,9.3867 1.1787,1.6 2.824,3.08 4.5787,3.9867 5.7706,2.9733 6.6693,8.4533 7.4893,13.92 1.356,9.0533 -2.0787,17.2933 -5.5813,25.1466 -3.6214,8.1334 -4.9534,8.2934 -14.7587,8.4134"
         style="fill:#e186ff;fill-opacity:1;fill-rule:nonzero;stroke:none;stroke-width:0.133333" />
      <path
         id="path66"
         d="m -6047.5133,3740.1576 c -4.8347,0.6267 -9.2467,-1.1467 -13.7427,-2.1467 -3.5066,-0.7866 -5.8813,-3.16 -7.884,-6.3333 -6.0253,-9.5333 -5.7853,-19.72 -3.464,-30.0267 0.9667,-4.28 1.0227,-8.7066 4.992,-12.52 5.0614,-4.8533 9.464,-9.16 17.1427,-8 9.0493,1.3734 15.464,6.1734 19.456,14.2267 1.1533,2.32 1.936,4.7867 3.6147,6.88 6.096,7.6133 5.916,16.0533 -0.5547,23.2667 -2.5147,2.8 -5.04,5.3466 -6.36,9.1333 -2.2307,6.4133 -8.0653,5.5333 -13.2,5.52"
         style="fill:#ffb200;fill-opacity:1;fill-rule:nonzero;stroke:none;stroke-width:0.133333" />
      <path
         id="path67"
         d="m -6174.32,2873.6643 c 8.6707,0.3333 17.4654,7.5733 20.7587,15.5866 3.2787,8 5.66,15.8534 3.2893,24.4267 -2.5413,9.2 -9.1653,14.9467 -17.8466,17.16 -8.9174,2.2533 -15.9614,-0.8267 -19.9214,-8.3467 -1.5253,-2.8933 -3.8573,-5.0133 -6.0906,-7.2933 -4.492,-4.6 -6.6107,-10.0667 -5.2867,-16.56 0.7507,-3.68 0.136,-7.52 1.5773,-11.1467 4.004,-10.0666 11.1214,-14.3066 23.52,-13.8266"
         style="fill:#fdf028;fill-opacity:1;fill-rule:nonzero;stroke:none;stroke-width:0.133333" />
      <path
         id="path68"
         d="m -6243.1986,3113.7043 c 14.4906,0.6133 29.516,15.4266 29.624,29.0666 0.039,4.7734 -0.5974,9.9867 -5.476,12.9067 -1.9134,1.1467 -2.5347,2.8933 -3.5,4.6933 -5.7387,10.72 -16.2454,12.9734 -27.2027,7.36 -8.2533,-4.2266 -11.724,-10.3333 -14.4493,-19.0133 -3.0147,-9.5867 -1.316,-16.5333 4.916,-23.4133 2.1266,-2.36 3.88,-5.04 5.9533,-7.44 2.8653,-3.32 6.6147,-4.5334 10.1347,-4.16"
         style="fill:#ff77cb;fill-opacity:1;fill-rule:nonzero;stroke:none;stroke-width:0.133333" />
      <path
         id="path69"
         d="m -6122.9066,3589.3443 c 10.8426,-0.1067 27.3813,9.9866 26.8853,24.1733 -0.1813,5.16 2.1987,10.24 -0.075,15.8133 -5.892,14.4667 -21.648,19.6934 -35.2546,7.6667 -6.5867,-5.8133 -10.172,-13.2533 -13.2414,-21.0267 -4.1613,-10.5333 5.656,-26.7866 21.6854,-26.6266"
         style="fill:#fdf028;fill-opacity:1;fill-rule:nonzero;stroke:none;stroke-width:0.133333" />
      <path
         id="path70"
         d="m -6176.5813,3485.5309 c 3.1093,0.2 6.8427,1.2134 10.4347,3.5334 5.5666,3.5733 9.2333,8.8666 12.832,13.9866 3.2013,4.5734 3.928,10.1867 1.7733,15.84 -1.948,5.1067 -4.5587,9.8934 -6.304,15.1467 -1.9533,5.8933 -10.672,7.9867 -16.88,5.4533 -7.5013,-3.0666 -15.1027,-5.68 -20.26,-12.7333 -2.3667,-3.2267 -3.8973,-6.32 -3.8227,-10.2667 0.067,-3.4933 -0.021,-6.9733 0.039,-10.4533 0.2027,-11.8667 9.3787,-20.7333 22.188,-20.5067"
         style="fill:#4fd6c3;fill-opacity:1;fill-rule:nonzero;stroke:none;stroke-width:0.133333" />
      <path
         id="path71"
         d="m -6230.5893,3375.0109 c 13.0973,-1.0266 21.996,4.1867 29.8813,11.3334 7.1334,6.4666 7.4667,15.1866 1.4214,22.5466 -3.4934,4.2534 -6.9814,8.52 -10.608,12.6667 -3.5294,4.0267 -7.4894,5.5067 -13.1347,3.6667 -6.5853,-2.1467 -12.3787,-4.5867 -15.8493,-11.0934 -1.18,-2.2133 -3.584,-3.7733 -5.384,-5.6666 -5.8214,-6.12 -5.4307,-13.7867 -4.9707,-21.3334 0.3547,-5.8266 5.7733,-7.5066 9.5267,-10.5333 3.3493,-2.6933 7.2666,-1.32 9.1173,-1.5867"
         style="fill:#71e2ff;fill-opacity:1;fill-rule:nonzero;stroke:none;stroke-width:0.133333" />
      <path
         id="path72"
         d="m -6128.4373,2770.011 c 10.2733,-0.28 18.4147,5.84 24.5387,14.9466 4.828,7.1734 2.456,14.6134 -0.9094,21.52 -4.124,8.4534 -12.7213,11.7867 -20.5546,15.0667 -5.3254,2.2267 -10.584,-2.52 -15.1054,-5.16 -9.428,-5.5067 -13.2746,-20.8133 -8.3186,-30.6267 1.668,-3.2933 2.912,-6.8133 5.5733,-9.7333 5.0053,-5.52 5.952,-6.28 14.776,-6.0133"
         style="fill:#4fd6c3;fill-opacity:1;fill-rule:nonzero;stroke:none;stroke-width:0.133333" />
      <path
         id="path73"
         d="m -4808.568,3638.3576 c 0.027,-16.1333 12.5333,-25.9467 27.48,-20.1867 15.6533,6.0267 26.52,16.56 28.4,34 0.5867,5.4267 -2.2267,10.32 -4.84,14.6134 -4.2,6.92 -10.6667,11.8 -19.0667,12.1333 -6.9066,0.2667 -13.3466,-3.0933 -17.88,-7.8 -8.64,-8.9733 -14.28,-19.7467 -14.0933,-32.76"
         style="fill:#ffb200;fill-opacity:1;fill-rule:nonzero;stroke:none;stroke-width:0.133333" />
      <path
         id="path74"
         d="m -4692.368,3424.4509 c 9.44,-1.6266 15.7733,4.7334 22.3733,10.44 1.6,1.4 2.0534,3.36 2.4534,5.4267 0.5466,2.84 0.9733,5.9867 2.52,8.28 7.7066,11.4133 3.08,21.3467 -3.2267,31.1333 -2.9467,4.5467 -7.04,6.4934 -12.6667,5.5734 -7.56,-1.2267 -14.7866,-2.68 -19.7333,-9.3734 -1.1733,-1.6 -2.8267,-3.08 -4.5733,-3.9866 -5.7734,-2.9734 -6.6667,-8.4667 -7.4934,-13.9334 -1.36,-9.04 2.08,-17.28 5.5867,-25.1466 3.6133,-8.12 4.9467,-8.28 14.76,-8.4134"
         style="fill:#e186ff;fill-opacity:1;fill-rule:nonzero;stroke:none;stroke-width:0.133333" />
      <path
         id="path75"
         d="m -4808.1013,2740.7443 c -9.5334,0.9067 -16.36,-5.2667 -23.4134,-9.88 -3.1066,-2.04 -4.7333,-7.28 -5.72,-11.3733 -2.48,-10.16 -0.8533,-20.2934 4.3734,-29.12 4.3733,-7.3867 12.4266,-8.0134 20.2133,-6.6534 4.8,0.84 9.2533,3.32 14.3067,3.3867 1.84,0.027 2.96,1.6133 4.3333,2.68 5.2,4 7.3467,9.76 8.24,15.8133 0.8933,5.96 1.0933,11.9067 -4.1067,16.9334 -2.7866,2.68 -4.2933,6.8266 -6,10.48 -3.68,7.88 -3.5866,7.9333 -12.2266,7.7333"
         style="fill:#71e2ff;fill-opacity:1;fill-rule:nonzero;stroke:none;stroke-width:0.133333" />
      <path
         id="path76"
         d="m -4668.2213,2991.8376 c 4.8266,-0.6267 9.24,1.1467 13.7466,2.16 3.5067,0.7867 5.88,3.16 7.88,6.32 6.0267,9.5333 5.7867,19.72 3.4667,30.0267 -0.9733,4.28 -1.0267,8.72 -5,12.52 -5.0533,4.8533 -9.4667,9.16 -17.1333,8 -9.0534,-1.3734 -15.4667,-6.16 -19.4667,-14.2267 -1.1467,-2.32 -1.9333,-4.7733 -3.6133,-6.8667 -6.0934,-7.6266 -5.9067,-16.0533 0.56,-23.2666 2.5066,-2.8134 5.04,-5.36 6.36,-9.1467 2.2266,-6.4 8.0666,-5.5333 13.2,-5.52"
         style="fill:#ffb200;fill-opacity:1;fill-rule:nonzero;stroke:none;stroke-width:0.133333" />
      <path
         id="path77"
         d="m -4849.7547,3768.5176 c -8.6666,-0.3333 -17.4666,-7.5733 -20.76,-15.6 -3.28,-7.9867 -5.6533,-15.84 -3.2933,-24.4267 2.5467,-9.1866 9.1733,-14.9466 17.8533,-17.1466 8.92,-2.2667 15.96,0.8133 19.92,8.3333 1.52,2.9067 3.8534,5.0267 6.0934,7.3067 4.4933,4.5866 6.6133,10.0666 5.28,16.56 -0.7467,3.68 -0.1334,7.52 -1.5734,11.1466 -4,10.0667 -11.12,14.3067 -23.52,13.8267"
         style="fill:#fdf028;fill-opacity:1;fill-rule:nonzero;stroke:none;stroke-width:0.133333" />
      <path
         id="path78"
         d="m -4729.3413,2796.1043 c 0.1066,8.7333 0.093,17.4 -7.3734,23.92 -2.8,2.44 -5.5733,4.0533 -9.2933,3.8533 -0.8667,-0.053 -1.7467,0.08 -2.6133,-0.013 -5.5867,-0.5867 -11.64,1.3333 -16.4267,-3.56 -6.1333,-6.2933 -11.9867,-12.6533 -12.7733,-22.0133 -0.1334,-1.44 -0.16,-2.9067 -0.44,-4.32 -2.2534,-11.44 3.8,-20.4534 15.08,-22.5334 2.2666,-0.4133 4.6933,-0.6933 6.68,-1.7466 10.6,-5.6267 27.1466,5.3733 27.16,18.5866 0,2.6134 0,5.2134 0,7.8267"
         style="fill:#e186ff;fill-opacity:1;fill-rule:nonzero;stroke:none;stroke-width:0.133333" />
      <path
         id="path79"
         d="m -4707.4347,2873.5176 c 4.48,-0.7067 7.9734,2.32 12.1334,5.3467 7.2133,5.2266 11.1866,12.2266 15.04,19.7733 2,3.92 2.52,7.6133 1.24,11.64 -2,6.2933 -3.1334,13.0667 -9.0534,17.32 -9.4,6.7733 -22.1066,5.2533 -30.4266,-4.2667 -3.56,-4.0666 -6.8934,-8.76 -8.8267,-13.7466 -4.36,-11.2 -1.1867,-21.64 5.7467,-30.88 3.04,-4.04 7.8,-5.3867 14.1466,-5.1867"
         style="fill:#ff77cb;fill-opacity:1;fill-rule:nonzero;stroke:none;stroke-width:0.133333" />
      <path
         id="path80"
         d="m -4718.168,3589.0376 c -14.48,-0.6133 -29.5067,-15.44 -29.6133,-29.0667 -0.04,-4.7866 0.5866,-9.9866 5.4666,-12.9066 1.92,-1.1467 2.5334,-2.8934 3.5067,-4.7067 5.7333,-10.72 16.24,-12.96 27.2,-7.36 8.2533,4.2267 11.72,10.3467 14.4533,19.0133 3.0134,9.6 1.3067,16.5334 -4.92,23.4267 -2.12,2.3467 -3.88,5.0267 -5.9466,7.44 -2.8667,3.32 -6.6267,4.5333 -10.1467,4.16"
         style="fill:#ff77cb;fill-opacity:1;fill-rule:nonzero;stroke:none;stroke-width:0.133333" />
      <path
         id="path81"
         d="m -4645.9413,3169.3309 c -10.84,0.1067 -27.3867,-9.9866 -26.88,-24.16 0.1733,-5.1733 -2.2,-10.24 0.067,-15.8266 5.8934,-14.4534 21.6534,-19.68 35.2534,-7.6534 6.5866,5.8134 10.1733,13.24 13.24,21.0134 4.1733,10.5466 -5.6534,26.7866 -21.68,26.6266"
         style="fill:#fdf028;fill-opacity:1;fill-rule:nonzero;stroke:none;stroke-width:0.133333" />
      <path
         id="path82"
         d="m -4646.5013,3277.4643 c -3.1067,-0.2 -6.84,-1.2267 -10.4267,-3.5334 -5.5733,-3.5866 -9.24,-8.8666 -12.84,-14 -3.2,-4.56 -3.92,-10.1866 -1.7733,-15.8266 1.9466,-5.12 4.56,-9.8934 6.3066,-15.16 1.9467,-5.88 10.6667,-7.9867 16.88,-5.44 7.5067,3.0666 15.1067,5.6666 20.2667,12.72 2.36,3.24 3.8933,6.32 3.8133,10.28 -0.067,3.48 0.027,6.96 -0.04,10.4533 -0.2,11.8533 -9.3733,20.7333 -22.1866,20.5067"
         style="fill:#4fd6c3;fill-opacity:1;fill-rule:nonzero;stroke:none;stroke-width:0.133333" />
      <path
         id="path83"
         d="m -4658.8613,3376.3443 c -13.0934,1.0266 -22,-4.1867 -29.88,-11.3467 -7.1334,-6.4667 -7.4667,-15.1733 -1.4134,-22.5333 3.4934,-4.2667 6.9734,-8.52 10.6,-12.6667 3.5334,-4.04 7.4934,-5.52 13.1334,-3.6667 6.5866,2.1467 12.3866,4.5867 15.8533,11.0934 1.1733,2.2133 3.5867,3.76 5.3867,5.6533 5.8133,6.1333 5.4266,13.8 4.9733,21.3333 -0.36,5.8267 -5.7733,7.52 -9.5333,10.5467 -3.3467,2.6933 -7.2667,1.32 -9.12,1.5867"
         style="fill:#71e2ff;fill-opacity:1;fill-rule:nonzero;stroke:none;stroke-width:0.133333" />
      <path
         id="path84"
         d="m -4920.128,3834.8509 c -10.28,0.28 -18.4133,-5.84 -24.5333,-14.9333 -4.8267,-7.1733 -2.4667,-14.6267 0.9066,-21.52 4.12,-8.4667 12.72,-11.7867 20.5467,-15.0667 5.3333,-2.24 10.5867,2.5067 15.1067,5.1467 9.4266,5.52 13.28,20.8133 8.32,30.6267 -1.6667,3.3066 -2.9067,6.8133 -5.5734,9.7466 -5,5.5067 -5.9466,6.28 -14.7733,6"
         style="fill:#4fd6c3;fill-opacity:1;fill-rule:nonzero;stroke:none;stroke-width:0.133333" />
    </g>
  </g>
</svg>
