<?xml version="1.0" encoding="UTF-8" standalone="no"?>
<!-- Created with Inkscape (http://www.inkscape.org/) -->

<svg
   version="1.1"
   id="svg1"
   width="1619.8608"
   height="1625.4354"
   viewBox="0 0 1619.8608 1625.4354"
   xmlns="http://www.w3.org/2000/svg"
   xmlns:svg="http://www.w3.org/2000/svg">
  <defs
     id="defs1" />
  <g
     id="g1"
     transform="translate(-2264.0442,-2163.967)">
    <g
       id="g376"
       transform="translate(4722.2797,-2121.1551)">
      <path
         id="path171"
         d="m -2192.9547,4534.8242 c -1.48,1.7334 -3.2667,3.3734 -5.4667,5.0134 -2.8933,2.16 -4.8667,3.92 -6.3733,5.7066 -0.9334,1.08 -1.6534,2.1467 -2.24,3.2667 -1.8667,3.6267 -3.8267,6.6 -5.96,9.12 -0.9734,1.1467 -2,2.2133 -3.0534,3.1733 -3.5333,3.2267 -6.8,6.6934 -10.2533,10.36 -4.6933,4.9867 -9.56,10.1467 -15.1733,14.68 -7.5867,6.12 -14.64,4.3734 -18.7067,0.7067 -5.5067,-4.9733 -5.9867,-13.0667 -1.0933,-18.8133 0.2266,-0.2667 0.4666,-0.5334 0.72,-0.8 0.16,-0.1734 0.32,-0.3467 0.48,-0.5334 v 0 c 1.2133,-1.44 2.24,-3.3466 3.3333,-5.3733 1.2933,-2.4133 2.76,-5.16 4.88,-7.6533 1.04,-1.2134 2.1333,-2.2667 3.3467,-3.2 6.7333,-5.4934 12.48,-11.92 17.6933,-18.04 1.5733,-1.8534 3.12,-3.72 4.68,-5.5867 1.5867,-1.8933 3.16,-3.7867 4.76,-5.6667 2.7467,-3.24 5.0533,-5.8533 7.2533,-8.2133 l 0.3334,-0.3467 c 1.24,-1.3333 2.7866,-3.0133 4.88,-4.28 3.76,-2.2933 7.8133,-2.8533 11.3866,-1.6 3.6,1.2667 6.4267,4.2534 7.9334,8.4267 2.6666,7.28 1.5333,13.8933 -3.36,19.6533"
         style="fill:#e186ff;fill-opacity:1;fill-rule:nonzero;stroke:none;stroke-width:0.133333" />
      <path
         id="path172"
         d="m -1925.7681,4369.6376 c -2.4266,1.1733 -4.8133,1.9066 -7.1333,2.6133 -1.92,0.5867 -3.7333,1.1467 -5.2533,1.88 -1.0134,0.48 -1.7867,1 -2.44,1.6133 l -1.7334,1.6267 -2.3733,0.1733 c -6.1733,0.4267 -11.96,2.8667 -17.2933,5.44 -1.4267,0.6934 -2.8534,1.4134 -4.2667,2.12 -1.48,0.7334 -2.96,1.48 -4.44,2.2 -2.4667,1.1867 -4.5333,2.1067 -6.4933,2.8934 -7.6267,3.08 -16.72,-0.2134 -19.84,-7.1734 -4.2134,-9.3866 4.2,-15.68 6.96,-17.7466 3.9066,-2.92 8.2266,-5.52 13.2133,-7.92 6.72,-3.2534 13.7067,-5.7067 20.4667,-8.08 1.64,-0.5734 3.28,-1.1467 4.9066,-1.7334 2.8934,-1.04 5.8134,-2.0266 8.64,-2.9733 6.9734,-2.3333 13.5467,-4.5333 19.8134,-7.56 l 1.16,-0.5733 c 5.24,-2.52 9.76,-2.16 13.44,1.08 4.0933,3.6133 5.5599,9.08 3.8133,14.2933 -2,5.9733 -5.2533,9.9867 -9.96,12.2533 -0.1733,0.08 -0.3467,0.16 -0.52,0.24 -1.0533,0.4667 -2.0933,0.96 -3.1333,1.4667 -0.8667,0.4133 -1.7334,0.84 -2.5867,1.2667 -0.7733,0.3733 -1.5333,0.7466 -2.2933,1.12 -0.8267,0.5333 -1.6934,1.0133 -2.6534,1.48"
         style="fill:#fdf028;fill-opacity:1;fill-rule:nonzero;stroke:none;stroke-width:0.133333" />
      <path
         id="path173"
         d="m -1056.4081,4583.1442 c -0.24,-0.16 -0.4667,-0.3466 -0.7067,-0.52 l -0.2,-0.1733 c -14.7866,-12.64 -27.3333,-24.7733 -38.36,-37.1067 -0.7733,-0.8533 -1.5066,-1.7333 -2.2533,-2.6133 -1.8933,-2.2267 -3.6667,-4.3333 -5.68,-5.8 -3.2533,-2.3867 -5.6,-5.8 -6.7867,-9.8667 -1.5066,-5.1866 -0.3733,-10.3466 3.04,-13.8 3.28,-3.32 8.1734,-4.48 13.0934,-3.1066 4.0933,1.1466 7.32,2.6266 10.16,4.6533 2.2266,1.5867 4.16,3.48 5.9333,5.7867 l 1.6267,2.16 c 4.8266,6.36 9.3866,12.36 15.3333,16.6133 1.4,1 2.8533,1.88 4.32,2.6133 0.5067,0.2534 1,0.56 1.4667,0.8934 1.5733,1.1333 2.6666,2.4933 3.5333,3.5866 0.2133,0.2667 0.4133,0.5334 0.6267,0.7734 l 1.0666,1.24 c 2.6134,3.0533 5.08,5.9333 7.96,7.9866 0.3867,0.28 0.7734,0.5467 1.1867,0.7867 0.4133,0.2533 0.8267,0.5333 1.2133,0.8133 4.5334,3.24 5.8934,7.36 6.24,10.24 0.053,0.44 0.12,0.88 0.1867,1.32 0.5067,3.3467 1.44,9.5867 -4.1333,14.2534 -4.76,3.9866 -12.6934,3.68 -18.8667,-0.7334"
         style="fill:#71e2ff;fill-opacity:1;fill-rule:nonzero;stroke:none;stroke-width:0.133333" />
      <path
         id="path174"
         d="m -1398.9414,4354.6242 c -6.8534,-3.9733 -7.7334,-9.44 -7.2667,-13.3333 0.9333,-7.68 7.8133,-13.16 16.72,-13.3467 2.1733,-0.04 5.4667,-0.093 8.44,1.5467 4.48,2.4667 9.32,4.32 14.44,6.28 5.72,2.1867 11.6533,4.44 17.3067,7.72 0.4933,0.2933 0.9733,0.5733 1.4533,0.88 0.5467,0.3333 1.12,0.6667 1.68,1 4.1733,2.4133 8.2667,4.2133 12.16,5.3467 1.7067,0.4933 3.3467,1.2 4.8667,2.08 4.1733,2.4266 6.9066,5.84 9.0933,8.5866 2.6667,3.36 3.5867,7.2267 2.5867,10.9067 -1.04,3.7867 -3.9467,6.76 -8.1867,8.3733 -3.4267,1.3067 -9.08,3.4667 -14.6667,0.2267 -0.1733,-0.1067 -0.36,-0.2133 -0.5333,-0.3333 -0.4,-0.2667 -0.8133,-0.5067 -1.2267,-0.7467 -2.5333,-1.4667 -5.3466,-2.64 -8.32,-3.8667 -3.2266,-1.3466 -6.5733,-2.7466 -9.8666,-4.64 -0.6134,-0.36 -1.2267,-0.7333 -1.8134,-1.12 -3.0266,-1.2533 -6.0533,-2.5333 -9.0666,-3.8133 -7.4934,-3.1733 -15.24,-6.4533 -22.8934,-9.4533 -1.96,-0.76 -3.56,-1.52 -4.9066,-2.2934"
         style="fill:#ffb200;fill-opacity:1;fill-rule:nonzero;stroke:none;stroke-width:0.133333" />
      <path
         id="path175"
         d="m -1238.4614,4429.6909 c -1.44,-0.8133 -2.96,-1.6267 -4.4934,-2.4533 -5.2,-2.7867 -11.0933,-5.96 -16.32,-10.48 -2.16,-1.8667 -4.72,-3.4267 -7.8266,-4.76 l -0.32,-0.1467 c -2.7067,-1.16 -6.0667,-2.6133 -8.72,-5.84 -0.9334,-1.1333 -1.4934,-1.5333 -1.8,-1.6667 -0.093,-0.04 -0.3334,-0.1333 -0.9734,-0.053 -2.4133,0.36 -4.6666,0.093 -6.68,-0.7733 -5.5733,-2.3734 -7.04,-8.24 -7.5866,-10.44 -0.7467,-3 -1.52,-10.48 7.5333,-15.1467 4.0667,-2.0933 10.3067,-4.5333 17.4,-1.5067 2.2,0.9334 4.3467,2.3467 6.5333,4.2934 2.1467,1.8933 5.0267,3.2533 8.08,4.6933 3.5467,1.6667 7.5734,3.56 11.08,6.6667 2.92,2.5866 6.56,4.48 10.4134,6.4933 3.8933,2.04 7.92,4.1467 11.68,7.16 2.9866,2.4133 5.0666,4.5733 6.72,7.0267 3.2,4.72 3.44,10.0266 0.6533,14.5466 -3.1867,5.1734 -8.7867,7.5467 -14.6133,6.1867 -2.32,-0.5333 -4.4267,-1.3333 -6.6534,-2.1867 -0.9466,-0.3466 -1.9466,-0.7333 -3.04,-1.12 l -0.5466,-0.2 -0.52,-0.2933"
         style="fill:#fdf028;fill-opacity:1;fill-rule:nonzero;stroke:none;stroke-width:0.133333" />
      <path
         id="path176"
         d="m -1635.7148,4317.3709 c -8.6533,-1.1333 -12.7733,-5.9333 -12.24,-14.28 0.56,-8.8667 5.8,-13.5733 15.5734,-13.9867 7.9733,-0.3466 15.4266,-0.013 23.4666,1.0267 l 0.9334,0.12 0.8533,0.3733 c 1.04,0.44 2.2,0.7467 3.5733,0.92 2.8667,0.3734 6.1867,0.1334 9.6934,-0.12 2.04,-0.1466 4.1466,-0.3066 6.28,-0.3466 1.9866,-0.04 4.0133,0.08 6.2133,0.36 2.6933,0.3466 5.2267,0.8933 7.6667,1.4266 1.4133,0.3067 2.8266,0.6134 4.2533,0.8667 7.9467,1.44 13,7.1467 12.5733,14.2133 -0.2133,3.6534 -2.4533,7.6534 -5.8266,10.4534 -3.0534,2.52 -6.5867,3.6666 -9.96,3.2266 l -0.2534,-0.027 c -1.64,-0.2134 -3.52,-0.1334 -5.52,-0.067 -2.3333,0.093 -4.9866,0.2 -7.7333,-0.16 -2.28,-0.2933 -4.3333,-0.8533 -6.28,-1.7333 -0.2667,-0.12 -0.6133,-0.2134 -0.9467,-0.2534 -0.32,-0.04 -0.48,-0.013 -0.48,-0.013 -10.2933,1.4 -20.2,0.2933 -29.7866,-0.7867 -3.3067,-0.3733 -6.72,-0.7466 -10.0267,-1.0133 -0.72,-0.053 -1.4,-0.12 -2.0267,-0.2"
         style="fill:#e186ff;fill-opacity:1;fill-rule:nonzero;stroke:none;stroke-width:0.133333" />
      <path
         id="path177"
         d="m -1514.0214,4332.1709 c -5.4934,-2.6667 -8.5067,-7.7867 -8.0667,-13.7067 0.2933,-4.0666 2.1333,-7.68 5.1467,-10.16 3.08,-2.5333 7.1466,-3.64 11.44,-3.12 10.7466,1.2934 18.88,2.7734 26.3733,4.8134 l 2.6133,0.72 c 6.28,1.72 12.2134,3.3466 18.2534,3.9866 4.6933,0.5067 9.24,1.88 14.2933,4.3334 0.6533,0.32 1.32,0.6533 1.9733,0.9866 7.3334,3.8534 9.96,9.2267 7.8,15.9867 -2.3866,7.48 -8.76,11.7733 -16.2533,10.92 -3.1067,-0.3467 -6.4,-0.8533 -9.52,-2.24 -4.64,-2.04 -8.4267,-2.68 -12.2933,-2.08 -2.56,0.4 -5.1067,-0.027 -7.7867,-1.3333 -1,-0.48 -1.9067,-1.04 -2.72,-1.52 -0.3867,-0.24 -0.7867,-0.48 -1.1867,-0.7067 l -0.28,-0.16 c -0.28,-0.1733 -0.5733,-0.3333 -0.88,-0.4933 -2.1866,-1.0534 -5,-1.4134 -7.4666,-1.6267 -5,-0.44 -9.8,-1.5067 -14.4534,-2.5333 l -2.52,-0.5467 c -1.6133,-0.3467 -3.1066,-0.8667 -4.4666,-1.52"
         style="fill:#ff77cb;fill-opacity:1;fill-rule:nonzero;stroke:none;stroke-width:0.133333" />
      <path
         id="path178"
         d="m -1146.7814,4500.4776 c -1.1867,-0.56 -2.2934,-1.24 -3.3067,-2.0267 -1.3867,-1.08 -2.5867,-2.2533 -3.6533,-3.28 -0.9467,-0.9333 -1.84,-1.8 -2.6934,-2.4533 -11.0266,-8.3867 -22.3733,-17.0267 -33.68,-25.2667 -2.8533,-2.0667 -6.9333,-5.44 -9.4933,-10.6933 -3.1067,-6.3734 -2.24,-12.6534 2.3867,-17.24 2.6266,-2.6134 7.2133,-5.0667 14.08,-1.88 0.5333,0.2533 1.0666,0.52 1.6,0.8 0.2266,0.1066 0.44,0.2133 0.6933,0.3333 l 2.2267,1.0133 c 0.1866,0.08 0.36,0.16 0.5466,0.24 1.8534,0.8534 3.4667,2.1334 5.1867,3.48 0.5733,0.4534 1.16,0.92 1.76,1.36 4.2667,3.16 8.4533,6.48 12.5067,9.6934 7.6666,6.08 14.9066,11.8266 22.8666,16.72 3.32,2.0533 5.04,4.92 6.2934,7.0133 0.2266,0.36 0.44,0.72 0.6666,1.0667 5.5334,8.6933 2.8,15.8133 -1.6266,19.5866 -4.1334,3.5334 -10.7067,4.1467 -16.36,1.5334"
         style="fill:#4fd6c3;fill-opacity:1;fill-rule:nonzero;stroke:none;stroke-width:0.133333" />
      <path
         id="path179"
         d="m -1798.4081,4327.5709 c -1.96,0.88 -4.16,1.3333 -6.5467,1.3867 -7.52,0.1333 -14.7866,2.2933 -22.48,4.5866 -5.4266,1.6134 -11.0266,3.2934 -16.9066,4.2667 -0.3467,0.1733 -1.1334,0.8267 -1.8267,1.4 l -0.2267,0.1733 c -1.1866,0.9867 -2.4666,1.7734 -3.8,2.3734 -6.1866,2.7333 -12,0.6266 -16.36,-1.52 -4.6533,-2.2934 -8.6266,-7.8 -5.8133,-16.3867 1.56,-4.7867 4.96,-8.64 9.32,-10.5733 0.72,-0.3067 1.4667,-0.5734 2.2267,-0.7867 0.7066,-0.2267 1.32,-0.4267 1.88,-0.6133 1.1866,-0.3867 2.2133,-0.7334 3.32,-1.0134 4.52,-1.1733 9.0933,-2.2533 13.52,-3.3066 8.2933,-1.9467 16.8533,-3.96 24.9733,-6.6134 6.2,-2.0266 11.6133,-1.9733 16.5733,0.16 6.1467,2.64 11.6667,10 9.8534,17.2534 -1.0534,4.2133 -3.7867,7.4933 -7.7067,9.2133"
         style="fill:#4fd6c3;fill-opacity:1;fill-rule:nonzero;stroke:none;stroke-width:0.133333" />
      <path
         id="path180"
         d="m -1689.9148,4314.7042 c -0.68,0.1467 -1.3733,0.2534 -2.08,0.3334 -5.7066,0.6266 -11.2666,0.4266 -16.64,0.2266 -3.36,-0.1333 -6.5333,-0.2533 -9.6933,-0.1733 -2.7067,0.067 -5.5333,0.6267 -8.52,1.2267 -5,1 -10.6533,2.12 -16.8,1.0266 -0.6933,-0.12 -1.5467,-0.1866 -2.4667,-0.2533 -2.48,-0.1733 -5.56,-0.3733 -8.6933,-2 l -0.1867,-0.093 c -2.8133,-1.4534 -9.4,-4.84 -8.3866,-12.9334 0.7333,-5.9333 4.76,-10.24 10.7733,-11.5466 l 4.6133,-0.9734 c 0.68,-0.2133 1.3867,-0.3866 2.1067,-0.5466 3.32,-0.6934 6.6133,-0.76 9.8,-0.8134 2.2267,-0.04 4.32,-0.08 6.32,-0.3333 l 2.5733,-0.3333 c 11.04,-1.4 22.4534,-2.84 34.12,-2.2667 0.32,-0.027 0.76,-0.067 1.2667,-0.04 13.2133,0.6133 16.0667,7.8133 16.1333,13.76 0.093,7.48 -5.76,13.9467 -14.24,15.7333"
         style="fill:#71e2ff;fill-opacity:1;fill-rule:nonzero;stroke:none;stroke-width:0.133333" />
      <path
         id="path181"
         d="m -2069.1947,4442.8642 c -7.6667,3.4134 -15.04,1.5467 -19.2267,-4.8533 -4.16,-6.3733 -2.7867,-14.16 3.3467,-18.9467 1.4533,-1.1466 2.8933,-2.2933 4.3466,-3.4533 7.3867,-5.8933 15.0267,-11.9867 24.2,-16.2133 1.32,-0.6134 2.6667,-1.1734 4,-1.68 0.2134,-0.08 0.4267,-0.1734 0.6267,-0.2667 1.36,-0.6133 2.7867,-1.6 4.2933,-2.6533 1.8267,-1.2534 3.9067,-2.6934 6.32,-3.8 1.2667,-0.5867 2.4934,-1.0267 3.76,-1.3467 0.28,-0.08 0.7467,-0.2533 1.2134,-0.44 1.16,-0.4533 2.76,-1.08 4.6666,-1.28 5.8667,-0.5867 10.9867,2.2267 13.68,7.5467 2.7734,5.4533 1.8934,11.1333 -2.3866,15.5733 -1.3334,1.3867 -2.7867,2.52 -4.2934,3.3467 -6.5866,3.6266 -12.7066,7.92 -19.1866,12.4666 -7.2667,5.08 -14.7734,10.3467 -23.0134,14.6134 -0.3466,0.1733 -0.6666,0.3866 -0.9333,0.5733 -0.24,0.1467 -1.0133,0.6267 -1.0133,0.6267 l -0.4,0.1866"
         style="fill:#ffb200;fill-opacity:1;fill-rule:nonzero;stroke:none;stroke-width:0.133333" />
      <path
         id="path182"
         d="m -2145.2614,4497.9442 c -1.1733,0.64 -2.3333,1.1734 -3.4667,1.6134 -1.2266,0.6666 -2.32,1.28 -3.32,1.84 -0.9866,0.5466 -1.8933,1.0533 -2.7466,1.52 -1.4667,0.8133 -2.64,1.4 -3.7867,1.9333 -5.8,2.6933 -11.8533,1.48 -15.8,-3.1467 -3.84,-4.52 -4.0667,-10.64 -0.5733,-15.9866 0.2133,-0.3334 0.4266,-0.6667 0.64,-1.0134 1.4133,-2.2666 3.36,-5.36 6.7733,-7.2266 0.48,-0.2534 0.9733,-0.4934 1.48,-0.68 0.7067,-0.28 1.4133,-0.6134 2.1067,-0.9867 3.2533,-1.7733 6.12,-4.5467 9.16,-7.48 2.7333,-2.64 5.56,-5.3733 8.9733,-7.72 1.8667,-1.28 3.76,-2.4133 5.5867,-3.4933 4.3066,-2.5734 8.0266,-4.7867 10.5733,-8.32 0.9067,-1.2667 2.04,-2.2667 3.3867,-3 3.0133,-1.64 6.7466,-1.6667 10.2533,-0.08 4.0667,1.84 7.16,5.6 8.0933,9.8 1.4134,6.3733 -0.4666,12.1333 -5.6,17.0933 -3.2533,3.1467 -6.7466,5.84 -10.12,8.44 -2.3733,1.8133 -4.6133,3.5333 -6.7333,5.3867 l -1.8133,1.5866 c -4.16,3.64 -8.4534,7.4 -13.0667,9.92"
         style="fill:#ff77cb;fill-opacity:1;fill-rule:nonzero;stroke:none;stroke-width:0.133333" />
      <path
         id="path183"
         d="m -1341.5414,5856.1975 c -1.4934,0.6 -2.96,1.0134 -4.4667,1.28 -8.52,1.6934 -16.6133,4.68 -24.08,7.6534 -2.2533,0.9066 -4.5067,1.8266 -6.7467,2.7466 -2.2933,0.9334 -4.5733,1.8667 -6.8666,2.7867 -3.9467,1.5733 -7.2,2.8 -10.2534,3.8533 l -0.44,0.1467 c -1.72,0.6133 -3.88,1.36 -6.3333,1.5067 -4.3867,0.2666 -8.2267,-1.1334 -10.8,-3.92 -2.6,-2.8 -3.68,-6.76 -3.08,-11.16 1.0667,-7.68 5.16,-12.9867 12.1867,-15.7867 2.1066,-0.84 4.4533,-1.4533 7.1733,-1.88 3.56,-0.5467 6.12,-1.1867 8.2933,-2.0533 1.3334,-0.52 2.4667,-1.1334 3.5067,-1.84 3.3467,-2.3334 6.4667,-4.0534 9.5467,-5.28 1.3866,-0.5467 2.7866,-1.0134 4.1733,-1.3734 4.6267,-1.1866 9.1333,-2.72 13.9067,-4.36 6.4933,-2.2 13.2,-4.4933 20.28,-5.8666 9.56,-1.8534 14.9866,2.9733 16.8533,8.12 2.5467,6.9866 -0.8133,14.36 -7.8267,17.16 -0.32,0.12 -0.6533,0.2533 -1,0.36 -0.24,0.08 -0.4666,0.16 -0.68,0.24 -1.76,0.7066 -3.56,1.92 -5.4666,3.2 -2.2667,1.52 -4.8534,3.2533 -7.88,4.4666"
         style="fill:#e186ff;fill-opacity:1;fill-rule:nonzero;stroke:none;stroke-width:0.133333" />
      <path
         id="path184"
         d="m -1685.3681,5909.4775 c -7.4667,0 -14.8267,-0.8266 -21.9467,-1.6266 -1.72,-0.2 -3.4533,-0.3867 -5.1866,-0.5734 -3.0534,-0.32 -6.1067,-0.7066 -9.08,-1.08 -7.28,-0.9333 -14.16,-1.8 -21.1067,-1.8 h -1.2933 c -5.8134,0 -9.7334,-2.2933 -11.64,-6.8133 -2.12,-5.0267 -1.0534,-10.5867 2.7866,-14.52 4.4,-4.52 9.08,-6.7067 14.2934,-6.7067 0.1866,0 0.3866,0 0.5733,0 1.16,0.04 2.32,0.053 3.4667,0.053 0.96,0 1.92,0 2.88,-0.013 0.8533,-0.013 1.6933,-0.013 2.5466,-0.013 0.9734,-0.12 1.9734,-0.1867 3.0267,-0.1867 2.6933,0 5.1733,0.3867 7.56,0.7467 1.9867,0.3067 3.8667,0.6 5.5467,0.6 1.1333,0 2.0533,-0.1333 2.9066,-0.4 l 2.2667,-0.7067 2.2133,0.88 c 5.7467,2.2934 12.0267,2.6134 17.9467,2.6134 1.5867,0 3.1733,-0.027 4.76,-0.053 1.6533,-0.013 3.3067,-0.04 4.96,-0.04 2.7333,0 5,0.067 7.1067,0.2 8.2,0.56 14.9466,7.4667 14.7333,15.0934 -0.28,10.2933 -10.6,12.3066 -13.9867,12.96 -4.7733,0.9333 -9.8,1.3866 -15.3333,1.3866"
         style="fill:#fdf028;fill-opacity:1;fill-rule:nonzero;stroke:none;stroke-width:0.133333" />
      <path
         id="path185"
         d="m -1802.1681,5892.8375 c -0.7867,0 -1.5733,-0.053 -2.3467,-0.1733 -0.7466,-0.08 -1.3866,-0.1467 -1.9733,-0.2 -1.24,-0.12 -2.32,-0.2267 -3.4533,-0.4133 -4.6,-0.7467 -9.2267,-1.6134 -13.6934,-2.4534 -8.3733,-1.56 -17.0133,-3.1866 -25.52,-4.0533 -6.48,-0.6533 -11.4266,-2.8933 -15.0933,-6.84 -4.56,-4.92 -6.6267,-13.88 -2.0267,-19.7733 2.6667,-3.4267 6.4934,-5.32 10.7734,-5.32 2.1466,0 4.3466,0.48 6.56,1.4 6.92,2.92 14.44,3.88 22.4133,4.8933 5.6,0.72 11.4133,1.4533 17.1733,2.9333 0.4,-0.013 1.3867,-0.2933 2.2534,-0.5333 l 0.2533,-0.067 c 1.4933,-0.4266 2.9867,-0.6266 4.44,-0.6266 6.7733,0 11.2267,4.28 14.3467,8 3.3333,3.9733 4.7333,10.6266 -1.3067,17.3466 -3.36,3.7334 -8.0267,5.88 -12.8,5.88"
         style="fill:#4fd6c3;fill-opacity:1;fill-rule:nonzero;stroke:none;stroke-width:0.133333" />
      <path
         id="path186"
         d="m -1918.8214,5861.2242 c -3.3733,-0.3467 -6.52,-1.2933 -9.5733,-2.2133 -2.1334,-0.64 -4.1467,-1.2534 -6.12,-1.6134 l -2.5867,-0.4933 c -10.9333,-2.04 -22.24,-4.16 -33.1467,-8.28 -0.3066,-0.067 -0.7333,-0.16 -1.1866,-0.3333 -12.4267,-4.64 -12.9334,-12.3734 -11.1867,-18.0534 2.2133,-7.1466 9.7733,-11.5066 18.3867,-10.6133 0.6933,0.067 1.3866,0.1733 2.08,0.32 5.6266,1.1467 10.8533,3.04 15.92,4.88 3.1466,1.1467 6.1333,2.24 9.1733,3.1333 2.5733,0.76 5.44,1.0934 8.48,1.44 5.0533,0.5734 10.7867,1.24 16.3067,4.16 0.6133,0.3334 1.4133,0.6534 2.2666,1 2.3067,0.92 5.1733,2.0667 7.6667,4.5734 l 0.1466,0.1333 c 2.2267,2.2533 7.4667,7.4933 4.0267,14.8933 -2.52,5.4134 -7.6666,8.28 -13.7866,7.6934 l -4.6934,-0.4934 c -0.7066,-0.013 -1.44,-0.053 -2.1733,-0.1333"
         style="fill:#71e2ff;fill-opacity:1;fill-rule:nonzero;stroke:none;stroke-width:0.133333" />
      <path
         id="path187"
         d="m -1607.9814,5910.5575 c -1.3867,0 -2.68,-0.1066 -3.9734,-0.3466 -0.28,-0.053 -0.7866,-0.08 -1.28,-0.1067 -1.2533,-0.08 -2.96,-0.1733 -4.7733,-0.8 -5.5733,-1.9067 -9.04,-6.6133 -9.2667,-12.5733 -0.2266,-6.1067 2.9334,-10.9067 8.68,-13.1467 1.7867,-0.7067 3.5734,-1.12 5.2934,-1.24 7.5066,-0.5467 14.8666,-1.88 22.6533,-3.2933 8.72,-1.5867 17.7467,-3.2267 27.0133,-3.6534 0.4,-0.013 0.7867,-0.08 1.1067,-0.12 0.2667,-0.04 1.16,-0.16 1.16,-0.16 l 0.4533,0.013 c 8.3867,0.1066 14.2934,4.88 15.4267,12.44 1.12,7.5333 -3.3867,14.0266 -10.96,15.8133 -1.8133,0.4267 -3.6,0.88 -5.4,1.32 -9.1867,2.2533 -18.6667,4.6 -28.76,4.6 -1.4667,0 -2.92,-0.053 -4.3333,-0.1467 -0.24,-0.027 -0.4667,-0.027 -0.6934,-0.027 -1.48,0 -3.2,0.2933 -5,0.6133 -2.2,0.3867 -4.68,0.8133 -7.3466,0.8133"
         style="fill:#ffb200;fill-opacity:1;fill-rule:nonzero;stroke:none;stroke-width:0.133333" />
      <path
         id="path188"
         d="m -1507.4748,5894.5575 c -3.44,0 -6.7333,-1.76 -9.04,-4.84 -2.6933,-3.56 -3.6133,-8.3466 -2.4266,-12.48 1.8133,-6.28 6.2133,-10.4266 13.0933,-12.3333 4.3733,-1.2 8.72,-1.8933 12.9333,-2.56 2.96,-0.4667 5.7467,-0.9067 8.4934,-1.5067 l 2.3333,-0.52 c 5.4,-1.2133 10.9733,-2.4666 16.24,-2.4666 1.3333,0 2.6133,0.08 3.8133,0.2533 1.3867,-0.013 2.64,-0.027 3.8,-0.04 1.12,-0.013 2.16,-0.027 3.1334,-0.027 1.68,0 2.9866,0.04 4.2533,0.12 6.3733,0.4134 11.12,4.3734 12.36,10.32 1.2133,5.8134 -1.52,11.2934 -7.1467,14.32 -0.3466,0.1867 -0.6933,0.3867 -1.04,0.5867 -2.3333,1.3067 -5.52,3.0933 -9.4133,3.0933 -0.5467,0 -1.0933,-0.027 -1.6267,-0.1066 -0.7466,-0.093 -1.52,-0.1467 -2.32,-0.1467 -3.7066,0 -7.5466,1.0667 -11.6266,2.1867 -3.6534,1.0133 -7.44,2.0666 -11.56,2.4933 -2.2534,0.2267 -4.4667,0.3067 -6.5867,0.4 -5.0133,0.1867 -9.3333,0.3467 -13.2667,2.24 -1.4,0.6667 -2.88,1.0133 -4.4,1.0133"
         style="fill:#ff77cb;fill-opacity:1;fill-rule:nonzero;stroke:none;stroke-width:0.133333" />
      <path
         id="path189"
         d="m -962.86144,4688.0776 c -2.05333,1.2666 -4.48,1.9733 -7.24,2.0666 -10.04,0.3867 -17.02667,-5 -20.77333,-15.9733 -1.29334,-3.7733 -2.98667,-8.0133 -5.89334,-10.9467 -4.17329,-4.2133 -7.01329,-8.1333 -8.93329,-12.36 -1.9734,-4.3466 -4.28,-8.52 -6.72,-12.9466 -3.2934,-6 -6.72,-12.2 -9.3067,-18.9334 -2.8933,-7.5333 -1.1333,-14.1866 4.7067,-17.8 l 0.36,-0.2133 c 3.24,-1.88 6.9333,-2.36 10.4133,-1.36 3.5467,1.0133 6.51999,3.5067 8.37333,7.0133 0.97333,1.8267 2.66666,3.5867 4.45333,5.44 2.82667,2.9467 6.04,6.2667 7.81333,11.16 3.89334,10.0134 9.58667,19.0134 15.6,28.5467 3.2,5.0667 6.50667,10.3067 9.52,15.7067 l 0.24,0.4133 c 0.89334,1.5867 2,3.5733 2.57334,5.96 1.42666,6.0133 -0.50667,11.3333 -5.18667,14.2267"
         style="fill:#e186ff;fill-opacity:1;fill-rule:nonzero;stroke:none;stroke-width:0.133333" />
      <path
         id="path190"
         d="m -856.90144,5036.3309 c -3.38667,0.5333 -6.85334,-0.3067 -9.76,-2.36 -5.34667,-3.7867 -8.26667,-8.2533 -8.94667,-13.6533 -0.25333,-2.0534 -0.58667,-4.1067 -0.94667,-6.2667 -0.14666,-0.84 -0.28,-1.68 -0.41333,-2.5067 -1.06667,-3.7333 -1.08,-7.3466 -1.09333,-10.56 -0.0133,-3.32 -0.0267,-6.1733 -1.12,-8.3733 l -1.06667,-2.1333 0.53333,-2.32 c 1.66667,-7.3467 0.37334,-14.8667 -1.01333,-22.84 -0.66667,-3.8534 -1.34667,-7.84 -1.72,-11.9334 -0.70667,-7.9733 4.90667,-15.6933 12.28,-16.8666 l 0.33333,-0.04 c 10.2,-1.32 13.8,8.5466 14.98667,11.7866 4.46667,12.3067 5.02667,24.7867 5.57333,36.8667 0.08,1.7467 0.14667,3.48 0.24,5.2133 0.16,3.0534 0.25334,6.1334 0.34667,9.12 0.22667,7.64 0.44,14.8667 1.65333,22 0.37334,2.24 1.52,9.0267 -4.85333,12.9867 -1.56,0.9733 -3.25333,1.6 -5.01333,1.88"
         style="fill:#fdf028;fill-opacity:1;fill-rule:nonzero;stroke:none;stroke-width:0.133333" />
      <path
         id="path191"
         d="m -1293.3281,5821.3842 c -0.6533,-0.84 -1.2133,-1.7867 -1.64,-2.8 -2.56,-5.96 0.3867,-13.8667 6.84,-18.3867 l 0.2267,-0.1466 c 16.3733,-10.5067 31.6133,-19.0267 46.6,-26.0267 1.04,-0.48 2.0933,-0.9333 3.1466,-1.4 2.68,-1.16 5.2,-2.2667 7.2,-3.76 3.2134,-2.4267 7.16,-3.6933 11.4,-3.6533 4.6134,0.04 8.72,1.96 11.2534,5.24 3.3333,4.32 3.44,10.0933 0.2666,15.08 -2.6666,4.2133 -6.7333,9.4266 -14.64,12.3866 l -2.52,0.9467 c -9.16,3.4133 -17.8133,6.64 -24.0933,13.2667 -1.8533,1.96 -4.0933,2.8533 -5.7333,3.4933 -0.3067,0.1333 -0.6267,0.2533 -0.92,0.3867 l -1.4934,0.6666 c -4.1466,1.8267 -8.0666,3.56 -11.04,6.2134 -4.7733,4.28 -9.56,4.52 -12.7333,3.96 -0.4267,-0.08 -0.8667,-0.1467 -1.3067,-0.2 -3.0266,-0.44 -7.6133,-1.1067 -10.8133,-5.2667"
         style="fill:#71e2ff;fill-opacity:1;fill-rule:nonzero;stroke:none;stroke-width:0.133333" />
      <path
         id="path192"
         d="m -1016.2081,5586.9709 c -2.24,-1.92 -3.7333,-4.68 -4.3467,-8 -0.68,-3.7734 -1.8133,-9.96 2.88,-14.9334 2.32,-2.4533 4.24,-5.4 6.28,-8.5333 2.2667,-3.5067 4.6134,-7.12 7.7734,-10.44 1.7866,-2.7333 3.5866,-5.4533 5.38663,-8.1867 4.48,-6.8 9.12,-13.84 13.48,-20.84 2.08,-3.3333 7.61333,-12.2266 17.57333,-9.1066 1.85333,0.5733 3.53333,1.5066 5,2.76 4.24,3.6266 6.14667,9.6533 5.08,16.0933 -0.36,2.1467 -0.89333,5.4 -3.05333,8.0267 -3.24,3.9466 -5.93334,8.3733 -8.78667,13.0533 -3.48,5.68 -7.06667,11.5733 -11.88,16.88 -3.73333,4.1333 -6.69333,8.32 -8.76,12.4533 -3.32,6.6134 -8.93333,9.6 -13.02666,11.7867 -4.7867,2.56 -9.88,2.1733 -13.6,-1.0133"
         style="fill:#ffb200;fill-opacity:1;fill-rule:nonzero;stroke:none;stroke-width:0.133333" />
      <path
         id="path193"
         d="m -1093.4081,5677.9709 c -0.5333,-0.3734 -1.04,-0.8 -1.5333,-1.2534 -4.4,-4.1866 -5.5734,-10.16 -3.0534,-15.5733 1.0134,-2.1733 2.2267,-4.0533 3.52,-6.0533 0.5467,-0.8534 1.12,-1.76 1.72,-2.7467 l 0.32,-0.5067 0.3867,-0.44 c 1.1067,-1.2533 2.2133,-2.56 3.3333,-3.9066 3.8,-4.5067 8.1067,-9.6134 13.6134,-13.8 2.28,-1.72 4.32,-3.9067 6.28,-6.6667 l 0.2,-0.28 c 1.6933,-2.4 3.8133,-5.4 7.52,-7.3333 2.1733,-1.12 2.2,-1.6134 2.2533,-2.36 0.2667,-4.1734 2.44,-11.2267 13.92,-11.6534 2.9867,-0.1066 5.6267,0.6267 7.8533,2.2 2.5734,1.8 4.3867,4.5867 5.4134,8.2934 2.6666,9.7466 0.24,17 -7.6667,22.8533 -2.2933,1.7067 -4.2267,4.2533 -6.2533,6.9333 -2.3734,3.1334 -5.0534,6.68 -8.8134,9.4667 -3.1333,2.32 -5.7333,5.4933 -8.5066,8.8533 -2.7867,3.3867 -5.68,6.8934 -9.4134,9.9467 -2.96,2.4267 -5.5066,4.0133 -8.2533,5.1333 -4.5867,1.8667 -9.1467,1.48 -12.84,-1.1066"
         style="fill:#fdf028;fill-opacity:1;fill-rule:nonzero;stroke:none;stroke-width:0.133333" />
      <path
         id="path194"
         d="m -904.63478,5375.1842 c -3.37333,-1.4666 -6.43999,-4.84 -7.99999,-8.8266 -1.36,-3.4667 -1.38667,-7 -0.08,-9.9467 0.69333,-1.5467 1.14666,-3.4267 1.62666,-5.4267 1,-4.0933 2.13334,-8.7466 5.66667,-12.9466 0.37333,-0.44 0.62666,-1.0534 0.66666,-1.3067 1.46667,-10.2667 5.25334,-19.4933 8.92,-28.4267 1.26667,-3.0666 2.57334,-6.2533 3.72,-9.36 1.45334,-3.88 5.29334,-14.2 17.85334,-9.7466 0.48,0.1733 0.93333,0.36 1.36,0.5333 7.33333,3.16 9.96,9.32 7.81333,18.28 -1.85333,7.7467 -4.21333,14.8267 -7.44,22.2933 l -0.36,0.8534 -0.58667,0.72 c -2.42666,2.9733 -3.4,7.6266 -4.41333,12.5466 -0.41333,2 -0.85333,4.0667 -1.4,6.1334 -1.29333,4.9466 -3.44,8.96 -5.52,12.8533 -0.68,1.28 -1.36,2.5467 -2,3.8533 -3.57333,7.24 -10.44,10.5334 -17.12,8.1867 -0.22667,-0.08 -0.46667,-0.1733 -0.70667,-0.2667"
         style="fill:#e186ff;fill-opacity:1;fill-rule:nonzero;stroke:none;stroke-width:0.133333" />
      <path
         id="path195"
         d="m -953.43477,5477.4109 c -4.93334,-4.4933 -6.41334,-11.04 -3.85334,-17.0933 1.21334,-2.8667 2.64,-5.8934 4.84,-8.4934 3.28,-3.8666 4.96,-7.32 5.48,-11.1866 0.61334,-4.6134 3.68,-7.4134 5.72,-9.28 0.33334,-0.3067 0.68,-0.6134 1.01334,-0.9334 l 0.22666,-0.2266 c 1.62667,-1.44 2.90667,-3.5867 4.4,-7.4 1.84,-4.68 4.22667,-9 6.53334,-13.1734 l 1.24,-2.24 c 4.01333,-7.3333 11.13333,-10.36 18.13333,-7.7066 1.82667,0.68 3.44,1.6666 4.84,2.9333 4.61333,4.2133 5.85333,10.6267 3.21333,16.7467 -4.29333,9.9466 -8.02666,17.32 -12.09333,23.92 l -1.42667,2.3066 c -3.44,5.5467 -6.68,10.7734 -9,16.3734 -2.04,4.92 -5.02666,9.2533 -9.70666,14.0933 -5.76,5.9467 -11.66667,6.9333 -17.53334,2.96 -0.72,-0.4933 -1.4,-1.0267 -2.02666,-1.6"
         style="fill:#ff77cb;fill-opacity:1;fill-rule:nonzero;stroke:none;stroke-width:0.133333" />
      <path
         id="path196"
         d="m -1185.4614,5755.7575 c -1.4534,-1.2133 -2.64,-2.76 -3.4934,-4.56 -2.8933,-6.0666 -0.4533,-14.36 5.56,-18.88 1.4,-1.0533 2.84,-1.9066 4.12,-2.6666 1.1334,-0.68 2.2134,-1.32 3.0534,-1.9734 10.92,-8.44 22.2,-17.1733 33.1333,-26 2.7333,-2.2133 7.04,-5.28 12.7733,-6.4 6.32,-1.2133 10.4267,0.84 12.76,2.8 1.28,1.0667 2.3867,2.4 3.28,3.96 4.2534,7.44 -1.0266,13.2534 -3.0133,15.44 -0.3067,0.3334 -0.5867,0.6934 -1.0267,1.2267 l -1.0266,1.24 c -1.3467,1.7733 -3.16,3.1333 -5.0667,4.56 -0.5867,0.44 -1.1867,0.8933 -1.7867,1.36 -4.1466,3.3067 -8.44,6.4933 -12.6,9.5733 -7.8533,5.8267 -15.28,11.3467 -22.0666,17.76 -2.84,2.68 -6.0534,3.6 -8.4,4.2667 -0.4,0.12 -0.8134,0.24 -1.2,0.36 -7.9067,2.5067 -12.7867,-0.2267 -15,-2.0667"
         style="fill:#4fd6c3;fill-opacity:1;fill-rule:nonzero;stroke:none;stroke-width:0.133333" />
      <path
         id="path197"
         d="m -857.60811,5145.4642 c -3.05333,0.3067 -5.90667,-0.3066 -8.21333,-1.7733 -5.58667,-3.52 -7.73334,-9.9733 -5.62667,-16.8533 2.21333,-7.1734 2.42667,-14.76 2.64,-22.7867 0.16,-5.6533 0.32,-11.5067 1.21333,-17.3867 -0.0133,-0.2933 -0.45333,-1.4266 -0.74666,-2.1866 l -0.10667,-0.2534 c -3.85333,-9.88 3.17333,-17.0666 5.48,-19.4266 2.05333,-2.0934 4.6,-3.3467 7.33333,-3.6267 3.32,-0.3333 6.69334,0.7467 10.05334,3.2133 4.78666,3.5067 7.46666,8.92 7.18666,14.5067 0,0.7333 0,1.3867 0,1.96 0,1.2667 0,2.3467 -0.0667,3.5067 -0.29334,4.6533 -0.69334,9.3466 -1.08,13.88 -0.73334,8.48 -1.48,17.24 -1.49334,25.7733 -0.0133,6.52 -1.76,11.6533 -5.32,15.6933 -2.81333,3.1867 -7.01333,5.3334 -11.25333,5.76"
         style="fill:#4fd6c3;fill-opacity:1;fill-rule:nonzero;stroke:none;stroke-width:0.133333" />
      <path
         id="path198"
         d="m -867.32811,5262.1442 c -1.01333,0 -2.08,-0.1066 -3.16,-0.32 -7.97333,-1.5866 -13.29333,-9.88 -12.36,-19.2933 0.56,-5.72 1.90667,-11.12 3.21333,-16.3333 0.81334,-3.2534 1.58667,-6.3334 2.16,-9.4534 0.49334,-2.6533 0.53334,-5.5333 0.56,-8.5866 0.0533,-5.0934 0.12,-10.8667 2.46667,-16.64 0.26667,-0.6534 0.50667,-1.48 0.74667,-2.3734 0.68,-2.3733 1.52,-5.3466 3.76,-8.0933 l 0.13333,-0.16 c 1.89333,-2.32 5.05333,-6.2 10.57333,-6.2 1.26667,0 2.54667,0.2267 3.81334,0.6533 5.64,1.9467 9.04,6.7867 9.06666,12.9334 0.0133,1 0.0133,2 0.0133,3.2133 v 1.5067 c 0.34666,4.16 -0.4,8.1066 -1.13334,11.92 -0.41333,2.1866 -0.81333,4.2533 -0.97333,6.2533 l -0.21333,2.6267 c -0.92,11.08 -1.85334,22.5466 -4.82667,33.8133 -0.0267,0.32 -0.0933,0.7467 -0.21333,1.2267 -2.29334,8.84 -6.86667,13.3066 -13.62667,13.3066"
         style="fill:#71e2ff;fill-opacity:1;fill-rule:nonzero;stroke:none;stroke-width:0.133333" />
      <path
         id="path199"
         d="m -885.36811,4905.1442 c -5.8,0 -10.37333,-3.1733 -12.53333,-8.6933 -0.69334,-1.8 -1.12,-3.5733 -1.24,-5.2933 -0.54667,-7.5067 -1.88,-14.8667 -3.29334,-22.6534 -1.58666,-8.7333 -3.22666,-17.76 -3.63999,-27.0266 -0.0267,-0.3734 -0.08,-0.76 -0.13334,-1.08 -0.04,-0.28 -0.0667,-0.5334 -0.0933,-0.76 l -0.0533,-0.4267 v -0.44 c 0.10666,-8.3867 4.87999,-14.2933 12.45333,-15.4267 0.74666,-0.1066 1.50666,-0.1733 2.25333,-0.1733 6.64,0 11.96,4.3733 13.56,11.1333 0.41333,1.8 0.86667,3.6 1.30667,5.4 2.58666,10.5067 5.26666,21.3734 4.45333,33.0934 -0.12,1.6533 0.22667,3.6133 0.58667,5.6933 0.58666,3.3333 1.24,7.0933 0.46666,11.32 -0.0533,0.2667 -0.08,0.7867 -0.10666,1.28 -0.08,1.24 -0.17334,2.96 -0.78667,4.76 -1.92,5.5867 -6.62667,9.0533 -12.58667,9.28 -0.21333,0.013 -0.41333,0.013 -0.61333,0.013"
         style="fill:#ffb200;fill-opacity:1;fill-rule:nonzero;stroke:none;stroke-width:0.133333" />
      <path
         id="path200"
         d="m -919.51477,4794.1976 c -1.2,0.4 -2.44,0.6266 -3.68,0.68 -6.53334,0.2666 -11.86667,-2.6 -15.85334,-8.52 -2.53333,-3.76 -4.56,-7.6667 -6.52,-11.4534 -1.37333,-2.6533 -2.68,-5.16 -4.12,-7.5733 l -1.24,-2.0667 c -3.57333,-5.9066 -7.26666,-12.0266 -8.45333,-18.3066 -0.44,-1.32 -0.85333,-2.4934 -1.22667,-3.5867 -0.88,-2.5467 -1.65333,-4.7467 -2.25333,-7.04 -1.62667,-6.1733 0.62667,-11.92 5.86667,-14.9867 0.81333,-0.4666 1.65333,-0.8533 2.50666,-1.1333 4.57334,-1.5333 9.44,-0.3067 13.34667,3.3733 0.29333,0.2667 0.58667,0.5467 0.89333,0.8134 2.29334,2.08 5.42667,4.92 6.32,9.5066 0.86667,4.4134 3.53334,8.3867 6.36,12.5867 2.12,3.16 4.30667,6.4133 6.01334,10.1867 0.93333,2.0666 1.70666,4.1333 2.46666,6.12 1.76,4.6933 3.29334,8.7466 6.32,11.8666 2.50667,2.5867 3.44,6.1334 2.56,9.7467 -1.08,4.4133 -4.73333,8.2533 -9.30666,9.7867"
         style="fill:#ff77cb;fill-opacity:1;fill-rule:nonzero;stroke:none;stroke-width:0.133333" />
      <path
         id="path201"
         d="m -2005.2214,5820.3709 c -1.7733,3.2933 -4.6667,5.64 -8.1467,6.6133 -3.5466,0.9867 -7.3866,0.4267 -10.8133,-1.5867 -1.7867,-1.0533 -4.1467,-1.6533 -6.64,-2.3066 -3.96,-1.0134 -8.44,-2.1734 -12.5067,-5.4134 -8.56,-6.48 -18.1333,-11.16 -28.2533,-16.1333 -5.3733,-2.6267 -10.9333,-5.36 -16.3333,-8.3733 l -0.4134,-0.24 c -1.6,-0.88 -3.5866,-1.9867 -5.3333,-3.7334 -4.36,-4.3733 -5.4933,-9.9066 -3.0267,-14.8266 1.08,-2.16 2.7867,-4.0267 5.08,-5.56 8.36,-5.5867 17.12,-4.6667 26.0667,2.7333 3.0667,2.5333 6.7467,5.2533 10.76,6.2267 5.76,1.4 10.2267,3.2533 14.08,5.84 3.9733,2.68 8.1067,5.0266 12.5067,7.5066 5.9466,3.3867 12.1066,6.88 17.8533,11.2534 6.4133,4.8933 8.4,11.48 5.32,17.6266 l -0.2,0.3734"
         style="fill:#e186ff;fill-opacity:1;fill-rule:nonzero;stroke:none;stroke-width:0.133333" />
      <path
         id="path202"
         d="m -2272.4214,5602.5042 c -8.1333,6.3067 -16.24,-0.3733 -18.8933,-2.5733 -10.0934,-8.3334 -16.9067,-18.8134 -23.4934,-28.9467 -0.9466,-1.4667 -1.8933,-2.92 -2.8533,-4.3733 -1.68,-2.56 -3.3333,-5.1734 -4.92,-7.6934 -4.0667,-6.4666 -7.92,-12.5733 -12.5733,-18.12 -1.4534,-1.7333 -5.8934,-7.0133 -2.4,-13.6533 0.8533,-1.6267 1.9866,-3.0267 3.36,-4.16 2.6533,-2.1867 6.0666,-3.2133 9.6266,-2.9067 6.52,0.5467 11.2934,2.92 14.6134,7.2267 1.2666,1.64 2.6,3.24 4.0133,4.92 0.5333,0.6533 1.08,1.3067 1.6267,1.96 2.8,2.6667 4.64,5.7867 6.28,8.5467 1.6933,2.84 3.16,5.3066 5.2133,6.6533 l 2,1.2933 0.72,2.2667 c 2.28,7.1733 7.2133,13 12.44,19.1733 2.5333,2.9867 5.1467,6.08 7.5333,9.4267 4.6534,6.5067 3.7334,16.0133 -2.0266,20.7467 l -0.2667,0.2133"
         style="fill:#fdf028;fill-opacity:1;fill-rule:nonzero;stroke:none;stroke-width:0.133333" />
      <path
         id="path203"
         d="m -2328.0214,4694.4509 c -5.04,-2.0667 -8.0133,-7.0267 -7.76,-12.9333 0.2,-4.9734 1.1333,-11.52 6.48,-18.04 l 1.72,-2.08 c 6.2267,-7.5334 12.1067,-14.64 14.24,-23.5334 0.6267,-2.6133 2.12,-4.5066 3.2133,-5.8933 0.2,-0.2667 0.4134,-0.52 0.6,-0.7867 l 0.96,-1.32 c 2.68,-3.6666 5.2134,-7.12 6.4534,-10.9066 2,-6.0934 6.0266,-8.68 9.0533,-9.7867 0.4267,-0.16 0.8267,-0.32 1.24,-0.48 2.8533,-1.1333 7.1467,-2.8533 12,-0.8533 0.9867,0.4 1.9333,0.9466 2.8267,1.6133 5.1866,3.88 6.5866,12.2 3.2533,19.3467 l -0.12,0.24 c -8.92,17.2666 -17.8667,32.2666 -27.3467,45.8266 -0.6666,0.9334 -1.3466,1.8534 -2.0266,2.7734 -1.7334,2.36 -3.3867,4.5733 -4.36,6.8666 -1.5734,3.7067 -4.36,6.7734 -8.0534,8.8534 -4.0133,2.28 -8.5333,2.68 -12.3733,1.0933"
         style="fill:#71e2ff;fill-opacity:1;fill-rule:nonzero;stroke:none;stroke-width:0.133333" />
      <path
         id="path204"
         d="m -2429.9414,5025.6776 c -5.4667,-1.12 -10.04,-5.48 -12.2267,-11.6267 -0.7333,-2.0533 -1.8266,-5.1467 -1.2133,-8.5067 0.9333,-5.0266 1.16,-10.2 1.4,-15.6666 0.2933,-6.6667 0.5867,-13.5467 2.2267,-20.52 1.28,-5.4267 1.84,-10.52 1.6533,-15.1467 -0.28,-7.3867 3.1867,-12.72 5.72,-16.6133 2.96,-4.5467 7.5867,-6.6667 12.4,-5.68 2.88,0.6 5.52,2.2933 7.6533,4.9066 2.4267,2.96 6.4134,7.84 4.7067,14.4534 -0.8533,3.2666 -1.1067,6.7866 -1.3733,10.52 -0.2934,4.16 -0.6134,8.4533 -1.76,12.8933 -0.24,3.2533 -0.5067,6.52 -0.76,9.7733 -0.64,8.12 -1.3067,16.52 -1.7334,24.7467 -0.2,3.9333 -0.7466,14.3867 -10.9866,16.48 -1.8934,0.3867 -3.8134,0.3867 -5.7067,-0.013"
         style="fill:#ffb200;fill-opacity:1;fill-rule:nonzero;stroke:none;stroke-width:0.133333" />
      <path
         id="path205"
         d="m -2403.5281,4906.1442 c -3.1333,-0.1866 -6.1466,-1.6 -8.9733,-4.2133 -7.4,-6.8667 -9.16,-14.32 -5.52,-23.4533 1.0533,-2.6667 1.3467,-5.84 1.6667,-9.2 0.36,-3.9067 0.7733,-8.3334 2.5066,-12.68 1.4267,-3.6267 1.9734,-7.6934 2.56,-12 0.5867,-4.36 1.2,-8.8534 2.76,-13.4134 1.24,-3.6266 2.5734,-6.32 4.32,-8.72 2.9067,-4.0133 6.9867,-6.08 11.48,-5.8133 0.6534,0.027 1.32,0.12 1.9734,0.2533 5.9466,1.24 10.0933,5.6934 10.8,11.64 0.28,2.36 0.24,4.6134 0.2,7 -0.013,1 -0.027,2.08 -0.027,3.2267 l 0.013,0.6 -0.1066,0.5733 c -0.28,1.6534 -0.5334,3.3467 -0.7867,5.08 -0.8533,5.84 -1.8133,12.4534 -4.2933,18.9067 -1.0267,2.6533 -1.6134,5.5867 -1.8267,8.9733 l -0.013,0.3334 c -0.1867,2.9466 -0.4,6.6 -2.5334,10.2 -1.2533,2.0933 -1.0133,2.5333 -0.6666,3.2 1.96,3.68 3.84,10.8266 -5.7067,17.2266 -2.48,1.6667 -5.1067,2.4267 -7.8267,2.28"
         style="fill:#fdf028;fill-opacity:1;fill-rule:nonzero;stroke:none;stroke-width:0.133333" />
      <path
         id="path206"
         d="m -2431.3814,5278.0642 c -7.9733,0.4534 -13.0667,-3.88 -15.1467,-12.8666 -1.8,-7.76 -2.8533,-15.1467 -3.3066,-23.2534 l -0.053,-0.9333 0.2134,-0.9067 c 0.84,-3.7466 -0.3734,-8.3333 -1.6534,-13.2 -0.52,-1.9733 -1.0666,-4.0133 -1.4933,-6.1066 -1.04,-5.0134 -0.92,-9.56 -0.8,-13.9734 0.04,-1.44 0.08,-2.8933 0.067,-4.3466 -0.04,-8.0667 4.64,-14.08 11.6666,-14.96 0.24,-0.027 0.4934,-0.053 0.7467,-0.067 3.68,-0.2133 7.9333,1.4533 11.1067,4.32 2.76,2.4933 4.36,5.64 4.5066,8.8667 0.08,1.68 0.5067,3.5733 0.96,5.5733 0.9467,4.12 2,8.7733 0.72,14.12 -0.1333,0.56 -0.093,1.2133 -0.013,1.4533 3.28,9.8534 4.0133,19.8 4.7067,29.4267 0.2533,3.3067 0.4933,6.7467 0.8533,10.04 0.44,4.12 1.6133,15.0667 -11.6267,16.68 -0.4933,0.067 -0.9866,0.1067 -1.4533,0.1333"
         style="fill:#e186ff;fill-opacity:1;fill-rule:nonzero;stroke:none;stroke-width:0.133333" />
      <path
         id="path207"
         d="m -2442.2881,5147.8109 c -6.16,-1.08 -10.6266,-5.8533 -11.6666,-12.4267 -1.6934,-10.7066 -2.48,-18.9333 -2.5734,-26.68 l -0.013,-2.6933 c -0.053,-6.52 -0.1067,-12.68 -1.1467,-18.6667 -0.9066,-5.2533 -0.6933,-10.52 0.68,-17.0933 1.6934,-8.1067 6.1467,-12.1067 13.24,-11.88 0.8667,0.027 1.7334,0.12 2.56,0.2667 6.5734,1.16 11.32,5.9066 12.3867,12.3866 0.52,3.0934 0.92,6.4134 0.4533,9.7734 -0.7066,5.0133 -0.2933,8.84 1.3467,12.3866 1.9467,4.2267 0.8533,8.24 0.12,10.8934 -0.12,0.44 -0.24,0.88 -0.3467,1.3333 l -0.08,0.32 c -0.6133,2.08 -0.5466,4.5733 0.2267,8.6133 0.9467,4.9334 1.24,9.8534 1.52,14.6134 l 0.16,2.5466 c 0.52,8.3467 -3.88,14.7067 -11.2267,16.2134 -1.8933,0.4 -3.8,0.4266 -5.64,0.093"
         style="fill:#ff77cb;fill-opacity:1;fill-rule:nonzero;stroke:none;stroke-width:0.133333" />
      <path
         id="path208"
         d="m -2370.1547,4796.5842 c -1.6534,-0.2933 -3.28,-0.92 -4.8134,-1.8266 -7.3733,-4.3734 -5.6533,-12.0267 -5,-14.92 0.093,-0.44 0.1734,-0.8934 0.2934,-1.5734 l 0.28,-1.5866 c 0.2933,-2.2134 1.2,-4.28 2.16,-6.4667 0.2933,-0.6667 0.6,-1.36 0.88,-2.0533 1.9866,-4.9334 4.1466,-9.8267 6.24,-14.5467 3.96,-8.9467 7.7066,-17.4 10.4533,-26.3333 1.1467,-3.72 3.48,-6.12 5.2,-7.8534 0.2933,-0.3066 0.5867,-0.6 0.8667,-0.9066 5.64,-6.0667 11.24,-6.1067 14.0666,-5.6 1.8667,0.3466 3.6534,1.1066 5.2934,2.2533 5.5066,3.84 7.4666,12.2667 4.4666,19.16 -0.7066,1.6133 -1.5333,3.0667 -2.2666,4.36 -0.6534,1.1467 -1.28,2.2267 -1.6934,3.2267 -5.3333,12.72 -10.84,25.8666 -16,38.9466 -1.2933,3.2667 -3.52,8.0667 -7.96,11.8667 -4.8933,4.1733 -9.48,4.4 -12.4666,3.8533"
         style="fill:#4fd6c3;fill-opacity:1;fill-rule:nonzero;stroke:none;stroke-width:0.133333" />
      <path
         id="path209"
         d="m -2338.4347,5500.3976 c -2.7734,1.84 -6.2667,2.4533 -10.3867,1.8266 -5.88,-0.88 -10.76,-4.4266 -13.1067,-9.5066 -0.3333,-0.6534 -0.6266,-1.2134 -0.8933,-1.72 -0.6,-1.1334 -1.1067,-2.0934 -1.5733,-3.1467 -1.9067,-4.2667 -3.7334,-8.6133 -5.4934,-12.8133 -3.2933,-7.84 -6.6933,-15.9467 -10.64,-23.5067 -3.0266,-5.7867 -3.8666,-11.1467 -2.5866,-16.3733 1.0133,-4.12 3.7333,-7.9734 7.3066,-10.32 2.56,-1.6934 5.36,-2.4667 8.0934,-2.2534 6.5733,0.52 11.48,5.24 12.8,12.3067 1.3733,7.4 4.7066,14.2133 8.24,21.4133 2.4933,5.08 5.0666,10.3334 7,15.9734 0.16,0.2533 1.08,1.0533 1.68,1.5733 l 0.2133,0.1867 c 8,6.96 5.1067,16.5866 4.16,19.7466 -0.84,2.8134 -2.5067,5.1067 -4.8133,6.6134"
         style="fill:#4fd6c3;fill-opacity:1;fill-rule:nonzero;stroke:none;stroke-width:0.133333" />
      <path
         id="path210"
         d="m -2390.1014,5391.6509 c -1.0933,0.64 -2.32,1.08 -3.6267,1.3333 -5.8666,1.12 -11.2133,-1.3733 -14.3066,-6.6933 -0.4934,-0.8267 -0.9734,-1.6667 -1.5467,-2.68 l -0.8133,-1.4133 c -2.3734,-3.44 -3.68,-7.2267 -4.96,-10.9067 -0.72,-2.0933 -1.4,-4.08 -2.2534,-5.9067 l -1.12,-2.3733 c -4.7333,-10.0667 -9.6266,-20.48 -12.6666,-31.7333 -0.1334,-0.2934 -0.2934,-0.6934 -0.4134,-1.1734 -2.4133,-8.8 -0.6666,-14.96 5.1867,-18.32 0.88,-0.5066 1.8533,-0.9333 2.9067,-1.2933 7.7066,-2.6 16.44,1.9467 20.32,10.5733 2.3733,5.24 3.88,10.6 5.3466,15.7734 0.92,3.2266 1.7734,6.28 2.8267,9.2666 0.8933,2.5467 2.2933,5.0667 3.7867,7.7334 2.4933,4.44 5.3066,9.48 6.16,15.6533 0.093,0.6933 0.2933,1.5333 0.52,2.4267 0.6,2.4133 1.3466,5.4 0.7733,8.8933 l -0.04,0.2133 c -0.48,2.9467 -1.2933,7.8934 -6.08,10.6267"
         style="fill:#71e2ff;fill-opacity:1;fill-rule:nonzero;stroke:none;stroke-width:0.133333" />
      <path
         id="path211"
         d="m -2196.8081,5682.9442 c -5.3866,3.8667 -12.2533,3.4 -17.4933,-1.1733 -1.4,-1.2134 -2.8,-2.4134 -4.2133,-3.6267 -8.2134,-7.04 -16.7067,-14.32 -22.8667,-24.32 -0.8667,-1.4133 -2.28,-2.8133 -3.7867,-4.2933 -2.4133,-2.36 -5.1466,-5.0534 -6.96,-8.92 -0.1333,-0.2667 -0.4,-0.6934 -0.6666,-1.12 -0.6667,-1.0534 -1.5734,-2.5067 -2.12,-4.3334 -1.6934,-5.6533 0.12,-11.2133 4.84,-14.8666 0.16,-0.12 0.32,-0.24 0.48,-0.36 4.72,-3.3734 10.28,-3.4534 15.2533,-0.2134 1.6133,1.04 2.9867,2.2534 4.0933,3.5734 4.8134,5.7866 10.1734,11 15.8534,16.5066 6.3733,6.1867 12.9466,12.5734 18.68,19.8667 0.24,0.3067 0.52,0.5733 0.7466,0.8133 0.1867,0.2 0.8134,0.8667 0.8134,0.8667 l 0.24,0.36 c 4.8,6.8933 4.36,14.4667 -1.1467,19.7867 -0.5467,0.5333 -1.1333,1.0266 -1.7467,1.4533"
         style="fill:#ffb200;fill-opacity:1;fill-rule:nonzero;stroke:none;stroke-width:0.133333" />
      <path
         id="path212"
         d="m -2114.6614,5757.3709 c -3.5467,3.2933 -8.48,4.1866 -13.56,2.4533 -0.3733,-0.12 -0.7467,-0.24 -1.1333,-0.3733 -2.96,-0.9334 -7,-2.2267 -9.7067,-6.04 -2.6133,-3.6534 -6.68,-6.1734 -11,-8.8267 -3.2267,-1.9867 -6.5733,-4.0533 -9.6933,-6.7733 -1.6934,-1.4934 -3.2667,-3.0534 -4.7734,-4.56 -3.5466,-3.5334 -6.6133,-6.5867 -10.6666,-8.1734 -3.36,-1.32 -5.68,-4.1733 -6.36,-7.8133 -0.8534,-4.4667 0.88,-9.48 4.4133,-12.76 0.9333,-0.8667 1.9733,-1.5867 3.08,-2.1467 5.8267,-2.9466 11.8667,-2.5466 17.9467,1.1867 3.8533,2.3867 7.32,5.1067 10.68,7.7333 2.3466,1.84 4.5733,3.5867 6.88,5.1867 l 2,1.3733 c 5.6933,3.8934 11.5733,7.9334 15.2533,13.16 0.9467,1.0134 1.8133,1.92 2.6,2.7467 1.8667,1.96 3.4667,3.64 4.9733,5.48 4.04,4.96 4.3734,11.12 0.8667,16.08 -0.5467,0.76 -1.1467,1.4533 -1.8,2.0667"
         style="fill:#ff77cb;fill-opacity:1;fill-rule:nonzero;stroke:none;stroke-width:0.133333" />
    </g>
  </g>
</svg>
