<?xml version="1.0" encoding="UTF-8" standalone="no"?>
<!-- Created with Inkscape (http://www.inkscape.org/) -->

<svg
   version="1.1"
   id="svg1"
   width="402.06689"
   height="402.06735"
   viewBox="0 0 402.06691 402.06735"
   xmlns="http://www.w3.org/2000/svg"
   xmlns:svg="http://www.w3.org/2000/svg">
  <defs
     id="defs1" />
  <g
     id="layer-MC0"
     transform="translate(-513.17267,-333.92111)">
    <g
       id="g1804"
       transform="translate(1017.4825,385.24189)">
      <path
         id="path298"
         d="m -118.57623,141.11029 c -0.828,1.396 -2.008,2.75733 -3.45467,4.05333 -1.576,1.408 -3.44667,2.736 -5.556,3.95867 -2.14,1.22533 -4.47867,2.34267 -6.904,3.33733 -9.692,3.996 -20.74133,5.92 -25.99067,5.92 h -0.0107 c -0.13067,0 -0.26267,-10e-4 -0.39334,-0.004 5.41067,0.75067 15.74267,3.85734 24.62134,8.744 4.62,2.52534 8.66666,5.49334 11.52,8.66267 1.408,1.57867 2.52933,3.208 3.16533,4.81333 0.54,1.42267 0.744,2.83334 0.53733,4.18534 3.772,-0.0813 7.47467,-1.496 10.55333,-4.09334 2.06534,-1.75333 3.88667,-4.024 5.32934,-6.68666 1.416,-2.66534 2.28266,-5.74534 2.71333,-9.032 0.10267,-0.824 0.172,-1.64134 0.20267,-2.448 0,-0.81067 -0.0333,-1.61067 -0.0987,-2.39867 -0.12933,-1.57733 -0.38667,-3.104 -0.76133,-4.55867 -0.37734,-1.45333 -0.85067,-2.83466 -1.46534,-4.12133 -0.64533,-1.288 -1.38933,-2.48267 -2.22133,-3.56533 -3.00933,-3.932 -7.14266,-6.35067 -11.78666,-6.76667 m -46.89334,16.69467 c -0.001,0.008 -0.003,0.0187 -0.004,0.0293 -0.0187,0.128 -0.028,0.25467 -0.032,0.38267 0.51334,-0.036 1.03334,-0.0547 1.55734,-0.0547 0.148,0 0.296,0.001 0.44533,0.005 -0.66667,-0.0933 -1.324,-0.21466 -1.96667,-0.36266"
         style="fill:#fce89b;fill-opacity:1;fill-rule:nonzero;stroke:none;stroke-width:1.33333" />
      <path
         id="path299"
         d="m -165.50596,158.21695 c -3.712,0.25867 -7.15067,1.428 -9.92134,3.13867 -1.868,1.16266 -3.608,2.556 -4.85066,4.18 -0.64,0.80933 -1.144,1.68 -1.59067,2.592 -0.476,0.904 -0.83733,1.86266 -1.07067,2.876 -0.23466,1.01333 -0.32933,2.032 -0.29866,3.05466 -0.004,1.01334 0.0747,2.01734 0.29333,3.02267 0.40267,2.00133 1.368,4.02133 2.52133,5.88 1.90934,3.00533 4.816,5.784 8.47067,7.67333 1.30267,-0.91333 3.128,-1.612 5.38933,-2.15333 3.89467,-0.916 8.74,-1.46933 13.92667,-1.76533 3.22,-0.184 6.548,-0.27067 9.75466,-0.27067 1.94667,0 3.848,0.032 5.65867,0.0947 4.78,0.16533 8.86,0.548 11.412,1.18933 0.97333,0.24133 1.912,0.57067 2.808,0.976 0.93067,-1.02267 1.57733,-2.16933 1.86533,-3.42267 0.0387,-0.16533 0.0707,-0.33333 0.0973,-0.50133 -0.116,0.003 -0.23067,0.004 -0.34534,0.004 -1.216,0 -2.436,-0.13867 -3.64533,-0.42133 -5.14,-1.18934 -15.31333,-6.064 -24.30267,-11.28534 -4.508,-2.62533 -8.668,-5.34 -11.60133,-7.90933 -2.79333,-2.43733 -4.64266,-4.76933 -4.57066,-6.952"
         style="fill:#3d7fc6;fill-opacity:1;fill-rule:nonzero;stroke:none;stroke-width:1.33333" />
      <path
         id="path300"
         d="m -163.94863,158.16229 c -0.524,0 -1.04267,0.0187 -1.55734,0.0547 -0.072,2.18266 1.77734,4.51466 4.57067,6.952 2.93333,2.56933 7.09333,5.284 11.60133,7.91066 8.98933,5.22 19.16267,10.09467 24.30267,11.284 1.20933,0.28267 2.42933,0.42134 3.64533,0.42134 0.11467,0 0.22933,-0.001 0.34533,-0.004 0.20534,-1.352 0.003,-2.76267 -0.53866,-4.18534 -0.63467,-1.60533 -1.75734,-3.23466 -3.16534,-4.81333 -2.852,-3.16933 -6.89866,-6.13733 -11.51866,-8.66267 -8.88,-4.88666 -19.212,-7.99333 -24.62267,-8.744 -0.88666,-0.0187 -1.76,-0.0893 -2.61733,-0.208 -0.148,-0.004 -0.29733,-0.005 -0.44533,-0.005"
         style="fill:#3c7478;fill-opacity:1;fill-rule:nonzero;stroke:none;stroke-width:1.33333" />
      <path
         id="path301"
         d="m -123.00329,188.70522 c -0.184,0.20267 -0.37867,0.40133 -0.584,0.59333 -1.28134,1.16134 -2.99867,2.13734 -4.95734,2.93734 -3.956,1.59866 -8.88133,2.49466 -14.15733,2.732 -1.19067,0.0587 -2.388,0.0867 -3.584,0.0867 -9.36133,0 -18.57333,-1.676 -22.95333,-3.23733 -0.944,-0.33867 -1.84934,-0.736 -2.71334,-1.18267 -0.93333,0.65467 -1.59733,1.42134 -1.96,2.316 -0.048,0.11734 -0.0893,0.23867 -0.124,0.36267 1.288,0.232 2.58267,0.58133 3.86267,1.05867 4.91067,1.844 14.604,7.54266 22.30133,14.724 3.87334,3.58666 7.06,7.45066 9.05067,11.224 0.97733,1.876 1.668,3.732 1.88667,5.44 0.17733,1.512 0.028,2.92933 -0.50134,4.19066 1.18667,0.27334 2.40134,0.408 3.624,0.408 2.56,0 5.15467,-0.59733 7.612,-1.79066 2.432,-1.19334 4.75467,-2.948 6.80534,-5.17734 2.012,-2.24533 3.62666,-5.01733 4.85066,-8.104 2.29467,-6.244 2.18267,-12.65466 -0.0347,-17.68266 -1.072,-2.512 -2.59199,-4.66934 -4.48133,-6.348 -1.172,-1.03734 -2.50133,-1.896 -3.94266,-2.55067"
         style="fill:#fecc22;fill-opacity:1;fill-rule:nonzero;stroke:none;stroke-width:1.33333" />
      <path
         id="path302"
         d="m -142.88223,186.44482 c -3.20667,0 -6.53334,0.0867 -9.75334,0.27067 -5.188,0.296 -10.03333,0.84933 -13.928,1.76533 -2.26133,0.54133 -4.08666,1.24 -5.38933,2.15467 0.864,0.44666 1.76933,0.84266 2.71333,1.18133 4.38134,1.56133 13.592,3.23733 22.95334,3.23733 1.196,0 2.39333,-0.0267 3.584,-0.0853 5.276,-0.23867 10.20133,-1.13467 14.15733,-2.732 1.96,-0.80133 3.676,-1.776 4.95733,-2.93733 0.20533,-0.19334 0.4,-0.39067 0.584,-0.59467 -0.896,-0.40533 -1.83467,-0.73333 -2.80667,-0.976 -2.552,-0.64133 -6.63333,-1.024 -11.41333,-1.18933 -1.80933,-0.0627 -3.712,-0.0947 -5.65866,-0.0947"
         style="fill:#3d661a;fill-opacity:1;fill-rule:nonzero;stroke:none;stroke-width:1.33333" />
      <path
         id="path303"
         d="m -178.02156,192.95789 c -2.264,0 -4.44134,0.34267 -6.412,0.95867 -2.08,0.67466 -4.12,1.59466 -5.72,2.864 -0.81867,0.628 -1.51734,1.348 -2.18,2.12 -0.68267,0.76266 -1.26667,1.60533 -1.74,2.53066 -0.47467,0.92667 -0.816,1.89334 -1.036,2.89334 -0.27334,0.972 -0.42534,1.97733 -0.46267,3.00533 -0.0947,2.04533 0.348,4.24267 0.996,6.32133 1.12133,3.38934 3.264,6.80134 6.34667,9.52667 0.20933,-0.0813 0.42666,-0.156 0.652,-0.22533 1.332,-0.39334 2.97733,-0.55867 4.86,-0.55867 0.076,0 0.15466,0.001 0.232,0.001 3.992,0.0547 8.86266,0.724 13.94399,1.69467 10.17867,1.97867 21.16934,5.08933 25.764,7.55067 0.89067,0.47466 1.72,1.02133 2.48534,1.632 1.15066,-0.764 2.05466,-1.716 2.64,-2.86 0.0787,-0.15067 0.15066,-0.30667 0.21466,-0.46267 -1.29333,-0.29733 -2.556,-0.75733 -3.764,-1.38133 -4.69066,-2.412 -13.368,-9.63334 -20.79866,-16.89334 -3.72534,-3.65066 -7.09467,-7.30133 -9.30934,-10.51066 -2.12533,-3.05334 -3.33199,-5.756 -2.72799,-7.85067 -1.34267,-0.24133 -2.67734,-0.356 -3.984,-0.356"
         style="fill:#72b0e1;fill-opacity:1;fill-rule:nonzero;stroke:none;stroke-width:1.33333" />
      <path
         id="path304"
         d="m -174.03716,193.31335 c -0.604,2.09467 0.60266,4.79867 2.728,7.852 2.21466,3.208 5.58266,6.85867 9.30799,10.50933 7.432,7.26134 16.108,14.48267 20.8,16.89334 1.20667,0.624 2.46934,1.08533 3.764,1.38266 0.53067,-1.26133 0.67867,-2.67866 0.50134,-4.19066 -0.21867,-1.708 -0.908,-3.564 -1.88667,-5.44 -1.99067,-3.77334 -5.17733,-7.63734 -9.05067,-11.224 -7.696,-7.18134 -17.39066,-12.88 -22.30133,-14.724 -1.28,-0.47734 -2.57333,-0.82667 -3.86266,-1.05867"
         style="fill:#728d1e;fill-opacity:1;fill-rule:nonzero;stroke:none;stroke-width:1.33333" />
      <path
         id="path305"
         d="m -188.22983,223.17789 c -1.06,0.412 -1.90667,0.98 -2.48,1.76133 -0.076,0.104 -0.14667,0.21067 -0.212,0.32134 1.19466,0.54 2.36533,1.19333 3.49066,1.96933 4.31067,2.98667 12.32667,10.88533 18.052,19.732 2.83467,4.38533 5.032,8.94533 6.04267,13.08267 0.992,3.93333 0.732,7.336 -0.99734,9.66933 2.308,1.17733 4.87734,1.77467 7.55467,1.77467 1.21067,0 2.444,-0.12134 3.68533,-0.36934 2.64,-0.568 5.31067,-1.708 7.83334,-3.37333 2.54133,-1.648 4.732,-3.972 6.672,-6.65867 0.972,-1.344 1.776,-2.75466 2.392,-4.21733 0.63466,-1.452 1.13333,-2.92 1.49466,-4.37867 0.75867,-2.896 0.83467,-5.83066 0.39734,-8.532 -0.68267,-4.36666 -2.756,-8.10133 -5.988,-10.68666 -0.22934,0.15333 -0.46667,0.29733 -0.71467,0.43466 -1.54667,0.8 -3.43067,1.33467 -5.528,1.63067 -1.384,0.192 -2.85067,0.28267 -4.38133,0.28267 -3.13467,0 -6.53334,-0.38667 -10.01867,-1.104 -10.31333,-2.06667 -20.58933,-6.61467 -24.95066,-9.52934 -0.83334,-0.55866 -1.61467,-1.16533 -2.344,-1.80933"
         style="fill:#f78baa;fill-opacity:1;fill-rule:nonzero;stroke:none;stroke-width:1.33333" />
      <path
         id="path306"
         d="m -182.71823,222.39402 c -1.88134,0 -3.528,0.16533 -4.86,0.55867 -0.224,0.0693 -0.44267,0.144 -0.652,0.22533 0.72933,0.644 1.51066,1.25067 2.344,1.80933 4.36266,2.91467 14.63866,7.46267 24.95066,9.52934 3.48533,0.71733 6.884,1.104 10.02,1.104 1.52933,0 2.99733,-0.0907 4.38,-0.28267 2.09733,-0.296 3.98133,-0.83067 5.528,-1.63067 0.248,-0.13733 0.48533,-0.28266 0.71467,-0.43466 -0.76534,-0.61067 -1.59467,-1.15734 -2.48534,-1.632 -4.59333,-2.46134 -15.584,-5.572 -25.76266,-7.552 -5.08267,-0.96934 -9.95333,-1.63867 -13.944,-1.69334 -0.0787,0 -0.156,-0.001 -0.23333,-0.001"
         style="fill:#6e6096;fill-opacity:1;fill-rule:nonzero;stroke:none;stroke-width:1.33333" />
      <path
         id="path307"
         d="m -199.93036,223.29509 c -0.40667,0 -0.80934,0.0133 -1.20667,0.036 -4.53467,0.18933 -8.41467,1.872 -11.208,4.96 -1.32533,1.61333 -2.328,3.37867 -2.896,5.36667 -0.284,0.996 -0.46267,2.04 -0.54533,3.12133 -0.0893,1.072 -0.12267,2.13733 -0.036,3.25067 0.27466,3.56933 1.53066,7.4 3.85866,10.79066 0.348,-0.0413 0.71334,-0.06 1.096,-0.06 1.35867,0 2.92267,0.24667 4.66134,0.688 1.91333,0.488 4.02533,1.21067 6.256,2.088 2.22133,0.868 4.51866,1.848 6.87199,2.94267 9.372,4.36533 19.28534,10.06 23.16934,13.58533 0.74133,0.672 1.408,1.39734 1.99733,2.17067 1.32133,-0.44267 2.43333,-1.13733 3.26,-2.124 0.11067,-0.128 0.216,-0.26 0.31733,-0.39733 -1.18,-0.60134 -2.29066,-1.352 -3.31333,-2.25334 -3.95067,-3.468 -10.668,-12.62266 -16.06267,-21.43466 -2.73066,-4.452 -5.11466,-8.82 -6.488,-12.48134 -1.272,-3.448 -1.82,-6.39466 -0.72266,-8.28266 -2.976,-1.34267 -6.09467,-1.96667 -9.00933,-1.96667"
         style="fill:#2ab58c;fill-opacity:1;fill-rule:nonzero;stroke:none;stroke-width:1.33333" />
      <path
         id="path308"
         d="m -190.92129,225.26122 c -1.09734,1.888 -0.54934,4.83467 0.72266,8.284 1.37334,3.66 3.75734,8.028 6.488,12.48 5.39467,8.81333 12.112,17.968 16.06267,21.43467 1.02266,0.90133 2.13466,1.65333 3.31333,2.25466 1.72933,-2.33333 1.99067,-5.73733 0.99733,-9.66933 -1.00933,-4.13867 -3.208,-8.69867 -6.04266,-13.084 -5.72534,-8.84533 -13.74,-16.744 -18.052,-19.73067 -1.12533,-0.776 -2.29467,-1.43066 -3.48933,-1.96933"
         style="fill:#29635d;fill-opacity:1;fill-rule:nonzero;stroke:none;stroke-width:1.33333" />
      <path
         id="path309"
         d="m -211.96423,250.81989 c -1.14,0.13333 -2.09867,0.48667 -2.84534,1.104 -0.0973,0.084 -0.18933,0.172 -0.27866,0.264 1.02666,0.80933 2.00133,1.72533 2.90666,2.75333 3.452,3.932 9.34933,13.576 12.74267,23.51867 1.66933,4.91733 2.724,9.90533 2.704,14.16933 0.005,4.04667 -1.088,7.26667 -3.31467,9.13467 2.836,2.46533 6.496,3.868 10.568,4.08267 0.21867,0.005 0.43867,0.009 0.66,0.009 5.22133,0 11.084,-1.992 15.832,-6.23867 2.53733,-2.136 4.45467,-4.72666 5.84933,-7.39066 0.7,-1.33067 1.26267,-2.68534 1.688,-4.04134 0.41467,-1.36266 0.64934,-2.76933 0.768,-4.12533 0.376,-4.42 -0.73066,-8.54667 -3.228,-11.824 -1.25333,0.42 -2.69466,0.61333 -4.26,0.61333 -0.73866,0 -1.50533,-0.0427 -2.292,-0.12533 -2.10266,-0.21867 -4.36,-0.72133 -6.672,-1.44667 -2.32133,-0.73466 -4.74266,-1.732 -7.10533,-2.852 -9.48933,-4.48933 -18.352,-11.38133 -21.876,-15.26533 -0.67733,-0.74933 -1.292,-1.532 -1.84666,-2.34"
         style="fill:#f152a1;fill-opacity:1;fill-rule:nonzero;stroke:none;stroke-width:1.33333" />
      <path
         id="path310"
         d="m -210.86796,250.76002 c -0.38267,0 -0.748,0.02 -1.096,0.06 0.55466,0.808 1.16933,1.59067 1.84533,2.34 3.52533,3.884 12.388,10.776 21.87733,15.26533 2.36267,1.12 4.784,2.11734 7.10533,2.852 2.312,0.72534 4.56934,1.228 6.672,1.44667 0.78667,0.0827 1.55334,0.12533 2.29067,0.12533 1.56533,0 3.00667,-0.19333 4.26133,-0.61466 -0.58933,-0.77334 -1.256,-1.49867 -1.99733,-2.16934 -3.884,-3.52666 -13.79733,-9.22133 -23.16933,-13.58666 -2.35334,-1.09334 -4.65067,-2.07467 -6.872,-2.94267 -2.23067,-0.876 -4.34267,-1.59867 -6.256,-2.08667 -1.73867,-0.44133 -3.30133,-0.68933 -4.66133,-0.68933"
         style="fill:#283a58;fill-opacity:1;fill-rule:nonzero;stroke:none;stroke-width:1.33333" />
      <path
         id="path311"
         d="m -228.23249,247.45402 c -0.924,0 -1.828,0.0787 -2.70267,0.24 -1.99867,0.392 -3.988,1.02 -5.66267,2.25867 -0.83866,0.62133 -1.60133,1.308 -2.30533,2.02933 -0.692,0.74 -1.292,1.56667 -1.80267,2.468 -1,1.83733 -1.73066,3.84 -2.10666,6.028 -0.58267,3.55067 -0.292,7.57067 1.13466,11.41067 0.22667,0.0347 0.45734,0.0787 0.69334,0.13333 1.408,0.28133 3.00266,0.93733 4.73466,1.87067 3.45067,1.84933 7.52134,4.876 11.52,8.07466 8.024,6.49067 16.25733,14.404 19.172,18.76667 0.56133,0.836 1.03333,1.708 1.42,2.608 1.4,-0.0973 2.64533,-0.51067 3.68667,-1.26533 0.13733,-0.1 0.27066,-0.20534 0.40133,-0.31334 -0.996,-0.86533 -1.89067,-1.86266 -2.66533,-2.98533 -2.988,-4.31067 -7.32,-14.86267 -10.39734,-24.68933 -1.556,-4.95734 -2.836,-9.80534 -3.28533,-13.692 -0.392,-3.64534 -0.196,-6.62 1.30933,-8.208 -2.91333,-2.3 -6.22933,-3.728 -9.44533,-4.344 -1.25333,-0.256 -2.49333,-0.39067 -3.69866,-0.39067"
         style="fill:#87cda5;fill-opacity:1;fill-rule:nonzero;stroke:none;stroke-width:1.33333" />
      <path
         id="path312"
         d="m -215.08796,252.18829 c -1.50534,1.588 -1.70134,4.56267 -1.30934,8.208 0.448,3.88667 1.728,8.73467 3.284,13.692 3.07867,9.82667 7.41067,20.37867 10.39733,24.68933 0.77467,1.12267 1.66934,2.12 2.66534,2.98667 2.228,-1.86933 3.32133,-5.08933 3.316,-9.13467 0.0187,-4.264 -1.036,-9.252 -2.70534,-14.16933 -3.39333,-9.94267 -9.28933,-19.58667 -12.74133,-23.52 -0.90533,-1.02667 -1.88,-1.944 -2.90666,-2.752"
         style="fill:#804268;fill-opacity:1;fill-rule:nonzero;stroke:none;stroke-width:1.33333" />
      <path
         id="path313"
         d="m -242.68823,271.80815 c -0.74267,0 -1.416,0.14267 -2.01734,0.45067 -0.11333,0.0587 -0.224,0.12266 -0.33066,0.19066 0.79466,1.03067 1.51733,2.15467 2.14666,3.37334 2.38667,4.63733 5.79467,15.48666 6.64,25.90133 0.42533,5.18133 0.23733,10.28533 -0.81733,14.428 -1.00533,3.87467 -2.83467,6.77867 -5.45333,8.04933 2.148,3.07867 5.356,5.324 9.25333,6.512 1.85066,0.58 3.808,0.83067 5.852,0.83067 0.86933,0 1.75466,-0.0453 2.65466,-0.13067 1.496,-0.16 3.04,-0.42 4.552,-0.87866 1.50267,-0.47867 3.00667,-1.096 4.48534,-1.85334 1.476,-0.756 2.85466,-1.61733 4.12,-2.55733 1.23733,-0.99333 2.36133,-2.06667 3.36,-3.19467 1.988,-2.27466 3.52533,-4.68533 4.37733,-7.32266 1.42667,-4.20667 1.35067,-8.48134 -0.272,-12.26534 -0.21867,0.0147 -0.44133,0.0227 -0.66667,0.0227 -0.06,0 -0.12133,0 -0.18266,-10e-4 -1.73334,-0.012 -3.63867,-0.41334 -5.62267,-1.13067 -3.95067,-1.39467 -8.28533,-4.184 -12.332,-7.51733 -8.104,-6.62934 -15.03066,-15.47734 -17.52266,-20.12934 -0.472,-0.88266 -0.87334,-1.78533 -1.21334,-2.696 -0.34933,-0.0533 -0.68666,-0.0813 -1.01066,-0.0813"
         style="fill:#994198;fill-opacity:1;fill-rule:nonzero;stroke:none;stroke-width:1.33333" />
      <path
         id="path314"
         d="m -241.67783,271.88882 c 0.34,0.912 0.74266,1.81333 1.21333,2.696 2.492,4.65333 9.42,13.5 17.52266,20.12933 4.04667,3.33334 8.38134,6.124 12.332,7.51867 1.984,0.71733 3.88934,1.11867 5.624,1.12933 0.06,0.001 0.12134,0.001 0.18134,0.001 0.22533,0 0.448,-0.007 0.66666,-0.0213 -0.38666,-0.9 -0.85866,-1.772 -1.42,-2.608 -2.91466,-4.36266 -11.148,-12.276 -19.172,-18.76666 -3.99866,-3.19867 -8.06933,-6.22534 -11.51999,-8.07467 -1.73334,-0.93333 -3.32667,-1.58933 -4.73467,-1.87067 -0.236,-0.0547 -0.46667,-0.1 -0.69333,-0.13333"
         style="fill:#513462;fill-opacity:1;fill-rule:nonzero;stroke:none;stroke-width:1.33333" />
      <path
         id="path315"
         d="m -260.64263,264.18309 c -1.59734,0 -3.17867,0.24267 -4.68,0.856 -3.89467,1.408 -6.75867,4.648 -8.576,8.668 -0.892,2.04 -1.48934,4.34133 -1.716,6.77333 -0.13867,1.49067 -0.14267,3.01334 0.0253,4.56267 0.21067,0.088 0.42533,0.188 0.64133,0.3 1.30134,0.64133 2.68,1.64667 4.132,2.97867 2.888,2.63066 6.09334,6.56 9.19467,10.656 6.18667,8.24533 12.23866,17.924 14.00133,22.864 0.33867,0.948 0.58533,1.91066 0.74,2.87733 0.49867,0.088 0.98933,0.132 1.47067,0.132 0.84666,0 1.66,-0.14 2.424,-0.44533 0.15733,-0.0627 0.31333,-0.132 0.46533,-0.204 -0.756,-1.08267 -1.38,-2.268 -1.85733,-3.54667 -1.84534,-4.90933 -3.47067,-16.208 -4.06934,-26.5 -0.276,-5.12933 -0.36266,-10.19867 0.148,-14.072 0.24667,-1.95733 0.65467,-3.60533 1.23067,-4.94667 0.50533,-1.20933 1.16533,-2.128 2.032,-2.68666 -2.264,-2.932 -5.12133,-5.104 -8.10667,-6.52534 -2.03066,-0.976 -4.11466,-1.56266 -6.14799,-1.68666 -0.45067,-0.0347 -0.90267,-0.0547 -1.352,-0.0547"
         style="fill:#b6dc34;fill-opacity:1;fill-rule:nonzero;stroke:none;stroke-width:1.33333" />
      <path
         id="path316"
         d="m -245.03583,272.45002 c -0.86667,0.55867 -1.528,1.476 -2.032,2.68667 -0.576,1.34133 -0.984,2.98933 -1.23067,4.94666 -0.51067,3.87334 -0.424,8.94267 -0.148,14.07067 0.59867,10.29333 2.224,21.592 4.06933,26.50133 0.47734,1.27867 1.10134,2.464 1.85734,3.54534 2.61866,-1.27067 4.44799,-4.17334 5.45333,-8.04934 1.05466,-4.14133 1.24266,-9.24533 0.81733,-14.428 -0.84533,-10.41333 -4.25466,-21.26266 -6.64133,-25.90133 -0.628,-1.21867 -1.35067,-2.34267 -2.14533,-3.372"
         style="fill:#6d381f;fill-opacity:1;fill-rule:nonzero;stroke:none;stroke-width:1.33333" />
      <path
         id="path317"
         d="m -277.72729,284.56589 c -0.30134,0 -0.59467,0.032 -0.88267,0.0987 -0.12533,0.0293 -0.248,0.064 -0.368,0.10533 0.51733,1.19333 0.944,2.46 1.25467,3.796 1.17733,5.07867 1.828,16.44 0.0947,26.73867 -0.85733,5.128 -2.29066,10.02933 -4.328,13.78666 -1.92,3.524 -4.40266,5.87467 -7.25066,6.464 1.32933,3.512 3.888,6.47867 7.37333,8.59067 2.348,1.43333 5.08,2.296 8.07067,2.75867 1.20666,0.172 2.45733,0.28533 3.73066,0.28533 0.29733,0 0.59733,-0.007 0.89733,-0.02 1.576,-0.0973 3.18534,-0.32933 4.804,-0.70133 1.61734,-0.37467 3.16667,-0.87334 4.62534,-1.476 1.44933,-0.636 2.79733,-1.424 4.04533,-2.27067 2.48533,-1.728 4.568,-3.68933 6.04667,-6.024 2.41333,-3.74 3.384,-7.91067 2.73466,-11.97867 -1.92666,-0.336 -3.97733,-1.29066 -6.00533,-2.64266 -3.488,-2.30534 -7.02267,-6.112 -10.12533,-10.312 -3.11067,-4.208 -5.816,-8.872 -7.88667,-13.12267 -2.076,-4.26133 -3.53866,-8.14933 -4.17466,-10.68533 -0.244,-0.97867 -0.41334,-1.95067 -0.51734,-2.91467 -0.744,-0.30933 -1.456,-0.476 -2.13866,-0.476"
         style="fill:#a96bb4;fill-opacity:1;fill-rule:nonzero;stroke:none;stroke-width:1.33333" />
      <path
         id="path318"
         d="m -275.58929,285.04255 c 0.104,0.964 0.27333,1.93467 0.51866,2.91467 0.63467,2.536 2.09867,6.424 4.17467,10.684 2.06933,4.252 4.776,8.916 7.88666,13.124 3.10267,4.19866 6.636,8.00666 10.124,10.31066 2.02934,1.35334 4.08,2.308 6.00534,2.644 -0.15467,-0.968 -0.40134,-1.92933 -0.74,-2.87733 -1.76267,-4.94 -7.81467,-14.61867 -14.00134,-22.86533 -3.10133,-4.09467 -6.30666,-8.024 -9.19466,-10.65467 -1.452,-1.332 -2.83067,-2.33867 -4.132,-2.97867 -0.216,-0.112 -0.43067,-0.21333 -0.64133,-0.30133"
         style="fill:#795c25;fill-opacity:1;fill-rule:nonzero;stroke:none;stroke-width:1.33333" />
      <path
         id="path319"
         d="m -295.34583,272.50735 c -0.49734,0 -0.996,0.0333 -1.49734,0.104 -0.51733,0.0667 -1.02266,0.16933 -1.52,0.3 -0.50133,0.0987 -0.992,0.23067 -1.472,0.392 -0.96266,0.32267 -1.884,0.76667 -2.76266,1.31733 -0.88,0.54534 -1.71467,1.22 -2.50267,1.948 -0.79333,0.69734 -1.536,1.49067 -2.22133,2.36667 -1.83734,2.35867 -3.288,5.30933 -4.04667,8.58533 0.56533,0.076 1.108,0.28267 1.63467,0.59734 0.54133,0.292 1.064,0.69866 1.572,1.21333 1.01733,1.02667 1.98,2.46933 2.90533,4.21733 0.92533,1.74534 1.812,3.81467 2.66533,6.03867 0.856,2.192 1.676,4.58 2.45067,7.04933 3.076,9.87867 5.528,21.04667 5.53067,26.29067 10e-4,0.5 -0.0213,0.99733 -0.064,1.48667 0.12,0.0707 0.24133,0.14 0.36133,0.20666 0.76133,0.416 1.53067,0.72667 2.30133,0.91734 0.488,0.10266 0.97467,0.15466 1.46267,0.15466 0.28133,0 0.56133,-0.0173 0.84,-0.052 0.168,-0.0227 0.33467,-0.0507 0.50133,-0.0853 -0.468,-1.23467 -0.78266,-2.536 -0.93466,-3.89333 -0.58667,-5.212 0.6,-16.56 2.54266,-26.68 0.98667,-5.056 2.14533,-9.97867 3.588,-13.612 0.72133,-1.83467 1.52,-3.336 2.408,-4.49067 0.78533,-1.05067 1.64933,-1.77867 2.624,-2.10933 -1.476,-3.39734 -3.71067,-6.19867 -6.25733,-8.31334 -1.732,-1.44266 -3.608,-2.524 -5.552,-3.14266 -1.47467,-0.48667 -3.00533,-0.80667 -4.55733,-0.80667"
         style="fill:#b9d873;fill-opacity:1;fill-rule:nonzero;stroke:none;stroke-width:1.33333" />
      <path
         id="path320"
         d="m -278.97863,284.77042 c -0.97467,0.33067 -1.84,1.05867 -2.62534,2.10933 -0.888,1.15334 -1.68533,2.65467 -2.40666,4.49067 -1.44267,3.63333 -2.60267,8.556 -3.58934,13.612 -1.94266,10.12 -3.12933,21.468 -2.54133,26.68 0.15067,1.35733 0.46667,2.65867 0.93333,3.89333 2.84934,-0.59066 5.33067,-2.94 7.252,-6.46533 2.03734,-3.756 3.46934,-8.65733 4.328,-13.78667 1.73334,-10.29733 1.08134,-21.66 -0.096,-26.73733 -0.31066,-1.336 -0.736,-2.60267 -1.25466,-3.796"
         style="fill:#7b5b51;fill-opacity:1;fill-rule:nonzero;stroke:none;stroke-width:1.33333" />
      <path
         id="path321"
         d="m -311.78063,287.48389 c 0.0453,0.66 0.0627,1.328 0.0493,2.00267 0.0933,-0.66667 0.21467,-1.32267 0.364,-1.96667 -0.0107,-10e-4 -0.0213,-0.003 -0.0307,-0.004 -0.128,-0.016 -0.25466,-0.028 -0.38266,-0.032 m -0.15867,4.62 c -0.75067,5.41067 -3.85733,15.74267 -8.74267,24.62267 -2.52666,4.61866 -5.49466,8.66666 -8.664,11.51866 -1.58,1.408 -3.20933,2.53067 -4.81333,3.16534 -1.05467,0.40133 -2.104,0.61733 -3.128,0.61733 -0.356,0 -0.70933,-0.0253 -1.05733,-0.08 0.0813,3.77333 1.496,7.47333 4.09333,10.55467 1.752,2.06533 4.024,3.88666 6.68667,5.328 2.66533,1.416 5.744,2.284 9.03333,2.71333 0.82267,0.10267 1.64,0.172 2.44667,0.20267 0.81066,0 1.61066,-0.0333 2.39866,-0.0987 1.57734,-0.12933 3.104,-0.38667 4.55867,-0.76 1.45333,-0.37733 2.83467,-0.852 4.12133,-1.46667 1.288,-0.644 2.48267,-1.38933 3.56533,-2.22133 3.932,-3.008 6.35067,-7.14133 6.76667,-11.78667 -1.396,-0.828 -2.75733,-2.008 -4.05333,-3.45466 -1.408,-1.576 -2.736,-3.44667 -3.95867,-5.556 -1.22533,-2.14 -2.34267,-4.47867 -3.33733,-6.90267 -3.99867,-9.7 -5.924,-20.75733 -5.92,-26.00133 0,-0.132 10e-4,-0.264 0.004,-0.39467"
         style="fill:#fce89b;fill-opacity:1;fill-rule:nonzero;stroke:none;stroke-width:1.33333" />
      <path
         id="path322"
         d="m -311.36796,287.52042 c -0.148,0.64267 -0.27067,1.3 -0.36267,1.96667 -0.0133,0.66266 -0.056,1.33066 -0.13067,2.00266 -0.0227,0.196 -0.048,0.40134 -0.0773,0.61467 -0.003,0.13067 -0.005,0.26267 -0.005,0.39333 -0.003,5.24534 1.92266,16.30267 5.92133,26.00134 0.99466,2.42533 2.112,4.764 3.33733,6.904 1.22267,2.10933 2.55067,3.97866 3.95733,5.556 1.296,1.44666 2.65867,2.62666 4.05467,3.45466 0.0427,-0.48933 0.064,-0.98533 0.0627,-1.48533 -0.003,-5.24533 -2.45334,-16.41333 -5.53067,-26.292 -0.77333,-2.46933 -1.59333,-4.85733 -2.44933,-7.04933 -0.85467,-2.224 -1.74,-4.29334 -2.66533,-6.03867 -0.92534,-1.748 -1.88934,-3.19067 -2.90534,-4.21733 -0.50933,-0.51334 -1.032,-0.92134 -1.572,-1.21334 -0.52666,-0.31466 -1.06933,-0.52 -1.63466,-0.59733"
         style="fill:#b7c546;fill-opacity:1;fill-rule:nonzero;stroke:none;stroke-width:1.33333" />
      <path
         id="path323"
         d="m -327.24623,269.74695 c -0.12534,0 -0.25067,10e-4 -0.376,0.005 h -0.072 c -0.98934,0 -1.968,0.0787 -2.95067,0.29334 -2.00133,0.40133 -4.02133,1.368 -5.87867,2.52133 -3.00533,1.90933 -5.78533,4.816 -7.67466,8.47067 0.91333,1.30133 1.61333,3.12666 2.15333,5.38933 0.916,3.89467 1.47067,8.73867 1.76667,13.92667 0.292,5.17466 0.34133,10.62133 0.17466,15.41333 -0.16533,4.78 -0.54933,8.86 -1.188,11.412 -0.24266,0.97333 -0.57066,1.912 -0.97733,2.808 1.024,0.93067 2.16933,1.576 3.424,1.86533 0.16533,0.0373 0.332,0.0707 0.5,0.0947 -0.0293,-1.328 0.108,-2.66533 0.41733,-3.988 1.18934,-5.14 6.064,-15.31333 11.28534,-24.30267 2.62533,-4.508 5.34,-8.668 7.90933,-11.60266 2.39333,-2.74 4.68266,-4.57067 6.82933,-4.57067 0.0413,-10e-4 0.0813,0 0.12267,0.001 -0.25867,-3.712 -1.428,-7.152 -3.13734,-9.92266 -1.164,-1.86667 -2.55733,-3.608 -4.18133,-4.84934 -0.80933,-0.64 -1.68,-1.144 -2.59066,-1.592 -0.90534,-0.47466 -1.864,-0.83733 -2.87734,-1.06933 -0.88933,-0.20667 -1.78266,-0.304 -2.67866,-0.304"
         style="fill:#3d7fc6;fill-opacity:1;fill-rule:nonzero;stroke:none;stroke-width:1.33333" />
      <path
         id="path324"
         d="m -311.90303,287.48255 c -2.14667,0 -4.43734,1.83067 -6.82934,4.572 -2.56933,2.93333 -5.284,7.09333 -7.91066,11.60133 -5.22,8.98934 -10.09467,19.16267 -11.28534,24.30267 -0.308,1.324 -0.44533,2.66133 -0.41733,3.98933 0.34933,0.0547 0.70267,0.08 1.05867,0.08 1.02266,0 2.07333,-0.216 3.128,-0.61733 1.604,-0.63467 3.23333,-1.75733 4.812,-3.16533 3.16933,-2.852 6.13866,-6.9 8.66533,-11.51867 4.88533,-8.88 7.992,-19.212 8.74267,-24.62267 0.0173,-0.88666 0.0893,-1.76 0.208,-2.61733 0.0133,-0.67467 -0.004,-1.34267 -0.0493,-2.00267 -0.0413,-10e-4 -0.0827,-0.003 -0.12266,-10e-4"
         style="fill:#3c7478;fill-opacity:1;fill-rule:nonzero;stroke:none;stroke-width:1.33333" />
      <path
         id="path325"
         d="m -311.73116,289.48655 c -0.11867,0.85733 -0.19067,1.73067 -0.208,2.61733 0.0293,-0.212 0.056,-0.41866 0.0773,-0.61466 0.0747,-0.672 0.11733,-1.34 0.13067,-2.00267"
         style="fill:#2c6236;fill-opacity:1;fill-rule:nonzero;stroke:none;stroke-width:1.33333" />
      <path
         id="path326"
         d="m -346.87703,278.95269 c -0.232,1.28933 -0.58134,2.584 -1.05867,3.86267 -1.844,4.91066 -7.54267,14.60533 -14.724,22.30133 -3.58667,3.87333 -7.45067,7.06 -11.224,9.05067 -1.876,0.97866 -3.732,1.668 -5.44,1.88666 -0.40267,0.0467 -0.79867,0.072 -1.18533,0.072 -1.06934,0 -2.08,-0.184 -3.00534,-0.57333 -0.84533,3.676 -0.38,7.60667 1.38267,11.236 1.19333,2.432 2.94933,4.75467 5.17867,6.80533 2.244,2.012 5.016,3.62667 8.104,4.85067 3.07066,1.12933 6.18266,1.676 9.15066,1.676 3.064,0 5.976,-0.584 8.53067,-1.70933 2.512,-1.07334 4.67067,-2.59334 6.348,-4.48267 1.03733,-1.17067 1.896,-2.50133 2.55067,-3.94267 -0.20267,-0.18266 -0.40134,-0.37866 -0.59334,-0.584 -1.16266,-1.28133 -2.136,-2.99733 -2.93866,-4.95733 -1.59734,-3.956 -2.492,-8.88133 -2.73067,-14.15733 -0.516,-10.51467 1.38933,-21.596 3.152,-26.536 0.33733,-0.944 0.73467,-1.84934 1.18133,-2.71467 -0.65466,-0.93333 -1.42,-1.59733 -2.316,-1.95867 -0.11866,-0.048 -0.23866,-0.0907 -0.36266,-0.12533"
         style="fill:#fecc22;fill-opacity:1;fill-rule:nonzero;stroke:none;stroke-width:1.33333" />
      <path
         id="path327"
         d="m -344.19796,281.03735 c -0.44667,0.864 -0.844,1.76933 -1.18267,2.71333 -1.76133,4.94 -3.66667,16.02267 -3.15067,26.536 0.23734,5.27734 1.13334,10.20267 2.73067,14.15867 0.80133,1.95867 1.776,3.676 2.93733,4.956 0.19334,0.20667 0.39067,0.40133 0.59467,0.58533 0.40533,-0.896 0.73467,-1.83466 0.97733,-2.808 0.63867,-2.552 1.02267,-6.632 1.188,-11.412 0.16667,-4.792 0.11734,-10.23866 -0.176,-15.41333 -0.29466,-5.18667 -0.84933,-10.032 -1.76533,-13.92667 -0.54,-2.26266 -1.24,-4.08666 -2.15333,-5.38933"
         style="fill:#3d661a;fill-opacity:1;fill-rule:nonzero;stroke:none;stroke-width:1.33333" />
      <path
         id="path328"
         d="m -361.45583,257.40455 c -1.88267,0 -3.86934,0.41867 -5.75867,1.00933 -3.39067,1.12134 -6.8,3.264 -9.52667,6.34667 0.0813,0.20933 0.156,0.42667 0.22534,0.652 0.408,1.38667 0.57066,3.11333 0.55733,5.092 -0.0547,3.99067 -0.724,8.86267 -1.69467,13.944 -1.98,10.17867 -5.08933,21.16933 -7.55066,25.76267 -0.47467,0.892 -1.02267,1.72133 -1.63334,2.48666 0.76534,1.15067 1.716,2.05467 2.86134,2.64 0.15066,0.0787 0.30533,0.14934 0.46133,0.21467 0.29867,-1.29333 0.75867,-2.55733 1.38133,-3.764 2.412,-4.69067 9.63334,-13.368 16.89467,-20.8 3.65067,-3.724 7.30133,-7.09333 10.50933,-9.308 2.52133,-1.75467 4.804,-2.884 6.70267,-2.884 0.40133,0 0.78533,0.0507 1.14933,0.156 0.65867,-3.664 0.36933,-7.28667 -0.60267,-10.396 -0.67333,-2.08 -1.59466,-4.12133 -2.86533,-5.72 -0.62667,-0.81867 -1.348,-1.51733 -2.11867,-2.18133 -0.764,-0.68134 -1.60533,-1.26534 -2.532,-1.73867 -0.92666,-0.47467 -1.89333,-0.81733 -2.89333,-1.03733 -0.972,-0.272 -1.976,-0.424 -3.00533,-0.46134 -0.18533,-0.009 -0.37333,-0.0133 -0.56133,-0.0133"
         style="fill:#72b0e1;fill-opacity:1;fill-rule:nonzero;stroke:none;stroke-width:1.33333" />
      <path
         id="path329"
         d="m -348.02609,278.79642 c -1.89867,0 -4.18134,1.12933 -6.70267,2.884 -3.20933,2.21467 -6.85867,5.584 -10.50933,9.30933 -7.26134,7.43067 -14.48267,16.108 -16.89467,20.79867 -0.62267,1.20667 -1.084,2.47067 -1.38133,3.764 0.92533,0.38933 1.93466,0.57333 3.00533,0.57333 0.38667,0 0.78267,-0.024 1.184,-0.072 1.70933,-0.21866 3.56533,-0.908 5.44,-1.88666 3.77467,-1.99067 7.63867,-5.176 11.22533,-9.05067 7.18134,-7.696 12.88,-17.39067 14.724,-22.3 0.47734,-1.27867 0.82667,-2.57467 1.05867,-3.864 -0.36533,-0.10533 -0.74933,-0.156 -1.14933,-0.156"
         style="fill:#728d1e;fill-opacity:1;fill-rule:nonzero;stroke:none;stroke-width:1.33333" />
      <path
         id="path330"
         d="m -378.82489,262.06855 c -0.53867,1.19467 -1.19334,2.364 -1.96934,3.48933 -2.98666,4.312 -10.88533,12.32667 -19.732,18.052 -4.384,2.83467 -8.944,5.03334 -13.08266,6.04267 -1.508,0.38133 -2.93867,0.57733 -4.26,0.57733 -2.12534,0 -3.97067,-0.508 -5.40934,-1.57466 -1.70933,3.35333 -2.19866,7.26133 -1.404,11.24 0.56667,2.64133 1.708,5.312 3.37334,7.83333 1.64666,2.54133 3.97066,4.73333 6.65866,6.67333 1.34267,0.972 2.75334,1.776 4.21734,2.392 1.452,0.63467 2.91866,1.13334 4.37733,1.49334 1.74,0.456 3.49333,0.66533 5.20133,0.66533 1.136,0 2.252,-0.092 3.33067,-0.26667 4.368,-0.684 8.10267,-2.756 10.68667,-5.988 -0.15334,-0.22933 -0.29734,-0.468 -0.43467,-0.71466 -0.8,-1.548 -1.33333,-3.432 -1.62933,-5.52934 -0.584,-4.21866 -0.24667,-9.21333 0.82133,-14.4 2.06533,-10.312 6.61467,-20.588 9.528,-24.95066 0.55867,-0.83334 1.16533,-1.61467 1.80933,-2.34267 -0.41066,-1.06 -0.98,-1.90667 -1.76,-2.48133 -0.104,-0.076 -0.212,-0.14667 -0.32266,-0.21067"
         style="fill:#f78baa;fill-opacity:1;fill-rule:nonzero;stroke:none;stroke-width:1.33333" />
      <path
         id="path331"
         d="m -376.74156,264.76002 c -0.644,0.72933 -1.25067,1.51067 -1.80934,2.344 -2.91466,4.36133 -7.464,14.63733 -9.52933,24.95067 -1.06667,5.18533 -1.404,10.18 -0.82133,14.4 0.296,2.09733 0.82933,3.98133 1.63066,5.528 0.13734,0.248 0.28134,0.48533 0.43334,0.71466 0.612,-0.76533 1.15866,-1.59333 1.63333,-2.48533 2.46133,-4.59333 5.572,-15.58533 7.55067,-25.76267 0.97066,-5.08266 1.64,-9.95333 1.69466,-13.944 0.0147,-1.98 -0.148,-3.70666 -0.55733,-5.09333 -0.0693,-0.22533 -0.144,-0.44267 -0.22533,-0.652"
         style="fill:#6e6096;fill-opacity:1;fill-rule:nonzero;stroke:none;stroke-width:1.33333" />
      <path
         id="path332"
         d="m -392.26503,237.11669 c -0.43734,0 -0.87867,0.016 -1.328,0.0507 -3.56934,0.27466 -7.4,1.532 -10.79067,3.85866 0.184,1.58667 -0.0627,3.53067 -0.62933,5.75734 -0.488,1.91333 -1.21067,4.02533 -2.08667,6.256 -0.868,2.22133 -1.84933,4.51866 -2.94267,6.872 -4.36666,9.372 -10.06,19.28533 -13.58533,23.16933 -0.67067,0.74133 -1.39733,1.408 -2.17067,1.99867 0.44267,1.32 1.13734,2.432 2.12267,3.25866 0.12933,0.11067 0.26133,0.216 0.39733,0.31734 0.60134,-1.17867 1.35334,-2.29067 2.25467,-3.31334 3.468,-3.95066 12.62267,-10.668 21.43467,-16.06266 4.452,-2.73067 8.82,-5.11467 12.48,-6.488 2.16399,-0.79867 4.13199,-1.31334 5.76399,-1.31334 0.968,0 1.81734,0.18134 2.52,0.59067 1.52934,-3.39067 2.12667,-6.97067 1.93067,-10.216 -0.18933,-4.53467 -1.872,-8.41467 -4.96133,-11.208 -1.612,-1.32533 -3.37867,-2.328 -5.36533,-2.896 -0.99467,-0.284 -2.04,-0.46267 -3.12134,-0.54533 -0.63866,-0.0533 -1.276,-0.0867 -1.92266,-0.0867"
         style="fill:#2ab58c;fill-opacity:1;fill-rule:nonzero;stroke:none;stroke-width:1.33333" />
      <path
         id="path333"
         d="m -381.34516,261.47869 c -1.632,0 -3.6,0.51467 -5.764,1.312 -3.66,1.37467 -8.028,3.75867 -12.48,6.48933 -8.812,5.39334 -17.96667,12.112 -21.43467,16.06134 -0.90133,1.02266 -1.65333,2.13466 -2.25467,3.31466 1.43867,1.06667 3.284,1.57334 5.40934,1.57334 1.32266,0 2.752,-0.196 4.26,-0.576 4.13866,-1.01067 8.69866,-3.208 13.08266,-6.04267 8.848,-5.72533 16.74534,-13.74133 19.73334,-18.052 0.776,-1.12533 1.42933,-2.296 1.968,-3.49067 -0.70267,-0.408 -1.552,-0.58933 -2.52,-0.58933"
         style="fill:#29635d;fill-opacity:1;fill-rule:nonzero;stroke:none;stroke-width:1.33333" />
      <path
         id="path334"
         d="m -405.75196,237.90322 c -0.80934,1.02533 -1.72534,2 -2.752,2.90533 -3.93334,3.452 -13.57734,9.348 -23.52,12.74134 -4.872,1.65466 -9.81467,2.70533 -14.05334,2.70533 h -0.116 -0.028 c -4.03333,0 -7.24266,-1.09333 -9.10666,-3.31733 -2.464,2.836 -3.868,6.49733 -4.08134,10.57066 -0.176,5.38267 1.80134,11.54134 6.22934,16.492 2.13466,2.53734 4.72533,4.45467 7.39066,5.84934 1.33067,0.69866 2.68534,1.26266 4.04,1.688 1.364,0.41466 2.76934,0.64933 4.12667,0.768 0.564,0.048 1.12133,0.0707 1.67333,0.0707 3.784,0 7.28934,-1.11866 10.15067,-3.29733 -0.62,-1.848 -0.748,-4.10133 -0.48933,-6.55333 0.21866,-2.10267 0.72266,-4.36 1.448,-6.672 0.73466,-2.32134 1.732,-4.74267 2.85066,-7.10534 4.48934,-9.48933 11.38134,-18.352 15.26534,-21.876 0.74933,-0.67733 1.532,-1.292 2.34,-1.84666 -0.132,-1.14134 -0.48534,-2.09867 -1.104,-2.84534 -0.0827,-0.0973 -0.17067,-0.19066 -0.264,-0.27733"
         style="fill:#f152a1;fill-opacity:1;fill-rule:nonzero;stroke:none;stroke-width:1.33333" />
      <path
         id="path335"
         d="m -404.38356,241.02562 c -0.808,0.55467 -1.59067,1.16933 -2.34,1.84667 -3.884,3.524 -10.776,12.38666 -15.26534,21.876 -1.11866,2.36266 -2.11733,4.784 -2.85066,7.10533 -0.72534,2.312 -1.22934,4.56933 -1.448,6.672 -0.25867,2.452 -0.13067,4.70533 0.488,6.55333 0.77466,-0.58933 1.5,-1.256 2.172,-1.99866 3.524,-3.884 9.21866,-13.79734 13.58533,-23.16934 1.09333,-2.35333 2.07467,-4.64933 2.94133,-6.87066 0.87734,-2.232 1.6,-4.344 2.088,-6.25734 0.56667,-2.22666 0.81334,-4.17066 0.62934,-5.75733"
         style="fill:#283a58;fill-opacity:1;fill-rule:nonzero;stroke:none;stroke-width:1.33333" />
      <path
         id="path336"
         d="m -417.55676,209.89402 c -2.57867,10e-4 -5.27867,0.44533 -7.89467,1.41733 -0.0347,0.22667 -0.0787,0.45734 -0.13333,0.69334 -0.28134,1.40933 -0.93867,3.00266 -1.872,4.736 -1.84934,3.45066 -4.876,7.52 -8.07334,11.51866 -6.492,8.024 -14.40666,16.25867 -18.76666,19.172 -0.83734,0.56134 -1.70934,1.03467 -2.60934,1.42134 0.0987,1.4 0.51067,2.644 1.26667,3.68533 0.1,0.13733 0.204,0.272 0.312,0.4 0.86533,-0.996 1.86267,-1.88933 2.98533,-2.664 4.312,-2.98667 14.864,-7.31867 24.69067,-10.39733 4.956,-1.556 9.804,-2.836 13.692,-3.28534 1.03467,-0.112 2.01467,-0.17466 2.924,-0.17466 2.29733,0 4.14533,0.40666 5.284,1.48666 2.29866,-2.916 3.728,-6.232 4.34266,-9.44666 0.45467,-2.21467 0.52134,-4.388 0.152,-6.40267 -0.39333,-1.99867 -1.02133,-3.98667 -2.26,-5.66267 -0.62133,-0.83866 -1.308,-1.6 -2.02933,-2.304 -0.74,-0.69333 -1.56667,-1.292 -2.468,-1.804 -1.83733,-1 -3.84,-1.73066 -6.02666,-2.10533 -1.132,-0.18667 -2.31067,-0.284 -3.516,-0.284"
         style="fill:#87cda5;fill-opacity:1;fill-rule:nonzero;stroke:none;stroke-width:1.33333" />
      <path
         id="path337"
         d="m -411.03516,236.41615 c -0.90934,0 -1.88934,0.064 -2.924,0.176 -3.888,0.44933 -8.736,1.72933 -13.692,3.28533 -9.828,3.07734 -20.38,7.40934 -24.69067,10.39734 -1.12267,0.77466 -2.12,1.668 -2.98533,2.664 1.864,2.224 5.072,3.316 9.10533,3.316 h 0.028 0.11733 c 4.23734,0 9.18,-1.05067 14.05334,-2.704 9.94133,-3.39334 19.58666,-9.29067 23.51866,-12.74267 1.02667,-0.90533 1.94267,-1.88 2.752,-2.90533 -1.13733,-1.07867 -2.98533,-1.48667 -5.28266,-1.48667"
         style="fill:#804268;fill-opacity:1;fill-rule:nonzero;stroke:none;stroke-width:1.33333" />
      <path
         id="path338"
         d="m -426.01369,207.95269 c -1.03067,0.796 -2.15467,1.51867 -3.37334,2.14667 -4.63733,2.38666 -15.48666,5.796 -25.9,6.64133 -1.684,0.13733 -3.36,0.212 -4.996,0.212 -3.40133,0 -6.636,-0.31733 -9.432,-1.02933 -3.876,-1.00534 -6.77866,-2.83467 -8.04933,-5.45334 -3.07867,2.148 -5.324,5.35467 -6.512,9.25334 -0.82667,2.63733 -0.98533,5.49333 -0.70133,8.50666 0.16,1.496 0.42,3.03867 0.88,4.552 0.47866,1.50267 1.096,3.00667 1.852,4.484 0.75733,1.47734 1.61733,2.856 2.55866,4.12134 0.992,1.23733 2.06667,2.36133 3.19467,3.36 2.27467,1.988 4.684,3.524 7.32267,4.37733 1.98266,0.67333 3.98,1.012 5.93466,1.012 2.192,0 4.32934,-0.42667 6.32934,-1.284 -0.0187,-0.27733 -0.0253,-0.56 -0.0213,-0.84933 0.012,-1.73467 0.41334,-3.63867 1.13067,-5.624 1.39467,-3.95067 4.18533,-8.28534 7.51867,-12.332 6.628,-8.10267 15.476,-15.02934 20.12933,-17.52134 0.88267,-0.472 1.784,-0.87466 2.696,-1.21333 0.17333,-1.14933 0.072,-2.16533 -0.36933,-3.028 -0.0587,-0.11333 -0.12267,-0.224 -0.192,-0.332"
         style="fill:#994198;fill-opacity:1;fill-rule:nonzero;stroke:none;stroke-width:1.33333" />
      <path
         id="path339"
         d="m -425.45183,211.31202 c -0.912,0.34 -1.81334,0.74267 -2.696,1.21333 -4.65334,2.492 -13.50134,9.42 -20.13067,17.52267 -3.332,4.04667 -6.12267,8.38133 -7.51867,12.332 -0.716,1.984 -1.11866,3.88933 -1.12933,5.624 -0.005,0.288 0.003,0.57067 0.0213,0.848 0.89867,-0.38667 1.772,-0.85867 2.608,-1.42 4.36134,-2.91467 12.27467,-11.148 18.76667,-19.172 3.19867,-3.99867 6.224,-8.06933 8.07467,-11.52 0.932,-1.73333 1.58933,-3.32667 1.87066,-4.73467 0.0547,-0.236 0.1,-0.46666 0.13334,-0.69333"
         style="fill:#513462;fill-opacity:1;fill-rule:nonzero;stroke:none;stroke-width:1.33333" />
      <path
         id="path340"
         d="m -436.22729,177.27295 c -0.78667,0 -1.58,0.04 -2.38,0.128 -0.0893,0.21067 -0.18934,0.42533 -0.3,0.64133 -0.64134,1.30134 -1.64667,2.68 -2.98,4.132 -2.62934,2.888 -6.55867,6.09334 -10.65334,9.19334 -8.24533,6.188 -17.92533,12.24 -22.86533,14.00133 -0.948,0.34 -1.90933,0.58667 -2.87733,0.74133 -0.24134,1.38 -0.164,2.696 0.31333,3.89467 0.0627,0.15733 0.13067,0.312 0.20533,0.464 1.08134,-0.75467 2.26667,-1.37867 3.54534,-1.856 4.90933,-1.84533 16.20933,-3.472 26.50133,-4.06933 2.46533,-0.132 4.91733,-0.22134 7.22933,-0.22134 2.49734,0 4.83067,0.10267 6.84134,0.368 1.95733,0.248 3.60666,0.656 4.94799,1.23067 1.20934,0.50533 2.12667,1.16533 2.68534,2.032 2.932,-2.264 5.104,-5.12133 6.52666,-8.10533 0.97467,-2.032 1.56134,-4.11467 1.68534,-6.14934 0.16133,-2.052 -0.0133,-4.10666 -0.8,-6.03066 -1.408,-3.89467 -4.648,-6.75867 -8.66934,-8.57734 -2.04,-0.892 -4.34133,-1.488 -6.77199,-1.71466 -0.72,-0.068 -1.44934,-0.10267 -2.184,-0.10267"
         style="fill:#b6dc34;fill-opacity:1;fill-rule:nonzero;stroke:none;stroke-width:1.33333" />
      <path
         id="path341"
         d="m -440.48903,204.32242 c -2.31067,0 -4.76267,0.088 -7.228,0.22133 -10.29334,0.59734 -21.592,2.224 -26.50267,4.06934 -1.27733,0.47733 -2.464,1.10133 -3.54533,1.856 1.272,2.61866 4.17333,4.448 8.04933,5.45333 2.79733,0.712 6.03067,1.03067 9.432,1.03067 1.63733,0 3.31333,-0.0747 4.996,-0.21334 10.41467,-0.844 21.264,-4.25333 25.90133,-6.64 1.21867,-0.62933 2.34133,-1.352 3.372,-2.14666 -0.55867,-0.86667 -1.476,-1.52667 -2.68533,-2.032 -1.34134,-0.57467 -2.98934,-0.98267 -4.948,-1.23067 -2.01067,-0.26533 -4.344,-0.368 -6.84133,-0.368"
         style="fill:#6d381f;fill-opacity:1;fill-rule:nonzero;stroke:none;stroke-width:1.33333" />
      <path
         id="path342"
         d="m -489.11849,163.78215 c -3.512,1.32933 -6.47867,3.888 -8.59067,7.37333 -1.43333,2.348 -2.29733,5.08134 -2.75867,8.07067 -0.212,1.49067 -0.33466,3.048 -0.26533,4.62933 0.0973,1.57467 0.328,3.184 0.70133,4.80267 0.37334,1.61733 0.872,3.16667 1.47467,4.62533 0.63733,1.44934 1.42533,2.79867 2.272,4.04534 1.728,2.48533 3.69067,4.568 6.02533,6.04666 2.98,1.92534 6.236,2.932 9.49467,2.932 0.828,0 1.65733,-0.0653 2.48133,-0.19733 0.336,-1.92533 1.29067,-3.976 2.644,-6.00533 2.304,-3.488 6.11067,-7.02134 10.31067,-10.12534 4.20933,-3.11066 8.87333,-5.816 13.124,-7.88666 4.26133,-2.07467 8.148,-3.53867 10.68533,-4.17334 0.97867,-0.24533 1.95067,-0.41466 2.91333,-0.51866 0.44667,-1.07067 0.596,-2.07867 0.37734,-3.02134 -0.028,-0.12533 -0.0627,-0.24666 -0.104,-0.368 -1.19334,0.51867 -2.46,0.944 -3.796,1.25467 -2.852,0.66133 -7.68667,1.156 -13.20267,1.156 -4.304,0 -9.02133,-0.3 -13.536,-1.06 -5.128,-0.85867 -10.02933,-2.29067 -13.78533,-4.32933 -3.52667,-1.92 -5.87733,-4.40267 -6.46533,-7.25067"
         style="fill:#a96bb4;fill-opacity:1;fill-rule:nonzero;stroke:none;stroke-width:1.33333" />
      <path
         id="path343"
         d="m -438.60689,177.40055 c -0.96267,0.104 -1.93467,0.27333 -2.91334,0.51867 -2.536,0.63466 -6.424,2.09866 -10.68533,4.17466 -4.25067,2.06934 -8.91467,4.776 -13.124,7.88667 -4.19867,3.10267 -8.00533,6.636 -10.31067,10.124 -1.35333,2.02933 -2.308,4.08 -2.64266,6.00533 0.96666,-0.15466 1.928,-0.40133 2.87733,-0.74 4.94,-1.76266 14.61867,-7.81466 22.86533,-14.00133 4.09467,-3.10133 8.02267,-6.30667 10.65334,-9.19467 1.33333,-1.452 2.33866,-2.83066 2.97866,-4.132 0.112,-0.216 0.212,-0.43066 0.30134,-0.64133"
         style="fill:#795c25;fill-opacity:1;fill-rule:nonzero;stroke:none;stroke-width:1.33333" />
      <path
         id="path344"
         d="m -441.08409,141.62322 c -0.0773,0.564 -0.28267,1.10667 -0.59867,1.63467 -0.29067,0.53866 -0.69867,1.06133 -1.212,1.56933 -1.02533,1.01867 -2.46933,1.98133 -4.21867,2.90667 -1.744,0.924 -3.81333,1.81066 -6.03733,2.66533 -2.192,0.856 -4.58,1.676 -7.04933,2.44933 -9.87867,3.07734 -21.04667,5.528 -26.292,5.53067 h -0.0413 c -0.48666,0 -0.968,-0.0213 -1.444,-0.0627 -0.072,0.11867 -0.14,0.24 -0.20666,0.36134 -0.41734,0.76 -0.728,1.52933 -0.91867,2.30133 -0.16,0.768 -0.196,1.53733 -0.1,2.30133 0.0213,0.168 0.0493,0.33467 0.084,0.50134 1.23467,-0.46667 2.536,-0.78267 3.892,-0.93334 0.908,-0.10266 2.004,-0.15066 3.24533,-0.15066 5.88534,0 15.08,1.088 23.436,2.692 5.05467,0.98666 9.97734,2.14666 13.61067,3.58933 1.836,0.72133 3.33867,1.51867 4.49067,2.40667 1.052,0.78533 1.77866,1.65066 2.11066,2.62533 3.396,-1.47467 6.19733,-3.71067 8.31333,-6.25733 1.44267,-1.732 2.52267,-3.608 3.14267,-5.552 0.64267,-1.948 0.99333,-3.99334 0.70267,-6.05467 -0.068,-0.51733 -0.17067,-1.02267 -0.3,-1.52 -0.1,-0.50133 -0.23067,-0.992 -0.392,-1.47333 -0.32267,-0.96134 -0.76667,-1.884 -1.31734,-2.76267 -0.54666,-0.87867 -1.22,-1.71333 -1.948,-2.50267 -0.69866,-0.79333 -1.492,-1.53466 -2.368,-2.22133 -2.35866,-1.836 -5.30799,-3.288 -8.58399,-4.044"
         style="fill:#b9d873;fill-opacity:1;fill-rule:nonzero;stroke:none;stroke-width:1.33333" />
      <path
         id="path345"
         d="m -481.98116,162.69749 c -1.24134,0 -2.33734,0.048 -3.24534,0.15067 -1.356,0.152 -2.65733,0.46666 -3.892,0.93333 0.588,2.848 2.93867,5.332 6.46534,7.252 3.756,2.03733 8.65733,3.46933 13.78533,4.328 4.51466,0.76 9.232,1.06133 13.536,1.06133 5.516,0 10.35066,-0.49466 13.20266,-1.156 1.336,-0.312 2.60267,-0.73733 3.796,-1.256 -0.332,-0.97466 -1.06,-1.84 -2.11066,-2.624 -1.152,-0.888 -2.65467,-1.68666 -4.49067,-2.408 -3.63333,-1.44266 -8.556,-2.60133 -13.61067,-3.588 -8.356,-1.60533 -17.55066,-2.69333 -23.43599,-2.69333"
         style="fill:#7b5b51;fill-opacity:1;fill-rule:nonzero;stroke:none;stroke-width:1.33333" />
      <path
         id="path346"
         d="m -485.51249,114.64535 c -3.772,0.0813 -7.47334,1.496 -10.55467,4.09333 -2.064,1.75334 -3.88533,4.024 -5.32667,6.68667 -1.41733,2.66533 -2.284,5.74533 -2.71466,9.032 -0.10134,0.824 -0.17067,1.64133 -0.20134,2.448 0,0.81067 0.032,1.61067 0.0973,2.39867 0.13066,1.57733 0.388,3.104 0.76133,4.55866 0.37867,1.45334 0.852,2.83467 1.46667,4.12134 0.644,1.288 1.388,2.48266 2.22,3.56533 3.00933,3.932 7.14266,6.34933 11.78666,6.76667 0.828,-1.396 2.00934,-2.75734 3.456,-4.05334 1.576,-1.408 3.44534,-2.736 5.55467,-3.95866 2.14,-1.22534 4.47866,-2.34267 6.90266,-3.33734 9.692,-3.99466 20.74134,-5.92 25.992,-5.92 h 0.0107 c 0.132,0 0.26533,0.003 0.39733,0.005 -5.41066,-0.75067 -15.744,-3.85734 -24.62533,-8.74534 -4.62,-2.52533 -8.66667,-5.49333 -11.52,-8.66266 -1.408,-1.58 -2.52933,-3.208 -3.164,-4.81334 -0.54133,-1.42133 -0.744,-2.83333 -0.53866,-4.18533 m 44.46533,26.564 c -0.51467,0.036 -1.03334,0.0547 -1.556,0.0547 -0.14934,0 -0.29867,-0.001 -0.44934,-0.005 0.668,0.0933 1.324,0.21467 1.968,0.364 l 0.004,-0.0307 c 0.0173,-0.128 0.0293,-0.25334 0.0333,-0.38267"
         style="fill:#fce89b;fill-opacity:1;fill-rule:nonzero;stroke:none;stroke-width:1.33333" />
      <path
         id="path347"
         d="m -446.07303,141.04642 c -5.25067,0 -16.3,1.92533 -25.99067,5.92 -2.42533,0.996 -4.76267,2.112 -6.90267,3.33733 -2.10933,1.22267 -3.98,2.55067 -5.556,3.95867 -1.44666,1.296 -2.628,2.65733 -3.45466,4.05333 0.476,0.0413 0.95733,0.064 1.444,0.064 h 0.0413 c 5.24533,-0.003 16.41333,-2.45466 26.292,-5.53066 2.468,-0.77467 4.856,-1.59467 7.04933,-2.44934 2.22267,-0.85466 4.29334,-1.74133 6.03734,-2.66533 1.748,-0.92667 3.192,-1.888 4.21866,-2.90667 0.51334,-0.508 0.92134,-1.03066 1.212,-1.57066 0.31467,-0.52667 0.52134,-1.07067 0.59867,-1.63334 -0.64533,-0.15066 -1.30133,-0.272 -1.968,-0.36533 -0.66133,-0.0133 -1.32933,-0.056 -2.00133,-0.12933 -0.196,-0.0227 -0.4,-0.0493 -0.61067,-0.0773 -0.132,-0.003 -0.26533,-0.005 -0.39733,-0.005 h -0.012"
         style="fill:#b7c546;fill-opacity:1;fill-rule:nonzero;stroke:none;stroke-width:1.33333" />
      <path
         id="path348"
         d="m -434.60103,108.79122 c -1.30134,0.91467 -3.12667,1.61333 -5.38934,2.15333 -3.89333,0.91734 -8.74,1.47067 -13.92666,1.76534 -3.22,0.184 -6.54667,0.272 -9.75467,0.272 -1.94667,0 -3.84933,-0.0333 -5.65867,-0.096 -4.78,-0.16534 -8.86,-0.548 -11.412,-1.188 -0.97333,-0.24267 -1.912,-0.57067 -2.808,-0.97734 -0.93066,1.024 -1.57733,2.16934 -1.86666,3.424 -0.0387,0.16534 -0.0707,0.33334 -0.096,0.50134 0.116,-0.003 0.22933,-0.004 0.34533,-0.004 1.21467,0 2.436,0.13733 3.64533,0.42 5.14134,1.19066 15.31334,6.06533 24.304,11.28533 4.50667,2.62667 8.66667,5.34133 11.6,7.91067 2.79334,2.43733 4.64267,4.76933 4.57067,6.95066 3.712,-0.25866 7.15067,-1.428 9.92133,-3.13733 1.868,-1.164 3.608,-2.55733 4.85067,-4.18133 0.64,-0.808 1.144,-1.68 1.59066,-2.59067 0.476,-0.90533 0.83734,-1.864 1.07067,-2.876 0.23467,-1.01333 0.32933,-2.03333 0.29867,-3.05467 0.003,-1.01333 -0.0747,-2.01733 -0.29334,-3.024 -0.40266,-2.00133 -1.368,-4.02133 -2.52133,-5.87866 -1.90933,-3.00534 -4.81733,-5.78534 -8.47066,-7.67467"
         style="fill:#3d7fc6;fill-opacity:1;fill-rule:nonzero;stroke:none;stroke-width:1.33333" />
      <path
         id="path349"
         d="m -485.16809,114.64149 c -0.11467,0 -0.22934,10e-4 -0.344,0.004 -0.20667,1.352 -0.004,2.764 0.53866,4.18533 0.63467,1.60534 1.756,3.23334 3.164,4.81334 2.85333,3.16933 6.9,6.136 11.52,8.66266 8.88,4.888 19.21467,7.99467 24.62533,8.74534 0.88534,0.0173 1.75734,0.088 2.612,0.20666 0.14934,0.004 0.3,0.005 0.448,0.005 0.52267,0 1.04267,-0.0187 1.556,-0.0547 0.072,-2.18267 -1.77733,-4.51467 -4.56933,-6.952 -2.93467,-2.56933 -7.09467,-5.284 -11.60133,-7.91067 -8.98934,-5.22 -19.16267,-10.09466 -24.304,-11.28533 -1.208,-0.28133 -2.42933,-0.42 -3.64533,-0.42"
         style="fill:#3c7478;fill-opacity:1;fill-rule:nonzero;stroke:none;stroke-width:1.33333" />
      <path
         id="path350"
         d="m -445.66409,141.05162 c 0.21066,0.028 0.416,0.0547 0.61066,0.0773 0.672,0.0733 1.34,0.11734 2.00134,0.12934 -0.85467,-0.11867 -1.72667,-0.188 -2.612,-0.20667"
         style="fill:#2c6236;fill-opacity:1;fill-rule:nonzero;stroke:none;stroke-width:1.33333" />
      <path
         id="path351"
         d="m -472.73969,69.06722 c -2.56134,0 -5.156,0.597334 -7.612,1.790667 -2.432,1.193333 -4.75467,2.949333 -6.80667,5.178666 -2.012,2.244 -3.62667,5.016 -4.85067,8.104 -2.29466,6.242667 -2.18266,12.653333 0.0333,17.679997 1.07333,2.51334 2.59333,4.67067 4.484,6.34934 1.17066,1.03733 2.5,1.896 3.94133,2.55066 0.184,-0.20266 0.38,-0.40133 0.58533,-0.59333 1.28134,-1.16133 2.99734,-2.13733 4.956,-2.93733 3.95734,-1.59734 8.88267,-2.49334 14.15867,-2.732 1.19066,-0.0587 2.38933,-0.0853 3.58533,-0.0853 9.36,0 18.57067,1.67467 22.95067,3.236 0.944,0.33867 1.84933,0.736 2.71333,1.18267 0.93333,-0.65467 1.59733,-1.42 1.96,-2.31467 0.048,-0.11866 0.0893,-0.24 0.12533,-0.364 -1.28933,-0.232 -2.58533,-0.58 -3.864,-1.05866 -4.91066,-1.844 -14.604,-7.542671 -22.30133,-14.724004 -3.87333,-3.586666 -7.05867,-7.451999 -9.05066,-11.223999 -0.97734,-1.876 -1.668,-3.732 -1.88667,-5.44 -0.17733,-1.512 -0.0293,-2.930667 0.50133,-4.189333 -1.188,-0.273334 -2.40133,-0.409334 -3.62266,-0.409334"
         style="fill:#fecc22;fill-opacity:1;fill-rule:nonzero;stroke:none;stroke-width:1.33333" />
      <path
         id="path352"
         d="m -460.26503,104.37189 c -1.196,0 -2.39467,0.028 -3.58534,0.0853 -5.276,0.23867 -10.20133,1.13467 -14.15866,2.732 -1.95867,0.80134 -3.67467,1.776 -4.956,2.93734 -0.20534,0.19333 -0.40134,0.39066 -0.58534,0.59466 0.896,0.40534 1.83467,0.73334 2.808,0.976 2.552,0.64134 6.632,1.024 11.412,1.18934 1.80934,0.0627 3.712,0.0947 5.65867,0.0947 3.208,0 6.53467,-0.0867 9.75466,-0.27066 5.18667,-0.296 10.03334,-0.84934 13.92667,-1.76534 2.26267,-0.54133 4.088,-1.24 5.38933,-2.15466 -0.864,-0.44667 -1.76933,-0.84267 -2.71333,-1.18134 -4.38,-1.56133 -13.58933,-3.23733 -22.95066,-3.23733"
         style="fill:#3d661a;fill-opacity:1;fill-rule:nonzero;stroke:none;stroke-width:1.33333" />
      <path
         id="path353"
         d="m -466.26116,66.15189 c -1.15067,0.765333 -2.056,1.717333 -2.64134,2.861333 -0.0773,0.152 -0.14933,0.306667 -0.21466,0.462667 1.29466,0.297333 2.55733,0.758667 3.76533,1.381333 4.69067,2.412 13.368,9.633333 20.8,16.893333 3.72533,3.650667 7.09333,7.302667 9.30666,10.510667 2.12534,3.053337 3.33467,5.755997 2.72934,7.851997 1.34133,0.24 2.67733,0.35467 3.98533,0.35467 2.26267,0 4.43867,-0.34133 6.40933,-0.95733 2.08134,-0.67467 4.12134,-1.596 5.72134,-2.86534 0.81866,-0.628 1.51733,-1.348 2.18,-2.12 0.68133,-0.762664 1.26666,-1.605331 1.74,-2.530664 0.47466,-0.926667 0.816,-1.893333 1.036,-2.893333 0.272,-0.972 0.42533,-1.977333 0.46266,-3.005333 0.0947,-2.045334 -0.348,-4.242667 -0.996,-6.321334 -1.12,-3.389333 -3.264,-6.801333 -6.34666,-9.526666 -0.20934,0.08133 -0.428,0.156 -0.65334,0.225333 -1.32933,0.392 -2.97466,0.558667 -4.85333,0.558667 -0.0787,0 -0.15733,-0.0013 -0.23733,-0.0013 -3.992,-0.05467 -8.86134,-0.724 -13.944,-1.693334 -10.17867,-1.98 -21.16934,-5.090666 -25.764,-7.550666 -0.89067,-0.476 -1.72,-1.022667 -2.48533,-1.634667"
         style="fill:#72b0e1;fill-opacity:1;fill-rule:nonzero;stroke:none;stroke-width:1.33333" />
      <path
         id="path354"
         d="m -469.11729,69.47615 c -0.52934,1.258667 -0.67734,2.678667 -0.5,4.190667 0.21866,1.708 0.90933,3.562666 1.88666,5.44 1.99067,3.772 5.176,7.635999 9.05067,11.223999 7.69733,7.18 17.39066,12.880004 22.3,14.724004 1.28,0.47733 2.57466,0.82666 3.864,1.05866 0.60533,-2.096 -0.60267,-4.79866 -2.72934,-7.851997 -2.21333,-3.208 -5.58133,-6.86 -9.30666,-10.510667 -7.43067,-7.259999 -16.10934,-14.481333 -20.8,-16.893333 -1.208,-0.624 -2.47067,-1.083999 -3.76533,-1.381333"
         style="fill:#728d1e;fill-opacity:1;fill-rule:nonzero;stroke:none;stroke-width:1.33333" />
      <path
         id="path355"
         d="m -449.77356,27.93709 c -1.212,0 -2.44534,0.122667 -3.68534,0.369334 -2.64133,0.567999 -5.312,1.709333 -7.83333,3.374666 -2.54133,1.646667 -4.73333,3.970667 -6.67333,6.658667 -0.972,1.344 -1.776,2.753333 -2.392,4.217333 -0.63467,1.452 -1.13334,2.918666 -1.49467,4.377333 -0.75733,2.896 -0.836,5.830667 -0.396,8.532 0.68267,4.366666 2.756,8.102666 5.98667,10.685333 0.22933,-0.150667 0.468,-0.296 0.71466,-0.433333 1.548,-0.8 3.43067,-1.334667 5.52934,-1.630667 1.384,-0.189333 2.852,-0.282667 4.38133,-0.282667 3.13467,0 6.532,0.386667 10.01867,1.104 10.31199,2.066667 20.58933,6.614667 24.94933,9.529333 0.83333,0.558667 1.61466,1.165334 2.344,1.809334 1.06,-0.410667 1.90666,-0.98 2.48133,-1.761334 0.076,-0.104 0.14667,-0.210666 0.21067,-0.321333 -1.19467,-0.538667 -2.364,-1.193333 -3.48934,-1.969333 -4.312,-2.986667 -12.32666,-10.885333 -18.052,-19.730666 -2.83466,-4.386667 -5.032,-8.945334 -6.04266,-13.084 -0.992,-3.932 -0.732,-7.336 0.99733,-9.669333 -2.308,-1.176 -4.87866,-1.774667 -7.55466,-1.774667"
         style="fill:#f78baa;fill-opacity:1;fill-rule:nonzero;stroke:none;stroke-width:1.33333" />
      <path
         id="path356"
         d="m -455.63676,63.80549 c -1.52934,0 -2.99734,0.092 -4.38,0.282667 -2.09867,0.296 -3.98134,0.830666 -5.52934,1.630666 -0.248,0.137334 -0.48533,0.281334 -0.71466,0.433334 0.764,0.612 1.59466,1.158666 2.48533,1.633333 4.59467,2.461333 15.584,5.572 25.764,7.550667 5.08133,0.970666 9.952,1.64 13.94266,1.694666 0.08,0 0.16,0.0013 0.23867,0.0013 1.87867,0 3.524,-0.166667 4.85333,-0.558667 0.22534,-0.06933 0.444,-0.144 0.652,-0.225333 -0.72933,-0.644 -1.51066,-1.250667 -2.34266,-1.809334 -4.36134,-2.914666 -14.63734,-7.462666 -24.94934,-9.529333 -3.48666,-0.717333 -6.88533,-1.104 -10.01999,-1.104"
         style="fill:#6e6096;fill-opacity:1;fill-rule:nonzero;stroke:none;stroke-width:1.33333" />
      <path
         id="path357"
         d="m -438.64129,27.19095 c -1.32134,0.442667 -2.43334,1.138667 -3.26,2.124 -0.11067,0.128 -0.21734,0.26 -0.31734,0.397333 1.18,0.601334 2.29067,1.352 3.31334,2.253334 3.95066,3.468 10.66799,12.622666 16.06133,21.434666 2.73066,4.452 5.116,8.82 6.48933,12.481333 1.272,3.448 1.82133,6.394666 0.72267,8.282666 2.97466,1.342667 6.09466,1.966667 9.008,1.966667 0.40666,0 0.81066,-0.01333 1.208,-0.036 4.53333,-0.189333 8.41466,-1.872 11.20666,-4.96 1.32534,-1.613333 2.328,-3.378666 2.89734,-5.366666 0.28266,-0.994667 0.46266,-2.04 0.544,-3.121334 0.0907,-1.072 0.12533,-2.137333 0.0373,-3.250666 -0.27467,-3.568 -1.532,-7.4 -3.85733,-10.789333 -0.34934,0.04 -0.716,0.05867 -1.09867,0.05867 -1.35867,0 -2.924,-0.246666 -4.66,-0.688 -1.912,-0.488 -4.02533,-1.210666 -6.256,-2.088 -2.22133,-0.868 -4.52,-1.848 -6.872,-2.942666 -9.372,-4.365333 -19.28533,-10.06 -23.168,-13.585333 -0.744,-0.672 -1.40933,-1.397334 -1.99866,-2.170667"
         style="fill:#2ab58c;fill-opacity:1;fill-rule:nonzero;stroke:none;stroke-width:1.33333" />
      <path
         id="path358"
         d="m -442.21876,29.71175 c -1.72934,2.333333 -1.98934,5.737333 -0.99734,9.669333 1.01067,4.137334 3.208,8.697333 6.04267,13.082667 5.72533,8.846666 13.74,16.745333 18.052,19.731999 1.12533,0.776 2.29466,1.430667 3.48933,1.969333 1.09867,-1.888 0.54933,-4.834666 -0.72267,-8.283999 -1.37333,-3.66 -3.75733,-8.029334 -6.48933,-12.48 -5.39333,-8.813333 -12.11067,-17.968 -16.06133,-21.436 -1.02267,-0.9 -2.13333,-1.651999 -3.31333,-2.253333"
         style="fill:#29635d;fill-opacity:1;fill-rule:nonzero;stroke:none;stroke-width:1.33333" />
      <path
         id="path359"
         d="m -417.73249,-6.4301098 c -5.22134,0 -11.084,1.9919999 -15.832,6.23999983 -2.53734,2.13466657 -4.45467,4.72666657 -5.84934,7.39066647 -0.69866,1.3306666 -1.26266,2.6839999 -1.68666,4.0399995 -0.41467,1.362667 -0.64934,2.769334 -0.76934,4.126667 -0.37466,4.418667 0.732,8.545333 3.228,11.824 1.25467,-0.421334 2.696,-0.614667 4.26,-0.614667 0.73867,0 1.50534,0.04267 2.292,0.126667 2.104,0.218666 4.36,0.721333 6.672,1.446666 2.32267,0.733334 4.74267,1.730667 7.10534,2.850667 9.48933,4.489333 18.35199,11.381333 21.87733,15.265333 0.676,0.749333 1.292,1.532 1.84666,2.34 1.14,-0.132 2.09734,-0.486667 2.844,-1.104 0.0973,-0.08267 0.18934,-0.172 0.27867,-0.265333 -1.02533,-0.808 -2.00133,-1.725334 -2.90533,-2.750667 -3.452,-3.933333 -9.34934,-13.577333 -12.74267,-23.52 -1.66933,-4.917333 -2.724,-9.905333 -2.70533,-14.1693325 -0.004,-4.0453332 1.088,-7.26533313 3.316,-9.1346664 -2.836,-2.464 -6.496,-3.8679999 -10.568,-4.0813332 -0.22,-0.008 -0.43867,-0.010667 -0.66133,-0.010667"
         style="fill:#f152a1;fill-opacity:1;fill-rule:nonzero;stroke:none;stroke-width:1.33333" />
      <path
         id="path360"
         d="m -434.38156,26.57642 c -1.564,0 -3.00534,0.194667 -4.26,0.614667 0.58933,0.773333 1.256,1.498666 1.99866,2.170666 3.88267,3.525334 13.796,9.22 23.16933,13.585333 2.35067,1.094667 4.64934,2.074667 6.87067,2.942667 2.23067,0.877333 4.344,1.6 6.256,2.088 1.73733,0.441333 3.30133,0.688 4.66,0.688 0.38267,0 0.74933,-0.01867 1.09867,-0.06 -0.55467,-0.808 -1.17067,-1.590667 -1.848,-2.338667 -3.52534,-3.885333 -12.38667,-10.775999 -21.876,-15.266666 -2.36267,-1.118667 -4.78267,-2.117333 -7.10534,-2.850667 -2.312,-0.725333 -4.56933,-1.227999 -6.67199,-1.446666 -0.78667,-0.084 -1.55334,-0.126667 -2.292,-0.126667"
         style="fill:#283a58;fill-opacity:1;fill-rule:nonzero;stroke:none;stroke-width:1.33333" />
      <path
         id="path361"
         d="m -402.41543,-3.9158498 c -1.4,0.097333 -2.64534,0.5106666 -3.68667,1.2653333 -0.13733,0.098667 -0.27067,0.204 -0.4,0.3133333 0.996,0.8653333 1.89067,1.86266663 2.66533,2.98533327 2.98534,4.31066653 7.31734,14.86266593 10.396,24.68933293 1.55467,4.957333 2.836,9.805333 3.28533,13.691999 0.392,3.645334 0.196,6.62 -1.31066,8.206667 2.91466,2.3 6.23066,3.729333 9.44666,4.345333 1.25334,0.256 2.492,0.389333 3.69734,0.389333 0.92533,0 1.82933,-0.07867 2.704,-0.238666 1.99866,-0.392 3.988,-1.02 5.664,-2.258667 0.83733,-0.621333 1.59866,-1.308 2.304,-2.029333 0.692,-0.74 1.29066,-1.566667 1.80266,-2.468 1.00134,-1.837333 1.73067,-3.84 2.10667,-6.028 0.584,-3.550666 0.292,-7.570666 -1.13467,-11.409333 -0.22666,-0.036 -0.45733,-0.08 -0.69333,-0.134667 -1.408,-0.281333 -3.00267,-0.937333 -4.736,-1.870666 -3.44933,-1.849334 -7.52,-4.876 -11.51867,-8.074667 -8.024,-6.490666 -16.25733,-14.4039993 -19.17199,-18.7666659 -0.56134,-0.8373333 -1.03467,-1.7079999 -1.42,-2.6079999"
         style="fill:#87cda5;fill-opacity:1;fill-rule:nonzero;stroke:none;stroke-width:1.33333" />
      <path
         id="path362"
         d="m -406.50263,-2.3377098 c -2.228,1.86799994 -3.32134,5.0879999 -3.316,9.1346664 -0.0187,4.2640004 1.036,9.2519994 2.70533,14.1693334 3.392,9.942666 9.28933,19.586666 12.74266,23.518666 0.904,1.026666 1.88,1.942666 2.904,2.752 1.50667,-1.588 1.704,-4.561334 1.312,-8.208 -0.45066,-3.886667 -1.73066,-8.733333 -3.28533,-13.690667 -3.08,-9.826666 -7.41066,-20.3786657 -10.39733,-24.69066556 -0.77467,-1.12266664 -1.66933,-2.11999994 -2.66533,-2.98533324"
         style="fill:#804268;fill-opacity:1;fill-rule:nonzero;stroke:none;stroke-width:1.33333" />
      <path
         id="path363"
         d="m -379.13743,-32.11758 c -0.87067,0 -1.756,0.04533 -2.656,0.130667 -1.49734,0.16 -3.03867,0.418667 -4.552,0.88 -1.50267,0.477333 -3.008,1.094666 -4.484,1.850666 -1.47734,0.758667 -2.856,1.617334 -4.12267,2.557334 -1.236,0.994666 -2.36,2.068 -3.35867,3.196 -1.988,2.274666 -3.52533,4.685333 -4.37733,7.322666 -1.42667,4.205333 -1.35067,8.4799999 0.27333,12.2639998 0.21734,-0.013333 0.43867,-0.021333 0.664,-0.021333 0.06,0 0.12134,0 0.184,0.00133 1.73467,0.012 3.63867,0.412 5.624,1.1293333 3.94934,1.3946666 8.284,4.1853332 12.332,7.5186665 8.10267,6.6293334 15.02933,15.4759994 17.52133,20.1293324 0.472,0.882667 0.87467,1.785334 1.21334,2.697334 0.34933,0.052 0.68666,0.08 1.01066,0.08 0.74134,0 1.416,-0.144 2.016,-0.450667 0.11467,-0.05867 0.22534,-0.122667 0.332,-0.192 -0.79466,-1.029333 -1.51733,-2.153333 -2.14666,-3.372 -2.38534,-4.637333 -5.79467,-15.4866662 -6.64,-25.9013326 -0.42534,-5.1813332 -0.23734,-10.2866664 0.81733,-14.4279994 1.00533,-3.874667 2.83467,-6.778667 5.45333,-8.049333 -2.148,-3.078667 -5.356,-5.322667 -9.25466,-6.512 -1.84933,-0.58 -3.80533,-0.830667 -5.84933,-0.830667"
         style="fill:#994198;fill-opacity:1;fill-rule:nonzero;stroke:none;stroke-width:1.33333" />
      <path
         id="path364"
         d="m -401.75143,-3.9379798 c -0.22534,0 -0.44667,0.008 -0.664,0.022667 0.38533,0.8986666 0.85866,1.7706666 1.42,2.6079999 2.91466,4.3613332 11.14799,12.2759989 19.17199,18.7666659 3.99867,3.197333 8.06934,6.225333 11.51867,8.074666 1.73333,0.933334 3.328,1.589334 4.736,1.870667 0.236,0.05467 0.46667,0.09867 0.69333,0.133333 -0.34,-0.912 -0.74266,-1.814666 -1.21333,-2.697333 -2.49333,-4.652 -9.42,-13.5 -17.52267,-20.1293324 -4.04666,-3.3333332 -8.38133,-6.1226665 -12.33199,-7.5173331 -1.984,-0.7173334 -3.88934,-1.1186667 -5.624,-1.1306667 -0.0613,-0.00133 -0.12267,-0.00133 -0.184,-0.00133"
         style="fill:#513462;fill-opacity:1;fill-rule:nonzero;stroke:none;stroke-width:1.33333" />
      <path
         id="path365"
         d="m -361.14329,-25.42625 c -0.84667,0 -1.66,0.141334 -2.424,0.446667 -0.15867,0.06267 -0.31334,0.132 -0.46534,0.204 0.75467,1.082666 1.37867,2.268 1.85734,3.545333 1.844,4.910667 3.47066,16.209333 4.06666,26.5013327 0.27734,5.1293333 0.364,10.1986663 -0.14533,14.0719993 -0.248,1.957334 -0.656,3.605334 -1.232,4.946667 -0.504,1.209333 -1.16533,2.128 -2.03067,2.686667 2.264,2.931999 5.12134,5.103999 8.10533,6.525333 2.032,0.976 4.11467,1.562666 6.14934,1.686666 0.452,0.03467 0.90266,0.05467 1.35333,0.05467 1.596,0 3.17733,-0.242667 4.67733,-0.856 3.89467,-1.408 6.75867,-4.648 8.57734,-8.668 0.892,-2.04 1.488,-4.341333 1.71333,-6.773333 0.14133,-1.490667 0.144,-3.014667 -0.0227,-4.564 -0.212,-0.08667 -0.42666,-0.186666 -0.64266,-0.298666 -1.30134,-0.641334 -2.67867,-1.648 -4.13067,-2.98 -2.88933,-2.6293337 -6.096,-6.5586669 -9.19467,-10.6546668 -6.188,-8.2453331 -12.23999,-17.9239992 -14.00133,-22.8639992 -0.34133,-0.949334 -0.58666,-1.910667 -0.74133,-2.877333 -0.49867,-0.088 -0.98933,-0.133334 -1.46933,-0.133334"
         style="fill:#b6dc34;fill-opacity:1;fill-rule:nonzero;stroke:none;stroke-width:1.33333" />
      <path
         id="path366"
         d="m -364.03329,-24.77518 c -2.61867,1.270667 -4.448,4.174667 -5.45334,8.049333 -1.05466,4.142667 -1.24266,9.2466668 -0.81733,14.428 0.84533,10.4146664 4.25467,21.263999 6.64,25.901333 0.62933,1.218666 1.352,2.342666 2.14667,3.372 0.86666,-0.557334 1.52666,-1.476 2.032,-2.685334 0.576,-1.341333 0.98266,-2.989333 1.23066,-4.946666 0.51067,-3.873333 0.42267,-8.942667 0.14667,-14.0719999 -0.59733,-10.2933331 -2.224,-21.5906661 -4.068,-26.5013331 -0.47733,-1.277333 -1.10267,-2.462666 -1.85733,-3.545333"
         style="fill:#6d381f;fill-opacity:1;fill-rule:nonzero;stroke:none;stroke-width:1.33333" />
      <path
         id="path367"
         d="m -336.52223,-47.76345 c -0.29734,0 -0.596,0.0067 -0.896,0.02 -1.576,0.09733 -3.18667,0.329334 -4.804,0.701333 -1.61734,0.373334 -3.16667,0.872 -4.62534,1.474667 -1.44933,0.637333 -2.79733,1.426667 -4.04533,2.272 -2.48533,1.726667 -4.56667,3.690667 -6.04667,6.024 -2.41333,3.74 -3.384,7.910666 -2.73466,11.978666 1.92666,0.334667 3.97733,1.289334 6.00666,2.642667 3.48667,2.304 7.02134,6.112 10.124,10.310666 3.11067,4.2093335 5.816,8.8733334 7.88667,13.12399997 2.076,4.25999993 3.53867,8.14799983 4.17467,10.68533303 0.244,0.978667 0.41466,1.950667 0.51866,2.912 0.74267,0.312 1.456,0.478667 2.13733,0.478667 0.30134,0 0.59467,-0.03333 0.88267,-0.09867 0.124,-0.02933 0.248,-0.064 0.368,-0.105333 -0.51867,-1.193334 -0.94267,-2.46 -1.25467,-3.796 -1.17733,-5.0786668 -1.82799,-16.4399999 -0.0947,-26.738666 0.85733,-5.129333 2.29066,-10.028 4.328,-13.786667 1.92,-3.525333 4.404,-5.875999 7.252,-6.463999 -1.32934,-3.512 -3.888,-6.478667 -7.37334,-8.590667 -2.34933,-1.433333 -5.08266,-2.296 -8.07199,-2.757333 -1.208,-0.173333 -2.45867,-0.286667 -3.732,-0.286667"
         style="fill:#a96bb4;fill-opacity:1;fill-rule:nonzero;stroke:none;stroke-width:1.33333" />
      <path
         id="path368"
         d="m -359.67396,-25.29345 c 0.15466,0.968 0.4,1.928 0.74133,2.877333 1.76,4.94 7.81333,14.6186667 14.00133,22.86533321 3.09867,4.09466659 6.30533,8.02399979 9.19467,10.65466679 1.452,1.332 2.82933,2.338666 4.13066,2.978666 0.216,0.112 0.43067,0.212 0.64267,0.3 -0.104,-0.962666 -0.27467,-1.933333 -0.51867,-2.913333 -0.636,-2.536 -2.1,-6.4239999 -4.17466,-10.6839998 -2.07067,-4.2519999 -4.776,-8.9159998 -7.88667,-13.1239992 -3.10267,-4.2 -6.63733,-8.006667 -10.12533,-10.312 -2.028,-1.352 -4.08,-2.306667 -6.00533,-2.642667"
         style="fill:#795c25;fill-opacity:1;fill-rule:nonzero;stroke:none;stroke-width:1.33333" />
      <path
         id="path369"
         d="m -316.00463,-36.26478 c -0.28,0 -0.56,0.01733 -0.84,0.05067 -0.168,0.02267 -0.33467,0.05067 -0.5,0.08533 0.46666,1.233333 0.78266,2.536 0.932,3.892 0.588,5.213333 -0.59867,16.56 -2.54134,26.6799994 -0.98666,5.05599989 -2.14533,9.9799998 -3.588,13.6119997 -0.72133,1.8359999 -1.52,3.3373329 -2.408,4.4906669 -0.78533,1.050666 -1.64933,1.778666 -2.62533,2.110666 1.47733,3.396 3.712,6.198667 6.25867,8.313333 1.73066,1.442667 3.608,2.522667 5.55066,3.141334 1.476,0.486666 3.00667,0.808 4.55734,0.808 0.49866,0 0.99733,-0.03467 1.49866,-0.104 0.516,-0.06667 1.02267,-0.169334 1.51867,-0.3 0.50133,-0.09867 0.992,-0.230667 1.47333,-0.392 0.96267,-0.322667 1.884,-0.766667 2.76267,-1.317334 0.87866,-0.545333 1.71333,-1.218666 2.504,-1.948 0.79066,-0.698666 1.53466,-1.492 2.22,-2.368 1.83733,-2.357333 3.288,-5.307999 4.04533,-8.583999 -0.56533,-0.07733 -1.108,-0.282667 -1.63467,-0.597334 -0.54,-0.292 -1.06266,-0.7 -1.57066,-1.213333 -1.01867,-1.0266666 -1.98,-2.4693332 -2.90667,-4.2186665 -0.924,-1.744 -1.81067,-3.8133333 -2.66533,-6.03733322 -0.85467,-2.19199998 -1.676,-4.57999988 -2.44934,-7.04933318 -3.076,-9.8786661 -5.52799,-21.0466661 -5.53066,-26.2933331 -10e-4,-0.5 0.02,-0.994666 0.064,-1.484 -0.12,-0.072 -0.24133,-0.14 -0.36267,-0.206666 -0.76,-0.417333 -1.52933,-0.728 -2.3,-0.918667 -0.488,-0.101333 -0.976,-0.152 -1.46266,-0.152"
         style="fill:#b9d873;fill-opacity:1;fill-rule:nonzero;stroke:none;stroke-width:1.33333" />
      <path
         id="path370"
         d="m -317.34516,-36.12931 c -2.848,0.588 -5.332,2.938667 -7.252,6.465333 -2.03734,3.757334 -3.47067,8.657333 -4.328,13.785333 -1.73334,10.2986668 -1.08267,21.6613331 0.0947,26.738666 0.312,1.336 0.736,2.602667 1.256,3.797334 0.976,-0.332 1.84,-1.06 2.624,-2.110667 0.888,-1.153333 1.688,-2.6546666 2.408,-4.4906666 1.44267,-3.6333332 2.60134,-8.55599977 3.588,-13.6119996 1.94267,-10.1199998 3.12934,-21.4679998 2.54267,-26.6813328 -0.15067,-1.356 -0.46667,-2.657333 -0.93333,-3.892"
         style="fill:#7b5b51;fill-opacity:1;fill-rule:nonzero;stroke:none;stroke-width:1.33333" />
      <path
         id="path371"
         d="m -290.46943,-51.32078 c -0.80934,0 -1.61067,0.03333 -2.39867,0.09867 -1.576,0.130667 -3.104,0.386667 -4.55867,0.761333 -1.45333,0.377333 -2.83466,0.850667 -4.12133,1.465333 -1.28667,0.645334 -2.48267,1.389334 -3.564,2.221334 -3.93333,3.009333 -6.35067,7.142666 -6.76667,11.786666 1.39467,0.826667 2.756,2.008 4.052,3.456 1.408,1.574667 2.73734,3.445333 3.96,5.554667 1.224,2.139999 2.34134,4.478666 3.336,6.903999 3.99867,9.6986668 5.92267,20.7559999 5.92134,26.0013331 0,0.1306666 -0.001,0.2626666 -0.004,0.3933333 0.74933,-5.4106665 3.856,-15.7426663 8.74266,-24.6213324 2.52667,-4.62 5.49333,-8.666667 8.66267,-11.52 1.58,-1.408 3.20933,-2.529333 4.81466,-3.165333 1.056,-0.402667 2.10667,-0.617334 3.12934,-0.617334 0.356,0 0.708,0.02667 1.05466,0.07867 -0.08,-3.770667 -1.496,-7.472 -4.09333,-10.552 -1.752,-2.065333 -4.024,-3.886666 -6.68667,-5.328 -2.66533,-1.417333 -5.74399,-2.283999 -9.03199,-2.714666 -0.82267,-0.101333 -1.64134,-0.172 -2.448,-0.202667 m -4.35334,61.2599987 c -0.0933,0.6666663 -0.21466,1.3240003 -0.36266,1.9666663 0.009,0.0013 0.02,0.0027 0.0293,0.004 0.128,0.01867 0.256,0.028 0.38267,0.032 -0.0453,-0.658666 -0.0627,-1.328 -0.0493,-2.0026663"
         style="fill:#fce89b;fill-opacity:1;fill-rule:nonzero;stroke:none;stroke-width:1.33333" />
      <path
         id="path372"
         d="m -311.87903,-34.98745 c -0.044,0.489334 -0.0653,0.984 -0.064,1.484 0.003,5.246667 2.45333,16.414666 5.53066,26.2933328 0.77333,2.4693333 1.59333,4.8573332 2.44933,7.04933318 0.85467,2.22399992 1.74134,4.29333322 2.66534,6.03733322 0.92533,1.7493333 1.888,3.1919999 2.90666,4.2186668 0.508,0.513333 1.03067,0.921333 1.56934,1.213333 0.528,0.314667 1.07066,0.52 1.636,0.597333 0.148,-0.642666 0.26933,-1.3 0.36266,-1.9666663 0.0133,-0.6626666 0.056,-1.3306666 0.13067,-2.0026666 0.0227,-0.196 0.048,-0.4013333 0.0787,-0.6146666 0.003,-0.1306667 0.004,-0.2626667 0.004,-0.3933334 0.003,-5.2453332 -1.92267,-16.3026662 -5.92134,-26.0013331 -0.99466,-2.425333 -2.112,-4.763999 -3.336,-6.903999 -1.22266,-2.109334 -2.55199,-3.98 -3.95999,-5.554667 -1.296,-1.448 -2.65734,-2.629333 -4.052,-3.456"
         style="fill:#b7c546;fill-opacity:1;fill-rule:nonzero;stroke:none;stroke-width:1.33333" />
      <path
         id="path373"
         d="m -268.20903,-32.52385 c 0.0293,1.329333 -0.108,2.668 -0.416,3.990667 -1.19067,5.142666 -6.06534,15.314666 -11.28534,24.3039991 -2.62666,4.50799993 -5.34133,8.6679998 -7.91066,11.6013331 -2.392,2.7413328 -4.68267,4.5733328 -6.82934,4.5733328 -0.04,0 -0.0827,-0.0013 -0.12266,-0.0027 0.25866,3.712 1.428,7.150666 3.13866,9.921333 1.16267,1.866666 2.55734,3.608 4.18,4.850666 0.80934,0.638667 1.68,1.142667 2.592,1.590667 0.904,0.476 1.86267,0.837333 2.876,1.070667 0.888,0.205333 1.78134,0.302666 2.676,0.302666 0.12667,0 0.252,-0.0013 0.37867,-0.0053 h 0.0733 c 0.988,0 1.96667,-0.07867 2.95067,-0.292 2.00133,-0.402667 4.02,-1.369333 5.87867,-2.522667 3.00533,-1.909333 5.78533,-4.816 7.67466,-8.469333 -0.91466,-1.302666 -1.61333,-3.128 -2.15466,-5.389333 -0.916,-3.8946665 -1.46934,-8.7399997 -1.76534,-13.92799961 -0.29466,-5.17466649 -0.34266,-10.62133339 -0.176,-15.41199939 0.16534,-4.78 0.548,-8.861333 1.18934,-11.413333 0.24266,-0.972 0.57066,-1.910667 0.976,-2.806667 -1.02267,-0.932 -2.16934,-1.577333 -3.42267,-1.868 -0.16533,-0.03867 -0.33333,-0.06933 -0.50133,-0.096"
         style="fill:#3d7fc6;fill-opacity:1;fill-rule:nonzero;stroke:none;stroke-width:1.33333" />
      <path
         id="path374"
         d="m -269.26369,-32.60198 c -1.024,0 -2.07467,0.214667 -3.13067,0.617334 -1.60533,0.634666 -3.23333,1.757333 -4.81333,3.165333 -3.16934,2.853333 -6.13734,6.9 -8.66267,11.519999 -4.88667,8.8786669 -7.99333,19.2106667 -8.744,24.6213332 -0.0173,0.8866666 -0.0893,1.7613333 -0.208,2.6173333 -0.0147,0.6746665 0.004,1.3439995 0.0493,2.0026665 0.04,0.0013 0.0827,0.0027 0.12267,0.0027 2.14667,0 4.43733,-1.832 6.82933,-4.5733335 2.56934,-2.9333332 5.284,-7.09333314 7.91067,-11.601333 5.22,-8.9893335 10.09467,-19.1613325 11.28533,-24.3026665 0.308,-1.322666 0.44534,-2.661333 0.416,-3.990666 -0.348,-0.052 -0.69866,-0.07867 -1.05466,-0.07867"
         style="fill:#3c7478;fill-opacity:1;fill-rule:nonzero;stroke:none;stroke-width:1.33333" />
      <path
         id="path375"
         d="m -294.61396,7.3224202 c -0.0293,0.212 -0.056,0.4173333 -0.0787,0.6146666 -0.0733,0.672 -0.116,1.34 -0.12933,2.0026667 0.11866,-0.8573334 0.18933,-1.7306667 0.208,-2.6173333"
         style="fill:#2c6236;fill-opacity:1;fill-rule:nonzero;stroke:none;stroke-width:1.33333" />
      <path
         id="path376"
         d="m -246.85489,-40.69451 c -3.06534,0 -5.976,0.582667 -8.53067,1.709333 -2.512,1.073334 -4.66933,2.593334 -6.348,4.482667 -1.03867,1.170667 -1.896,2.501333 -2.55067,3.942667 0.20267,0.184 0.40134,0.38 0.59334,0.585333 1.16133,1.281333 2.13733,2.997333 2.93733,4.956 1.59733,3.957333 2.49333,8.881333 2.732,14.157333 0.516,10.51466618 -1.39067,21.595999 -3.15067,26.535999 -0.33866,0.944 -0.736,1.849333 -1.18266,2.714667 0.65466,0.933333 1.42,1.596 2.31466,1.958666 0.11867,0.048 0.24,0.09067 0.364,0.125334 0.232,-1.289334 0.58,-2.584 1.05867,-3.862667 1.844,-4.910666 7.54267,-14.6053329 14.724,-22.3013327 3.58666,-3.8733332 7.45066,-7.0600003 11.224,-9.0506663 1.876,-0.978667 3.732,-1.668 5.44,-1.886667 0.40266,-0.04667 0.79733,-0.072 1.18533,-0.072 1.06933,0 2.08,0.184 3.004,0.572 0.84533,-3.676 0.38,-7.606666 -1.38133,-11.234666 -1.19334,-2.432 -2.94934,-4.754667 -5.17867,-6.805333 -2.244,-2.012 -5.016,-3.626667 -8.104,-4.850667 -3.07066,-1.129333 -6.18266,-1.676 -9.15066,-1.676"
         style="fill:#fecc22;fill-opacity:1;fill-rule:nonzero;stroke:none;stroke-width:1.33333" />
      <path
         id="path377"
         d="m -264.28463,-30.56038 c -0.40667,0.896 -0.73467,1.834667 -0.976,2.806667 -0.64134,2.553333 -1.024,6.633333 -1.18934,11.413333 -0.16666,4.792 -0.11866,10.2386662 0.176,15.41333278 0.29467,5.18666652 0.84934,10.03199972 1.76534,13.92666622 0.54,2.261333 1.24,4.086667 2.15333,5.389333 0.44667,-0.865333 0.844,-1.769333 1.18267,-2.713333 1.76,-4.94 3.66666,-16.02266624 3.15066,-26.537333 -0.23733,-5.276 -1.13333,-10.199999 -2.732,-14.157333 -0.8,-1.957333 -1.776,-3.674666 -2.93733,-4.955999 -0.192,-0.205334 -0.39067,-0.4 -0.59333,-0.585334"
         style="fill:#3d661a;fill-opacity:1;fill-rule:nonzero;stroke:none;stroke-width:1.33333" />
      <path
         id="path378"
         d="m -223.03983,-16.12811 c -0.29734,1.294667 -0.75734,2.558667 -1.38134,3.765333 -2.412,4.6920003 -9.63333,13.3693334 -16.89333,20.7999999 -3.65067,3.7253331 -7.30267,7.0933331 -10.51067,9.3080001 -2.52,1.756 -4.80266,2.884 -6.70133,2.884 -0.40133,0 -0.78533,-0.05067 -1.15067,-0.156 -0.65866,3.664 -0.36933,7.287999 0.604,10.395999 0.67334,2.081334 1.59467,4.121334 2.864,5.72 0.628,0.818667 1.348,1.518667 2.12,2.181333 0.76267,0.682667 1.60534,1.265334 2.53067,1.74 0.92667,0.473334 1.89333,0.816 2.89333,1.036 0.972,0.272 1.97734,0.424 3.00534,0.462667 0.18666,0.008 0.37333,0.012 0.56133,0.012 1.88267,0 3.86933,-0.418667 5.75867,-1.009333 3.39066,-1.118667 6.80266,-3.264 9.528,-6.345333 -0.0813,-0.210667 -0.156,-0.428 -0.22534,-0.653334 -0.40933,-1.386666 -0.572,-3.113333 -0.55733,-5.092 0.0547,-3.990666 0.724,-8.861333 1.69333,-13.943999 1.98,-10.1786667 5.09067,-21.1693331 7.552,-25.762666 0.47467,-0.890667 1.02134,-1.72 1.63334,-2.485334 -0.76534,-1.152 -1.71734,-2.056 -2.86134,-2.642666 -0.152,-0.07733 -0.30666,-0.149333 -0.46266,-0.214667"
         style="fill:#72b0e1;fill-opacity:1;fill-rule:nonzero;stroke:none;stroke-width:1.33333" />
      <path
         id="path379"
         d="m -226.04369,-16.69971 c -0.388,0 -0.784,0.02533 -1.18667,0.072 -1.708,0.218667 -3.564,0.908 -5.44,1.886667 -3.77333,1.990666 -7.636,5.177333 -11.224,9.0506662 -7.18,7.6959998 -12.88,17.3906658 -14.724,22.2999998 -0.47733,1.278666 -0.82667,2.574666 -1.05867,3.864 0.36534,0.105333 0.74934,0.156 1.15067,0.156 1.89867,0 4.18,-1.129334 6.70133,-2.884 3.208,-2.214667 6.86,-5.584 10.51067,-9.3080001 7.26,-7.4319998 14.48133,-16.1093329 16.89333,-20.7999999 0.624,-1.206666 1.084,-2.472 1.38134,-3.765333 -0.924,-0.388 -1.93467,-0.572 -3.004,-0.572"
         style="fill:#728d1e;fill-opacity:1;fill-rule:nonzero;stroke:none;stroke-width:1.33333" />
      <path
         id="path380"
         d="m -205.69996,-19.52651 c -1.136,0 -2.25067,0.092 -3.33067,0.266667 -4.36667,0.684 -8.10133,2.758666 -10.68533,5.988 0.152,0.229333 0.296,0.468 0.43333,0.716 0.8,1.546666 1.33467,3.4306663 1.63067,5.5279995 0.58266,4.2186666 0.24666,9.2133331 -0.82134,14.3999997 -2.06666,10.3119998 -6.61466,20.5879998 -9.52933,24.9506658 -0.55867,0.833334 -1.16533,1.614667 -1.80933,2.344 0.412,1.058667 0.98,1.905333 1.76133,2.48 0.104,0.076 0.212,0.145333 0.32267,0.210667 0.53866,-1.193334 1.192,-2.364 1.968,-3.489333 2.98666,-4.310667 10.88533,-12.326667 19.732,-18.052 4.38533,-2.834667 8.94533,-5.033333 13.08266,-6.0426665 1.508,-0.3813334 2.94,-0.5773334 4.26133,-0.5773334 2.124,0 3.96934,0.508 5.408,1.5746669 1.71067,-3.3533335 2.2,-7.2600001 1.40534,-11.23999996 -0.568,-2.63999994 -1.708,-5.31066654 -3.37334,-7.83333314 -1.648,-2.5413329 -3.972,-4.7333329 -6.65866,-6.6733329 -1.344,-0.970667 -2.75467,-1.776 -4.21734,-2.392 -1.452,-0.633334 -2.92,-1.132 -4.37866,-1.493333 -1.73867,-0.456 -3.492,-0.665334 -5.20133,-0.665334"
         style="fill:#f78baa;fill-opacity:1;fill-rule:nonzero;stroke:none;stroke-width:1.33333" />
      <path
         id="path381"
         d="m -219.71556,-13.27131 c -0.612,0.765333 -1.15867,1.594667 -1.63467,2.485333 -2.46,4.594667 -5.57067,15.5853334 -7.55067,25.764 -0.96933,5.081333 -1.63866,9.952 -1.69333,13.943999 -0.0147,1.978667 0.148,3.705334 0.55733,5.092 0.0693,0.225334 0.144,0.442667 0.22534,0.652 0.644,-0.729333 1.25066,-1.510666 1.80933,-2.344 2.91467,-4.361333 7.46267,-14.637333 9.52933,-24.9506657 1.06667,-5.1853332 1.40267,-10.1799997 0.82134,-14.3986663 -0.296,-2.0986666 -0.83067,-3.982667 -1.63067,-5.529333 -0.13733,-0.246667 -0.28267,-0.485333 -0.43333,-0.714667"
         style="fill:#6e6096;fill-opacity:1;fill-rule:nonzero;stroke:none;stroke-width:1.33333" />
      <path
         id="path382"
         d="m -183.27543,10.77042 c -0.60134,1.18 -1.35334,2.292 -2.25334,3.313333 -3.468,3.950667 -12.62266,10.668 -21.436,16.062667 -4.45066,2.730666 -8.82,5.114666 -12.48,6.488 -2.16533,0.798666 -4.132,1.313333 -5.76266,1.313333 -0.96934,0 -1.81867,-0.181333 -2.52134,-0.590667 -1.528,3.390667 -2.12666,6.970667 -1.92933,10.217333 0.188,4.533333 1.87067,8.413333 4.96,11.206667 1.61333,1.325333 3.37867,2.328 5.36667,2.897333 0.99466,0.284 2.03866,0.461333 3.12133,0.544 0.63733,0.05333 1.27467,0.08667 1.91867,0.08667 0.43866,0 0.88,-0.01467 1.33066,-0.05067 3.56934,-0.274667 7.4,-1.530667 10.79067,-3.857333 -0.184,-1.588 0.064,-3.532 0.62933,-5.758667 0.488,-1.912 1.21067,-4.024 2.08667,-6.256 0.86933,-2.221333 1.84933,-4.518666 2.94267,-6.870666 4.36666,-9.373333 10.06,-19.285333 13.58666,-23.169333 0.672,-0.742667 1.39734,-1.409333 2.17067,-1.997333 -0.44267,-1.322667 -1.13867,-2.434667 -2.124,-3.261333 -0.12933,-0.110667 -0.26,-0.216 -0.39733,-0.317334"
         style="fill:#2ab58c;fill-opacity:1;fill-rule:nonzero;stroke:none;stroke-width:1.33333" />
      <path
         id="path383"
         d="m -188.68436,9.1961502 c -1.32134,0 -2.752,0.196 -4.26,0.5773333 -4.13867,1.0093335 -8.69867,3.2079995 -13.084,6.0426665 -8.84667,5.725333 -16.744,13.741333 -19.732,18.052 -0.776,1.125333 -1.42934,2.296 -1.968,3.489333 0.70266,0.409333 1.552,0.589333 2.52,0.589333 1.632,0 3.59866,-0.513333 5.764,-1.312 3.66,-1.373333 8.028,-3.757333 12.48,-6.488 8.812,-5.394666 17.968,-12.111999 21.43466,-16.062666 0.90134,-1.022667 1.652,-2.134667 2.25467,-3.313333 -1.43867,-1.0666668 -3.284,-1.5746668 -5.40933,-1.5746668"
         style="fill:#29635d;fill-opacity:1;fill-rule:nonzero;stroke:none;stroke-width:1.33333" />
      <path
         id="path384"
         d="m -170.60356,11.04909 c -3.784,0 -7.29067,1.12 -10.15067,3.3 0.62,1.845333 0.74667,4.1 0.488,6.552 -0.21867,2.102667 -0.72133,4.358666 -1.44667,6.672 -0.73466,2.321333 -1.732,4.741333 -2.852,7.105333 -4.48933,9.489333 -11.38133,18.350666 -15.26533,21.875999 -0.748,0.677334 -1.53067,1.292 -2.34,1.846667 0.13333,1.14 0.48667,2.098667 1.104,2.844 0.084,0.09867 0.172,0.190667 0.26533,0.278667 0.80934,-1.025334 1.72534,-2.001334 2.752,-2.905334 3.932,-3.452 13.57734,-9.349333 23.52,-12.742666 4.872,-1.653333 9.81334,-2.704 14.052,-2.704 h 0.11733 0.0253 c 4.03466,0 7.244,1.092 9.108,3.314667 2.46533,-2.836 3.86933,-6.496 4.08266,-10.569333 0.176,-5.382667 -1.80266,-11.541333 -6.22933,-16.492 -2.136,-2.536 -4.72667,-4.454667 -7.39067,-5.848 -1.33066,-0.7 -2.68533,-1.264 -4.03999,-1.688 -1.364,-0.416 -2.77067,-0.649333 -4.12667,-0.768 -0.56267,-0.048 -1.12133,-0.072 -1.67333,-0.072"
         style="fill:#f152a1;fill-opacity:1;fill-rule:nonzero;stroke:none;stroke-width:1.33333" />
      <path
         id="path385"
         d="m -180.75463,14.34855 c -0.77334,0.588 -1.49867,1.254667 -2.17067,1.997333 -3.52533,3.884 -9.22,13.797333 -13.58533,23.169333 -1.09467,2.353333 -2.07467,4.649333 -2.94267,6.870667 -0.87733,2.232 -1.6,4.344 -2.088,6.257333 -0.56533,2.226667 -0.812,4.170666 -0.62933,5.757333 0.80933,-0.554667 1.592,-1.169333 2.34,-1.846667 3.884,-3.523999 10.776,-12.386666 15.26666,-21.875999 1.11867,-2.362667 2.116,-4.784 2.85067,-7.105333 0.72533,-2.312 1.228,-4.569333 1.44667,-6.672 0.26,-2.452 0.132,-4.705333 -0.488,-6.552"
         style="fill:#283a58;fill-opacity:1;fill-rule:nonzero;stroke:none;stroke-width:1.33333" />
      <path
         id="path386"
         d="m -151.22596,46.48655 c -0.86534,0.996 -1.86267,1.890667 -2.98534,2.665333 -4.312,2.986667 -14.864,7.318667 -24.69066,10.397334 -4.95734,1.555999 -9.804,2.835999 -13.69067,3.285333 -1.036,0.110666 -2.016,0.176 -2.92667,0.176 -2.296,0 -4.144,-0.408 -5.28266,-1.486667 -2.29867,2.914667 -3.728,6.230667 -4.34267,9.445333 -0.45467,2.214667 -0.52267,4.388 -0.152,6.402667 0.392,1.998666 1.02133,3.986666 2.26,5.662666 0.62,0.838667 1.308,1.6 2.02933,2.305334 0.74,0.692 1.56667,1.290666 2.468,1.802666 1.83734,1 3.84,1.730667 6.02667,2.105333 1.132,0.186667 2.31067,0.284 3.51467,0.284 2.57866,0 5.28,-0.445333 7.89733,-1.417333 0.0333,-0.226667 0.0773,-0.457333 0.132,-0.693333 0.28133,-1.408 0.93733,-3.002667 1.872,-4.736 1.848,-3.449333 4.876,-7.52 8.07333,-11.518666 6.492,-8.024 14.40534,-16.258667 18.768,-19.172 0.836,-0.561333 1.708,-1.034667 2.608,-1.421333 -0.0987,-1.398667 -0.51066,-2.644 -1.26666,-3.685333 -0.1,-0.138667 -0.20267,-0.270667 -0.312,-0.401334"
         style="fill:#87cda5;fill-opacity:1;fill-rule:nonzero;stroke:none;stroke-width:1.33333" />
      <path
         id="path387"
         d="m -160.47729,43.17149 c -4.23867,0 -9.18,1.050667 -14.052,2.704 -9.94267,3.393333 -19.58667,9.290667 -23.52,12.742666 -1.02667,0.905334 -1.94267,1.88 -2.752,2.906667 1.13733,1.077333 2.98533,1.485333 5.28266,1.485333 0.90934,0 1.89067,-0.06533 2.92534,-0.176 3.88666,-0.449333 8.73466,-1.729333 13.692,-3.285333 9.82666,-3.077333 20.37866,-7.409333 24.68933,-10.397333 1.12266,-0.774667 2.12,-1.669333 2.98533,-2.665333 -1.864,-2.222667 -5.07333,-3.314667 -9.108,-3.314667 h -0.0253 -0.11733"
         style="fill:#804268;fill-opacity:1;fill-rule:nonzero;stroke:none;stroke-width:1.33333" />
      <path
         id="path388"
         d="m -143.31849,49.28989 c -2.192,0 -4.32934,0.425334 -6.32934,1.284 0.02,0.277333 0.0253,0.56 0.0213,0.849333 -0.012,1.733334 -0.41334,3.638667 -1.13067,5.622667 -1.39467,3.950667 -4.18533,8.285333 -7.51867,12.332 -6.628,8.103999 -15.476,15.030666 -20.128,17.522666 -0.884,0.472 -1.78533,0.873333 -2.69733,1.213333 -0.17333,1.148 -0.072,2.165333 0.36933,3.028 0.0587,0.113333 0.12267,0.224 0.192,0.332 1.02934,-0.796 2.15334,-1.518666 3.372,-2.148 4.63867,-2.386666 15.488,-5.794666 25.90134,-6.64 1.684,-0.138666 3.35866,-0.212 4.99466,-0.212 3.40134,0 6.63734,0.317334 9.43333,1.029334 3.876,1.005333 6.77867,2.834666 8.04934,5.453333 3.07866,-2.148 5.32533,-5.357333 6.512,-9.254667 0.82666,-2.636 0.98533,-5.493333 0.70133,-8.505333 -0.16,-1.496 -0.42133,-3.04 -0.88,-4.552 -0.47867,-1.502666 -1.096,-3.006666 -1.852,-4.485333 -0.75733,-1.476 -1.61733,-2.854666 -2.55733,-4.12 -0.99334,-1.237333 -2.068,-2.361333 -3.196,-3.36 -2.27467,-1.988 -4.684,-3.525333 -7.32267,-4.377333 -1.98266,-0.673333 -3.98,-1.012 -5.93466,-1.012"
         style="fill:#994198;fill-opacity:1;fill-rule:nonzero;stroke:none;stroke-width:1.33333" />
      <path
         id="path389"
         d="m -149.64783,50.57375 c -0.9,0.386667 -1.77067,0.86 -2.608,1.42 -4.36267,2.914667 -12.276,11.149333 -18.76667,19.172 -3.19867,3.998666 -6.22533,8.069333 -8.07467,11.519999 -0.93333,1.733334 -1.58933,3.326667 -1.87066,4.736 -0.0547,0.234667 -0.0987,0.465334 -0.13334,0.692 0.912,-0.34 1.81467,-0.741333 2.69734,-1.213333 4.652,-2.492 13.5,-9.418666 20.128,-17.521333 3.33333,-4.048 6.124,-8.382666 7.51866,-12.333333 0.71734,-1.984 1.11867,-3.889333 1.13067,-5.622667 0.005,-0.289333 -0.001,-0.571999 -0.0213,-0.849333"
         style="fill:#513462;fill-opacity:1;fill-rule:nonzero;stroke:none;stroke-width:1.33333" />
      <path
         id="path390"
         d="m -128.78849,88.95655 c -1.08267,0.754667 -2.268,1.38 -3.54534,1.857333 -4.91066,1.844 -16.208,3.470667 -26.50133,4.068 -2.46533,0.133334 -4.91867,0.221334 -7.22933,0.221334 -2.49734,0 -4.83067,-0.102667 -6.84267,-0.368 -1.95733,-0.248 -3.60533,-0.654667 -4.94667,-1.230667 -1.20933,-0.505333 -2.128,-1.165333 -2.68533,-2.030667 -2.93333,2.262667 -5.10533,5.12 -6.52667,8.105334 -0.97466,2.030663 -1.56266,4.114663 -1.68666,6.148003 -0.16134,2.052 0.0147,4.10666 0.80133,6.032 1.40933,3.89333 4.648,6.75866 8.668,8.576 2.04,0.892 4.34267,1.488 6.77333,1.71466 0.72,0.068 1.448,0.10267 2.184,0.10267 0.78667,0 1.57867,-0.04 2.38,-0.12667 0.088,-0.21066 0.18667,-0.42666 0.29867,-0.64266 0.64133,-1.3 1.648,-2.67867 2.98,-4.13067 2.62933,-2.888 6.56,-6.09467 10.65467,-9.19467 8.24666,-6.18666 17.924,-12.239997 22.864,-14.00133 0.948,-0.34 1.91066,-0.585333 2.87866,-0.74 0.24,-1.381333 0.16267,-2.697333 -0.31466,-3.894666 -0.0627,-0.158667 -0.13067,-0.313334 -0.204,-0.465334"
         style="fill:#b6dc34;fill-opacity:1;fill-rule:nonzero;stroke:none;stroke-width:1.33333" />
      <path
         id="path391"
         d="m -146.27156,82.47349 c -1.63734,0 -3.31067,0.07467 -4.99467,0.212 -10.41467,0.845333 -21.26267,4.254667 -25.90133,6.641333 -1.21867,0.628 -2.34267,1.350667 -3.372,2.146667 0.55866,0.865333 1.476,1.526667 2.68533,2.030667 1.34133,0.576 2.99067,0.984 4.94667,1.230666 2.012,0.266667 4.34533,0.369334 6.84266,0.369334 2.312,0 4.76534,-0.08933 7.22934,-0.221334 10.29333,-0.598666 21.59199,-2.224 26.50133,-4.069333 1.27733,-0.477333 2.464,-1.101333 3.54533,-1.857333 -1.27067,-2.618667 -4.17467,-4.448 -8.04933,-5.453334 -2.796,-0.711999 -6.032,-1.029333 -9.43333,-1.029333"
         style="fill:#6d381f;fill-opacity:1;fill-rule:nonzero;stroke:none;stroke-width:1.33333" />
      <path
         id="path392"
         d="m -125.78849,93.11935 c -0.828,0 -1.65734,0.06533 -2.48134,0.196 -0.336,1.926667 -1.29066,3.977333 -2.644,6.005333 -2.304,3.489337 -6.112,7.022667 -10.31066,10.125337 -4.208,3.11066 -8.872,5.816 -13.124,7.88666 -4.26,2.076 -8.148,3.53867 -10.68534,4.17467 -0.97866,0.24533 -1.94933,0.416 -2.912,0.51867 -0.448,1.06933 -0.596,2.07733 -0.37866,3.02 0.028,0.12533 0.064,0.248 0.10533,0.36933 1.192,-0.51867 2.45867,-0.944 3.79467,-1.256 2.852,-0.66133 7.68533,-1.156 13.19866,-1.156 4.30534,0 9.024,0.30267 13.54,1.06267 5.12934,0.85733 10.03067,2.28933 13.78667,4.32666 3.52667,1.92134 5.87466,4.404 6.46533,7.252 3.51067,-1.33066 6.47733,-3.888 8.58933,-7.37466 1.43334,-2.34667 2.29734,-5.08134 2.75867,-8.06934 0.21333,-1.492 0.33467,-3.04933 0.26667,-4.62933 -0.0987,-1.576 -0.33067,-3.18533 -0.70267,-4.804 -0.37333,-1.61733 -0.872,-3.16667 -1.47467,-4.624 -0.63733,-1.44933 -1.42533,-2.79867 -2.27066,-4.04667 -1.728,-2.48533 -3.69067,-4.566663 -6.02534,-6.046663 -2.98133,-1.924 -6.23733,-2.930667 -9.49599,-2.930667"
         style="fill:#a96bb4;fill-opacity:1;fill-rule:nonzero;stroke:none;stroke-width:1.33333" />
      <path
         id="path393"
         d="m -128.27023,93.31589 c -0.968,0.154667 -1.92934,0.401334 -2.87734,0.741333 -4.94,1.761334 -14.61866,7.813337 -22.86533,14.001337 -4.09467,3.1 -8.024,6.30533 -10.65467,9.19333 -1.332,1.452 -2.33866,2.83067 -2.97866,4.132 -0.112,0.216 -0.21067,0.43067 -0.3,0.64133 0.96266,-0.10266 1.93333,-0.27333 2.91333,-0.51733 2.536,-0.636 6.424,-2.1 10.684,-4.17467 4.252,-2.07066 8.916,-4.776 13.124,-7.88666 4.2,-3.10267 8.00667,-6.63734 10.312,-10.125337 1.352,-2.029333 2.30667,-4.08 2.64267,-6.005333"
         style="fill:#795c25;fill-opacity:1;fill-rule:nonzero;stroke:none;stroke-width:1.33333" />
      <path
         id="path394"
         d="m -168.21943,125.41495 c -3.39734,1.476 -6.19867,3.71067 -8.31334,6.25733 -1.44266,1.732 -2.524,3.60934 -3.14266,5.552 -0.64267,1.948 -0.99467,3.99334 -0.70267,6.05467 0.0667,0.51733 0.16933,1.02267 0.29867,1.52 0.1,0.50133 0.23066,0.992 0.392,1.47333 0.324,0.96134 0.768,1.884 1.31866,2.76267 0.54534,0.87867 1.22,1.71333 1.948,2.50267 0.69734,0.79333 1.49067,1.53466 2.36667,2.22133 2.35867,1.83733 5.308,3.288 8.58533,4.04533 0.076,-0.56533 0.28134,-1.108 0.59734,-1.636 0.29066,-0.53866 0.69866,-1.06133 1.21333,-1.56933 1.02533,-1.01867 2.468,-1.98133 4.21733,-2.90667 1.74533,-0.924 3.81333,-1.81066 6.03733,-2.66533 2.19334,-0.856 4.58134,-1.676 7.04934,-2.44933 9.88,-3.07734 21.048,-5.528 26.292,-5.53067 h 0.0413 c 0.48667,0 0.968,0.0213 1.444,0.0627 0.072,-0.11867 0.14133,-0.24 0.208,-0.36134 0.416,-0.76 0.72667,-1.52933 0.91733,-2.30133 0.16,-0.768 0.19734,-1.53733 0.10134,-2.30133 -0.0213,-0.168 -0.0507,-0.33467 -0.084,-0.50134 -1.236,0.46667 -2.53734,0.784 -3.89334,0.93334 -0.908,0.10266 -2.004,0.15066 -3.24533,0.15066 -5.884,0 -15.07733,-1.088 -23.43467,-2.692 -5.056,-0.98666 -9.97866,-2.14666 -13.612,-3.58933 -1.83599,-0.72133 -3.33733,-1.51867 -4.49066,-2.40667 -1.05067,-0.78533 -1.77867,-1.65066 -2.10933,-2.62533"
         style="fill:#b9d873;fill-opacity:1;fill-rule:nonzero;stroke:none;stroke-width:1.33333" />
      <path
         id="path395"
         d="m -120.02023,141.04642 h -0.0413 c -5.24533,0.003 -16.41333,2.45467 -26.292,5.53067 -2.46933,0.77466 -4.85733,1.59466 -7.04933,2.44933 -2.224,0.85467 -4.29333,1.74133 -6.03733,2.66533 -1.74934,0.92667 -3.192,1.888 -4.21867,2.90667 -0.51333,0.508 -0.92133,1.032 -1.21333,1.57067 -0.31467,0.52666 -0.52,1.07066 -0.59734,1.63466 0.644,0.14934 1.3,0.27067 1.96667,0.364 0.66267,0.0133 1.33067,0.056 2.00267,0.12934 0.196,0.0227 0.40133,0.0493 0.61466,0.0787 0.13067,0.003 0.26267,0.004 0.39334,0.004 h 0.0107 c 5.24934,0 16.29867,-1.924 25.99067,-5.92 2.42533,-0.996 4.764,-2.112 6.904,-3.33733 2.10933,-1.22267 3.98,-2.55067 5.556,-3.95867 1.44667,-1.296 2.62667,-2.65733 3.45467,-4.05333 -0.476,-0.0413 -0.95867,-0.064 -1.444,-0.064"
         style="fill:#b7c546;fill-opacity:1;fill-rule:nonzero;stroke:none;stroke-width:1.33333" />
      <path
         id="path396"
         d="m -163.50329,158.16749 c 0.85733,0.11867 1.73066,0.19067 2.61733,0.208 -0.212,-0.0293 -0.41867,-0.056 -0.61467,-0.0773 -0.672,-0.0747 -1.34,-0.11734 -2.00266,-0.13067"
         style="fill:#2c6236;fill-opacity:1;fill-rule:nonzero;stroke:none;stroke-width:1.33333" />
      <path
         id="path397"
         d="m -151.22596,123.00349 c -5.51334,0 -10.34667,0.49467 -13.19734,1.156 -1.336,0.312 -2.604,0.73733 -3.796,1.256 0.33067,0.97467 1.05867,1.83867 2.10934,2.624 1.15333,0.888 2.65466,1.68667 4.49066,2.408 3.63334,1.44267 8.556,2.60133 13.612,3.588 8.35733,1.60533 17.55067,2.69333 23.43467,2.69333 1.24133,0 2.33733,-0.048 3.24533,-0.15066 1.35467,-0.15067 2.65733,-0.46667 3.89333,-0.93467 -0.59066,-2.84667 -2.93866,-5.33067 -6.46533,-7.25067 -3.756,-2.03733 -8.65733,-3.47066 -13.78667,-4.32666 -4.51466,-0.76 -9.23466,-1.06267 -13.53999,-1.06267"
         style="fill:#7b5b51;fill-opacity:1;fill-rule:nonzero;stroke:none;stroke-width:1.33333" />
    </g>
  </g>
</svg>
