<svg xmlns="http://www.w3.org/2000/svg" width="600" height="400" viewBox="0 0 600 400">
  <defs>
    <linearGradient id="bg" x1="0%" y1="0%" x2="100%" y2="100%">
      <stop offset="0%" style="stop-color:#18181b"/>
      <stop offset="100%" style="stop-color:#27272a"/>
    </linearGradient>
  </defs>
  <rect width="600" height="400" fill="url(#bg)" rx="12"/>
  <!-- Header -->
  <rect x="0" y="0" width="600" height="48" fill="#09090b" rx="12"/>
  <rect x="0" y="12" width="600" height="36" fill="#09090b"/>
  <!-- Sidebar -->
  <rect x="0" y="48" width="180" height="352" fill="#09090b"/>
  <!-- Conversation list items -->
  <rect x="10" y="60" width="160" height="50" rx="8" fill="#27272a"/>
  <circle cx="35" cy="85" r="14" fill="#d946ef" opacity="0.6"/>
  <rect x="56" y="76" width="80" height="8" rx="4" fill="#e4e4e7"/>
  <rect x="56" y="90" width="100" height="6" rx="3" fill="#71717a"/>
  <rect x="10" y="120" width="160" height="50" rx="8" fill="#18181b"/>
  <circle cx="35" cy="145" r="14" fill="#2563eb" opacity="0.6"/>
  <rect x="56" y="136" width="90" height="8" rx="4" fill="#a1a1aa"/>
  <rect x="56" y="150" width="70" height="6" rx="3" fill="#52525b"/>
  <rect x="10" y="180" width="160" height="50" rx="8" fill="#18181b"/>
  <circle cx="35" cy="205" r="14" fill="#06b6d4" opacity="0.6"/>
  <rect x="56" y="196" width="70" height="8" rx="4" fill="#a1a1aa"/>
  <rect x="56" y="210" width="90" height="6" rx="3" fill="#52525b"/>
  <!-- Chat area -->
  <!-- Incoming message -->
  <rect x="210" y="80" width="220" height="48" rx="16" fill="#3f3f46"/>
  <rect x="225" y="94" width="160" height="8" rx="4" fill="#d4d4d8"/>
  <rect x="225" y="110" width="100" height="6" rx="3" fill="#a1a1aa"/>
  <!-- Outgoing message -->
  <rect x="340" y="150" width="220" height="48" rx="16" fill="#d946ef"/>
  <rect x="355" y="164" width="180" height="8" rx="4" fill="white" opacity="0.9"/>
  <rect x="355" y="180" width="120" height="6" rx="3" fill="white" opacity="0.6"/>
  <!-- Incoming message -->
  <rect x="210" y="220" width="180" height="48" rx="16" fill="#3f3f46"/>
  <rect x="225" y="234" width="140" height="8" rx="4" fill="#d4d4d8"/>
  <rect x="225" y="250" width="80" height="6" rx="3" fill="#a1a1aa"/>
  <!-- Outgoing message -->
  <rect x="370" y="290" width="190" height="36" rx="16" fill="#d946ef"/>
  <rect x="385" y="302" width="140" height="8" rx="4" fill="white" opacity="0.9"/>
  <!-- Input bar -->
  <rect x="195" y="355" width="385" height="36" rx="18" fill="#3f3f46"/>
  <rect x="215" y="367" width="100" height="10" rx="5" fill="#71717a"/>
</svg>