<svg xmlns="http://www.w3.org/2000/svg" width="600" height="400" viewBox="0 0 600 400">
  <defs>
    <linearGradient id="bg" x1="0%" y1="0%" x2="100%" y2="100%">
      <stop offset="0%" style="stop-color:#18181b"/>
      <stop offset="100%" style="stop-color:#27272a"/>
    </linearGradient>
  </defs>
  <rect width="600" height="400" fill="url(#bg)" rx="12"/>
  <!-- Header -->
  <rect x="0" y="0" width="600" height="48" fill="#09090b" rx="12"/>
  <rect x="0" y="12" width="600" height="36" fill="#09090b"/>
  <rect x="20" y="16" width="100" height="14" rx="7" fill="#a855f7"/>
  <!-- Tag cloud -->
  <rect x="40" y="80" width="90" height="36" rx="18" fill="#7c3aed" opacity="0.7"/>
  <rect x="145" y="80" width="120" height="36" rx="18" fill="#2563eb" opacity="0.7"/>
  <rect x="280" y="80" width="80" height="36" rx="18" fill="#d946ef" opacity="0.7"/>
  <rect x="375" y="80" width="110" height="36" rx="18" fill="#06b6d4" opacity="0.7"/>
  <rect x="60" y="130" width="110" height="36" rx="18" fill="#06b6d4" opacity="0.6"/>
  <rect x="185" y="130" width="140" height="36" rx="18" fill="#d946ef" opacity="0.6"/>
  <rect x="340" y="130" width="100" height="36" rx="18" fill="#7c3aed" opacity="0.6"/>
  <rect x="80" y="180" width="130" height="36" rx="18" fill="#2563eb" opacity="0.5"/>
  <rect x="225" y="180" width="90" height="36" rx="18" fill="#a855f7" opacity="0.5"/>
  <rect x="330" y="180" width="120" height="36" rx="18" fill="#06b6d4" opacity="0.5"/>
  <!-- Bottom content cards -->
  <rect x="30" y="240" width="260" height="130" rx="12" fill="#27272a"/>
  <rect x="310" y="240" width="260" height="130" rx="12" fill="#27272a"/>
  <rect x="50" y="260" width="140" height="12" rx="6" fill="#e4e4e7"/>
  <rect x="50" y="282" width="200" height="8" rx="4" fill="#52525b"/>
  <rect x="50" y="298" width="180" height="8" rx="4" fill="#52525b"/>
  <rect x="330" y="260" width="120" height="12" rx="6" fill="#e4e4e7"/>
  <rect x="330" y="282" width="210" height="8" rx="4" fill="#52525b"/>
  <rect x="330" y="298" width="170" height="8" rx="4" fill="#52525b"/>
</svg>