<svg xmlns="http://www.w3.org/2000/svg" width="600" height="400" viewBox="0 0 600 400">
  <defs>
    <linearGradient id="bg" x1="0%" y1="0%" x2="100%" y2="100%">
      <stop offset="0%" style="stop-color:#18181b"/>
      <stop offset="100%" style="stop-color:#27272a"/>
    </linearGradient>
  </defs>
  <rect width="600" height="400" fill="url(#bg)" rx="12"/>
  <!-- Header -->
  <rect x="0" y="0" width="600" height="48" fill="#09090b" rx="12"/>
  <rect x="0" y="12" width="600" height="36" fill="#09090b"/>
  <!-- Tag title with # -->
  <text x="30" y="92" font-family="system-ui" font-size="24" fill="#d946ef" font-weight="600">#</text>
  <rect x="50" y="76" width="140" height="18" rx="9" fill="#e4e4e7"/>
  <rect x="30" y="104" width="200" height="10" rx="5" fill="#71717a"/>
  <!-- Post cards -->
  <rect x="30" y="140" width="540" height="110" rx="10" fill="#27272a"/>
  <circle cx="60" cy="168" r="18" fill="#7c3aed" opacity="0.6"/>
  <rect x="88" y="158" width="100" height="10" rx="5" fill="#e4e4e7"/>
  <rect x="88" y="176" width="60" height="8" rx="4" fill="#71717a"/>
  <rect x="88" y="200" width="440" height="8" rx="4" fill="#a1a1aa"/>
  <rect x="88" y="216" width="380" height="8" rx="4" fill="#a1a1aa"/>
  <!-- Second post -->
  <rect x="30" y="265" width="540" height="110" rx="10" fill="#27272a"/>
  <circle cx="60" cy="293" r="18" fill="#2563eb" opacity="0.6"/>
  <rect x="88" y="283" width="120" height="10" rx="5" fill="#e4e4e7"/>
  <rect x="88" y="301" width="70" height="8" rx="4" fill="#71717a"/>
  <rect x="88" y="325" width="420" height="8" rx="4" fill="#a1a1aa"/>
  <rect x="88" y="341" width="350" height="8" rx="4" fill="#a1a1aa"/>
</svg>